%TF.GenerationSoftware,KiCad,Pcbnew,10.0.6*%
%TF.CreationDate,2026-09-09T08:24:42+08:00*%
%TF.ProjectId,mode2-motor,6d6f6465-322d-46d6-9f74-6f722e6b6963,rev?*%
%TF.SameCoordinates,Original*%
%TF.FileFunction,Legend,Bot*%
%TF.FilePolarity,Positive*%
%FSLAX46Y46*%
G04 Gerber Fmt 4.6, Leading zero omitted, Abs format (unit mm)*
G04 Created by KiCad (PCBNEW 10.0.6) date 2026-09-09 08:24:42*
%MOMM*%
%LPD*%
G01*
G04 APERTURE LIST*
%ADD10C,0.120000*%
G04 APERTURE END LIST*
D10*
X3147618Y-23363855D02*
X3147618Y-22563855D01*
X3147618Y-22563855D02*
X2690475Y-23363855D01*
X2690475Y-23363855D02*
X2690475Y-22563855D01*
X2157142Y-22563855D02*
X2004761Y-22563855D01*
X2004761Y-22563855D02*
X1928571Y-22601950D01*
X1928571Y-22601950D02*
X1852380Y-22678140D01*
X1852380Y-22678140D02*
X1814285Y-22830521D01*
X1814285Y-22830521D02*
X1814285Y-23097188D01*
X1814285Y-23097188D02*
X1852380Y-23249569D01*
X1852380Y-23249569D02*
X1928571Y-23325760D01*
X1928571Y-23325760D02*
X2004761Y-23363855D01*
X2004761Y-23363855D02*
X2157142Y-23363855D01*
X2157142Y-23363855D02*
X2233333Y-23325760D01*
X2233333Y-23325760D02*
X2309523Y-23249569D01*
X2309523Y-23249569D02*
X2347619Y-23097188D01*
X2347619Y-23097188D02*
X2347619Y-22830521D01*
X2347619Y-22830521D02*
X2309523Y-22678140D01*
X2309523Y-22678140D02*
X2233333Y-22601950D01*
X2233333Y-22601950D02*
X2157142Y-22563855D01*
X4314285Y-2692426D02*
X3933333Y-2692426D01*
X4314285Y-2540045D02*
X3933333Y-2540045D01*
X4314285Y-2425760D02*
X4314285Y-3263855D01*
X4161904Y-2959093D02*
X3857142Y-2959093D01*
X4123809Y-2768617D02*
X4009523Y-2882902D01*
X3971428Y-2730521D02*
X4085714Y-2806712D01*
X3895237Y-2768617D02*
X4085714Y-2959093D01*
X3895237Y-3035283D02*
X3933333Y-3187664D01*
X3819047Y-2959093D02*
X3476190Y-2959093D01*
X3819047Y-2768617D02*
X3704761Y-2882902D01*
X3742856Y-3149569D02*
X3552380Y-3149569D01*
X3742856Y-3035283D02*
X3742856Y-3263855D01*
X3742856Y-2692426D02*
X3323809Y-2692426D01*
X3742856Y-2540045D02*
X3323809Y-2540045D01*
X3742856Y-2425760D02*
X3742856Y-2692426D01*
X3666666Y-2730521D02*
X3780952Y-2806712D01*
X3590476Y-2768617D02*
X3742856Y-2959093D01*
X3552380Y-3035283D02*
X3552380Y-3149569D01*
X3476190Y-3263855D02*
X3323809Y-3263855D01*
X4314285Y-2425760D02*
X3895237Y-2425760D01*
X3895237Y-2425760D02*
X3895237Y-2692426D01*
X3742856Y-2425760D02*
X3323809Y-2425760D01*
X3323809Y-2425760D02*
X3323809Y-3263855D01*
X4085714Y-3035283D02*
X4085714Y-3149569D01*
X4085714Y-3149569D02*
X3895237Y-3149569D01*
X3895237Y-3149569D02*
X4009523Y-3263855D01*
X5668570Y-23287664D02*
X5706666Y-23325760D01*
X5706666Y-23325760D02*
X5820951Y-23363855D01*
X5820951Y-23363855D02*
X5897142Y-23363855D01*
X5897142Y-23363855D02*
X6011428Y-23325760D01*
X6011428Y-23325760D02*
X6087618Y-23249569D01*
X6087618Y-23249569D02*
X6125713Y-23173379D01*
X6125713Y-23173379D02*
X6163809Y-23020998D01*
X6163809Y-23020998D02*
X6163809Y-22906712D01*
X6163809Y-22906712D02*
X6125713Y-22754331D01*
X6125713Y-22754331D02*
X6087618Y-22678140D01*
X6087618Y-22678140D02*
X6011428Y-22601950D01*
X6011428Y-22601950D02*
X5897142Y-22563855D01*
X5897142Y-22563855D02*
X5820951Y-22563855D01*
X5820951Y-22563855D02*
X5706666Y-22601950D01*
X5706666Y-22601950D02*
X5668570Y-22640045D01*
X5173332Y-22563855D02*
X5020951Y-22563855D01*
X5020951Y-22563855D02*
X4944761Y-22601950D01*
X4944761Y-22601950D02*
X4868570Y-22678140D01*
X4868570Y-22678140D02*
X4830475Y-22830521D01*
X4830475Y-22830521D02*
X4830475Y-23097188D01*
X4830475Y-23097188D02*
X4868570Y-23249569D01*
X4868570Y-23249569D02*
X4944761Y-23325760D01*
X4944761Y-23325760D02*
X5020951Y-23363855D01*
X5020951Y-23363855D02*
X5173332Y-23363855D01*
X5173332Y-23363855D02*
X5249523Y-23325760D01*
X5249523Y-23325760D02*
X5325713Y-23249569D01*
X5325713Y-23249569D02*
X5363809Y-23097188D01*
X5363809Y-23097188D02*
X5363809Y-22830521D01*
X5363809Y-22830521D02*
X5325713Y-22678140D01*
X5325713Y-22678140D02*
X5249523Y-22601950D01*
X5249523Y-22601950D02*
X5173332Y-22563855D01*
X4487618Y-23363855D02*
X4487618Y-22563855D01*
X4487618Y-22563855D02*
X4220952Y-23135283D01*
X4220952Y-23135283D02*
X3954285Y-22563855D01*
X3954285Y-22563855D02*
X3954285Y-23363855D01*
X6614285Y-2730521D02*
X6233333Y-2730521D01*
X6614285Y-2540045D02*
X6233333Y-2540045D01*
X6614285Y-2425760D02*
X6614285Y-3263855D01*
X6461904Y-2997188D02*
X5776190Y-2997188D01*
X6423809Y-2806712D02*
X5814285Y-2806712D01*
X6042856Y-2730521D02*
X5623809Y-2730521D01*
X6042856Y-2540045D02*
X5623809Y-2540045D01*
X6042856Y-2425760D02*
X6042856Y-2692426D01*
X6004761Y-2806712D02*
X6004761Y-3263855D01*
X5814285Y-3263855D02*
X5623809Y-3263855D01*
X6614285Y-2425760D02*
X6233333Y-2425760D01*
X6233333Y-2425760D02*
X6233333Y-2692426D01*
X6042856Y-2425760D02*
X5623809Y-2425760D01*
X5623809Y-2425760D02*
X5623809Y-3263855D01*
X6271428Y-2844807D02*
X6271428Y-3111474D01*
X6271428Y-3111474D02*
X6347618Y-3225760D01*
X6347618Y-3225760D02*
X6423809Y-3263855D01*
X10247618Y-23363855D02*
X10247618Y-22563855D01*
X10247618Y-22563855D02*
X9790475Y-23363855D01*
X9790475Y-23363855D02*
X9790475Y-22563855D01*
X9257142Y-22563855D02*
X9104761Y-22563855D01*
X9104761Y-22563855D02*
X9028571Y-22601950D01*
X9028571Y-22601950D02*
X8952380Y-22678140D01*
X8952380Y-22678140D02*
X8914285Y-22830521D01*
X8914285Y-22830521D02*
X8914285Y-23097188D01*
X8914285Y-23097188D02*
X8952380Y-23249569D01*
X8952380Y-23249569D02*
X9028571Y-23325760D01*
X9028571Y-23325760D02*
X9104761Y-23363855D01*
X9104761Y-23363855D02*
X9257142Y-23363855D01*
X9257142Y-23363855D02*
X9333333Y-23325760D01*
X9333333Y-23325760D02*
X9409523Y-23249569D01*
X9409523Y-23249569D02*
X9447619Y-23097188D01*
X9447619Y-23097188D02*
X9447619Y-22830521D01*
X9447619Y-22830521D02*
X9409523Y-22678140D01*
X9409523Y-22678140D02*
X9333333Y-22601950D01*
X9333333Y-22601950D02*
X9257142Y-22563855D01*
X12768570Y-23287664D02*
X12806666Y-23325760D01*
X12806666Y-23325760D02*
X12920951Y-23363855D01*
X12920951Y-23363855D02*
X12997142Y-23363855D01*
X12997142Y-23363855D02*
X13111428Y-23325760D01*
X13111428Y-23325760D02*
X13187618Y-23249569D01*
X13187618Y-23249569D02*
X13225713Y-23173379D01*
X13225713Y-23173379D02*
X13263809Y-23020998D01*
X13263809Y-23020998D02*
X13263809Y-22906712D01*
X13263809Y-22906712D02*
X13225713Y-22754331D01*
X13225713Y-22754331D02*
X13187618Y-22678140D01*
X13187618Y-22678140D02*
X13111428Y-22601950D01*
X13111428Y-22601950D02*
X12997142Y-22563855D01*
X12997142Y-22563855D02*
X12920951Y-22563855D01*
X12920951Y-22563855D02*
X12806666Y-22601950D01*
X12806666Y-22601950D02*
X12768570Y-22640045D01*
X12273332Y-22563855D02*
X12120951Y-22563855D01*
X12120951Y-22563855D02*
X12044761Y-22601950D01*
X12044761Y-22601950D02*
X11968570Y-22678140D01*
X11968570Y-22678140D02*
X11930475Y-22830521D01*
X11930475Y-22830521D02*
X11930475Y-23097188D01*
X11930475Y-23097188D02*
X11968570Y-23249569D01*
X11968570Y-23249569D02*
X12044761Y-23325760D01*
X12044761Y-23325760D02*
X12120951Y-23363855D01*
X12120951Y-23363855D02*
X12273332Y-23363855D01*
X12273332Y-23363855D02*
X12349523Y-23325760D01*
X12349523Y-23325760D02*
X12425713Y-23249569D01*
X12425713Y-23249569D02*
X12463809Y-23097188D01*
X12463809Y-23097188D02*
X12463809Y-22830521D01*
X12463809Y-22830521D02*
X12425713Y-22678140D01*
X12425713Y-22678140D02*
X12349523Y-22601950D01*
X12349523Y-22601950D02*
X12273332Y-22563855D01*
X11587618Y-23363855D02*
X11587618Y-22563855D01*
X11587618Y-22563855D02*
X11320952Y-23135283D01*
X11320952Y-23135283D02*
X11054285Y-22563855D01*
X11054285Y-22563855D02*
X11054285Y-23363855D01*
X15566666Y-17963855D02*
X15299999Y-18763855D01*
X15299999Y-18763855D02*
X15033333Y-17963855D01*
X19059046Y-17963855D02*
X19059046Y-18611474D01*
X19059046Y-18611474D02*
X19020951Y-18687664D01*
X19020951Y-18687664D02*
X18982856Y-18725760D01*
X18982856Y-18725760D02*
X18906665Y-18763855D01*
X18906665Y-18763855D02*
X18754284Y-18763855D01*
X18754284Y-18763855D02*
X18678094Y-18725760D01*
X18678094Y-18725760D02*
X18639999Y-18687664D01*
X18639999Y-18687664D02*
X18601903Y-18611474D01*
X18601903Y-18611474D02*
X18601903Y-17963855D01*
X18220951Y-18763855D02*
X18220951Y-17963855D01*
X18220951Y-17963855D02*
X17916189Y-17963855D01*
X17916189Y-17963855D02*
X17839999Y-18001950D01*
X17839999Y-18001950D02*
X17801904Y-18040045D01*
X17801904Y-18040045D02*
X17763808Y-18116236D01*
X17763808Y-18116236D02*
X17763808Y-18230521D01*
X17763808Y-18230521D02*
X17801904Y-18306712D01*
X17801904Y-18306712D02*
X17839999Y-18344807D01*
X17839999Y-18344807D02*
X17916189Y-18382902D01*
X17916189Y-18382902D02*
X18220951Y-18382902D01*
X17420951Y-18763855D02*
X17420951Y-17963855D01*
X17420951Y-17963855D02*
X17230475Y-17963855D01*
X17230475Y-17963855D02*
X17116189Y-18001950D01*
X17116189Y-18001950D02*
X17039999Y-18078140D01*
X17039999Y-18078140D02*
X17001904Y-18154331D01*
X17001904Y-18154331D02*
X16963808Y-18306712D01*
X16963808Y-18306712D02*
X16963808Y-18420998D01*
X16963808Y-18420998D02*
X17001904Y-18573379D01*
X17001904Y-18573379D02*
X17039999Y-18649569D01*
X17039999Y-18649569D02*
X17116189Y-18725760D01*
X17116189Y-18725760D02*
X17230475Y-18763855D01*
X17230475Y-18763855D02*
X17420951Y-18763855D01*
X16620951Y-18763855D02*
X16620951Y-17963855D01*
X20238095Y-840045D02*
X20199999Y-801950D01*
X20199999Y-801950D02*
X20123809Y-763855D01*
X20123809Y-763855D02*
X19933333Y-763855D01*
X19933333Y-763855D02*
X19857142Y-801950D01*
X19857142Y-801950D02*
X19819047Y-840045D01*
X19819047Y-840045D02*
X19780952Y-916236D01*
X19780952Y-916236D02*
X19780952Y-992426D01*
X19780952Y-992426D02*
X19819047Y-1106712D01*
X19819047Y-1106712D02*
X20276190Y-1563855D01*
X20276190Y-1563855D02*
X19780952Y-1563855D01*
X19514285Y-1563855D02*
X19095237Y-1030521D01*
X19514285Y-1030521D02*
X19095237Y-1563855D01*
X18828571Y-1335283D02*
X18447618Y-1335283D01*
X18904761Y-1563855D02*
X18638094Y-763855D01*
X18638094Y-763855D02*
X18371428Y-1563855D01*
X18142857Y-1335283D02*
X17761904Y-1335283D01*
X18219047Y-1563855D02*
X17952380Y-763855D01*
X17952380Y-763855D02*
X17685714Y-1563855D01*
X20170476Y-18001950D02*
X20246666Y-17963855D01*
X20246666Y-17963855D02*
X20360952Y-17963855D01*
X20360952Y-17963855D02*
X20475238Y-18001950D01*
X20475238Y-18001950D02*
X20551428Y-18078140D01*
X20551428Y-18078140D02*
X20589523Y-18154331D01*
X20589523Y-18154331D02*
X20627619Y-18306712D01*
X20627619Y-18306712D02*
X20627619Y-18420998D01*
X20627619Y-18420998D02*
X20589523Y-18573379D01*
X20589523Y-18573379D02*
X20551428Y-18649569D01*
X20551428Y-18649569D02*
X20475238Y-18725760D01*
X20475238Y-18725760D02*
X20360952Y-18763855D01*
X20360952Y-18763855D02*
X20284761Y-18763855D01*
X20284761Y-18763855D02*
X20170476Y-18725760D01*
X20170476Y-18725760D02*
X20132380Y-18687664D01*
X20132380Y-18687664D02*
X20132380Y-18420998D01*
X20132380Y-18420998D02*
X20284761Y-18420998D01*
X22204761Y-7440045D02*
X22204761Y-7592426D01*
X22128571Y-7325760D02*
X21328571Y-7325760D01*
X22128571Y-7668617D02*
X21861904Y-7668617D01*
X22090475Y-8049569D02*
X21328571Y-8049569D01*
X22090475Y-7897188D02*
X21328571Y-7897188D01*
X22090475Y-7782902D02*
X22090475Y-8087664D01*
X22090475Y-7554331D02*
X21861904Y-7554331D01*
X21747618Y-7325760D02*
X21747618Y-7706712D01*
X21709523Y-8163855D02*
X21252380Y-8163855D01*
X21709523Y-7782902D02*
X21709523Y-8163855D01*
X21633332Y-7668617D02*
X21328571Y-7668617D01*
X21633332Y-7554331D02*
X21366666Y-7554331D01*
X21214285Y-8049569D02*
X21252380Y-8163855D01*
X22204761Y-7440045D02*
X21252380Y-7440045D01*
X21252380Y-7440045D02*
X21252380Y-7592426D01*
X22090475Y-7782902D02*
X21328571Y-7782902D01*
X21328571Y-7782902D02*
X21328571Y-8049569D01*
X21023809Y-7554331D02*
X20833333Y-7630521D01*
X20947619Y-7287664D02*
X20757142Y-7363855D01*
X20795238Y-7820998D02*
X20909523Y-8087664D01*
X20376190Y-7249569D02*
X20376190Y-7973379D01*
X20604761Y-7363855D02*
X20604761Y-8163855D01*
X20604761Y-8163855D02*
X20071428Y-8163855D01*
X20071428Y-8163855D02*
X20033333Y-8011474D01*
X20757142Y-7668617D02*
X20109523Y-7478140D01*
X20109523Y-7478140D02*
X20109523Y-7820998D01*
X20109523Y-7820998D02*
X20109523Y-7935283D01*
X20109523Y-7935283D02*
X20223809Y-7935283D01*
X24147618Y-12363855D02*
X24147618Y-11563855D01*
X24147618Y-11563855D02*
X23880952Y-12135283D01*
X23880952Y-12135283D02*
X23614285Y-11563855D01*
X23614285Y-11563855D02*
X23614285Y-12363855D01*
X23271428Y-11640045D02*
X23233332Y-11601950D01*
X23233332Y-11601950D02*
X23157142Y-11563855D01*
X23157142Y-11563855D02*
X22966666Y-11563855D01*
X22966666Y-11563855D02*
X22890475Y-11601950D01*
X22890475Y-11601950D02*
X22852380Y-11640045D01*
X22852380Y-11640045D02*
X22814285Y-11716236D01*
X22814285Y-11716236D02*
X22814285Y-11792426D01*
X22814285Y-11792426D02*
X22852380Y-11906712D01*
X22852380Y-11906712D02*
X23309523Y-12363855D01*
X23309523Y-12363855D02*
X22814285Y-12363855D01*
X24147618Y-14903855D02*
X24147618Y-14103855D01*
X24147618Y-14103855D02*
X23880952Y-14675283D01*
X23880952Y-14675283D02*
X23614285Y-14103855D01*
X23614285Y-14103855D02*
X23614285Y-14903855D01*
X22814285Y-14903855D02*
X23271428Y-14903855D01*
X23042856Y-14903855D02*
X23042856Y-14103855D01*
X23042856Y-14103855D02*
X23119047Y-14218140D01*
X23119047Y-14218140D02*
X23195237Y-14294331D01*
X23195237Y-14294331D02*
X23271428Y-14332426D01*
X4903333Y-17646511D02*
X4781904Y-17686987D01*
X4781904Y-17686987D02*
X4579523Y-17686987D01*
X4579523Y-17686987D02*
X4498571Y-17646511D01*
X4498571Y-17646511D02*
X4458095Y-17606034D01*
X4458095Y-17606034D02*
X4417618Y-17525082D01*
X4417618Y-17525082D02*
X4417618Y-17444130D01*
X4417618Y-17444130D02*
X4458095Y-17363177D01*
X4458095Y-17363177D02*
X4498571Y-17322701D01*
X4498571Y-17322701D02*
X4579523Y-17282225D01*
X4579523Y-17282225D02*
X4741428Y-17241749D01*
X4741428Y-17241749D02*
X4822380Y-17201272D01*
X4822380Y-17201272D02*
X4862857Y-17160796D01*
X4862857Y-17160796D02*
X4903333Y-17079844D01*
X4903333Y-17079844D02*
X4903333Y-16998891D01*
X4903333Y-16998891D02*
X4862857Y-16917939D01*
X4862857Y-16917939D02*
X4822380Y-16877463D01*
X4822380Y-16877463D02*
X4741428Y-16836987D01*
X4741428Y-16836987D02*
X4539047Y-16836987D01*
X4539047Y-16836987D02*
X4417618Y-16877463D01*
X4134285Y-16836987D02*
X3931904Y-17686987D01*
X3931904Y-17686987D02*
X3769999Y-17079844D01*
X3769999Y-17079844D02*
X3608094Y-17686987D01*
X3608094Y-17686987D02*
X3405714Y-16836987D01*
X2636665Y-17686987D02*
X3122380Y-17686987D01*
X2879523Y-17686987D02*
X2879523Y-16836987D01*
X2879523Y-16836987D02*
X2960475Y-16958415D01*
X2960475Y-16958415D02*
X3041427Y-17039368D01*
X3041427Y-17039368D02*
X3122380Y-17079844D01*
X10509523Y-9658415D02*
X10185714Y-9658415D01*
X10347618Y-9658415D02*
X10226190Y-9941749D01*
X10347618Y-9617939D02*
X10469047Y-10103653D01*
X10307142Y-9415558D02*
X10307142Y-10386987D01*
X10185714Y-10144130D02*
X9457142Y-10144130D01*
X10145237Y-9536987D02*
X9457142Y-9536987D01*
X10064285Y-9982225D02*
X9538095Y-9982225D01*
X10064285Y-9820320D02*
X9538095Y-9820320D01*
X10064285Y-9698891D02*
X10064285Y-9982225D01*
X9942856Y-9415558D02*
X9942856Y-9617939D01*
X9659523Y-9415558D02*
X9659523Y-9617939D01*
X10064285Y-9698891D02*
X9538095Y-9698891D01*
X9538095Y-9698891D02*
X9538095Y-9982225D01*
X9821428Y-10103653D02*
X9659523Y-10306034D01*
X9659523Y-10306034D02*
X9457142Y-10386987D01*
X9821428Y-9982225D02*
X9902380Y-10225082D01*
X9902380Y-10225082D02*
X9983333Y-10306034D01*
X9983333Y-10306034D02*
X10185714Y-10386987D01*
X9254761Y-9658415D02*
X8202380Y-9658415D01*
X9214285Y-9901272D02*
X8688094Y-9901272D01*
X8971428Y-9901272D02*
X8971428Y-10306034D01*
X8688094Y-10225082D02*
X9254761Y-10346511D01*
X8445237Y-9456034D02*
X8323809Y-9577463D01*
X8566666Y-9456034D02*
X8566666Y-9739368D01*
X8566666Y-9739368D02*
X8485714Y-10306034D01*
X8485714Y-10306034D02*
X8242856Y-10386987D01*
X8242856Y-10386987D02*
X8202380Y-10225082D01*
X7999999Y-10386987D02*
X6947618Y-10386987D01*
X7878571Y-9617939D02*
X7069047Y-9617939D01*
X5976190Y-9941749D02*
X5692856Y-9941749D01*
X5571428Y-10386987D02*
X5976190Y-10386987D01*
X5976190Y-10386987D02*
X5976190Y-9536987D01*
X5976190Y-9536987D02*
X5571428Y-9536987D01*
X12003333Y-17646511D02*
X11881904Y-17686987D01*
X11881904Y-17686987D02*
X11679523Y-17686987D01*
X11679523Y-17686987D02*
X11598571Y-17646511D01*
X11598571Y-17646511D02*
X11558095Y-17606034D01*
X11558095Y-17606034D02*
X11517618Y-17525082D01*
X11517618Y-17525082D02*
X11517618Y-17444130D01*
X11517618Y-17444130D02*
X11558095Y-17363177D01*
X11558095Y-17363177D02*
X11598571Y-17322701D01*
X11598571Y-17322701D02*
X11679523Y-17282225D01*
X11679523Y-17282225D02*
X11841428Y-17241749D01*
X11841428Y-17241749D02*
X11922380Y-17201272D01*
X11922380Y-17201272D02*
X11962857Y-17160796D01*
X11962857Y-17160796D02*
X12003333Y-17079844D01*
X12003333Y-17079844D02*
X12003333Y-16998891D01*
X12003333Y-16998891D02*
X11962857Y-16917939D01*
X11962857Y-16917939D02*
X11922380Y-16877463D01*
X11922380Y-16877463D02*
X11841428Y-16836987D01*
X11841428Y-16836987D02*
X11639047Y-16836987D01*
X11639047Y-16836987D02*
X11517618Y-16877463D01*
X11234285Y-16836987D02*
X11031904Y-17686987D01*
X11031904Y-17686987D02*
X10869999Y-17079844D01*
X10869999Y-17079844D02*
X10708094Y-17686987D01*
X10708094Y-17686987D02*
X10505714Y-16836987D01*
X10222380Y-16917939D02*
X10181904Y-16877463D01*
X10181904Y-16877463D02*
X10100951Y-16836987D01*
X10100951Y-16836987D02*
X9898570Y-16836987D01*
X9898570Y-16836987D02*
X9817618Y-16877463D01*
X9817618Y-16877463D02*
X9777142Y-16917939D01*
X9777142Y-16917939D02*
X9736665Y-16998891D01*
X9736665Y-16998891D02*
X9736665Y-17079844D01*
X9736665Y-17079844D02*
X9777142Y-17201272D01*
X9777142Y-17201272D02*
X10262856Y-17686987D01*
X10262856Y-17686987D02*
X9736665Y-17686987D01*
X22152381Y-16644130D02*
X22233333Y-16886987D01*
X22111904Y-16360796D02*
X21342857Y-16360796D01*
X22111904Y-16158415D02*
X21342857Y-16158415D01*
X22111904Y-15996511D02*
X21302381Y-15996511D01*
X21950000Y-16644130D02*
X21909523Y-16846511D01*
X21707142Y-16644130D02*
X21666666Y-16806034D01*
X21707142Y-15996511D02*
X21707142Y-16522701D01*
X21504762Y-16644130D02*
X21383333Y-16725082D01*
X21504762Y-16886987D02*
X21302381Y-16886987D01*
X22111904Y-15996511D02*
X22111904Y-16522701D01*
X22111904Y-16522701D02*
X21221428Y-16522701D01*
X21221428Y-16522701D02*
X21261904Y-16886987D01*
X20978571Y-15956034D02*
X20816666Y-16117939D01*
X20735714Y-16198891D02*
X19966666Y-16198891D01*
X20735714Y-16644130D02*
X19966666Y-16644130D01*
X20695238Y-16360796D02*
X20007142Y-16360796D01*
X20654761Y-16482225D02*
X20047619Y-16482225D01*
X20654761Y-16036987D02*
X20047619Y-16036987D01*
X20533333Y-16239368D02*
X20533333Y-16360796D01*
X20371428Y-16360796D02*
X20371428Y-16765558D01*
X20371428Y-15915558D02*
X20371428Y-16158415D01*
X20209523Y-16198891D02*
X20209523Y-16320320D01*
X20897619Y-16765558D02*
X20492857Y-16886987D01*
X20492857Y-16886987D02*
X19966666Y-16886987D01*
X21019047Y-16360796D02*
X20857142Y-16360796D01*
X20857142Y-16360796D02*
X20857142Y-16725082D01*
X20857142Y-16725082D02*
X21019047Y-16886987D01*
X23542857Y-3467260D02*
X22857143Y-3467260D01*
X23542857Y-6007260D02*
X22857143Y-6007260D01*
X23200000Y-6350117D02*
X23200000Y-5664402D01*
M02*
