%TF.GenerationSoftware,KiCad,Pcbnew,10.0.6*%
%TF.CreationDate,2026-09-09T08:24:42+08:00*%
%TF.ProjectId,mode2-motor,6d6f6465-322d-46d6-9f74-6f722e6b6963,rev?*%
%TF.SameCoordinates,Original*%
%TF.FileFunction,Paste,Top*%
%TF.FilePolarity,Positive*%
%FSLAX46Y46*%
G04 Gerber Fmt 4.6, Leading zero omitted, Abs format (unit mm)*
G04 Created by KiCad (PCBNEW 10.0.6) date 2026-09-09 08:24:42*
%MOMM*%
%LPD*%
G01*
G04 APERTURE LIST*
G04 Aperture macros list*
%AMRoundRect*
0 Rectangle with rounded corners*
0 $1 Rounding radius*
0 $2 $3 $4 $5 $6 $7 $8 $9 X,Y pos of 4 corners*
0 Add a 4 corners polygon primitive as box body*
4,1,4,$2,$3,$4,$5,$6,$7,$8,$9,$2,$3,0*
0 Add four circle primitives for the rounded corners*
1,1,$1+$1,$2,$3*
1,1,$1+$1,$4,$5*
1,1,$1+$1,$6,$7*
1,1,$1+$1,$8,$9*
0 Add four rect primitives between the rounded corners*
20,1,$1+$1,$2,$3,$4,$5,0*
20,1,$1+$1,$4,$5,$6,$7,0*
20,1,$1+$1,$6,$7,$8,$9,0*
20,1,$1+$1,$8,$9,$2,$3,0*%
G04 Aperture macros list end*
%ADD10RoundRect,0.150000X0.150000X-0.587500X0.150000X0.587500X-0.150000X0.587500X-0.150000X-0.587500X0*%
%ADD11RoundRect,0.225000X-0.225000X-0.250000X0.225000X-0.250000X0.225000X0.250000X-0.225000X0.250000X0*%
%ADD12RoundRect,0.200000X0.200000X0.275000X-0.200000X0.275000X-0.200000X-0.275000X0.200000X-0.275000X0*%
%ADD13R,0.600000X1.300000*%
%ADD14R,1.050000X0.700000*%
%ADD15RoundRect,0.200000X-0.200000X-0.275000X0.200000X-0.275000X0.200000X0.275000X-0.200000X0.275000X0*%
%ADD16RoundRect,0.250000X0.550000X-1.250000X0.550000X1.250000X-0.550000X1.250000X-0.550000X-1.250000X0*%
%ADD17RoundRect,0.150000X-0.825000X-0.150000X0.825000X-0.150000X0.825000X0.150000X-0.825000X0.150000X0*%
%ADD18RoundRect,0.185000X0.230000X0.185000X-0.230000X0.185000X-0.230000X-0.185000X0.230000X-0.185000X0*%
%ADD19RoundRect,0.062500X0.237500X0.062500X-0.237500X0.062500X-0.237500X-0.062500X0.237500X-0.062500X0*%
%ADD20RoundRect,0.200000X0.275000X-0.200000X0.275000X0.200000X-0.275000X0.200000X-0.275000X-0.200000X0*%
G04 APERTURE END LIST*
D10*
%TO.C,Q1*%
X6550000Y-7737500D03*
X8450000Y-7737500D03*
X7500000Y-5862500D03*
%TD*%
D11*
%TO.C,C1*%
X3225000Y-9400000D03*
X4775000Y-9400000D03*
%TD*%
D12*
%TO.C,R1*%
X12325000Y-15500000D03*
X10675000Y-15500000D03*
%TD*%
D13*
%TO.C,S0*%
X7350000Y-3750000D03*
X4350000Y-3750000D03*
X2850000Y-3750000D03*
D14*
X1425000Y-700000D03*
X1425000Y-2900000D03*
X8775000Y-700000D03*
X8775000Y-2900000D03*
%TD*%
D15*
%TO.C,R2*%
X2875000Y-6000000D03*
X4525000Y-6000000D03*
%TD*%
D16*
%TO.C,C3*%
X13000000Y-6299999D03*
X13000000Y-1899999D03*
%TD*%
D17*
%TO.C,U1*%
X3225000Y-11095000D03*
X3225000Y-12365000D03*
X3225000Y-13635000D03*
X3225000Y-14905000D03*
X8175000Y-14905000D03*
X8175000Y-13635000D03*
X8175000Y-12365000D03*
X8175000Y-11095000D03*
%TD*%
D18*
%TO.C,U2*%
X14000000Y-13600000D03*
X14000000Y-12800000D03*
D19*
X14950000Y-13950000D03*
X14950000Y-13450000D03*
X14950000Y-12950000D03*
X14950000Y-12450000D03*
X13050000Y-12450000D03*
X13050000Y-12950000D03*
X13050000Y-13450000D03*
X13050000Y-13950000D03*
%TD*%
D20*
%TO.C,R3*%
X1300000Y-7325000D03*
X1300000Y-5675000D03*
%TD*%
D11*
%TO.C,C2*%
X14825000Y-15700000D03*
X16375000Y-15700000D03*
%TD*%
M02*
