%TF.GenerationSoftware,KiCad,Pcbnew,10.0.6*%
%TF.CreationDate,2026-09-09T08:24:42+08:00*%
%TF.ProjectId,mode2-motor,6d6f6465-322d-46d6-9f74-6f722e6b6963,rev?*%
%TF.SameCoordinates,Original*%
%TF.FileFunction,Copper,L1,Top*%
%TF.FilePolarity,Positive*%
%FSLAX46Y46*%
G04 Gerber Fmt 4.6, Leading zero omitted, Abs format (unit mm)*
G04 Created by KiCad (PCBNEW 10.0.6) date 2026-09-09 08:24:42*
%MOMM*%
%LPD*%
G01*
G04 APERTURE LIST*
G04 Aperture macros list*
%AMRoundRect*
0 Rectangle with rounded corners*
0 $1 Rounding radius*
0 $2 $3 $4 $5 $6 $7 $8 $9 X,Y pos of 4 corners*
0 Add a 4 corners polygon primitive as box body*
4,1,4,$2,$3,$4,$5,$6,$7,$8,$9,$2,$3,0*
0 Add four circle primitives for the rounded corners*
1,1,$1+$1,$2,$3*
1,1,$1+$1,$4,$5*
1,1,$1+$1,$6,$7*
1,1,$1+$1,$8,$9*
0 Add four rect primitives between the rounded corners*
20,1,$1+$1,$2,$3,$4,$5,0*
20,1,$1+$1,$4,$5,$6,$7,0*
20,1,$1+$1,$6,$7,$8,$9,0*
20,1,$1+$1,$8,$9,$2,$3,0*%
G04 Aperture macros list end*
%TA.AperFunction,SMDPad,CuDef*%
%ADD10RoundRect,0.150000X0.150000X-0.587500X0.150000X0.587500X-0.150000X0.587500X-0.150000X-0.587500X0*%
%TD*%
%TA.AperFunction,SMDPad,CuDef*%
%ADD11RoundRect,0.225000X-0.225000X-0.250000X0.225000X-0.250000X0.225000X0.250000X-0.225000X0.250000X0*%
%TD*%
%TA.AperFunction,SMDPad,CuDef*%
%ADD12RoundRect,0.200000X0.200000X0.275000X-0.200000X0.275000X-0.200000X-0.275000X0.200000X-0.275000X0*%
%TD*%
%TA.AperFunction,SMDPad,CuDef*%
%ADD13R,0.600000X1.300000*%
%TD*%
%TA.AperFunction,SMDPad,CuDef*%
%ADD14R,1.050000X0.700000*%
%TD*%
%TA.AperFunction,ComponentPad*%
%ADD15R,2.100000X2.100000*%
%TD*%
%TA.AperFunction,ComponentPad*%
%ADD16C,2.100000*%
%TD*%
%TA.AperFunction,SMDPad,CuDef*%
%ADD17RoundRect,0.200000X-0.200000X-0.275000X0.200000X-0.275000X0.200000X0.275000X-0.200000X0.275000X0*%
%TD*%
%TA.AperFunction,SMDPad,CuDef*%
%ADD18RoundRect,0.250000X0.550000X-1.250000X0.550000X1.250000X-0.550000X1.250000X-0.550000X-1.250000X0*%
%TD*%
%TA.AperFunction,SMDPad,CuDef*%
%ADD19RoundRect,0.150000X-0.825000X-0.150000X0.825000X-0.150000X0.825000X0.150000X-0.825000X0.150000X0*%
%TD*%
%TA.AperFunction,ComponentPad*%
%ADD20R,1.800000X1.800000*%
%TD*%
%TA.AperFunction,ComponentPad*%
%ADD21C,1.800000*%
%TD*%
%TA.AperFunction,SMDPad,CuDef*%
%ADD22RoundRect,0.062500X0.237500X0.062500X-0.237500X0.062500X-0.237500X-0.062500X0.237500X-0.062500X0*%
%TD*%
%TA.AperFunction,HeatsinkPad*%
%ADD23C,0.500000*%
%TD*%
%TA.AperFunction,HeatsinkPad*%
%ADD24R,0.900000X1.600000*%
%TD*%
%TA.AperFunction,SMDPad,CuDef*%
%ADD25RoundRect,0.200000X0.275000X-0.200000X0.275000X0.200000X-0.275000X0.200000X-0.275000X-0.200000X0*%
%TD*%
%TA.AperFunction,ViaPad*%
%ADD26C,0.600000*%
%TD*%
%TA.AperFunction,Conductor*%
%ADD27C,0.250000*%
%TD*%
%TA.AperFunction,Conductor*%
%ADD28C,0.600000*%
%TD*%
%TA.AperFunction,Conductor*%
%ADD29C,0.400000*%
%TD*%
%TA.AperFunction,Conductor*%
%ADD30C,0.200000*%
%TD*%
%TA.AperFunction,Conductor*%
%ADD31C,0.800000*%
%TD*%
G04 APERTURE END LIST*
D10*
%TO.P,Q1,1*%
%TO.N,/GATE*%
X6550000Y-7737500D03*
%TO.P,Q1,2*%
%TO.N,/BATT+*%
X8450000Y-7737500D03*
%TO.P,Q1,3*%
%TO.N,/VBAT*%
X7500000Y-5862500D03*
%TD*%
D11*
%TO.P,C1,1*%
%TO.N,/VBAT*%
X3225000Y-9400000D03*
%TO.P,C1,2*%
%TO.N,/GND*%
X4775000Y-9400000D03*
%TD*%
D12*
%TO.P,R1,1*%
%TO.N,/ISENSE*%
X12325000Y-15500000D03*
%TO.P,R1,2*%
%TO.N,/GND*%
X10675000Y-15500000D03*
%TD*%
D13*
%TO.P,S0,1*%
%TO.N,/BATT+*%
X7350000Y-3750000D03*
%TO.P,S0,2*%
%TO.N,/GDRV*%
X4350000Y-3750000D03*
%TO.P,S0,3*%
%TO.N,/GND*%
X2850000Y-3750000D03*
D14*
%TO.P,S0,4*%
X1425000Y-700000D03*
X1425000Y-2900000D03*
X8775000Y-700000D03*
X8775000Y-2900000D03*
%TD*%
D15*
%TO.P,P1,1*%
%TO.N,/BATT+*%
X21100000Y-5940000D03*
D16*
%TO.P,P1,2*%
%TO.N,/GND*%
X21100000Y-3400000D03*
%TD*%
D17*
%TO.P,R2,1*%
%TO.N,/GDRV*%
X2875000Y-6000000D03*
%TO.P,R2,2*%
%TO.N,/GATE*%
X4525000Y-6000000D03*
%TD*%
D18*
%TO.P,C3,1*%
%TO.N,/VBAT*%
X13000000Y-6299999D03*
%TO.P,C3,2*%
%TO.N,/GND*%
X13000000Y-1899999D03*
%TD*%
D19*
%TO.P,U1,1*%
%TO.N,/VBAT*%
X3225000Y-11095000D03*
%TO.P,U1,2*%
%TO.N,/SW1*%
X3225000Y-12365000D03*
%TO.P,U1,3*%
%TO.N,/SW2*%
X3225000Y-13635000D03*
%TO.P,U1,4*%
%TO.N,/IN1*%
X3225000Y-14905000D03*
%TO.P,U1,5*%
%TO.N,/IN2*%
X8175000Y-14905000D03*
%TO.P,U1,6*%
%TO.N,/UPDI*%
X8175000Y-13635000D03*
%TO.P,U1,7*%
%TO.N,/ISENSE*%
X8175000Y-12365000D03*
%TO.P,U1,8*%
%TO.N,/GND*%
X8175000Y-11095000D03*
%TD*%
D15*
%TO.P,P3,1*%
%TO.N,/SW2*%
X9600000Y-20300000D03*
D16*
%TO.P,P3,2*%
%TO.N,/GND*%
X12140000Y-20300000D03*
%TD*%
D20*
%TO.P,P5,1*%
%TO.N,/VBAT*%
X15300000Y-20400000D03*
D21*
%TO.P,P5,2*%
%TO.N,/UPDI*%
X17840000Y-20400000D03*
%TO.P,P5,3*%
%TO.N,/GND*%
X20380000Y-20400000D03*
%TD*%
D22*
%TO.P,U2,1*%
%TO.N,/VBAT*%
X14950000Y-13950000D03*
%TO.P,U2,2*%
%TO.N,/OUT1*%
X14950000Y-13450000D03*
%TO.P,U2,3*%
%TO.N,/OUT2*%
X14950000Y-12950000D03*
%TO.P,U2,4*%
%TO.N,/GND*%
X14950000Y-12450000D03*
%TO.P,U2,5*%
%TO.N,/IN2*%
X13050000Y-12450000D03*
%TO.P,U2,6*%
%TO.N,/IN1*%
X13050000Y-12950000D03*
%TO.P,U2,7*%
%TO.N,/GND*%
X13050000Y-13450000D03*
%TO.P,U2,8*%
%TO.N,/ISENSE*%
X13050000Y-13950000D03*
D23*
%TO.P,U2,9*%
%TO.N,/GND*%
X14000000Y-13750000D03*
D24*
X14000000Y-13200000D03*
D23*
X14000000Y-12650000D03*
%TD*%
D25*
%TO.P,R3,1*%
%TO.N,/GATE*%
X1300000Y-7325000D03*
%TO.P,R3,2*%
%TO.N,/BATT+*%
X1300000Y-5675000D03*
%TD*%
D11*
%TO.P,C2,1*%
%TO.N,/VBAT*%
X14825000Y-15700000D03*
%TO.P,C2,2*%
%TO.N,/GND*%
X16375000Y-15700000D03*
%TD*%
D15*
%TO.P,P2,1*%
%TO.N,/SW1*%
X2500000Y-20300000D03*
D16*
%TO.P,P2,2*%
%TO.N,/GND*%
X5040000Y-20300000D03*
%TD*%
D15*
%TO.P,P4,1*%
%TO.N,/OUT1*%
X21100000Y-14540000D03*
D16*
%TO.P,P4,2*%
%TO.N,/OUT2*%
X21100000Y-12000000D03*
%TD*%
D26*
%TO.N,/BATT+*%
X800000Y-4800000D03*
X7350000Y-4600000D03*
X9300000Y-7700000D03*
%TO.N,/VBAT*%
X7500000Y-5600000D03*
X15225000Y-16399999D03*
X3225000Y-8700000D03*
X15300000Y-8600000D03*
%TO.N,/GND*%
X9100000Y-11095000D03*
X11000000Y-16600000D03*
X22700000Y-18000000D03*
X21000000Y-9000000D03*
X1000000Y-9500000D03*
X18500000Y-17000000D03*
X5500000Y-9400000D03*
X6500000Y-11300000D03*
X11000000Y-9200000D03*
%TO.N,/ISENSE*%
X9400000Y-12365000D03*
X12325000Y-16399999D03*
%TO.N,/SW2*%
X2000000Y-16700000D03*
%TO.N,/IN1*%
X11800000Y-13200000D03*
X3225000Y-16000000D03*
%TO.N,/UPDI*%
X4900000Y-14500000D03*
X9000000Y-13635000D03*
%TO.N,/OUT2*%
X16200000Y-12300000D03*
%TD*%
%TO.N,/GATE*%
D27*
X4525000Y-6775000D02*
X4525000Y-6000000D01*
X1300000Y-7325000D02*
X1300000Y-7400000D01*
X1300000Y-7400000D02*
X3900000Y-7400000D01*
X5300000Y-7737500D02*
X6550000Y-7737500D01*
X3900000Y-7400000D02*
X4525000Y-6775000D01*
X5300000Y-6000000D02*
X5300000Y-7737500D01*
X4525000Y-6000000D02*
X5300000Y-6000000D01*
%TO.N,/BATT+*%
D28*
X9300000Y-7700000D02*
X8450000Y-7737500D01*
D27*
X1300000Y-5675000D02*
X800000Y-4800000D01*
D29*
X7350000Y-4600000D02*
X7350000Y-3750000D01*
%TO.N,/VBAT*%
D28*
X8500000Y-5862500D02*
X10500000Y-6300000D01*
D30*
X15600000Y-14050000D02*
X15600000Y-14250000D01*
X15500000Y-13950000D02*
X15600000Y-14050000D01*
D31*
X14000000Y-6300000D02*
X15300000Y-7600000D01*
D29*
X3225000Y-8700000D02*
X3225000Y-9400000D01*
D28*
X7500000Y-5862500D02*
X8500000Y-5862500D01*
D30*
X14950000Y-13950000D02*
X15500000Y-13950000D01*
D28*
X10500000Y-6300000D02*
X13000000Y-6300000D01*
X15600000Y-14250000D02*
X15600000Y-14800000D01*
D29*
X3225000Y-9400000D02*
X3225000Y-11095000D01*
D28*
X15225000Y-15175000D02*
X14825000Y-15700000D01*
D29*
X7500000Y-5862500D02*
X7500000Y-5600000D01*
D31*
X13000000Y-6300000D02*
X14000000Y-6300000D01*
D28*
X15225000Y-16399999D02*
X14825000Y-15700000D01*
D31*
X15300000Y-7600000D02*
X15300000Y-8600000D01*
D28*
X15600000Y-14800000D02*
X15225000Y-15175000D01*
%TO.N,/GND*%
D30*
X13050000Y-13450000D02*
X14000000Y-13450000D01*
D29*
X8175000Y-11095000D02*
X9100000Y-11095000D01*
X4775000Y-9400000D02*
X5500000Y-9400000D01*
D30*
X14950000Y-12450000D02*
X14000000Y-12450000D01*
%TO.N,/ISENSE*%
X13050000Y-13950000D02*
X12500000Y-13950000D01*
X8175000Y-12365000D02*
X9400000Y-12365000D01*
X12325000Y-14125000D02*
X12325000Y-15500000D01*
X12325000Y-15500000D02*
X12325000Y-16399999D01*
X12500000Y-13950000D02*
X12325000Y-14125000D01*
%TO.N,/GDRV*%
D27*
X4350000Y-4800000D02*
X2875000Y-4800000D01*
X4350000Y-3750000D02*
X4350000Y-4800000D01*
X2875000Y-4800000D02*
X2875000Y-6000000D01*
%TO.N,/SW1*%
X2000000Y-12365000D02*
X1300000Y-13065000D01*
X2500000Y-18800000D02*
X2500000Y-20300000D01*
X1300000Y-17600000D02*
X2500000Y-18800000D01*
X3225000Y-12365000D02*
X2000000Y-12365000D01*
X1300000Y-13065000D02*
X1300000Y-17600000D01*
%TO.N,/SW2*%
X2600000Y-13635000D02*
X1850000Y-14385000D01*
X1850000Y-16550000D02*
X2000000Y-16700000D01*
X1850000Y-14385000D02*
X1850000Y-16550000D01*
X3225000Y-13635000D02*
X2600000Y-13635000D01*
%TO.N,/IN1*%
X3225000Y-14905000D02*
X3225000Y-16000000D01*
D30*
X11800000Y-13200000D02*
X12300000Y-13200000D01*
X12550000Y-12950000D02*
X13050000Y-12950000D01*
X12300000Y-13200000D02*
X12550000Y-12950000D01*
%TO.N,/IN2*%
X10200000Y-14505000D02*
X10200000Y-12450000D01*
X8175000Y-14905000D02*
X9800000Y-14905000D01*
X10200000Y-12450000D02*
X13050000Y-12450000D01*
X9800000Y-14905000D02*
X10200000Y-14505000D01*
%TO.N,/UPDI*%
D27*
X4900000Y-17600000D02*
X17840000Y-17600000D01*
X4900000Y-14500000D02*
X4900000Y-17600000D01*
X8175000Y-13635000D02*
X9000000Y-13635000D01*
X17840000Y-17600000D02*
X17840000Y-20400000D01*
%TO.N,/OUT1*%
D30*
X14950000Y-13450000D02*
X16000000Y-13450000D01*
D28*
X16000000Y-13450000D02*
X16200000Y-13450000D01*
X16200000Y-13450000D02*
X18100000Y-15350000D01*
X20290000Y-15350000D02*
X21100000Y-14540000D01*
X18100000Y-15350000D02*
X20290000Y-15350000D01*
%TO.N,/OUT2*%
D30*
X14950000Y-12950000D02*
X15500000Y-12950000D01*
X15500000Y-12950000D02*
X16200000Y-12300000D01*
%TD*%
%TA.AperFunction,Conductor*%
%TO.N,/GND*%
G36*
X24609191Y-368907D02*
G01*
X24645155Y-418407D01*
X24650000Y-449000D01*
X24650000Y-23551000D01*
X24631093Y-23609191D01*
X24581593Y-23645155D01*
X24551000Y-23650000D01*
X449000Y-23650000D01*
X390809Y-23631093D01*
X354845Y-23581593D01*
X350000Y-23551000D01*
X350000Y-13022147D01*
X974500Y-13022147D01*
X974500Y-17557147D01*
X974500Y-17642853D01*
X994062Y-17715863D01*
X996683Y-17725643D01*
X1039531Y-17799857D01*
X1039532Y-17799858D01*
X1039533Y-17799859D01*
X1039535Y-17799862D01*
X1839811Y-18600138D01*
X2120169Y-18880496D01*
X2147946Y-18935013D01*
X2138375Y-18995445D01*
X2095110Y-19038710D01*
X2050165Y-19049500D01*
X1430252Y-19049500D01*
X1430251Y-19049500D01*
X1430241Y-19049501D01*
X1371772Y-19061132D01*
X1371766Y-19061134D01*
X1305451Y-19105445D01*
X1305445Y-19105451D01*
X1261134Y-19171766D01*
X1261132Y-19171772D01*
X1249501Y-19230241D01*
X1249500Y-19230253D01*
X1249500Y-21369746D01*
X1249501Y-21369758D01*
X1261132Y-21428227D01*
X1261134Y-21428233D01*
X1301648Y-21488865D01*
X1305448Y-21494552D01*
X1371769Y-21538867D01*
X1416231Y-21547711D01*
X1430241Y-21550498D01*
X1430246Y-21550498D01*
X1430252Y-21550500D01*
X1430253Y-21550500D01*
X3569747Y-21550500D01*
X3569748Y-21550500D01*
X3628231Y-21538867D01*
X3694552Y-21494552D01*
X3738867Y-21428231D01*
X3750500Y-21369748D01*
X3750500Y-19230253D01*
X8349500Y-19230253D01*
X8349500Y-21369746D01*
X8349501Y-21369758D01*
X8361132Y-21428227D01*
X8361134Y-21428233D01*
X8401648Y-21488865D01*
X8405448Y-21494552D01*
X8471769Y-21538867D01*
X8516231Y-21547711D01*
X8530241Y-21550498D01*
X8530246Y-21550498D01*
X8530252Y-21550500D01*
X8530253Y-21550500D01*
X10669747Y-21550500D01*
X10669748Y-21550500D01*
X10728231Y-21538867D01*
X10794552Y-21494552D01*
X10838867Y-21428231D01*
X10850500Y-21369748D01*
X10850500Y-19480253D01*
X14199500Y-19480253D01*
X14199500Y-21319746D01*
X14199501Y-21319758D01*
X14211132Y-21378227D01*
X14211134Y-21378233D01*
X14255445Y-21444548D01*
X14255448Y-21444552D01*
X14321769Y-21488867D01*
X14366231Y-21497711D01*
X14380241Y-21500498D01*
X14380246Y-21500498D01*
X14380252Y-21500500D01*
X14380253Y-21500500D01*
X16219747Y-21500500D01*
X16219748Y-21500500D01*
X16278231Y-21488867D01*
X16344552Y-21444552D01*
X16388867Y-21378231D01*
X16400500Y-21319748D01*
X16400500Y-19480252D01*
X16388867Y-19421769D01*
X16344552Y-19355448D01*
X16313784Y-19334889D01*
X16278233Y-19311134D01*
X16278231Y-19311133D01*
X16278228Y-19311132D01*
X16278227Y-19311132D01*
X16219758Y-19299501D01*
X16219748Y-19299500D01*
X14380252Y-19299500D01*
X14380251Y-19299500D01*
X14380241Y-19299501D01*
X14321772Y-19311132D01*
X14321766Y-19311134D01*
X14255451Y-19355445D01*
X14255445Y-19355451D01*
X14211134Y-19421766D01*
X14211132Y-19421772D01*
X14199501Y-19480241D01*
X14199500Y-19480253D01*
X10850500Y-19480253D01*
X10850500Y-19230252D01*
X10838867Y-19171769D01*
X10794552Y-19105448D01*
X10794548Y-19105445D01*
X10728233Y-19061134D01*
X10728231Y-19061133D01*
X10728228Y-19061132D01*
X10728227Y-19061132D01*
X10669758Y-19049501D01*
X10669748Y-19049500D01*
X8530252Y-19049500D01*
X8530251Y-19049500D01*
X8530241Y-19049501D01*
X8471772Y-19061132D01*
X8471766Y-19061134D01*
X8405451Y-19105445D01*
X8405445Y-19105451D01*
X8361134Y-19171766D01*
X8361132Y-19171772D01*
X8349501Y-19230241D01*
X8349500Y-19230253D01*
X3750500Y-19230253D01*
X3750500Y-19230252D01*
X3738867Y-19171769D01*
X3694552Y-19105448D01*
X3694548Y-19105445D01*
X3628233Y-19061134D01*
X3628231Y-19061133D01*
X3628228Y-19061132D01*
X3628227Y-19061132D01*
X3569758Y-19049501D01*
X3569748Y-19049500D01*
X3569747Y-19049500D01*
X2924500Y-19049500D01*
X2866309Y-19030593D01*
X2830345Y-18981093D01*
X2825500Y-18950500D01*
X2825500Y-18757148D01*
X2825500Y-18757147D01*
X2803318Y-18674362D01*
X2803318Y-18674361D01*
X2803318Y-18674360D01*
X2760468Y-18600142D01*
X2760467Y-18600141D01*
X2760466Y-18600140D01*
X2760465Y-18600138D01*
X1654496Y-17494169D01*
X1626719Y-17439652D01*
X1625500Y-17424165D01*
X1625500Y-17233183D01*
X1644407Y-17174992D01*
X1693907Y-17139028D01*
X1755093Y-17139028D01*
X1773998Y-17147445D01*
X1806814Y-17166392D01*
X1934108Y-17200500D01*
X1934110Y-17200500D01*
X2065890Y-17200500D01*
X2065892Y-17200500D01*
X2193186Y-17166392D01*
X2193188Y-17166390D01*
X2193190Y-17166390D01*
X2307309Y-17100503D01*
X2307309Y-17100502D01*
X2307314Y-17100500D01*
X2400500Y-17007314D01*
X2462164Y-16900509D01*
X2466390Y-16893190D01*
X2466390Y-16893188D01*
X2466392Y-16893186D01*
X2500500Y-16765892D01*
X2500500Y-16634108D01*
X2466392Y-16506814D01*
X2466390Y-16506811D01*
X2466390Y-16506809D01*
X2400503Y-16392690D01*
X2400501Y-16392688D01*
X2400500Y-16392686D01*
X2307314Y-16299500D01*
X2307311Y-16299498D01*
X2307309Y-16299496D01*
X2225000Y-16251975D01*
X2184059Y-16206506D01*
X2175500Y-16166239D01*
X2175500Y-15491742D01*
X2194407Y-15433551D01*
X2243907Y-15397587D01*
X2290592Y-15397253D01*
X2290999Y-15394464D01*
X2298605Y-15395572D01*
X2298607Y-15395573D01*
X2366740Y-15405500D01*
X2800500Y-15405500D01*
X2858691Y-15424407D01*
X2894655Y-15473907D01*
X2899500Y-15504500D01*
X2899500Y-15576678D01*
X2880593Y-15634869D01*
X2870504Y-15646681D01*
X2824500Y-15692684D01*
X2824496Y-15692690D01*
X2758609Y-15806809D01*
X2752507Y-15829584D01*
X2724500Y-15934108D01*
X2724500Y-16065892D01*
X2741460Y-16129189D01*
X2758609Y-16193190D01*
X2824496Y-16307309D01*
X2824498Y-16307311D01*
X2824500Y-16307314D01*
X2917686Y-16400500D01*
X2917688Y-16400501D01*
X2917690Y-16400503D01*
X3031810Y-16466390D01*
X3031808Y-16466390D01*
X3031812Y-16466391D01*
X3031814Y-16466392D01*
X3159108Y-16500500D01*
X3159110Y-16500500D01*
X3290890Y-16500500D01*
X3290892Y-16500500D01*
X3418186Y-16466392D01*
X3418188Y-16466390D01*
X3418190Y-16466390D01*
X3532309Y-16400503D01*
X3532309Y-16400502D01*
X3532314Y-16400500D01*
X3625500Y-16307314D01*
X3625503Y-16307309D01*
X3691390Y-16193190D01*
X3691390Y-16193188D01*
X3691392Y-16193186D01*
X3725500Y-16065892D01*
X3725500Y-15934108D01*
X3691392Y-15806814D01*
X3691390Y-15806811D01*
X3691390Y-15806809D01*
X3625503Y-15692690D01*
X3625499Y-15692684D01*
X3579496Y-15646681D01*
X3551719Y-15592164D01*
X3550500Y-15576678D01*
X3550500Y-15504500D01*
X3569407Y-15446309D01*
X3618907Y-15410345D01*
X3649500Y-15405500D01*
X4083257Y-15405500D01*
X4083260Y-15405500D01*
X4151393Y-15395573D01*
X4256483Y-15344198D01*
X4339198Y-15261483D01*
X4386559Y-15164604D01*
X4429102Y-15120630D01*
X4489368Y-15110060D01*
X4544336Y-15136932D01*
X4573012Y-15190982D01*
X4574500Y-15208084D01*
X4574500Y-17642853D01*
X4596682Y-17725638D01*
X4639535Y-17799862D01*
X4700138Y-17860465D01*
X4774362Y-17903318D01*
X4857147Y-17925500D01*
X4942853Y-17925500D01*
X17415500Y-17925500D01*
X17473691Y-17944407D01*
X17509655Y-17993907D01*
X17514500Y-18024500D01*
X17514500Y-19276700D01*
X17495593Y-19334891D01*
X17446094Y-19370854D01*
X17417552Y-19380128D01*
X17263214Y-19458766D01*
X17123073Y-19560585D01*
X17000585Y-19683073D01*
X16898766Y-19823214D01*
X16820125Y-19977558D01*
X16820123Y-19977561D01*
X16766598Y-20142293D01*
X16766597Y-20142297D01*
X16739500Y-20313385D01*
X16739500Y-20486614D01*
X16766597Y-20657702D01*
X16766598Y-20657706D01*
X16820123Y-20822438D01*
X16820125Y-20822441D01*
X16820126Y-20822444D01*
X16820127Y-20822445D01*
X16898768Y-20976788D01*
X17000586Y-21116928D01*
X17123072Y-21239414D01*
X17263212Y-21341232D01*
X17417555Y-21419873D01*
X17417557Y-21419873D01*
X17417558Y-21419874D01*
X17417561Y-21419876D01*
X17582293Y-21473401D01*
X17582297Y-21473402D01*
X17753386Y-21500500D01*
X17753389Y-21500500D01*
X17926614Y-21500500D01*
X18097702Y-21473402D01*
X18097706Y-21473401D01*
X18262438Y-21419876D01*
X18262440Y-21419874D01*
X18262445Y-21419873D01*
X18416788Y-21341232D01*
X18556928Y-21239414D01*
X18679414Y-21116928D01*
X18781232Y-20976788D01*
X18859873Y-20822445D01*
X18859874Y-20822440D01*
X18859876Y-20822438D01*
X18913401Y-20657706D01*
X18913402Y-20657702D01*
X18940500Y-20486614D01*
X18940500Y-20313385D01*
X18913402Y-20142297D01*
X18913401Y-20142293D01*
X18859876Y-19977561D01*
X18859874Y-19977558D01*
X18859873Y-19977557D01*
X18859873Y-19977555D01*
X18781232Y-19823212D01*
X18679414Y-19683072D01*
X18556928Y-19560586D01*
X18416788Y-19458768D01*
X18416787Y-19458767D01*
X18416785Y-19458766D01*
X18262447Y-19380128D01*
X18262446Y-19380127D01*
X18262445Y-19380127D01*
X18233905Y-19370853D01*
X18184406Y-19334889D01*
X18165500Y-19276700D01*
X18165500Y-17557148D01*
X18165500Y-17557147D01*
X18143318Y-17474362D01*
X18100465Y-17400138D01*
X18039862Y-17339535D01*
X17965638Y-17296682D01*
X17882853Y-17274500D01*
X17882851Y-17274500D01*
X5324500Y-17274500D01*
X5266309Y-17255593D01*
X5230345Y-17206093D01*
X5225500Y-17175500D01*
X5225500Y-14923321D01*
X5244407Y-14865130D01*
X5254490Y-14853323D01*
X5300500Y-14807314D01*
X5300503Y-14807309D01*
X5366390Y-14693190D01*
X5366390Y-14693188D01*
X5366392Y-14693186D01*
X5400500Y-14565892D01*
X5400500Y-14434108D01*
X5366392Y-14306814D01*
X5366390Y-14306811D01*
X5366390Y-14306809D01*
X5300503Y-14192690D01*
X5300501Y-14192688D01*
X5300500Y-14192686D01*
X5207314Y-14099500D01*
X5207311Y-14099498D01*
X5207309Y-14099496D01*
X5093189Y-14033609D01*
X5093191Y-14033609D01*
X5043799Y-14020375D01*
X4965892Y-13999500D01*
X4834108Y-13999500D01*
X4756200Y-14020375D01*
X4706809Y-14033609D01*
X4592690Y-14099496D01*
X4499496Y-14192690D01*
X4433609Y-14306809D01*
X4406358Y-14408513D01*
X4373033Y-14459828D01*
X4315912Y-14481754D01*
X4264544Y-14467990D01*
X4263853Y-14469405D01*
X4151395Y-14414427D01*
X4124139Y-14410456D01*
X4083260Y-14404500D01*
X2529834Y-14404500D01*
X2471643Y-14385593D01*
X2435679Y-14336093D01*
X2435679Y-14274907D01*
X2459828Y-14235497D01*
X2530831Y-14164495D01*
X2585347Y-14136719D01*
X2600834Y-14135500D01*
X4083257Y-14135500D01*
X4083260Y-14135500D01*
X4151393Y-14125573D01*
X4256483Y-14074198D01*
X4339198Y-13991483D01*
X4390573Y-13886393D01*
X4400500Y-13818260D01*
X4400500Y-13451740D01*
X6999500Y-13451740D01*
X6999500Y-13818260D01*
X7000947Y-13828190D01*
X7009427Y-13886395D01*
X7043020Y-13955110D01*
X7060802Y-13991483D01*
X7143517Y-14074198D01*
X7195265Y-14099496D01*
X7248604Y-14125572D01*
X7248605Y-14125572D01*
X7248607Y-14125573D01*
X7316740Y-14135500D01*
X7316743Y-14135500D01*
X9065890Y-14135500D01*
X9065892Y-14135500D01*
X9193186Y-14101392D01*
X9193188Y-14101390D01*
X9193190Y-14101390D01*
X9307309Y-14035503D01*
X9307309Y-14035502D01*
X9307314Y-14035500D01*
X9400500Y-13942314D01*
X9447099Y-13861602D01*
X9466390Y-13828190D01*
X9466390Y-13828188D01*
X9466392Y-13828186D01*
X9500500Y-13700892D01*
X9500500Y-13569108D01*
X9466392Y-13441814D01*
X9466390Y-13441811D01*
X9466390Y-13441809D01*
X9400503Y-13327690D01*
X9400501Y-13327688D01*
X9400500Y-13327686D01*
X9307314Y-13234500D01*
X9307311Y-13234498D01*
X9307309Y-13234496D01*
X9193189Y-13168609D01*
X9193191Y-13168609D01*
X9143799Y-13155375D01*
X9065892Y-13134500D01*
X9033260Y-13134500D01*
X7316740Y-13134500D01*
X7282673Y-13139463D01*
X7248604Y-13144427D01*
X7143518Y-13195801D01*
X7060801Y-13278518D01*
X7009427Y-13383604D01*
X7005324Y-13411766D01*
X6999500Y-13451740D01*
X4400500Y-13451740D01*
X4390573Y-13383607D01*
X4339198Y-13278517D01*
X4256483Y-13195802D01*
X4229564Y-13182642D01*
X4151395Y-13144427D01*
X4124139Y-13140456D01*
X4083260Y-13134500D01*
X2366740Y-13134500D01*
X2332673Y-13139463D01*
X2298604Y-13144427D01*
X2193518Y-13195801D01*
X2110801Y-13278518D01*
X2059427Y-13383604D01*
X2055324Y-13411766D01*
X2050947Y-13441814D01*
X2049500Y-13451743D01*
X2049500Y-13684165D01*
X2030593Y-13742356D01*
X2020504Y-13754169D01*
X1794504Y-13980169D01*
X1739987Y-14007946D01*
X1679555Y-13998375D01*
X1636290Y-13955110D01*
X1625500Y-13910165D01*
X1625500Y-13240833D01*
X1644407Y-13182642D01*
X1654490Y-13170836D01*
X2037320Y-12788005D01*
X2091835Y-12760229D01*
X2152267Y-12769800D01*
X2177322Y-12788003D01*
X2193517Y-12804198D01*
X2214885Y-12814644D01*
X2298604Y-12855572D01*
X2298605Y-12855572D01*
X2298607Y-12855573D01*
X2366740Y-12865500D01*
X2366743Y-12865500D01*
X4083257Y-12865500D01*
X4083260Y-12865500D01*
X4151393Y-12855573D01*
X4256483Y-12804198D01*
X4339198Y-12721483D01*
X4390573Y-12616393D01*
X4400500Y-12548260D01*
X4400500Y-12181740D01*
X6999500Y-12181740D01*
X6999500Y-12548260D01*
X7006118Y-12593682D01*
X7009427Y-12616395D01*
X7057408Y-12714540D01*
X7060802Y-12721483D01*
X7143517Y-12804198D01*
X7164885Y-12814644D01*
X7248604Y-12855572D01*
X7248605Y-12855572D01*
X7248607Y-12855573D01*
X7316740Y-12865500D01*
X7316743Y-12865500D01*
X9033257Y-12865500D01*
X9033260Y-12865500D01*
X9101393Y-12855573D01*
X9137368Y-12837985D01*
X9197946Y-12829414D01*
X9206470Y-12831299D01*
X9206811Y-12831390D01*
X9206814Y-12831392D01*
X9334108Y-12865500D01*
X9334110Y-12865500D01*
X9465890Y-12865500D01*
X9465892Y-12865500D01*
X9593186Y-12831392D01*
X9593188Y-12831390D01*
X9593190Y-12831390D01*
X9707309Y-12765503D01*
X9707309Y-12765502D01*
X9707314Y-12765500D01*
X9730498Y-12742315D01*
X9785013Y-12714540D01*
X9845445Y-12724111D01*
X9888710Y-12767376D01*
X9899500Y-12812321D01*
X9899500Y-14339521D01*
X9880593Y-14397712D01*
X9870504Y-14409525D01*
X9704525Y-14575504D01*
X9650008Y-14603281D01*
X9634521Y-14604500D01*
X9378365Y-14604500D01*
X9320174Y-14585593D01*
X9294389Y-14554891D01*
X9293965Y-14555194D01*
X9290115Y-14549802D01*
X9289423Y-14548978D01*
X9289198Y-14548518D01*
X9289198Y-14548517D01*
X9206483Y-14465802D01*
X9194263Y-14459828D01*
X9101395Y-14414427D01*
X9074139Y-14410456D01*
X9033260Y-14404500D01*
X7316740Y-14404500D01*
X7282673Y-14409463D01*
X7248604Y-14414427D01*
X7143518Y-14465801D01*
X7060801Y-14548518D01*
X7009427Y-14653604D01*
X7009427Y-14653607D01*
X6999500Y-14721740D01*
X6999500Y-15088260D01*
X7004216Y-15120630D01*
X7009427Y-15156395D01*
X7057538Y-15254806D01*
X7060802Y-15261483D01*
X7143517Y-15344198D01*
X7197285Y-15370483D01*
X7248604Y-15395572D01*
X7248605Y-15395572D01*
X7248607Y-15395573D01*
X7316740Y-15405500D01*
X7316743Y-15405500D01*
X9033257Y-15405500D01*
X9033260Y-15405500D01*
X9101393Y-15395573D01*
X9206483Y-15344198D01*
X9289198Y-15261483D01*
X9289423Y-15261021D01*
X9289819Y-15260612D01*
X9293965Y-15254806D01*
X9294835Y-15255427D01*
X9331965Y-15217047D01*
X9378365Y-15205500D01*
X9839563Y-15205500D01*
X9839563Y-15205499D01*
X9884430Y-15193477D01*
X11724500Y-15193477D01*
X11724500Y-15806520D01*
X11724501Y-15806523D01*
X11739352Y-15900299D01*
X11739354Y-15900304D01*
X11796950Y-16013342D01*
X11853140Y-16069532D01*
X11880916Y-16124047D01*
X11871345Y-16184479D01*
X11868874Y-16189030D01*
X11858608Y-16206811D01*
X11841218Y-16271715D01*
X11824500Y-16334107D01*
X11824500Y-16465891D01*
X11841794Y-16530433D01*
X11858609Y-16593189D01*
X11924496Y-16707308D01*
X11924498Y-16707310D01*
X11924500Y-16707313D01*
X12017686Y-16800499D01*
X12017688Y-16800500D01*
X12017690Y-16800502D01*
X12131810Y-16866389D01*
X12131808Y-16866389D01*
X12131812Y-16866390D01*
X12131814Y-16866391D01*
X12259108Y-16900499D01*
X12259110Y-16900499D01*
X12390890Y-16900499D01*
X12390892Y-16900499D01*
X12518186Y-16866391D01*
X12518188Y-16866389D01*
X12518190Y-16866389D01*
X12632309Y-16800502D01*
X12632309Y-16800501D01*
X12632314Y-16800499D01*
X12725500Y-16707313D01*
X12757882Y-16651226D01*
X12791390Y-16593189D01*
X12791390Y-16593187D01*
X12791392Y-16593185D01*
X12825500Y-16465891D01*
X12825500Y-16334107D01*
X12791392Y-16206813D01*
X12783524Y-16193186D01*
X12781129Y-16189037D01*
X12768406Y-16129189D01*
X12793291Y-16073293D01*
X12796841Y-16069550D01*
X12853050Y-16013342D01*
X12910646Y-15900304D01*
X12925500Y-15806519D01*
X12925499Y-15416512D01*
X14174500Y-15416512D01*
X14174500Y-15983488D01*
X14187551Y-16065892D01*
X14190281Y-16083125D01*
X14190283Y-16083132D01*
X14244245Y-16189037D01*
X14251472Y-16203220D01*
X14346780Y-16298528D01*
X14346782Y-16298529D01*
X14466867Y-16359716D01*
X14466869Y-16359716D01*
X14466874Y-16359719D01*
X14542541Y-16371703D01*
X14566510Y-16375500D01*
X14566512Y-16375500D01*
X14577097Y-16375500D01*
X14635288Y-16394407D01*
X14663052Y-16425381D01*
X14709583Y-16506809D01*
X14754626Y-16585635D01*
X14756752Y-16589970D01*
X14758607Y-16593184D01*
X14758608Y-16593185D01*
X14790983Y-16649260D01*
X14791073Y-16649417D01*
X14823151Y-16705554D01*
X14823671Y-16706232D01*
X14823937Y-16706580D01*
X14824476Y-16707289D01*
X14870215Y-16753029D01*
X14870526Y-16753341D01*
X14915930Y-16799151D01*
X14916499Y-16799588D01*
X14916849Y-16799858D01*
X14917647Y-16800476D01*
X14917684Y-16800497D01*
X14917686Y-16800499D01*
X14920023Y-16801848D01*
X14973634Y-16832801D01*
X14973977Y-16832999D01*
X15029739Y-16865526D01*
X15029742Y-16865527D01*
X15029777Y-16865547D01*
X15030682Y-16865922D01*
X15031099Y-16866096D01*
X15031783Y-16866383D01*
X15094196Y-16883107D01*
X15094620Y-16883221D01*
X15103534Y-16885651D01*
X15156881Y-16900201D01*
X15156885Y-16900201D01*
X15156918Y-16900210D01*
X15157849Y-16900333D01*
X15158323Y-16900396D01*
X15159079Y-16900499D01*
X15159108Y-16900499D01*
X15223565Y-16900499D01*
X15224006Y-16900500D01*
X15225144Y-16900505D01*
X15288663Y-16900788D01*
X15288663Y-16900787D01*
X15288691Y-16900788D01*
X15289430Y-16900691D01*
X15289870Y-16900634D01*
X15290850Y-16900509D01*
X15290887Y-16900499D01*
X15290892Y-16900499D01*
X15353441Y-16883739D01*
X15416108Y-16867246D01*
X15416111Y-16867244D01*
X15416142Y-16867236D01*
X15417081Y-16866848D01*
X15417444Y-16866699D01*
X15418155Y-16866407D01*
X15418179Y-16866392D01*
X15418186Y-16866391D01*
X15474321Y-16833980D01*
X15530528Y-16801863D01*
X15530531Y-16801859D01*
X15530552Y-16801848D01*
X15531190Y-16801360D01*
X15531505Y-16801119D01*
X15532293Y-16800519D01*
X15532311Y-16800500D01*
X15532314Y-16800499D01*
X15578117Y-16754695D01*
X15624128Y-16709093D01*
X15624130Y-16709087D01*
X15624147Y-16709072D01*
X15624620Y-16708458D01*
X15624875Y-16708127D01*
X15625484Y-16707339D01*
X15625497Y-16707315D01*
X15625500Y-16707313D01*
X15657881Y-16651226D01*
X15690527Y-16595260D01*
X15690528Y-16595255D01*
X15690543Y-16595230D01*
X15690892Y-16594390D01*
X15691053Y-16594004D01*
X15691383Y-16593216D01*
X15691390Y-16593187D01*
X15691392Y-16593185D01*
X15708158Y-16530612D01*
X15725202Y-16468118D01*
X15725202Y-16468116D01*
X15725210Y-16468087D01*
X15725333Y-16467158D01*
X15725394Y-16466704D01*
X15725500Y-16465926D01*
X15725500Y-16401432D01*
X15725501Y-16400991D01*
X15725538Y-16392686D01*
X15725789Y-16336336D01*
X15725788Y-16336335D01*
X15725789Y-16336305D01*
X15725701Y-16335636D01*
X15725640Y-16335164D01*
X15725510Y-16334145D01*
X15708782Y-16271715D01*
X15708668Y-16271287D01*
X15703585Y-16251975D01*
X15692247Y-16208892D01*
X15692246Y-16208891D01*
X15692237Y-16208855D01*
X15691865Y-16207956D01*
X15691696Y-16207545D01*
X15691408Y-16206841D01*
X15691215Y-16206506D01*
X15658932Y-16150591D01*
X15488544Y-15852411D01*
X15475500Y-15803293D01*
X15475500Y-15705484D01*
X15494407Y-15647293D01*
X15495752Y-15645486D01*
X15536378Y-15592164D01*
X15598681Y-15510390D01*
X15607411Y-15500401D01*
X16000500Y-15107314D01*
X16011503Y-15088256D01*
X16066390Y-14993190D01*
X16066390Y-14993188D01*
X16066392Y-14993186D01*
X16100500Y-14865893D01*
X16100500Y-14734108D01*
X16100500Y-14297322D01*
X16119407Y-14239131D01*
X16168907Y-14203167D01*
X16230093Y-14203167D01*
X16269504Y-14227318D01*
X17699500Y-15657314D01*
X17699499Y-15657314D01*
X17792685Y-15750499D01*
X17792690Y-15750503D01*
X17906810Y-15816390D01*
X17906808Y-15816390D01*
X17906812Y-15816391D01*
X17906814Y-15816392D01*
X18034108Y-15850500D01*
X18034110Y-15850500D01*
X20355890Y-15850500D01*
X20355892Y-15850500D01*
X20483186Y-15816392D01*
X20505058Y-15803763D01*
X20554559Y-15790500D01*
X22169747Y-15790500D01*
X22169748Y-15790500D01*
X22228231Y-15778867D01*
X22294552Y-15734552D01*
X22338867Y-15668231D01*
X22350500Y-15609748D01*
X22350500Y-13470252D01*
X22338867Y-13411769D01*
X22294552Y-13345448D01*
X22267970Y-13327686D01*
X22228233Y-13301134D01*
X22228231Y-13301133D01*
X22228228Y-13301132D01*
X22228227Y-13301132D01*
X22169758Y-13289501D01*
X22169748Y-13289500D01*
X21736043Y-13289500D01*
X21677852Y-13270593D01*
X21641888Y-13221093D01*
X21641888Y-13159907D01*
X21677852Y-13110407D01*
X21691098Y-13102290D01*
X21705834Y-13094781D01*
X21755405Y-13069524D01*
X21914646Y-12953828D01*
X22053828Y-12814646D01*
X22169524Y-12655405D01*
X22258884Y-12480025D01*
X22319709Y-12292826D01*
X22320967Y-12284883D01*
X22350500Y-12098420D01*
X22350500Y-11901579D01*
X22319710Y-11707178D01*
X22319709Y-11707174D01*
X22258884Y-11519975D01*
X22169524Y-11344595D01*
X22053828Y-11185354D01*
X21914646Y-11046172D01*
X21755405Y-10930476D01*
X21755404Y-10930475D01*
X21755402Y-10930474D01*
X21580025Y-10841116D01*
X21392821Y-10780289D01*
X21198420Y-10749500D01*
X21198417Y-10749500D01*
X21001583Y-10749500D01*
X21001580Y-10749500D01*
X20807178Y-10780289D01*
X20619974Y-10841116D01*
X20444597Y-10930474D01*
X20285355Y-11046171D01*
X20146171Y-11185355D01*
X20030474Y-11344597D01*
X19941116Y-11519974D01*
X19880289Y-11707178D01*
X19849500Y-11901579D01*
X19849500Y-12098420D01*
X19880289Y-12292821D01*
X19941116Y-12480025D01*
X20023628Y-12641966D01*
X20030476Y-12655405D01*
X20146172Y-12814646D01*
X20285354Y-12953828D01*
X20444595Y-13069524D01*
X20444597Y-13069525D01*
X20508902Y-13102290D01*
X20552167Y-13145555D01*
X20561738Y-13205987D01*
X20533961Y-13260504D01*
X20479444Y-13288281D01*
X20463957Y-13289500D01*
X20030252Y-13289500D01*
X20030251Y-13289500D01*
X20030241Y-13289501D01*
X19971772Y-13301132D01*
X19971766Y-13301134D01*
X19905451Y-13345445D01*
X19905445Y-13345451D01*
X19861134Y-13411766D01*
X19861132Y-13411772D01*
X19849501Y-13470241D01*
X19849500Y-13470253D01*
X19849500Y-14750500D01*
X19830593Y-14808691D01*
X19781093Y-14844655D01*
X19750500Y-14849500D01*
X18348322Y-14849500D01*
X18290131Y-14830593D01*
X18278318Y-14820504D01*
X17398303Y-13940489D01*
X16507314Y-13049500D01*
X16507311Y-13049498D01*
X16507310Y-13049497D01*
X16507309Y-13049496D01*
X16393189Y-12983609D01*
X16393186Y-12983608D01*
X16344736Y-12970626D01*
X16293423Y-12937303D01*
X16271496Y-12880182D01*
X16287331Y-12821081D01*
X16334881Y-12782576D01*
X16344729Y-12779375D01*
X16393186Y-12766392D01*
X16507314Y-12700500D01*
X16600500Y-12607314D01*
X16666392Y-12493186D01*
X16700500Y-12365892D01*
X16700500Y-12234108D01*
X16666392Y-12106814D01*
X16666390Y-12106811D01*
X16666390Y-12106809D01*
X16600503Y-11992690D01*
X16600501Y-11992688D01*
X16600500Y-11992686D01*
X16507314Y-11899500D01*
X16507311Y-11899498D01*
X16507309Y-11899496D01*
X16393189Y-11833609D01*
X16393191Y-11833609D01*
X16343799Y-11820375D01*
X16265892Y-11799500D01*
X16134108Y-11799500D01*
X16056200Y-11820375D01*
X16006809Y-11833609D01*
X15892690Y-11899496D01*
X15799496Y-11992690D01*
X15733609Y-12106809D01*
X15731788Y-12113607D01*
X15709205Y-12197890D01*
X15699500Y-12234109D01*
X15699500Y-12311504D01*
X15680593Y-12369695D01*
X15667865Y-12384050D01*
X15613401Y-12434624D01*
X15417649Y-12616395D01*
X15410486Y-12623046D01*
X15354979Y-12648787D01*
X15343121Y-12649500D01*
X15333324Y-12649500D01*
X15295442Y-12641966D01*
X15290119Y-12639761D01*
X15290117Y-12639760D01*
X15290113Y-12639759D01*
X15213410Y-12624501D01*
X15213402Y-12624500D01*
X15213401Y-12624500D01*
X15213400Y-12624500D01*
X14686602Y-12624500D01*
X14686595Y-12624501D01*
X14609883Y-12639759D01*
X14609881Y-12639760D01*
X14522890Y-12697886D01*
X14522886Y-12697890D01*
X14464762Y-12784879D01*
X14464759Y-12784886D01*
X14449501Y-12861589D01*
X14449500Y-12861599D01*
X14449500Y-13038397D01*
X14449501Y-13038404D01*
X14464759Y-13115115D01*
X14464759Y-13115116D01*
X14464760Y-13115117D01*
X14484726Y-13144999D01*
X14501334Y-13203887D01*
X14484727Y-13254999D01*
X14464761Y-13284880D01*
X14464759Y-13284886D01*
X14449501Y-13361589D01*
X14449500Y-13361599D01*
X14449500Y-13538397D01*
X14449501Y-13538404D01*
X14464759Y-13615115D01*
X14464759Y-13615116D01*
X14464760Y-13615117D01*
X14484726Y-13644999D01*
X14501334Y-13703887D01*
X14484727Y-13754999D01*
X14464761Y-13784880D01*
X14464759Y-13784886D01*
X14449501Y-13861589D01*
X14449500Y-13861599D01*
X14449500Y-14038397D01*
X14449501Y-14038404D01*
X14464759Y-14115116D01*
X14464760Y-14115118D01*
X14487515Y-14149173D01*
X14522888Y-14202112D01*
X14609883Y-14260240D01*
X14686599Y-14275500D01*
X15000500Y-14275499D01*
X15058690Y-14294406D01*
X15094654Y-14343906D01*
X15099500Y-14374499D01*
X15099500Y-14551678D01*
X15080593Y-14609869D01*
X15070503Y-14621682D01*
X14898148Y-14794036D01*
X14888686Y-14802363D01*
X14866823Y-14819260D01*
X14866816Y-14819267D01*
X14851324Y-14839600D01*
X14842585Y-14849599D01*
X14824498Y-14867686D01*
X14810680Y-14891620D01*
X14803693Y-14902116D01*
X14740165Y-14985498D01*
X14689860Y-15020326D01*
X14661417Y-15024500D01*
X14566510Y-15024500D01*
X14466874Y-15040281D01*
X14466867Y-15040283D01*
X14346782Y-15101470D01*
X14251470Y-15196782D01*
X14190283Y-15316867D01*
X14190281Y-15316874D01*
X14175477Y-15410345D01*
X14174500Y-15416512D01*
X12925499Y-15416512D01*
X12925499Y-15193482D01*
X12920926Y-15164604D01*
X12910647Y-15099700D01*
X12910646Y-15099698D01*
X12910646Y-15099696D01*
X12853050Y-14986658D01*
X12763342Y-14896950D01*
X12752881Y-14891620D01*
X12679554Y-14854257D01*
X12636290Y-14810992D01*
X12625500Y-14766048D01*
X12625500Y-14364087D01*
X12644407Y-14305896D01*
X12693907Y-14269932D01*
X12743815Y-14266990D01*
X12783618Y-14274907D01*
X12786599Y-14275500D01*
X13313400Y-14275499D01*
X13390117Y-14260240D01*
X13477112Y-14202112D01*
X13535240Y-14115117D01*
X13550500Y-14038401D01*
X13550499Y-13861600D01*
X13535240Y-13784883D01*
X13477112Y-13697888D01*
X13390117Y-13639760D01*
X13390113Y-13639759D01*
X13313410Y-13624501D01*
X13313402Y-13624500D01*
X13313401Y-13624500D01*
X13313400Y-13624500D01*
X12786602Y-13624500D01*
X12786595Y-13624501D01*
X12709881Y-13639760D01*
X12704561Y-13641964D01*
X12666676Y-13649500D01*
X12460438Y-13649500D01*
X12384011Y-13669979D01*
X12348537Y-13690460D01*
X12346242Y-13691784D01*
X12346238Y-13691786D01*
X12315489Y-13709539D01*
X12084539Y-13940489D01*
X12044980Y-14009007D01*
X12044978Y-14009011D01*
X12024500Y-14085435D01*
X12024500Y-14766048D01*
X12005593Y-14824239D01*
X11970446Y-14854257D01*
X11886659Y-14896949D01*
X11796949Y-14986659D01*
X11739354Y-15099695D01*
X11724500Y-15193477D01*
X9884430Y-15193477D01*
X9915989Y-15185021D01*
X9984511Y-15145460D01*
X10022662Y-15107309D01*
X10040461Y-15089511D01*
X10335935Y-14794036D01*
X10440460Y-14689511D01*
X10441429Y-14687832D01*
X10480021Y-14620989D01*
X10500500Y-14544562D01*
X10500500Y-12849500D01*
X10519407Y-12791309D01*
X10568907Y-12755345D01*
X10599500Y-12750500D01*
X11310118Y-12750500D01*
X11368309Y-12769407D01*
X11404273Y-12818907D01*
X11404273Y-12880093D01*
X11395854Y-12899000D01*
X11333609Y-13006809D01*
X11322171Y-13049497D01*
X11299500Y-13134108D01*
X11299500Y-13265892D01*
X11316059Y-13327690D01*
X11333609Y-13393190D01*
X11399496Y-13507309D01*
X11399498Y-13507311D01*
X11399500Y-13507314D01*
X11492686Y-13600500D01*
X11492688Y-13600501D01*
X11492690Y-13600503D01*
X11606810Y-13666390D01*
X11606808Y-13666390D01*
X11606812Y-13666391D01*
X11606814Y-13666392D01*
X11734108Y-13700500D01*
X11734110Y-13700500D01*
X11865890Y-13700500D01*
X11865892Y-13700500D01*
X11993186Y-13666392D01*
X11993188Y-13666390D01*
X11993190Y-13666390D01*
X12107309Y-13600503D01*
X12107309Y-13600502D01*
X12107314Y-13600500D01*
X12178319Y-13529494D01*
X12232834Y-13501719D01*
X12248321Y-13500500D01*
X12295118Y-13500500D01*
X12339562Y-13500500D01*
X12415989Y-13480021D01*
X12484511Y-13440460D01*
X12513205Y-13411766D01*
X12540461Y-13384511D01*
X12634804Y-13290167D01*
X12689320Y-13262389D01*
X12724119Y-13263071D01*
X12786599Y-13275500D01*
X13313400Y-13275499D01*
X13390117Y-13260240D01*
X13477112Y-13202112D01*
X13535240Y-13115117D01*
X13550500Y-13038401D01*
X13550499Y-12861600D01*
X13535240Y-12784883D01*
X13535237Y-12784879D01*
X13515274Y-12755002D01*
X13498665Y-12696114D01*
X13515274Y-12644998D01*
X13535238Y-12615120D01*
X13535238Y-12615119D01*
X13535240Y-12615117D01*
X13550500Y-12538401D01*
X13550499Y-12361600D01*
X13535240Y-12284883D01*
X13522281Y-12265489D01*
X13487065Y-12212784D01*
X13477112Y-12197888D01*
X13390117Y-12139760D01*
X13390113Y-12139759D01*
X13313410Y-12124501D01*
X13313402Y-12124500D01*
X13313401Y-12124500D01*
X13313400Y-12124500D01*
X12786602Y-12124500D01*
X12786595Y-12124501D01*
X12709881Y-12139760D01*
X12704561Y-12141964D01*
X12666676Y-12149500D01*
X10160435Y-12149500D01*
X10084011Y-12169978D01*
X10084007Y-12169980D01*
X10009870Y-12212784D01*
X10009058Y-12211377D01*
X9958863Y-12229137D01*
X9900202Y-12211743D01*
X9871542Y-12176333D01*
X9869637Y-12177433D01*
X9800503Y-12057690D01*
X9800501Y-12057688D01*
X9800500Y-12057686D01*
X9707314Y-11964500D01*
X9707311Y-11964498D01*
X9707309Y-11964496D01*
X9593189Y-11898609D01*
X9593191Y-11898609D01*
X9543799Y-11885375D01*
X9465892Y-11864500D01*
X9334108Y-11864500D01*
X9218425Y-11895497D01*
X9206471Y-11898700D01*
X9145369Y-11895497D01*
X9137367Y-11892013D01*
X9101396Y-11874428D01*
X9101394Y-11874427D01*
X9101393Y-11874427D01*
X9033260Y-11864500D01*
X7316740Y-11864500D01*
X7282673Y-11869463D01*
X7248604Y-11874427D01*
X7143518Y-11925801D01*
X7060801Y-12008518D01*
X7009427Y-12113604D01*
X7005617Y-12139759D01*
X6999500Y-12181740D01*
X4400500Y-12181740D01*
X4390573Y-12113607D01*
X4387252Y-12106814D01*
X4363235Y-12057686D01*
X4339198Y-12008517D01*
X4256483Y-11925802D01*
X4256481Y-11925801D01*
X4151395Y-11874427D01*
X4124139Y-11870456D01*
X4083260Y-11864500D01*
X2366740Y-11864500D01*
X2332673Y-11869463D01*
X2298604Y-11874427D01*
X2193518Y-11925801D01*
X2193517Y-11925801D01*
X2193517Y-11925802D01*
X2110802Y-12008517D01*
X2110801Y-12008518D01*
X2108816Y-12010504D01*
X2054299Y-12038281D01*
X2038812Y-12039500D01*
X1957147Y-12039500D01*
X1915754Y-12050591D01*
X1874360Y-12061682D01*
X1827581Y-12088689D01*
X1827582Y-12088690D01*
X1800139Y-12104534D01*
X1039534Y-12865139D01*
X1030849Y-12880182D01*
X996682Y-12939361D01*
X996682Y-12939362D01*
X996679Y-12939367D01*
X993053Y-12952900D01*
X993032Y-12952981D01*
X992806Y-12953828D01*
X974500Y-13022147D01*
X350000Y-13022147D01*
X350000Y-10911740D01*
X2049500Y-10911740D01*
X2049500Y-11278260D01*
X2056118Y-11323682D01*
X2059427Y-11346395D01*
X2110801Y-11451481D01*
X2110802Y-11451483D01*
X2193517Y-11534198D01*
X2247285Y-11560483D01*
X2298604Y-11585572D01*
X2298605Y-11585572D01*
X2298607Y-11585573D01*
X2366740Y-11595500D01*
X2366743Y-11595500D01*
X4083257Y-11595500D01*
X4083260Y-11595500D01*
X4151393Y-11585573D01*
X4256483Y-11534198D01*
X4339198Y-11451483D01*
X4390573Y-11346393D01*
X4400500Y-11278260D01*
X4400500Y-10911740D01*
X4390573Y-10843607D01*
X4389355Y-10841116D01*
X4339198Y-10738518D01*
X4339198Y-10738517D01*
X4256483Y-10655802D01*
X4256481Y-10655801D01*
X4151395Y-10604427D01*
X4124139Y-10600456D01*
X4083260Y-10594500D01*
X4083257Y-10594500D01*
X3724500Y-10594500D01*
X3666309Y-10575593D01*
X3630345Y-10526093D01*
X3625500Y-10495500D01*
X3625500Y-10098795D01*
X3644407Y-10040604D01*
X3679554Y-10010585D01*
X3703220Y-9998528D01*
X3798528Y-9903220D01*
X3859719Y-9783126D01*
X3875500Y-9683488D01*
X3875500Y-9116512D01*
X3859719Y-9016874D01*
X3859716Y-9016869D01*
X3859716Y-9016867D01*
X3798529Y-8896782D01*
X3798528Y-8896780D01*
X3798525Y-8896777D01*
X3753290Y-8851541D01*
X3725513Y-8797024D01*
X3725142Y-8768611D01*
X3725500Y-8765892D01*
X3725500Y-8634109D01*
X3720165Y-8614198D01*
X3691392Y-8506814D01*
X3691390Y-8506811D01*
X3691390Y-8506809D01*
X3625503Y-8392690D01*
X3625501Y-8392688D01*
X3625500Y-8392686D01*
X3532314Y-8299500D01*
X3532311Y-8299498D01*
X3532309Y-8299496D01*
X3418189Y-8233609D01*
X3418191Y-8233609D01*
X3353983Y-8216405D01*
X3290892Y-8199500D01*
X3159108Y-8199500D01*
X3096017Y-8216405D01*
X3031809Y-8233609D01*
X2917690Y-8299496D01*
X2824496Y-8392690D01*
X2758609Y-8506809D01*
X2724500Y-8634109D01*
X2724500Y-8765893D01*
X2724859Y-8768622D01*
X2724500Y-8770558D01*
X2724500Y-8772381D01*
X2724162Y-8772381D01*
X2713705Y-8828782D01*
X2696710Y-8851540D01*
X2651474Y-8896777D01*
X2651470Y-8896782D01*
X2590283Y-9016867D01*
X2590281Y-9016874D01*
X2574500Y-9116510D01*
X2574500Y-9683489D01*
X2590281Y-9783125D01*
X2590283Y-9783132D01*
X2651470Y-9903217D01*
X2651472Y-9903220D01*
X2746780Y-9998528D01*
X2770444Y-10010585D01*
X2813708Y-10053848D01*
X2824500Y-10098795D01*
X2824500Y-10495500D01*
X2805593Y-10553691D01*
X2756093Y-10589655D01*
X2725500Y-10594500D01*
X2366740Y-10594500D01*
X2332673Y-10599463D01*
X2298604Y-10604427D01*
X2193518Y-10655801D01*
X2110801Y-10738518D01*
X2059427Y-10843604D01*
X2059427Y-10843607D01*
X2049500Y-10911740D01*
X350000Y-10911740D01*
X350000Y-7093477D01*
X624500Y-7093477D01*
X624500Y-7556520D01*
X624501Y-7556523D01*
X639352Y-7650299D01*
X639354Y-7650304D01*
X696950Y-7763342D01*
X786658Y-7853050D01*
X899696Y-7910646D01*
X993481Y-7925500D01*
X1606518Y-7925499D01*
X1606520Y-7925499D01*
X1606521Y-7925498D01*
X1653411Y-7918072D01*
X1700299Y-7910647D01*
X1700299Y-7910646D01*
X1700304Y-7910646D01*
X1813342Y-7853050D01*
X1903050Y-7763342D01*
X1903051Y-7763339D01*
X1908559Y-7757832D01*
X1910242Y-7759515D01*
X1950399Y-7730344D01*
X1980987Y-7725500D01*
X3942851Y-7725500D01*
X3942853Y-7725500D01*
X4025639Y-7703318D01*
X4025641Y-7703316D01*
X4025643Y-7703316D01*
X4099857Y-7660468D01*
X4099857Y-7660467D01*
X4099862Y-7660465D01*
X4785465Y-6974862D01*
X4789764Y-6967414D01*
X4835233Y-6926475D01*
X4896083Y-6920079D01*
X4949071Y-6950672D01*
X4973958Y-7006567D01*
X4974500Y-7016916D01*
X4974500Y-7780353D01*
X4996682Y-7863138D01*
X5039535Y-7937362D01*
X5100138Y-7997965D01*
X5174362Y-8040818D01*
X5257147Y-8063000D01*
X5342853Y-8063000D01*
X5950500Y-8063000D01*
X6008691Y-8081907D01*
X6044655Y-8131407D01*
X6049500Y-8162000D01*
X6049500Y-8358260D01*
X6056118Y-8403682D01*
X6059427Y-8426395D01*
X6098742Y-8506814D01*
X6110802Y-8531483D01*
X6193517Y-8614198D01*
X6234244Y-8634108D01*
X6298604Y-8665572D01*
X6298605Y-8665572D01*
X6298607Y-8665573D01*
X6366740Y-8675500D01*
X6366743Y-8675500D01*
X6733257Y-8675500D01*
X6733260Y-8675500D01*
X6801393Y-8665573D01*
X6906483Y-8614198D01*
X6989198Y-8531483D01*
X7040573Y-8426393D01*
X7050500Y-8358260D01*
X7050500Y-7693731D01*
X7947082Y-7693731D01*
X7947181Y-7695979D01*
X7947181Y-7695981D01*
X7949404Y-7746356D01*
X7949500Y-7750720D01*
X7949500Y-8358260D01*
X7956118Y-8403682D01*
X7959427Y-8426395D01*
X7998742Y-8506814D01*
X8010802Y-8531483D01*
X8093517Y-8614198D01*
X8134244Y-8634108D01*
X8198604Y-8665572D01*
X8198605Y-8665572D01*
X8198607Y-8665573D01*
X8266740Y-8675500D01*
X8266743Y-8675500D01*
X8633257Y-8675500D01*
X8633260Y-8675500D01*
X8701393Y-8665573D01*
X8806483Y-8614198D01*
X8889198Y-8531483D01*
X8940573Y-8426393D01*
X8950500Y-8358260D01*
X8950500Y-8311133D01*
X8969407Y-8252942D01*
X9018907Y-8216978D01*
X9045129Y-8212230D01*
X9308850Y-8200596D01*
X9313213Y-8200500D01*
X9365892Y-8200500D01*
X9366247Y-8200404D01*
X9387517Y-8197125D01*
X9387888Y-8197109D01*
X9420203Y-8186903D01*
X9438118Y-8181247D01*
X9442284Y-8180030D01*
X9493186Y-8166392D01*
X9493502Y-8166209D01*
X9513209Y-8157533D01*
X9513555Y-8157424D01*
X9557976Y-8129095D01*
X9561665Y-8126855D01*
X9607314Y-8100500D01*
X9607567Y-8100246D01*
X9624361Y-8086761D01*
X9624668Y-8086566D01*
X9660264Y-8047682D01*
X9663236Y-8044576D01*
X9700500Y-8007314D01*
X9700681Y-8006999D01*
X9713419Y-7989622D01*
X9713450Y-7989587D01*
X9713656Y-7989363D01*
X9737963Y-7942616D01*
X9740042Y-7938824D01*
X9766392Y-7893186D01*
X9766485Y-7892835D01*
X9774287Y-7872763D01*
X9774454Y-7872442D01*
X9785838Y-7820974D01*
X9786862Y-7816783D01*
X9800500Y-7765892D01*
X9800500Y-7765520D01*
X9802838Y-7744131D01*
X9802918Y-7743769D01*
X9800596Y-7691133D01*
X9800500Y-7686770D01*
X9800500Y-7634109D01*
X9800404Y-7633751D01*
X9797126Y-7612482D01*
X9797110Y-7612113D01*
X9781241Y-7561865D01*
X9780024Y-7557693D01*
X9766392Y-7506814D01*
X9766205Y-7506491D01*
X9757535Y-7486799D01*
X9757424Y-7486446D01*
X9729085Y-7442009D01*
X9726847Y-7438320D01*
X9700501Y-7392688D01*
X9700500Y-7392686D01*
X9700228Y-7392414D01*
X9686762Y-7375641D01*
X9686564Y-7375330D01*
X9647722Y-7339771D01*
X9644569Y-7336754D01*
X9607316Y-7299502D01*
X9607310Y-7299497D01*
X9606989Y-7299312D01*
X9589643Y-7286599D01*
X9589366Y-7286346D01*
X9589364Y-7286344D01*
X9542622Y-7262038D01*
X9538798Y-7259941D01*
X9493191Y-7233610D01*
X9493181Y-7233606D01*
X9492814Y-7233508D01*
X9472781Y-7225723D01*
X9472441Y-7225546D01*
X9421011Y-7214169D01*
X9416773Y-7213133D01*
X9396503Y-7207702D01*
X9365892Y-7199500D01*
X9365891Y-7199500D01*
X9365520Y-7199500D01*
X9344134Y-7197162D01*
X9343769Y-7197081D01*
X9293447Y-7199302D01*
X9291136Y-7199404D01*
X9286775Y-7199500D01*
X9234108Y-7199500D01*
X9234105Y-7199500D01*
X9234102Y-7199501D01*
X9233737Y-7199599D01*
X9212490Y-7202873D01*
X9053704Y-7209878D01*
X8994737Y-7193554D01*
X8956626Y-7145687D01*
X8951071Y-7120276D01*
X8951016Y-7120285D01*
X8950902Y-7119503D01*
X8950599Y-7118117D01*
X8950500Y-7116751D01*
X8950500Y-7116740D01*
X8940573Y-7048607D01*
X8925080Y-7016916D01*
X8915483Y-6997285D01*
X8889198Y-6943517D01*
X8806483Y-6860802D01*
X8806481Y-6860801D01*
X8701395Y-6809427D01*
X8674139Y-6805456D01*
X8633260Y-6799500D01*
X8266740Y-6799500D01*
X8232673Y-6804463D01*
X8198604Y-6809427D01*
X8093518Y-6860801D01*
X8010801Y-6943518D01*
X7959427Y-7048604D01*
X7959427Y-7048607D01*
X7949501Y-7116738D01*
X7949500Y-7116743D01*
X7949500Y-7671980D01*
X7948284Y-7683098D01*
X7948638Y-7685016D01*
X7948078Y-7689225D01*
X7947082Y-7693731D01*
X7050500Y-7693731D01*
X7050500Y-7116740D01*
X7040573Y-7048607D01*
X7025080Y-7016916D01*
X7015483Y-6997285D01*
X6989198Y-6943517D01*
X6906483Y-6860802D01*
X6906481Y-6860801D01*
X6801395Y-6809427D01*
X6774139Y-6805456D01*
X6733260Y-6799500D01*
X6366740Y-6799500D01*
X6332673Y-6804463D01*
X6298604Y-6809427D01*
X6193518Y-6860801D01*
X6110801Y-6943518D01*
X6059427Y-7048604D01*
X6059427Y-7048607D01*
X6049501Y-7116738D01*
X6049500Y-7116743D01*
X6049500Y-7313000D01*
X6030593Y-7371191D01*
X5981093Y-7407155D01*
X5950500Y-7412000D01*
X5724500Y-7412000D01*
X5666309Y-7393093D01*
X5630345Y-7343593D01*
X5625500Y-7313000D01*
X5625500Y-5957148D01*
X5625500Y-5957147D01*
X5603318Y-5874362D01*
X5560465Y-5800138D01*
X5499862Y-5739535D01*
X5425638Y-5696682D01*
X5342853Y-5674500D01*
X5342851Y-5674500D01*
X5206879Y-5674500D01*
X5148688Y-5655593D01*
X5112724Y-5606093D01*
X5112724Y-5606092D01*
X5110645Y-5599693D01*
X5081318Y-5542138D01*
X5053050Y-5486658D01*
X4963342Y-5396950D01*
X4850304Y-5339354D01*
X4850305Y-5339354D01*
X4756522Y-5324500D01*
X4293479Y-5324500D01*
X4293476Y-5324501D01*
X4199700Y-5339352D01*
X4199695Y-5339354D01*
X4086659Y-5396949D01*
X3996949Y-5486659D01*
X3939354Y-5599695D01*
X3924500Y-5693477D01*
X3924500Y-6306520D01*
X3924501Y-6306523D01*
X3939352Y-6400299D01*
X3939354Y-6400304D01*
X3996950Y-6513342D01*
X4086658Y-6603050D01*
X4086660Y-6603051D01*
X4091637Y-6608028D01*
X4119414Y-6662545D01*
X4109843Y-6722977D01*
X4091637Y-6748035D01*
X3794170Y-7045503D01*
X3739653Y-7073281D01*
X3724166Y-7074500D01*
X2056879Y-7074500D01*
X1998688Y-7055593D01*
X1962724Y-7006093D01*
X1962724Y-7006092D01*
X1960645Y-6999693D01*
X1920079Y-6920079D01*
X1903050Y-6886658D01*
X1813342Y-6796950D01*
X1700304Y-6739354D01*
X1700305Y-6739354D01*
X1606522Y-6724500D01*
X993479Y-6724500D01*
X993476Y-6724501D01*
X899700Y-6739352D01*
X899695Y-6739354D01*
X786659Y-6796949D01*
X696949Y-6886659D01*
X639354Y-6999695D01*
X624500Y-7093477D01*
X350000Y-7093477D01*
X350000Y-5289593D01*
X368907Y-5231402D01*
X418407Y-5195438D01*
X479593Y-5195438D01*
X498500Y-5203857D01*
X589791Y-5256564D01*
X630732Y-5302033D01*
X638072Y-5357787D01*
X624500Y-5443477D01*
X624500Y-5906520D01*
X624501Y-5906523D01*
X639352Y-6000299D01*
X639354Y-6000304D01*
X696950Y-6113342D01*
X786658Y-6203050D01*
X899696Y-6260646D01*
X993481Y-6275500D01*
X1606518Y-6275499D01*
X1606520Y-6275499D01*
X1606521Y-6275498D01*
X1653411Y-6268072D01*
X1700299Y-6260647D01*
X1700299Y-6260646D01*
X1700304Y-6260646D01*
X1813342Y-6203050D01*
X1903050Y-6113342D01*
X1960646Y-6000304D01*
X1971926Y-5929081D01*
X1975500Y-5906521D01*
X1975500Y-5693477D01*
X2274500Y-5693477D01*
X2274500Y-6306520D01*
X2274501Y-6306523D01*
X2289352Y-6400299D01*
X2289354Y-6400304D01*
X2346950Y-6513342D01*
X2436658Y-6603050D01*
X2549696Y-6660646D01*
X2643481Y-6675500D01*
X3106518Y-6675499D01*
X3106520Y-6675499D01*
X3106521Y-6675498D01*
X3153411Y-6668072D01*
X3200299Y-6660647D01*
X3200299Y-6660646D01*
X3200304Y-6660646D01*
X3313342Y-6603050D01*
X3403050Y-6513342D01*
X3460646Y-6400304D01*
X3475500Y-6306519D01*
X3475499Y-5693482D01*
X3470954Y-5664786D01*
X3460647Y-5599700D01*
X3460646Y-5599698D01*
X3460646Y-5599696D01*
X3403050Y-5486658D01*
X3313342Y-5396950D01*
X3313339Y-5396948D01*
X3254554Y-5366995D01*
X3211290Y-5323730D01*
X3200500Y-5278786D01*
X3200500Y-5224500D01*
X3219407Y-5166309D01*
X3268907Y-5130345D01*
X3299500Y-5125500D01*
X4392851Y-5125500D01*
X4392853Y-5125500D01*
X4475638Y-5103318D01*
X4549862Y-5060465D01*
X4610465Y-4999862D01*
X4653318Y-4925638D01*
X4675500Y-4842853D01*
X4675500Y-4676858D01*
X4694407Y-4618667D01*
X4721933Y-4596994D01*
X4720123Y-4594285D01*
X4744063Y-4578288D01*
X4794552Y-4544552D01*
X4838867Y-4478231D01*
X4850500Y-4419748D01*
X4850500Y-3080253D01*
X6849500Y-3080253D01*
X6849500Y-4419750D01*
X6858052Y-4462743D01*
X6856581Y-4507677D01*
X6849500Y-4534104D01*
X6849500Y-4534108D01*
X6849500Y-4665892D01*
X6873952Y-4757148D01*
X6883609Y-4793190D01*
X6949496Y-4907309D01*
X6949498Y-4907311D01*
X6949500Y-4907314D01*
X7027206Y-4985020D01*
X7054982Y-5039535D01*
X7046142Y-5098501D01*
X7009428Y-5173602D01*
X7009428Y-5173604D01*
X7009427Y-5173607D01*
X6999500Y-5241740D01*
X6999500Y-6483260D01*
X7003883Y-6513340D01*
X7009427Y-6551395D01*
X7034680Y-6603050D01*
X7060802Y-6656483D01*
X7143517Y-6739198D01*
X7161594Y-6748035D01*
X7248604Y-6790572D01*
X7248605Y-6790572D01*
X7248607Y-6790573D01*
X7316740Y-6800500D01*
X7316743Y-6800500D01*
X7683257Y-6800500D01*
X7683260Y-6800500D01*
X7751393Y-6790573D01*
X7856483Y-6739198D01*
X7939198Y-6656483D01*
X7990573Y-6551393D01*
X8000500Y-6483260D01*
X8000500Y-6462000D01*
X8019407Y-6403809D01*
X8068907Y-6367845D01*
X8099500Y-6363000D01*
X8435195Y-6363000D01*
X8456350Y-6365286D01*
X10379473Y-6785968D01*
X10383859Y-6787035D01*
X10434108Y-6800500D01*
X10435196Y-6800500D01*
X10456355Y-6802788D01*
X10457357Y-6803006D01*
X10457414Y-6803019D01*
X10509322Y-6800606D01*
X10513917Y-6800500D01*
X11900500Y-6800500D01*
X11958691Y-6819407D01*
X11994655Y-6868907D01*
X11999500Y-6899500D01*
X11999500Y-7604273D01*
X12002353Y-7634693D01*
X12002355Y-7634702D01*
X12047207Y-7762882D01*
X12127845Y-7872143D01*
X12127847Y-7872145D01*
X12127850Y-7872149D01*
X12127853Y-7872151D01*
X12127855Y-7872153D01*
X12237116Y-7952791D01*
X12237117Y-7952791D01*
X12237118Y-7952792D01*
X12365301Y-7997645D01*
X12395725Y-8000498D01*
X12395727Y-8000499D01*
X12395734Y-8000499D01*
X13604273Y-8000499D01*
X13604273Y-8000498D01*
X13634699Y-7997645D01*
X13762882Y-7952792D01*
X13872150Y-7872149D01*
X13952793Y-7762881D01*
X13997646Y-7634698D01*
X14000499Y-7604272D01*
X14000500Y-7604272D01*
X14000500Y-7388743D01*
X14019407Y-7330552D01*
X14068907Y-7294588D01*
X14130093Y-7294588D01*
X14169504Y-7318739D01*
X14670504Y-7819739D01*
X14698281Y-7874256D01*
X14699500Y-7889743D01*
X14699500Y-8679057D01*
X14740423Y-8831784D01*
X14819480Y-8968716D01*
X14931284Y-9080520D01*
X15068216Y-9159577D01*
X15220943Y-9200500D01*
X15220945Y-9200500D01*
X15379055Y-9200500D01*
X15379057Y-9200500D01*
X15531784Y-9159577D01*
X15668716Y-9080520D01*
X15780520Y-8968716D01*
X15859577Y-8831784D01*
X15900500Y-8679057D01*
X15900500Y-7687045D01*
X15900501Y-7687032D01*
X15900501Y-7520942D01*
X15900500Y-7520940D01*
X15859578Y-7368219D01*
X15859578Y-7368218D01*
X15843154Y-7339771D01*
X15780520Y-7231284D01*
X14480521Y-5931286D01*
X14480520Y-5931284D01*
X14368716Y-5819480D01*
X14281904Y-5769360D01*
X14281903Y-5769359D01*
X14231788Y-5740425D01*
X14231790Y-5740425D01*
X14231785Y-5740423D01*
X14231781Y-5740422D01*
X14231777Y-5740420D01*
X14073876Y-5698110D01*
X14022562Y-5664786D01*
X14000636Y-5607665D01*
X14000500Y-5602484D01*
X14000500Y-4995726D01*
X14000499Y-4995724D01*
X14000261Y-4993186D01*
X13997646Y-4965300D01*
X13964388Y-4870253D01*
X19849500Y-4870253D01*
X19849500Y-7009746D01*
X19849501Y-7009758D01*
X19861132Y-7068227D01*
X19861134Y-7068233D01*
X19893545Y-7116738D01*
X19905448Y-7134552D01*
X19971769Y-7178867D01*
X20016231Y-7187711D01*
X20030241Y-7190498D01*
X20030246Y-7190498D01*
X20030252Y-7190500D01*
X20030253Y-7190500D01*
X22169747Y-7190500D01*
X22169748Y-7190500D01*
X22228231Y-7178867D01*
X22294552Y-7134552D01*
X22338867Y-7068231D01*
X22350500Y-7009748D01*
X22350500Y-4870252D01*
X22338867Y-4811769D01*
X22294552Y-4745448D01*
X22294548Y-4745445D01*
X22228233Y-4701134D01*
X22228231Y-4701133D01*
X22228228Y-4701132D01*
X22228227Y-4701132D01*
X22169758Y-4689501D01*
X22169748Y-4689500D01*
X20030252Y-4689500D01*
X20030251Y-4689500D01*
X20030241Y-4689501D01*
X19971772Y-4701132D01*
X19971766Y-4701134D01*
X19905451Y-4745445D01*
X19905445Y-4745451D01*
X19861134Y-4811766D01*
X19861132Y-4811772D01*
X19849501Y-4870241D01*
X19849500Y-4870253D01*
X13964388Y-4870253D01*
X13952793Y-4837117D01*
X13934085Y-4811769D01*
X13872154Y-4727854D01*
X13872152Y-4727852D01*
X13872150Y-4727849D01*
X13872146Y-4727846D01*
X13872144Y-4727844D01*
X13762883Y-4647206D01*
X13634703Y-4602354D01*
X13634694Y-4602352D01*
X13604274Y-4599499D01*
X13604266Y-4599499D01*
X12395734Y-4599499D01*
X12395725Y-4599499D01*
X12365305Y-4602352D01*
X12365296Y-4602354D01*
X12237116Y-4647206D01*
X12127855Y-4727844D01*
X12127845Y-4727854D01*
X12047207Y-4837115D01*
X12002355Y-4965295D01*
X12002353Y-4965304D01*
X11999500Y-4995724D01*
X11999500Y-5700500D01*
X11980593Y-5758691D01*
X11931093Y-5794655D01*
X11900500Y-5799500D01*
X10564805Y-5799500D01*
X10543649Y-5797213D01*
X10284046Y-5740425D01*
X9123972Y-5486659D01*
X8620575Y-5376541D01*
X8616109Y-5375455D01*
X8584534Y-5366995D01*
X8565892Y-5362000D01*
X8565891Y-5362000D01*
X8564803Y-5362000D01*
X8543644Y-5359712D01*
X8542593Y-5359482D01*
X8542587Y-5359481D01*
X8542585Y-5359481D01*
X8542583Y-5359481D01*
X8542582Y-5359481D01*
X8490677Y-5361893D01*
X8486082Y-5362000D01*
X8099500Y-5362000D01*
X8041309Y-5343093D01*
X8005345Y-5293593D01*
X8000500Y-5263000D01*
X8000500Y-5241743D01*
X8000500Y-5241740D01*
X7990573Y-5173607D01*
X7987005Y-5166309D01*
X7965483Y-5122285D01*
X7939198Y-5068517D01*
X7856483Y-4985802D01*
X7856481Y-4985801D01*
X7856479Y-4985799D01*
X7833777Y-4974701D01*
X7789803Y-4932158D01*
X7779234Y-4871892D01*
X7791521Y-4836262D01*
X7816392Y-4793186D01*
X7850500Y-4665892D01*
X7850500Y-4534108D01*
X7843418Y-4507677D01*
X7841948Y-4462740D01*
X7850499Y-4419755D01*
X7850500Y-4419746D01*
X7850500Y-3080253D01*
X7850498Y-3080241D01*
X7847711Y-3066231D01*
X7838867Y-3021769D01*
X7794552Y-2955448D01*
X7794548Y-2955445D01*
X7728233Y-2911134D01*
X7728231Y-2911133D01*
X7728228Y-2911132D01*
X7728227Y-2911132D01*
X7669758Y-2899501D01*
X7669748Y-2899500D01*
X7030252Y-2899500D01*
X7030251Y-2899500D01*
X7030241Y-2899501D01*
X6971772Y-2911132D01*
X6971766Y-2911134D01*
X6905451Y-2955445D01*
X6905445Y-2955451D01*
X6861134Y-3021766D01*
X6861132Y-3021772D01*
X6849501Y-3080241D01*
X6849500Y-3080253D01*
X4850500Y-3080253D01*
X4850500Y-3080252D01*
X4838867Y-3021769D01*
X4794552Y-2955448D01*
X4794548Y-2955445D01*
X4728233Y-2911134D01*
X4728231Y-2911133D01*
X4728228Y-2911132D01*
X4728227Y-2911132D01*
X4669758Y-2899501D01*
X4669748Y-2899500D01*
X4030252Y-2899500D01*
X4030251Y-2899500D01*
X4030241Y-2899501D01*
X3971772Y-2911132D01*
X3971766Y-2911134D01*
X3905451Y-2955445D01*
X3905445Y-2955451D01*
X3861134Y-3021766D01*
X3861132Y-3021772D01*
X3849501Y-3080241D01*
X3849500Y-3080253D01*
X3849500Y-4375500D01*
X3830593Y-4433691D01*
X3781093Y-4469655D01*
X3750500Y-4474500D01*
X2917853Y-4474500D01*
X2832147Y-4474500D01*
X2749362Y-4496682D01*
X2675138Y-4539535D01*
X2614535Y-4600138D01*
X2571682Y-4674362D01*
X2556674Y-4730375D01*
X2549500Y-4757148D01*
X2549500Y-5278786D01*
X2530593Y-5336977D01*
X2495446Y-5366995D01*
X2436660Y-5396948D01*
X2346949Y-5486659D01*
X2289354Y-5599695D01*
X2274500Y-5693477D01*
X1975500Y-5693477D01*
X1975500Y-5689591D01*
X1975499Y-5443479D01*
X1975498Y-5443476D01*
X1960647Y-5349700D01*
X1960646Y-5349698D01*
X1960646Y-5349696D01*
X1903050Y-5236658D01*
X1813342Y-5146950D01*
X1700304Y-5089354D01*
X1700305Y-5089354D01*
X1606522Y-5074500D01*
X1606519Y-5074500D01*
X1389204Y-5074500D01*
X1331013Y-5055593D01*
X1303249Y-5024620D01*
X1292641Y-5006057D01*
X1280185Y-4946153D01*
X1282970Y-4931313D01*
X1299331Y-4870253D01*
X1300500Y-4865892D01*
X1300500Y-4734108D01*
X1266392Y-4606814D01*
X1266390Y-4606811D01*
X1266390Y-4606809D01*
X1200503Y-4492690D01*
X1200501Y-4492688D01*
X1200500Y-4492686D01*
X1107314Y-4399500D01*
X1107311Y-4399498D01*
X1107309Y-4399496D01*
X993189Y-4333609D01*
X993191Y-4333609D01*
X943799Y-4320375D01*
X865892Y-4299500D01*
X734108Y-4299500D01*
X670461Y-4316554D01*
X606812Y-4333608D01*
X498500Y-4396143D01*
X438652Y-4408864D01*
X382756Y-4383977D01*
X352163Y-4330989D01*
X350000Y-4310406D01*
X350000Y-1731004D01*
X2899500Y-1731004D01*
X2899500Y-1868995D01*
X2926420Y-2004327D01*
X2926420Y-2004329D01*
X2979222Y-2131806D01*
X2979228Y-2131817D01*
X3055885Y-2246541D01*
X3153458Y-2344114D01*
X3268182Y-2420771D01*
X3268193Y-2420777D01*
X3315283Y-2440282D01*
X3395672Y-2473580D01*
X3531007Y-2500500D01*
X3531008Y-2500500D01*
X3668992Y-2500500D01*
X3668993Y-2500500D01*
X3804328Y-2473580D01*
X3931811Y-2420775D01*
X4046542Y-2344114D01*
X4144114Y-2246542D01*
X4220775Y-2131811D01*
X4273580Y-2004328D01*
X4300500Y-1868993D01*
X4300500Y-1731007D01*
X4300499Y-1731004D01*
X5899500Y-1731004D01*
X5899500Y-1868995D01*
X5926420Y-2004327D01*
X5926420Y-2004329D01*
X5979222Y-2131806D01*
X5979228Y-2131817D01*
X6055885Y-2246541D01*
X6153458Y-2344114D01*
X6268182Y-2420771D01*
X6268193Y-2420777D01*
X6315283Y-2440282D01*
X6395672Y-2473580D01*
X6531007Y-2500500D01*
X6531008Y-2500500D01*
X6668992Y-2500500D01*
X6668993Y-2500500D01*
X6804328Y-2473580D01*
X6931811Y-2420775D01*
X7046542Y-2344114D01*
X7144114Y-2246542D01*
X7220775Y-2131811D01*
X7273580Y-2004328D01*
X7300500Y-1868993D01*
X7300500Y-1731007D01*
X7273580Y-1595672D01*
X7220775Y-1468189D01*
X7220774Y-1468187D01*
X7220771Y-1468182D01*
X7144114Y-1353458D01*
X7046541Y-1255885D01*
X6931817Y-1179228D01*
X6931806Y-1179222D01*
X6804328Y-1126420D01*
X6668995Y-1099500D01*
X6668993Y-1099500D01*
X6531007Y-1099500D01*
X6531004Y-1099500D01*
X6395672Y-1126420D01*
X6395670Y-1126420D01*
X6268193Y-1179222D01*
X6268182Y-1179228D01*
X6153458Y-1255885D01*
X6055885Y-1353458D01*
X5979228Y-1468182D01*
X5979222Y-1468193D01*
X5926420Y-1595670D01*
X5926420Y-1595672D01*
X5899500Y-1731004D01*
X4300499Y-1731004D01*
X4273580Y-1595672D01*
X4220775Y-1468189D01*
X4220774Y-1468187D01*
X4220771Y-1468182D01*
X4144114Y-1353458D01*
X4046541Y-1255885D01*
X3931817Y-1179228D01*
X3931806Y-1179222D01*
X3804328Y-1126420D01*
X3668995Y-1099500D01*
X3668993Y-1099500D01*
X3531007Y-1099500D01*
X3531004Y-1099500D01*
X3395672Y-1126420D01*
X3395670Y-1126420D01*
X3268193Y-1179222D01*
X3268182Y-1179228D01*
X3153458Y-1255885D01*
X3055885Y-1353458D01*
X2979228Y-1468182D01*
X2979222Y-1468193D01*
X2926420Y-1595670D01*
X2926420Y-1595672D01*
X2899500Y-1731004D01*
X350000Y-1731004D01*
X350000Y-449000D01*
X368907Y-390809D01*
X418407Y-354845D01*
X449000Y-350000D01*
X24551000Y-350000D01*
X24609191Y-368907D01*
G37*
%TD.AperFunction*%
%TD*%
M02*
