%TF.GenerationSoftware,KiCad,Pcbnew,10.0.6*%
%TF.CreationDate,2026-09-09T08:12:11+08:00*%
%TF.ProjectId,mode2-motor,6d6f6465-322d-46d6-9f74-6f722e6b6963,rev?*%
%TF.SameCoordinates,Original*%
%TF.FileFunction,Legend,Top*%
%TF.FilePolarity,Positive*%
%FSLAX46Y46*%
G04 Gerber Fmt 4.6, Leading zero omitted, Abs format (unit mm)*
G04 Created by KiCad (PCBNEW 10.0.6) date 2026-09-09 08:12:11*
%MOMM*%
%LPD*%
G01*
G04 APERTURE LIST*
%ADD10C,0.120000*%
G04 APERTURE END LIST*
D10*
X825760Y-21366667D02*
X863855Y-21252381D01*
X863855Y-21252381D02*
X863855Y-21061905D01*
X863855Y-21061905D02*
X825760Y-20985714D01*
X825760Y-20985714D02*
X787664Y-20947619D01*
X787664Y-20947619D02*
X711474Y-20909524D01*
X711474Y-20909524D02*
X635283Y-20909524D01*
X635283Y-20909524D02*
X559093Y-20947619D01*
X559093Y-20947619D02*
X520998Y-20985714D01*
X520998Y-20985714D02*
X482902Y-21061905D01*
X482902Y-21061905D02*
X444807Y-21214286D01*
X444807Y-21214286D02*
X406712Y-21290476D01*
X406712Y-21290476D02*
X368617Y-21328571D01*
X368617Y-21328571D02*
X292426Y-21366667D01*
X292426Y-21366667D02*
X216236Y-21366667D01*
X216236Y-21366667D02*
X140045Y-21328571D01*
X140045Y-21328571D02*
X101950Y-21290476D01*
X101950Y-21290476D02*
X63855Y-21214286D01*
X63855Y-21214286D02*
X63855Y-21023809D01*
X63855Y-21023809D02*
X101950Y-20909524D01*
X63855Y-20642857D02*
X863855Y-20452381D01*
X863855Y-20452381D02*
X292426Y-20300000D01*
X292426Y-20300000D02*
X863855Y-20147619D01*
X863855Y-20147619D02*
X63855Y-19957143D01*
X863855Y-19233333D02*
X863855Y-19690476D01*
X863855Y-19461904D02*
X63855Y-19461904D01*
X63855Y-19461904D02*
X178140Y-19538095D01*
X178140Y-19538095D02*
X254331Y-19614285D01*
X254331Y-19614285D02*
X292426Y-19690476D01*
X7825760Y-21366667D02*
X7863855Y-21252381D01*
X7863855Y-21252381D02*
X7863855Y-21061905D01*
X7863855Y-21061905D02*
X7825760Y-20985714D01*
X7825760Y-20985714D02*
X7787664Y-20947619D01*
X7787664Y-20947619D02*
X7711474Y-20909524D01*
X7711474Y-20909524D02*
X7635283Y-20909524D01*
X7635283Y-20909524D02*
X7559093Y-20947619D01*
X7559093Y-20947619D02*
X7520998Y-20985714D01*
X7520998Y-20985714D02*
X7482902Y-21061905D01*
X7482902Y-21061905D02*
X7444807Y-21214286D01*
X7444807Y-21214286D02*
X7406712Y-21290476D01*
X7406712Y-21290476D02*
X7368617Y-21328571D01*
X7368617Y-21328571D02*
X7292426Y-21366667D01*
X7292426Y-21366667D02*
X7216236Y-21366667D01*
X7216236Y-21366667D02*
X7140045Y-21328571D01*
X7140045Y-21328571D02*
X7101950Y-21290476D01*
X7101950Y-21290476D02*
X7063855Y-21214286D01*
X7063855Y-21214286D02*
X7063855Y-21023809D01*
X7063855Y-21023809D02*
X7101950Y-20909524D01*
X7063855Y-20642857D02*
X7863855Y-20452381D01*
X7863855Y-20452381D02*
X7292426Y-20300000D01*
X7292426Y-20300000D02*
X7863855Y-20147619D01*
X7863855Y-20147619D02*
X7063855Y-19957143D01*
X7140045Y-19690476D02*
X7101950Y-19652380D01*
X7101950Y-19652380D02*
X7063855Y-19576190D01*
X7063855Y-19576190D02*
X7063855Y-19385714D01*
X7063855Y-19385714D02*
X7101950Y-19309523D01*
X7101950Y-19309523D02*
X7140045Y-19271428D01*
X7140045Y-19271428D02*
X7216236Y-19233333D01*
X7216236Y-19233333D02*
X7292426Y-19233333D01*
X7292426Y-19233333D02*
X7406712Y-19271428D01*
X7406712Y-19271428D02*
X7863855Y-19728571D01*
X7863855Y-19728571D02*
X7863855Y-19233333D01*
X16240045Y-3904761D02*
X16392426Y-3904761D01*
X16125760Y-3828571D02*
X16125760Y-3028571D01*
X16468617Y-3828571D02*
X16468617Y-3561904D01*
X16849569Y-3790475D02*
X16849569Y-3028571D01*
X16697188Y-3790475D02*
X16697188Y-3028571D01*
X16582902Y-3790475D02*
X16887664Y-3790475D01*
X16354331Y-3790475D02*
X16354331Y-3561904D01*
X16125760Y-3447618D02*
X16506712Y-3447618D01*
X16963855Y-3409523D02*
X16963855Y-2952380D01*
X16582902Y-3409523D02*
X16963855Y-3409523D01*
X16468617Y-3333332D02*
X16468617Y-3028571D01*
X16354331Y-3333332D02*
X16354331Y-3066666D01*
X16849569Y-2914285D02*
X16963855Y-2952380D01*
X16240045Y-3904761D02*
X16240045Y-2952380D01*
X16240045Y-2952380D02*
X16392426Y-2952380D01*
X16582902Y-3790475D02*
X16582902Y-3028571D01*
X16582902Y-3028571D02*
X16849569Y-3028571D01*
X16354331Y-2723809D02*
X16430521Y-2533333D01*
X16087664Y-2647619D02*
X16163855Y-2457142D01*
X16620998Y-2495238D02*
X16887664Y-2609523D01*
X16049569Y-2076190D02*
X16773379Y-2076190D01*
X16163855Y-2304761D02*
X16963855Y-2304761D01*
X16963855Y-2304761D02*
X16963855Y-1771428D01*
X16963855Y-1771428D02*
X16811474Y-1733333D01*
X16468617Y-2457142D02*
X16278140Y-1809523D01*
X16278140Y-1809523D02*
X16620998Y-1809523D01*
X16620998Y-1809523D02*
X16735283Y-1809523D01*
X16735283Y-1809523D02*
X16735283Y-1923809D01*
X17135283Y-14490475D02*
X17363855Y-14566666D01*
X16868617Y-14452380D02*
X16868617Y-13728571D01*
X16678140Y-14452380D02*
X16678140Y-13728571D01*
X16525760Y-14452380D02*
X16525760Y-13690475D01*
X17135283Y-14299999D02*
X17325760Y-14261904D01*
X17135283Y-14071428D02*
X17287664Y-14033332D01*
X16525760Y-14071428D02*
X17020998Y-14071428D01*
X17135283Y-13880952D02*
X17211474Y-13766666D01*
X17363855Y-13880952D02*
X17363855Y-13690475D01*
X16525760Y-14452380D02*
X17020998Y-14452380D01*
X17020998Y-14452380D02*
X17020998Y-13614285D01*
X17020998Y-13614285D02*
X17363855Y-13652380D01*
X16487664Y-13385714D02*
X16640045Y-13233333D01*
X16716236Y-13157142D02*
X16716236Y-12433333D01*
X17135283Y-13157142D02*
X17135283Y-12433333D01*
X16868617Y-13119047D02*
X16868617Y-12471428D01*
X16982902Y-13080952D02*
X16982902Y-12509523D01*
X16563855Y-13080952D02*
X16563855Y-12509523D01*
X16754331Y-12966666D02*
X16868617Y-12966666D01*
X16868617Y-12814285D02*
X17249569Y-12814285D01*
X16449569Y-12814285D02*
X16678140Y-12814285D01*
X16716236Y-12661904D02*
X16830521Y-12661904D01*
X17249569Y-13309523D02*
X17363855Y-12928571D01*
X17363855Y-12928571D02*
X17363855Y-12433333D01*
X16868617Y-13423809D02*
X16868617Y-13271428D01*
X16868617Y-13271428D02*
X17211474Y-13271428D01*
X17211474Y-13271428D02*
X17363855Y-13423809D01*
X9023809Y-5440045D02*
X8947619Y-5401950D01*
X8947619Y-5401950D02*
X8871428Y-5325760D01*
X8871428Y-5325760D02*
X8757142Y-5211474D01*
X8757142Y-5211474D02*
X8680952Y-5173379D01*
X8680952Y-5173379D02*
X8604761Y-5173379D01*
X8642857Y-5363855D02*
X8566666Y-5325760D01*
X8566666Y-5325760D02*
X8490476Y-5249569D01*
X8490476Y-5249569D02*
X8452380Y-5097188D01*
X8452380Y-5097188D02*
X8452380Y-4830521D01*
X8452380Y-4830521D02*
X8490476Y-4678140D01*
X8490476Y-4678140D02*
X8566666Y-4601950D01*
X8566666Y-4601950D02*
X8642857Y-4563855D01*
X8642857Y-4563855D02*
X8795238Y-4563855D01*
X8795238Y-4563855D02*
X8871428Y-4601950D01*
X8871428Y-4601950D02*
X8947619Y-4678140D01*
X8947619Y-4678140D02*
X8985714Y-4830521D01*
X8985714Y-4830521D02*
X8985714Y-5097188D01*
X8985714Y-5097188D02*
X8947619Y-5249569D01*
X8947619Y-5249569D02*
X8871428Y-5325760D01*
X8871428Y-5325760D02*
X8795238Y-5363855D01*
X8795238Y-5363855D02*
X8642857Y-5363855D01*
X9747618Y-5363855D02*
X9290475Y-5363855D01*
X9519047Y-5363855D02*
X9519047Y-4563855D01*
X9519047Y-4563855D02*
X9442856Y-4678140D01*
X9442856Y-4678140D02*
X9366666Y-4754331D01*
X9366666Y-4754331D02*
X9290475Y-4792426D01*
X15866667Y-17687664D02*
X15828571Y-17725760D01*
X15828571Y-17725760D02*
X15714286Y-17763855D01*
X15714286Y-17763855D02*
X15638095Y-17763855D01*
X15638095Y-17763855D02*
X15523809Y-17725760D01*
X15523809Y-17725760D02*
X15447619Y-17649569D01*
X15447619Y-17649569D02*
X15409524Y-17573379D01*
X15409524Y-17573379D02*
X15371428Y-17420998D01*
X15371428Y-17420998D02*
X15371428Y-17306712D01*
X15371428Y-17306712D02*
X15409524Y-17154331D01*
X15409524Y-17154331D02*
X15447619Y-17078140D01*
X15447619Y-17078140D02*
X15523809Y-17001950D01*
X15523809Y-17001950D02*
X15638095Y-16963855D01*
X15638095Y-16963855D02*
X15714286Y-16963855D01*
X15714286Y-16963855D02*
X15828571Y-17001950D01*
X15828571Y-17001950D02*
X15866667Y-17040045D01*
X16171428Y-17040045D02*
X16209524Y-17001950D01*
X16209524Y-17001950D02*
X16285714Y-16963855D01*
X16285714Y-16963855D02*
X16476190Y-16963855D01*
X16476190Y-16963855D02*
X16552381Y-17001950D01*
X16552381Y-17001950D02*
X16590476Y-17040045D01*
X16590476Y-17040045D02*
X16628571Y-17116236D01*
X16628571Y-17116236D02*
X16628571Y-17192426D01*
X16628571Y-17192426D02*
X16590476Y-17306712D01*
X16590476Y-17306712D02*
X16133333Y-17763855D01*
X16133333Y-17763855D02*
X16628571Y-17763855D01*
X1066667Y-8863855D02*
X800000Y-8482902D01*
X609524Y-8863855D02*
X609524Y-8063855D01*
X609524Y-8063855D02*
X914286Y-8063855D01*
X914286Y-8063855D02*
X990476Y-8101950D01*
X990476Y-8101950D02*
X1028571Y-8140045D01*
X1028571Y-8140045D02*
X1066667Y-8216236D01*
X1066667Y-8216236D02*
X1066667Y-8330521D01*
X1066667Y-8330521D02*
X1028571Y-8406712D01*
X1028571Y-8406712D02*
X990476Y-8444807D01*
X990476Y-8444807D02*
X914286Y-8482902D01*
X914286Y-8482902D02*
X609524Y-8482902D01*
X1333333Y-8063855D02*
X1828571Y-8063855D01*
X1828571Y-8063855D02*
X1561905Y-8368617D01*
X1561905Y-8368617D02*
X1676190Y-8368617D01*
X1676190Y-8368617D02*
X1752381Y-8406712D01*
X1752381Y-8406712D02*
X1790476Y-8444807D01*
X1790476Y-8444807D02*
X1828571Y-8520998D01*
X1828571Y-8520998D02*
X1828571Y-8711474D01*
X1828571Y-8711474D02*
X1790476Y-8787664D01*
X1790476Y-8787664D02*
X1752381Y-8825760D01*
X1752381Y-8825760D02*
X1676190Y-8863855D01*
X1676190Y-8863855D02*
X1447619Y-8863855D01*
X1447619Y-8863855D02*
X1371428Y-8825760D01*
X1371428Y-8825760D02*
X1333333Y-8787664D01*
X16516666Y-5987664D02*
X16478570Y-6025760D01*
X16478570Y-6025760D02*
X16364285Y-6063855D01*
X16364285Y-6063855D02*
X16288094Y-6063855D01*
X16288094Y-6063855D02*
X16173808Y-6025760D01*
X16173808Y-6025760D02*
X16097618Y-5949569D01*
X16097618Y-5949569D02*
X16059523Y-5873379D01*
X16059523Y-5873379D02*
X16021427Y-5720998D01*
X16021427Y-5720998D02*
X16021427Y-5606712D01*
X16021427Y-5606712D02*
X16059523Y-5454331D01*
X16059523Y-5454331D02*
X16097618Y-5378140D01*
X16097618Y-5378140D02*
X16173808Y-5301950D01*
X16173808Y-5301950D02*
X16288094Y-5263855D01*
X16288094Y-5263855D02*
X16364285Y-5263855D01*
X16364285Y-5263855D02*
X16478570Y-5301950D01*
X16478570Y-5301950D02*
X16516666Y-5340045D01*
X16783332Y-5263855D02*
X17278570Y-5263855D01*
X17278570Y-5263855D02*
X17011904Y-5568617D01*
X17011904Y-5568617D02*
X17126189Y-5568617D01*
X17126189Y-5568617D02*
X17202380Y-5606712D01*
X17202380Y-5606712D02*
X17240475Y-5644807D01*
X17240475Y-5644807D02*
X17278570Y-5720998D01*
X17278570Y-5720998D02*
X17278570Y-5911474D01*
X17278570Y-5911474D02*
X17240475Y-5987664D01*
X17240475Y-5987664D02*
X17202380Y-6025760D01*
X17202380Y-6025760D02*
X17126189Y-6063855D01*
X17126189Y-6063855D02*
X16897618Y-6063855D01*
X16897618Y-6063855D02*
X16821427Y-6025760D01*
X16821427Y-6025760D02*
X16783332Y-5987664D01*
X4490475Y-1125760D02*
X4604761Y-1163855D01*
X4604761Y-1163855D02*
X4795237Y-1163855D01*
X4795237Y-1163855D02*
X4871428Y-1125760D01*
X4871428Y-1125760D02*
X4909523Y-1087664D01*
X4909523Y-1087664D02*
X4947618Y-1011474D01*
X4947618Y-1011474D02*
X4947618Y-935283D01*
X4947618Y-935283D02*
X4909523Y-859093D01*
X4909523Y-859093D02*
X4871428Y-820998D01*
X4871428Y-820998D02*
X4795237Y-782902D01*
X4795237Y-782902D02*
X4642856Y-744807D01*
X4642856Y-744807D02*
X4566666Y-706712D01*
X4566666Y-706712D02*
X4528571Y-668617D01*
X4528571Y-668617D02*
X4490475Y-592426D01*
X4490475Y-592426D02*
X4490475Y-516236D01*
X4490475Y-516236D02*
X4528571Y-440045D01*
X4528571Y-440045D02*
X4566666Y-401950D01*
X4566666Y-401950D02*
X4642856Y-363855D01*
X4642856Y-363855D02*
X4833333Y-363855D01*
X4833333Y-363855D02*
X4947618Y-401950D01*
X5442857Y-363855D02*
X5519047Y-363855D01*
X5519047Y-363855D02*
X5595238Y-401950D01*
X5595238Y-401950D02*
X5633333Y-440045D01*
X5633333Y-440045D02*
X5671428Y-516236D01*
X5671428Y-516236D02*
X5709523Y-668617D01*
X5709523Y-668617D02*
X5709523Y-859093D01*
X5709523Y-859093D02*
X5671428Y-1011474D01*
X5671428Y-1011474D02*
X5633333Y-1087664D01*
X5633333Y-1087664D02*
X5595238Y-1125760D01*
X5595238Y-1125760D02*
X5519047Y-1163855D01*
X5519047Y-1163855D02*
X5442857Y-1163855D01*
X5442857Y-1163855D02*
X5366666Y-1125760D01*
X5366666Y-1125760D02*
X5328571Y-1087664D01*
X5328571Y-1087664D02*
X5290476Y-1011474D01*
X5290476Y-1011474D02*
X5252380Y-859093D01*
X5252380Y-859093D02*
X5252380Y-668617D01*
X5252380Y-668617D02*
X5290476Y-516236D01*
X5290476Y-516236D02*
X5328571Y-440045D01*
X5328571Y-440045D02*
X5366666Y-401950D01*
X5366666Y-401950D02*
X5442857Y-363855D01*
X3566667Y-8363855D02*
X3300000Y-7982902D01*
X3109524Y-8363855D02*
X3109524Y-7563855D01*
X3109524Y-7563855D02*
X3414286Y-7563855D01*
X3414286Y-7563855D02*
X3490476Y-7601950D01*
X3490476Y-7601950D02*
X3528571Y-7640045D01*
X3528571Y-7640045D02*
X3566667Y-7716236D01*
X3566667Y-7716236D02*
X3566667Y-7830521D01*
X3566667Y-7830521D02*
X3528571Y-7906712D01*
X3528571Y-7906712D02*
X3490476Y-7944807D01*
X3490476Y-7944807D02*
X3414286Y-7982902D01*
X3414286Y-7982902D02*
X3109524Y-7982902D01*
X3871428Y-7640045D02*
X3909524Y-7601950D01*
X3909524Y-7601950D02*
X3985714Y-7563855D01*
X3985714Y-7563855D02*
X4176190Y-7563855D01*
X4176190Y-7563855D02*
X4252381Y-7601950D01*
X4252381Y-7601950D02*
X4290476Y-7640045D01*
X4290476Y-7640045D02*
X4328571Y-7716236D01*
X4328571Y-7716236D02*
X4328571Y-7792426D01*
X4328571Y-7792426D02*
X4290476Y-7906712D01*
X4290476Y-7906712D02*
X3833333Y-8363855D01*
X3833333Y-8363855D02*
X4328571Y-8363855D01*
X12790476Y-14563855D02*
X12790476Y-15211474D01*
X12790476Y-15211474D02*
X12828571Y-15287664D01*
X12828571Y-15287664D02*
X12866666Y-15325760D01*
X12866666Y-15325760D02*
X12942857Y-15363855D01*
X12942857Y-15363855D02*
X13095238Y-15363855D01*
X13095238Y-15363855D02*
X13171428Y-15325760D01*
X13171428Y-15325760D02*
X13209523Y-15287664D01*
X13209523Y-15287664D02*
X13247619Y-15211474D01*
X13247619Y-15211474D02*
X13247619Y-14563855D01*
X13590475Y-14640045D02*
X13628571Y-14601950D01*
X13628571Y-14601950D02*
X13704761Y-14563855D01*
X13704761Y-14563855D02*
X13895237Y-14563855D01*
X13895237Y-14563855D02*
X13971428Y-14601950D01*
X13971428Y-14601950D02*
X14009523Y-14640045D01*
X14009523Y-14640045D02*
X14047618Y-14716236D01*
X14047618Y-14716236D02*
X14047618Y-14792426D01*
X14047618Y-14792426D02*
X14009523Y-14906712D01*
X14009523Y-14906712D02*
X13552380Y-15363855D01*
X13552380Y-15363855D02*
X14047618Y-15363855D01*
X16109524Y-18963855D02*
X16109524Y-18163855D01*
X16109524Y-18163855D02*
X16414286Y-18163855D01*
X16414286Y-18163855D02*
X16490476Y-18201950D01*
X16490476Y-18201950D02*
X16528571Y-18240045D01*
X16528571Y-18240045D02*
X16566667Y-18316236D01*
X16566667Y-18316236D02*
X16566667Y-18430521D01*
X16566667Y-18430521D02*
X16528571Y-18506712D01*
X16528571Y-18506712D02*
X16490476Y-18544807D01*
X16490476Y-18544807D02*
X16414286Y-18582902D01*
X16414286Y-18582902D02*
X16109524Y-18582902D01*
X17290476Y-18163855D02*
X16909524Y-18163855D01*
X16909524Y-18163855D02*
X16871428Y-18544807D01*
X16871428Y-18544807D02*
X16909524Y-18506712D01*
X16909524Y-18506712D02*
X16985714Y-18468617D01*
X16985714Y-18468617D02*
X17176190Y-18468617D01*
X17176190Y-18468617D02*
X17252381Y-18506712D01*
X17252381Y-18506712D02*
X17290476Y-18544807D01*
X17290476Y-18544807D02*
X17328571Y-18620998D01*
X17328571Y-18620998D02*
X17328571Y-18811474D01*
X17328571Y-18811474D02*
X17290476Y-18887664D01*
X17290476Y-18887664D02*
X17252381Y-18925760D01*
X17252381Y-18925760D02*
X17176190Y-18963855D01*
X17176190Y-18963855D02*
X16985714Y-18963855D01*
X16985714Y-18963855D02*
X16909524Y-18925760D01*
X16909524Y-18925760D02*
X16871428Y-18887664D01*
X5390476Y-12563855D02*
X5390476Y-13211474D01*
X5390476Y-13211474D02*
X5428571Y-13287664D01*
X5428571Y-13287664D02*
X5466666Y-13325760D01*
X5466666Y-13325760D02*
X5542857Y-13363855D01*
X5542857Y-13363855D02*
X5695238Y-13363855D01*
X5695238Y-13363855D02*
X5771428Y-13325760D01*
X5771428Y-13325760D02*
X5809523Y-13287664D01*
X5809523Y-13287664D02*
X5847619Y-13211474D01*
X5847619Y-13211474D02*
X5847619Y-12563855D01*
X6647618Y-13363855D02*
X6190475Y-13363855D01*
X6419047Y-13363855D02*
X6419047Y-12563855D01*
X6419047Y-12563855D02*
X6342856Y-12678140D01*
X6342856Y-12678140D02*
X6266666Y-12754331D01*
X6266666Y-12754331D02*
X6190475Y-12792426D01*
X11266667Y-14663855D02*
X11000000Y-14282902D01*
X10809524Y-14663855D02*
X10809524Y-13863855D01*
X10809524Y-13863855D02*
X11114286Y-13863855D01*
X11114286Y-13863855D02*
X11190476Y-13901950D01*
X11190476Y-13901950D02*
X11228571Y-13940045D01*
X11228571Y-13940045D02*
X11266667Y-14016236D01*
X11266667Y-14016236D02*
X11266667Y-14130521D01*
X11266667Y-14130521D02*
X11228571Y-14206712D01*
X11228571Y-14206712D02*
X11190476Y-14244807D01*
X11190476Y-14244807D02*
X11114286Y-14282902D01*
X11114286Y-14282902D02*
X10809524Y-14282902D01*
X12028571Y-14663855D02*
X11571428Y-14663855D01*
X11800000Y-14663855D02*
X11800000Y-13863855D01*
X11800000Y-13863855D02*
X11723809Y-13978140D01*
X11723809Y-13978140D02*
X11647619Y-14054331D01*
X11647619Y-14054331D02*
X11571428Y-14092426D01*
X5866667Y-9587664D02*
X5828571Y-9625760D01*
X5828571Y-9625760D02*
X5714286Y-9663855D01*
X5714286Y-9663855D02*
X5638095Y-9663855D01*
X5638095Y-9663855D02*
X5523809Y-9625760D01*
X5523809Y-9625760D02*
X5447619Y-9549569D01*
X5447619Y-9549569D02*
X5409524Y-9473379D01*
X5409524Y-9473379D02*
X5371428Y-9320998D01*
X5371428Y-9320998D02*
X5371428Y-9206712D01*
X5371428Y-9206712D02*
X5409524Y-9054331D01*
X5409524Y-9054331D02*
X5447619Y-8978140D01*
X5447619Y-8978140D02*
X5523809Y-8901950D01*
X5523809Y-8901950D02*
X5638095Y-8863855D01*
X5638095Y-8863855D02*
X5714286Y-8863855D01*
X5714286Y-8863855D02*
X5828571Y-8901950D01*
X5828571Y-8901950D02*
X5866667Y-8940045D01*
X6628571Y-9663855D02*
X6171428Y-9663855D01*
X6400000Y-9663855D02*
X6400000Y-8863855D01*
X6400000Y-8863855D02*
X6323809Y-8978140D01*
X6323809Y-8978140D02*
X6247619Y-9054331D01*
X6247619Y-9054331D02*
X6171428Y-9092426D01*
%TO.C,Q1*%
X5940000Y-6040000D02*
X6940000Y-6040000D01*
X5940000Y-7560000D02*
X5940000Y-6040000D01*
X5990000Y-7560000D02*
X5940000Y-7560000D01*
X7890000Y-7560000D02*
X7110000Y-7560000D01*
X8060000Y-6040000D02*
X9060000Y-6040000D01*
X9060000Y-6040000D02*
X9060000Y-7560000D01*
X9060000Y-7560000D02*
X9010000Y-7560000D01*
X7120000Y-8100000D02*
X7450000Y-7860000D01*
X7450000Y-8340000D01*
X7120000Y-8100000D01*
G36*
X7450000Y-8340000D02*
G01*
X7120000Y-8100000D01*
X7450000Y-7860000D01*
X7450000Y-8340000D01*
G37*
%TO.C,C2*%
X15459420Y-15190000D02*
X15740580Y-15190000D01*
X15459420Y-16210000D02*
X15740580Y-16210000D01*
%TO.C,R3*%
X777500Y-6737258D02*
X777500Y-6262742D01*
X1822500Y-6737258D02*
X1822500Y-6262742D01*
%TO.C,C3*%
X10240000Y-1339999D02*
X11940000Y-1339999D01*
X10240000Y-5795562D02*
X10240000Y-1339999D01*
X11002500Y-7412499D02*
X11627500Y-7412499D01*
X11304437Y-6859999D02*
X10240000Y-5795562D01*
X11304437Y-6859999D02*
X11940000Y-6859999D01*
X11315000Y-7724999D02*
X11315000Y-7099999D01*
X14695563Y-6859999D02*
X14060000Y-6859999D01*
X14695563Y-6859999D02*
X15760000Y-5795562D01*
X15760000Y-1339999D02*
X14060000Y-1339999D01*
X15760000Y-5795562D02*
X15760000Y-1339999D01*
%TO.C,P3*%
X8210000Y-22600000D02*
X13530000Y-22600000D01*
X8210000Y-16880000D02*
X13530000Y-16880000D01*
X13530000Y-23420000D01*
X8210000Y-23420000D01*
X8210000Y-16880000D01*
%TO.C,R2*%
X3462742Y-5477500D02*
X3937258Y-5477500D01*
X3462742Y-6522500D02*
X3937258Y-6522500D01*
%TO.C,U2*%
X12890000Y-12065000D02*
X15110000Y-12065000D01*
X14695568Y-14335000D02*
X12890000Y-14335000D01*
X14990000Y-14340000D02*
X15130000Y-14530000D01*
X14850000Y-14530000D01*
X14990000Y-14340000D01*
G36*
X15130000Y-14530000D02*
G01*
X14850000Y-14530000D01*
X14990000Y-14340000D01*
X15130000Y-14530000D01*
G37*
%TO.C,P2*%
X1110000Y-22600000D02*
X6430000Y-22600000D01*
X1110000Y-16880000D02*
X6430000Y-16880000D01*
X6430000Y-23420000D01*
X1110000Y-23420000D01*
X1110000Y-16880000D01*
%TO.C,P1*%
X18350000Y-1600000D02*
X18350000Y-4650000D01*
X18350000Y-7700000D02*
X18350000Y-4650000D01*
X21300000Y-850000D02*
X21300000Y-1600000D01*
X21300000Y-1600000D02*
X18350000Y-1600000D01*
X21300000Y-7700000D02*
X18350000Y-7700000D01*
X21300000Y-8450000D02*
X21300000Y-7700000D01*
X23850000Y-550000D02*
X22600000Y-550000D01*
X23850000Y-1800000D02*
X23850000Y-550000D01*
X22800000Y-850000D02*
X23550000Y-850000D01*
X23550000Y-2650000D01*
X22800000Y-2650000D01*
X22800000Y-850000D01*
X22800000Y-4150000D02*
X23550000Y-4150000D01*
X23550000Y-5150000D01*
X22800000Y-5150000D01*
X22800000Y-4150000D01*
X22800000Y-6650000D02*
X23550000Y-6650000D01*
X23550000Y-8450000D01*
X22800000Y-8450000D01*
X22800000Y-6650000D01*
X17590000Y-840000D02*
X23560000Y-840000D01*
X23560000Y-8460000D01*
X17590000Y-8460000D01*
X17590000Y-840000D01*
%TO.C,P4*%
X18350000Y-10200000D02*
X18350000Y-13250000D01*
X18350000Y-16300000D02*
X18350000Y-13250000D01*
X21300000Y-9450000D02*
X21300000Y-10200000D01*
X21300000Y-10200000D02*
X18350000Y-10200000D01*
X21300000Y-16300000D02*
X18350000Y-16300000D01*
X21300000Y-17050000D02*
X21300000Y-16300000D01*
X23850000Y-9150000D02*
X22600000Y-9150000D01*
X23850000Y-10400000D02*
X23850000Y-9150000D01*
X22800000Y-9450000D02*
X23550000Y-9450000D01*
X23550000Y-11250000D01*
X22800000Y-11250000D01*
X22800000Y-9450000D01*
X22800000Y-12750000D02*
X23550000Y-12750000D01*
X23550000Y-13750000D01*
X22800000Y-13750000D01*
X22800000Y-12750000D01*
X22800000Y-15250000D02*
X23550000Y-15250000D01*
X23550000Y-17050000D01*
X22800000Y-17050000D01*
X22800000Y-15250000D01*
X17590000Y-9440000D02*
X23560000Y-9440000D01*
X23560000Y-17060000D01*
X17590000Y-17060000D01*
X17590000Y-9440000D01*
%TO.C,U1*%
X3640000Y-10440000D02*
X7760000Y-10440000D01*
X3640000Y-10535000D02*
X3640000Y-10440000D01*
X3640000Y-15560000D02*
X3640000Y-15465000D01*
X7760000Y-10440000D02*
X7760000Y-10535000D01*
X7760000Y-15465000D02*
X7760000Y-15560000D01*
X7760000Y-15560000D02*
X3640000Y-15560000D01*
X3100000Y-10530000D02*
X2860000Y-10200000D01*
X3340000Y-10200000D01*
X3100000Y-10530000D01*
G36*
X3100000Y-10530000D02*
G01*
X2860000Y-10200000D01*
X3340000Y-10200000D01*
X3100000Y-10530000D01*
G37*
%TO.C,R1*%
X11737258Y-14977500D02*
X11262742Y-14977500D01*
X11737258Y-16022500D02*
X11262742Y-16022500D01*
%TO.C,C1*%
X3859420Y-8890000D02*
X4140580Y-8890000D01*
X3859420Y-9910000D02*
X4140580Y-9910000D01*
%TD*%
M02*
