%TF.GenerationSoftware,KiCad,Pcbnew,10.0.6*%
%TF.CreationDate,2026-09-09T08:12:11+08:00*%
%TF.ProjectId,mode2-motor,6d6f6465-322d-46d6-9f74-6f722e6b6963,rev?*%
%TF.SameCoordinates,Original*%
%TF.FileFunction,Copper,L2,Bot*%
%TF.FilePolarity,Positive*%
%FSLAX46Y46*%
G04 Gerber Fmt 4.6, Leading zero omitted, Abs format (unit mm)*
G04 Created by KiCad (PCBNEW 10.0.6) date 2026-09-09 08:12:11*
%MOMM*%
%LPD*%
G01*
G04 APERTURE LIST*
G04 Aperture macros list*
%AMRoundRect*
0 Rectangle with rounded corners*
0 $1 Rounding radius*
0 $2 $3 $4 $5 $6 $7 $8 $9 X,Y pos of 4 corners*
0 Add a 4 corners polygon primitive as box body*
4,1,4,$2,$3,$4,$5,$6,$7,$8,$9,$2,$3,0*
0 Add four circle primitives for the rounded corners*
1,1,$1+$1,$2,$3*
1,1,$1+$1,$4,$5*
1,1,$1+$1,$6,$7*
1,1,$1+$1,$8,$9*
0 Add four rect primitives between the rounded corners*
20,1,$1+$1,$2,$3,$4,$5,0*
20,1,$1+$1,$4,$5,$6,$7,0*
20,1,$1+$1,$6,$7,$8,$9,0*
20,1,$1+$1,$8,$9,$2,$3,0*%
G04 Aperture macros list end*
%TA.AperFunction,ComponentPad*%
%ADD10R,2.100000X2.100000*%
%TD*%
%TA.AperFunction,ComponentPad*%
%ADD11C,2.100000*%
%TD*%
%TA.AperFunction,HeatsinkPad*%
%ADD12C,0.500000*%
%TD*%
%TA.AperFunction,HeatsinkPad*%
%ADD13R,0.500000X1.600000*%
%TD*%
%TA.AperFunction,ComponentPad*%
%ADD14RoundRect,0.250000X-0.750000X0.600000X-0.750000X-0.600000X0.750000X-0.600000X0.750000X0.600000X0*%
%TD*%
%TA.AperFunction,ComponentPad*%
%ADD15O,2.000000X1.700000*%
%TD*%
%TA.AperFunction,ComponentPad*%
%ADD16R,1.800000X1.800000*%
%TD*%
%TA.AperFunction,ComponentPad*%
%ADD17C,1.800000*%
%TD*%
%TA.AperFunction,ViaPad*%
%ADD18C,0.600000*%
%TD*%
%TA.AperFunction,Conductor*%
%ADD19C,0.800000*%
%TD*%
%TA.AperFunction,Conductor*%
%ADD20C,0.300000*%
%TD*%
%TA.AperFunction,Conductor*%
%ADD21C,0.400000*%
%TD*%
%TA.AperFunction,Conductor*%
%ADD22C,0.250000*%
%TD*%
%TA.AperFunction,Conductor*%
%ADD23C,0.600000*%
%TD*%
%TA.AperFunction,Conductor*%
%ADD24C,0.200000*%
%TD*%
G04 APERTURE END LIST*
D10*
%TO.P,P3,1*%
%TO.N,/SW2*%
X9600000Y-20300000D03*
D11*
%TO.P,P3,2*%
%TO.N,/GND*%
X12140000Y-20300000D03*
%TD*%
D12*
%TO.P,U2,9*%
%TO.N,/GND*%
X14000000Y-13750000D03*
D13*
X14000000Y-13200000D03*
D12*
X14000000Y-12650000D03*
%TD*%
D10*
%TO.P,P2,1*%
%TO.N,/SW1*%
X2500000Y-20300000D03*
D11*
%TO.P,P2,2*%
%TO.N,/GND*%
X5040000Y-20300000D03*
%TD*%
D14*
%TO.P,P1,1*%
%TO.N,/BATT+*%
X21100000Y-3400000D03*
D15*
%TO.P,P1,2*%
%TO.N,/GND*%
X21100000Y-5900000D03*
%TD*%
D14*
%TO.P,P4,1*%
%TO.N,/OUT1*%
X21100000Y-12000000D03*
D15*
%TO.P,P4,2*%
%TO.N,/OUT2*%
X21100000Y-14500000D03*
%TD*%
D16*
%TO.P,P5,1*%
%TO.N,/VBAT*%
X15300000Y-20400000D03*
D17*
%TO.P,P5,2*%
%TO.N,/UPDI*%
X17840000Y-20400000D03*
%TO.P,P5,3*%
%TO.N,/GND*%
X20380000Y-20400000D03*
%TD*%
D18*
%TO.N,/BATT+*%
X9300000Y-7700000D03*
X800000Y-4800000D03*
X7350000Y-4600000D03*
%TO.N,/VBAT*%
X7500000Y-5600000D03*
X3225000Y-8700000D03*
X15300000Y-8600000D03*
X15225000Y-16399999D03*
%TO.N,/GND*%
X5500000Y-9400000D03*
X9100000Y-11095000D03*
X6500000Y-11300000D03*
X21000000Y-9000000D03*
X1000000Y-9500000D03*
X11000000Y-16600000D03*
X11000000Y-9200000D03*
X22700000Y-18000000D03*
X17500000Y-15500000D03*
%TO.N,/SW2*%
X2000000Y-16700000D03*
%TO.N,/OUT2*%
X16200000Y-12300000D03*
%TO.N,/IN1*%
X3225000Y-16000000D03*
X11800000Y-13200000D03*
%TO.N,/ISENSE*%
X9400000Y-12365000D03*
X12325000Y-16399999D03*
%TO.N,/UPDI*%
X4900000Y-14500000D03*
X9000000Y-13635000D03*
%TD*%
%TO.N,/BATT+*%
D19*
X17000000Y-3400000D02*
X17000000Y-2000000D01*
D20*
X7350000Y-3800000D02*
X7350000Y-4600000D01*
X800000Y-4800000D02*
X800000Y-3800000D01*
D19*
X21100000Y-3400000D02*
X17000000Y-3400000D01*
X9700000Y-7700000D02*
X9300000Y-7700000D01*
X17000000Y-2000000D02*
X9700000Y-2000000D01*
D20*
X800000Y-3800000D02*
X7350000Y-3800000D01*
D21*
X9700000Y-4600000D02*
X7350000Y-4600000D01*
D19*
X9700000Y-2000000D02*
X9700000Y-7700000D01*
%TO.N,/VBAT*%
D21*
X5800000Y-5600000D02*
X5800000Y-8700000D01*
X5800000Y-8700000D02*
X3225000Y-8700000D01*
X7500000Y-5600000D02*
X5800000Y-5600000D01*
D19*
X15300000Y-16399999D02*
X15225000Y-16399999D01*
X15300000Y-8600000D02*
X15300000Y-16399999D01*
D21*
X15300000Y-16475000D02*
X15300000Y-20400000D01*
X15225000Y-16399999D02*
X15300000Y-16475000D01*
%TO.N,/SW2*%
D22*
X1000000Y-22000000D02*
X8000000Y-22000000D01*
X8000000Y-22000000D02*
X9600000Y-20300000D01*
X2000000Y-16700000D02*
X1000000Y-17700000D01*
X1000000Y-17700000D02*
X1000000Y-22000000D01*
%TO.N,/OUT2*%
D23*
X17000000Y-13100000D02*
X17000000Y-14500000D01*
X17000000Y-14500000D02*
X21100000Y-14500000D01*
X16200000Y-12300000D02*
X17000000Y-13100000D01*
%TO.N,/IN1*%
D22*
X3225000Y-16000000D02*
X10400000Y-16000000D01*
X10400000Y-16000000D02*
X11800000Y-14600000D01*
X11800000Y-14600000D02*
X11800000Y-13200000D01*
%TO.N,/ISENSE*%
D24*
X12700000Y-10800000D02*
X12700000Y-14400000D01*
X9400000Y-12365000D02*
X10500000Y-12365000D01*
X12700000Y-14400000D02*
X12325000Y-14775000D01*
X10500000Y-10800000D02*
X12700000Y-10800000D01*
X10500000Y-12365000D02*
X10500000Y-10800000D01*
X12325000Y-14775000D02*
X12325000Y-16399999D01*
%TO.N,/UPDI*%
D22*
X9000000Y-13635000D02*
X4900000Y-13635000D01*
X4900000Y-13635000D02*
X4900000Y-14500000D01*
%TD*%
%TA.AperFunction,Conductor*%
%TO.N,/GND*%
G36*
X23609191Y-368907D02*
G01*
X23645155Y-418407D01*
X23650000Y-449000D01*
X23650000Y-23551000D01*
X23631093Y-23609191D01*
X23581593Y-23645155D01*
X23551000Y-23650000D01*
X449000Y-23650000D01*
X390809Y-23631093D01*
X354845Y-23581593D01*
X350000Y-23551000D01*
X350000Y-17657147D01*
X674500Y-17657147D01*
X674500Y-22042853D01*
X696682Y-22125638D01*
X739535Y-22199862D01*
X800138Y-22260465D01*
X874362Y-22303318D01*
X957147Y-22325500D01*
X1042853Y-22325500D01*
X7950656Y-22325500D01*
X7960595Y-22326000D01*
X7967020Y-22326647D01*
X7967026Y-22326649D01*
X8003457Y-22325544D01*
X8006455Y-22325500D01*
X8042846Y-22325500D01*
X8042853Y-22325500D01*
X8042859Y-22325498D01*
X8047807Y-22324846D01*
X8052688Y-22324053D01*
X8052692Y-22324053D01*
X8087615Y-22313550D01*
X8090405Y-22312757D01*
X8125638Y-22303318D01*
X8125645Y-22303313D01*
X8130217Y-22301420D01*
X8134755Y-22299376D01*
X8134768Y-22299373D01*
X8165768Y-22280199D01*
X8168290Y-22278691D01*
X8199862Y-22260465D01*
X8199866Y-22260460D01*
X8203785Y-22257454D01*
X8207654Y-22254294D01*
X8207659Y-22254292D01*
X8232652Y-22227735D01*
X8234675Y-22225651D01*
X8260465Y-22199862D01*
X8260467Y-22199857D01*
X8264393Y-22194742D01*
X8270841Y-22187158D01*
X8840734Y-21581648D01*
X8894384Y-21552233D01*
X8912826Y-21550500D01*
X10669747Y-21550500D01*
X10669748Y-21550500D01*
X10728231Y-21538867D01*
X10794552Y-21494552D01*
X10838867Y-21428231D01*
X10850500Y-21369748D01*
X10850500Y-19480253D01*
X14199500Y-19480253D01*
X14199500Y-21319746D01*
X14199501Y-21319758D01*
X14211132Y-21378227D01*
X14211134Y-21378233D01*
X14255445Y-21444548D01*
X14255448Y-21444552D01*
X14321769Y-21488867D01*
X14366231Y-21497711D01*
X14380241Y-21500498D01*
X14380246Y-21500498D01*
X14380252Y-21500500D01*
X14380253Y-21500500D01*
X16219747Y-21500500D01*
X16219748Y-21500500D01*
X16278231Y-21488867D01*
X16344552Y-21444552D01*
X16388867Y-21378231D01*
X16400500Y-21319748D01*
X16400500Y-20313385D01*
X16739500Y-20313385D01*
X16739500Y-20486614D01*
X16766597Y-20657702D01*
X16766598Y-20657706D01*
X16820123Y-20822438D01*
X16820125Y-20822441D01*
X16820126Y-20822444D01*
X16820127Y-20822445D01*
X16898768Y-20976788D01*
X17000586Y-21116928D01*
X17123072Y-21239414D01*
X17263212Y-21341232D01*
X17417555Y-21419873D01*
X17417557Y-21419873D01*
X17417558Y-21419874D01*
X17417561Y-21419876D01*
X17582293Y-21473401D01*
X17582297Y-21473402D01*
X17753386Y-21500500D01*
X17753389Y-21500500D01*
X17926614Y-21500500D01*
X18097702Y-21473402D01*
X18097706Y-21473401D01*
X18262438Y-21419876D01*
X18262440Y-21419874D01*
X18262445Y-21419873D01*
X18416788Y-21341232D01*
X18556928Y-21239414D01*
X18679414Y-21116928D01*
X18781232Y-20976788D01*
X18859873Y-20822445D01*
X18859874Y-20822440D01*
X18859876Y-20822438D01*
X18913401Y-20657706D01*
X18913402Y-20657702D01*
X18940500Y-20486614D01*
X18940500Y-20313385D01*
X18913402Y-20142297D01*
X18913401Y-20142293D01*
X18859876Y-19977561D01*
X18859874Y-19977558D01*
X18859873Y-19977557D01*
X18859873Y-19977555D01*
X18781232Y-19823212D01*
X18679414Y-19683072D01*
X18556928Y-19560586D01*
X18416788Y-19458768D01*
X18416787Y-19458767D01*
X18416785Y-19458766D01*
X18262441Y-19380125D01*
X18262438Y-19380123D01*
X18097706Y-19326598D01*
X18097702Y-19326597D01*
X17926614Y-19299500D01*
X17926611Y-19299500D01*
X17753389Y-19299500D01*
X17753386Y-19299500D01*
X17582297Y-19326597D01*
X17582293Y-19326598D01*
X17417561Y-19380123D01*
X17417558Y-19380125D01*
X17263214Y-19458766D01*
X17123073Y-19560585D01*
X17000585Y-19683073D01*
X16898766Y-19823214D01*
X16820125Y-19977558D01*
X16820123Y-19977561D01*
X16766598Y-20142293D01*
X16766597Y-20142297D01*
X16739500Y-20313385D01*
X16400500Y-20313385D01*
X16400500Y-19480252D01*
X16388867Y-19421769D01*
X16344552Y-19355448D01*
X16301376Y-19326598D01*
X16278233Y-19311134D01*
X16278231Y-19311133D01*
X16278228Y-19311132D01*
X16278227Y-19311132D01*
X16219758Y-19299501D01*
X16219748Y-19299500D01*
X16219747Y-19299500D01*
X15799500Y-19299500D01*
X15741309Y-19280593D01*
X15705345Y-19231093D01*
X15700500Y-19200500D01*
X15700500Y-16889742D01*
X15719407Y-16831551D01*
X15729490Y-16819744D01*
X15780520Y-16768715D01*
X15859577Y-16631783D01*
X15900500Y-16479056D01*
X15900500Y-12947322D01*
X15919407Y-12889131D01*
X15968907Y-12853167D01*
X16030093Y-12853167D01*
X16069504Y-12877318D01*
X16470504Y-13278318D01*
X16498281Y-13332835D01*
X16499500Y-13348322D01*
X16499500Y-14434108D01*
X16499500Y-14565892D01*
X16504489Y-14584511D01*
X16533609Y-14693190D01*
X16599496Y-14807309D01*
X16599498Y-14807311D01*
X16599500Y-14807314D01*
X16692686Y-14900500D01*
X16692688Y-14900501D01*
X16692690Y-14900503D01*
X16806810Y-14966390D01*
X16806808Y-14966390D01*
X16806812Y-14966391D01*
X16806814Y-14966392D01*
X16934108Y-15000500D01*
X19968081Y-15000500D01*
X20026272Y-15019407D01*
X20050396Y-15044498D01*
X20134023Y-15169655D01*
X20280345Y-15315977D01*
X20452402Y-15430941D01*
X20643580Y-15510130D01*
X20846535Y-15550500D01*
X20846536Y-15550500D01*
X21353464Y-15550500D01*
X21353465Y-15550500D01*
X21556420Y-15510130D01*
X21747598Y-15430941D01*
X21919655Y-15315977D01*
X22065977Y-15169655D01*
X22180941Y-14997598D01*
X22260130Y-14806420D01*
X22300500Y-14603465D01*
X22300500Y-14396535D01*
X22260130Y-14193580D01*
X22180941Y-14002402D01*
X22065977Y-13830345D01*
X21919655Y-13684023D01*
X21919651Y-13684020D01*
X21747597Y-13569058D01*
X21556418Y-13489869D01*
X21353467Y-13449500D01*
X21353465Y-13449500D01*
X20846535Y-13449500D01*
X20846532Y-13449500D01*
X20643581Y-13489869D01*
X20452402Y-13569058D01*
X20280348Y-13684020D01*
X20134020Y-13830348D01*
X20050397Y-13955501D01*
X20002347Y-13993381D01*
X19968081Y-13999500D01*
X17599500Y-13999500D01*
X17541309Y-13980593D01*
X17505345Y-13931093D01*
X17500500Y-13900500D01*
X17500500Y-13034109D01*
X17500500Y-13034108D01*
X17466392Y-12906814D01*
X17466390Y-12906811D01*
X17466390Y-12906809D01*
X17400503Y-12792690D01*
X17400499Y-12792685D01*
X17307314Y-12699499D01*
X17307314Y-12699500D01*
X16507314Y-11899500D01*
X16507311Y-11899498D01*
X16507310Y-11899497D01*
X16507309Y-11899496D01*
X16393189Y-11833609D01*
X16393191Y-11833609D01*
X16343799Y-11820375D01*
X16265892Y-11799500D01*
X16134108Y-11799500D01*
X16092438Y-11810665D01*
X16025122Y-11828702D01*
X15964021Y-11825499D01*
X15916471Y-11786994D01*
X15900500Y-11733075D01*
X15900500Y-11345725D01*
X19899500Y-11345725D01*
X19899500Y-12654274D01*
X19902353Y-12684694D01*
X19902355Y-12684703D01*
X19947207Y-12812883D01*
X20027845Y-12922144D01*
X20027847Y-12922146D01*
X20027850Y-12922150D01*
X20027853Y-12922152D01*
X20027855Y-12922154D01*
X20137116Y-13002792D01*
X20137117Y-13002792D01*
X20137118Y-13002793D01*
X20265301Y-13047646D01*
X20295725Y-13050499D01*
X20295727Y-13050500D01*
X20295734Y-13050500D01*
X21904273Y-13050500D01*
X21904273Y-13050499D01*
X21934699Y-13047646D01*
X22062882Y-13002793D01*
X22172150Y-12922150D01*
X22252793Y-12812882D01*
X22297646Y-12684699D01*
X22300499Y-12654273D01*
X22300500Y-12654273D01*
X22300500Y-11345727D01*
X22300499Y-11345725D01*
X22297646Y-11315305D01*
X22297646Y-11315301D01*
X22252793Y-11187118D01*
X22202820Y-11119407D01*
X22172154Y-11077855D01*
X22172152Y-11077853D01*
X22172150Y-11077850D01*
X22172146Y-11077847D01*
X22172144Y-11077845D01*
X22062883Y-10997207D01*
X21934703Y-10952355D01*
X21934694Y-10952353D01*
X21904274Y-10949500D01*
X21904266Y-10949500D01*
X20295734Y-10949500D01*
X20295725Y-10949500D01*
X20265305Y-10952353D01*
X20265296Y-10952355D01*
X20137116Y-10997207D01*
X20027855Y-11077845D01*
X20027845Y-11077855D01*
X19947207Y-11187116D01*
X19902355Y-11315296D01*
X19902353Y-11315305D01*
X19899500Y-11345725D01*
X15900500Y-11345725D01*
X15900500Y-8520944D01*
X15896714Y-8506814D01*
X15859577Y-8368216D01*
X15780520Y-8231284D01*
X15668716Y-8119480D01*
X15531784Y-8040423D01*
X15379057Y-7999500D01*
X15220943Y-7999500D01*
X15068216Y-8040423D01*
X14931284Y-8119480D01*
X14819480Y-8231284D01*
X14740423Y-8368216D01*
X14699500Y-8520944D01*
X14699500Y-16082664D01*
X14686237Y-16132163D01*
X14665423Y-16168213D01*
X14647901Y-16233608D01*
X14624500Y-16320942D01*
X14624500Y-16479056D01*
X14665423Y-16631783D01*
X14744480Y-16768715D01*
X14856284Y-16880519D01*
X14856286Y-16880520D01*
X14856288Y-16880522D01*
X14860767Y-16883959D01*
X14895423Y-16934383D01*
X14899500Y-16962501D01*
X14899500Y-19200500D01*
X14880593Y-19258691D01*
X14831093Y-19294655D01*
X14800500Y-19299500D01*
X14380252Y-19299500D01*
X14380251Y-19299500D01*
X14380241Y-19299501D01*
X14321772Y-19311132D01*
X14321766Y-19311134D01*
X14255451Y-19355445D01*
X14255445Y-19355451D01*
X14211134Y-19421766D01*
X14211132Y-19421772D01*
X14199501Y-19480241D01*
X14199500Y-19480253D01*
X10850500Y-19480253D01*
X10850500Y-19230252D01*
X10838867Y-19171769D01*
X10794552Y-19105448D01*
X10794548Y-19105445D01*
X10728233Y-19061134D01*
X10728231Y-19061133D01*
X10728228Y-19061132D01*
X10728227Y-19061132D01*
X10669758Y-19049501D01*
X10669748Y-19049500D01*
X8530252Y-19049500D01*
X8530251Y-19049500D01*
X8530241Y-19049501D01*
X8471772Y-19061132D01*
X8471766Y-19061134D01*
X8405451Y-19105445D01*
X8405445Y-19105451D01*
X8361134Y-19171766D01*
X8361132Y-19171772D01*
X8349501Y-19230241D01*
X8349500Y-19230253D01*
X8349500Y-21114464D01*
X8330593Y-21172655D01*
X8322592Y-21182315D01*
X7888677Y-21643351D01*
X7835027Y-21672767D01*
X7816585Y-21674500D01*
X3751600Y-21674500D01*
X3693409Y-21655593D01*
X3657445Y-21606093D01*
X3657445Y-21544907D01*
X3688447Y-21502236D01*
X3687657Y-21501446D01*
X3692646Y-21496456D01*
X3693409Y-21495407D01*
X3694355Y-21494747D01*
X3694545Y-21494556D01*
X3694552Y-21494552D01*
X3738867Y-21428231D01*
X3750500Y-21369748D01*
X3750500Y-19230252D01*
X3738867Y-19171769D01*
X3694552Y-19105448D01*
X3694548Y-19105445D01*
X3628233Y-19061134D01*
X3628231Y-19061133D01*
X3628228Y-19061132D01*
X3628227Y-19061132D01*
X3569758Y-19049501D01*
X3569748Y-19049500D01*
X1430252Y-19049500D01*
X1425388Y-19049500D01*
X1425388Y-19047187D01*
X1374396Y-19035972D01*
X1333777Y-18990215D01*
X1325500Y-18950587D01*
X1325500Y-17875834D01*
X1344407Y-17817643D01*
X1354496Y-17805830D01*
X1930830Y-17229496D01*
X1985347Y-17201719D01*
X2000834Y-17200500D01*
X2065890Y-17200500D01*
X2065892Y-17200500D01*
X2193186Y-17166392D01*
X2193188Y-17166390D01*
X2193190Y-17166390D01*
X2307309Y-17100503D01*
X2307309Y-17100502D01*
X2307314Y-17100500D01*
X2400500Y-17007314D01*
X2442607Y-16934383D01*
X2466390Y-16893190D01*
X2466390Y-16893188D01*
X2466392Y-16893186D01*
X2500500Y-16765892D01*
X2500500Y-16634108D01*
X2466392Y-16506814D01*
X2466390Y-16506811D01*
X2466390Y-16506809D01*
X2400503Y-16392690D01*
X2400501Y-16392688D01*
X2400500Y-16392686D01*
X2307314Y-16299500D01*
X2307311Y-16299498D01*
X2307309Y-16299496D01*
X2193189Y-16233609D01*
X2193191Y-16233609D01*
X2143799Y-16220375D01*
X2065892Y-16199500D01*
X1934108Y-16199500D01*
X1856200Y-16220375D01*
X1806809Y-16233609D01*
X1692690Y-16299496D01*
X1599496Y-16392690D01*
X1533609Y-16506809D01*
X1533608Y-16506814D01*
X1500124Y-16631782D01*
X1499500Y-16634109D01*
X1499500Y-16699165D01*
X1480593Y-16757356D01*
X1470504Y-16769169D01*
X739531Y-17500142D01*
X696682Y-17574360D01*
X696681Y-17574360D01*
X696682Y-17574361D01*
X696682Y-17574362D01*
X674500Y-17657147D01*
X350000Y-17657147D01*
X350000Y-15934108D01*
X2724500Y-15934108D01*
X2724500Y-16065892D01*
X2736102Y-16109191D01*
X2758609Y-16193190D01*
X2824496Y-16307309D01*
X2824498Y-16307311D01*
X2824500Y-16307314D01*
X2917686Y-16400500D01*
X2917688Y-16400501D01*
X2917690Y-16400503D01*
X3031810Y-16466390D01*
X3031808Y-16466390D01*
X3031812Y-16466391D01*
X3031814Y-16466392D01*
X3159108Y-16500500D01*
X3159110Y-16500500D01*
X3290890Y-16500500D01*
X3290892Y-16500500D01*
X3418186Y-16466392D01*
X3418188Y-16466390D01*
X3418190Y-16466390D01*
X3532309Y-16400503D01*
X3532310Y-16400502D01*
X3532314Y-16400500D01*
X3540128Y-16392686D01*
X3578319Y-16354496D01*
X3632836Y-16326719D01*
X3648322Y-16325500D01*
X10442851Y-16325500D01*
X10442853Y-16325500D01*
X10525639Y-16303318D01*
X10525641Y-16303316D01*
X10525643Y-16303316D01*
X10599857Y-16260468D01*
X10599857Y-16260467D01*
X10599862Y-16260465D01*
X11855498Y-15004828D01*
X11910013Y-14977053D01*
X11970445Y-14986624D01*
X12013710Y-15029889D01*
X12024500Y-15074834D01*
X12024500Y-15951678D01*
X12005593Y-16009869D01*
X11995509Y-16021675D01*
X11951295Y-16065890D01*
X11924497Y-16092688D01*
X11924496Y-16092689D01*
X11858609Y-16206808D01*
X11858608Y-16206813D01*
X11824500Y-16334107D01*
X11824500Y-16465891D01*
X11854579Y-16578150D01*
X11858609Y-16593189D01*
X11924496Y-16707308D01*
X11924498Y-16707310D01*
X11924500Y-16707313D01*
X12017686Y-16800499D01*
X12017688Y-16800500D01*
X12017690Y-16800502D01*
X12131810Y-16866389D01*
X12131808Y-16866389D01*
X12131812Y-16866390D01*
X12131814Y-16866391D01*
X12259108Y-16900499D01*
X12259110Y-16900499D01*
X12390890Y-16900499D01*
X12390892Y-16900499D01*
X12518186Y-16866391D01*
X12518188Y-16866389D01*
X12518190Y-16866389D01*
X12632309Y-16800502D01*
X12632309Y-16800501D01*
X12632314Y-16800499D01*
X12725500Y-16707313D01*
X12730204Y-16699165D01*
X12791390Y-16593189D01*
X12791390Y-16593187D01*
X12791392Y-16593185D01*
X12825500Y-16465891D01*
X12825500Y-16334107D01*
X12791392Y-16206813D01*
X12791390Y-16206810D01*
X12791390Y-16206808D01*
X12725503Y-16092689D01*
X12725501Y-16092687D01*
X12725500Y-16092685D01*
X12654494Y-16021679D01*
X12626719Y-15967165D01*
X12625500Y-15951678D01*
X12625500Y-14940478D01*
X12644407Y-14882287D01*
X12654490Y-14870480D01*
X12940460Y-14584511D01*
X12946576Y-14573918D01*
X12980021Y-14515989D01*
X13000500Y-14439562D01*
X13000500Y-10760438D01*
X12980021Y-10684011D01*
X12940460Y-10615489D01*
X12884511Y-10559540D01*
X12884508Y-10559538D01*
X12815992Y-10519980D01*
X12815988Y-10519978D01*
X12739564Y-10499500D01*
X12739562Y-10499500D01*
X10539562Y-10499500D01*
X10460438Y-10499500D01*
X10460435Y-10499500D01*
X10384011Y-10519978D01*
X10384007Y-10519980D01*
X10315491Y-10559538D01*
X10259538Y-10615491D01*
X10219980Y-10684007D01*
X10219978Y-10684011D01*
X10199500Y-10760435D01*
X10199500Y-11965500D01*
X10180593Y-12023691D01*
X10131093Y-12059655D01*
X10100500Y-12064500D01*
X9848321Y-12064500D01*
X9790130Y-12045593D01*
X9778323Y-12035509D01*
X9707314Y-11964500D01*
X9707311Y-11964498D01*
X9707309Y-11964496D01*
X9593189Y-11898609D01*
X9593191Y-11898609D01*
X9543799Y-11885375D01*
X9465892Y-11864500D01*
X9334108Y-11864500D01*
X9256200Y-11885375D01*
X9206809Y-11898609D01*
X9092690Y-11964496D01*
X8999496Y-12057690D01*
X8933609Y-12171809D01*
X8933608Y-12171814D01*
X8899500Y-12299108D01*
X8899500Y-12430892D01*
X8912924Y-12480992D01*
X8933609Y-12558190D01*
X8999496Y-12672309D01*
X8999498Y-12672311D01*
X8999500Y-12672314D01*
X9092686Y-12765500D01*
X9092688Y-12765501D01*
X9092690Y-12765503D01*
X9206810Y-12831390D01*
X9206808Y-12831390D01*
X9206812Y-12831391D01*
X9206814Y-12831392D01*
X9334108Y-12865500D01*
X9334110Y-12865500D01*
X9465890Y-12865500D01*
X9465892Y-12865500D01*
X9593186Y-12831392D01*
X9593188Y-12831390D01*
X9593190Y-12831390D01*
X9707309Y-12765503D01*
X9707309Y-12765502D01*
X9707314Y-12765500D01*
X9778319Y-12694494D01*
X9832834Y-12666719D01*
X9848321Y-12665500D01*
X10539563Y-12665500D01*
X10539563Y-12665499D01*
X10615989Y-12645021D01*
X10684511Y-12605460D01*
X10740460Y-12549511D01*
X10780021Y-12480989D01*
X10800500Y-12404562D01*
X10800500Y-11199500D01*
X10819407Y-11141309D01*
X10868907Y-11105345D01*
X10899500Y-11100500D01*
X12300500Y-11100500D01*
X12358691Y-11119407D01*
X12394655Y-11168907D01*
X12399500Y-11199500D01*
X12399500Y-12867890D01*
X12380593Y-12926081D01*
X12331093Y-12962045D01*
X12269907Y-12962045D01*
X12220407Y-12926081D01*
X12214764Y-12917391D01*
X12200501Y-12892688D01*
X12200500Y-12892686D01*
X12107314Y-12799500D01*
X12107311Y-12799498D01*
X12107309Y-12799496D01*
X11993189Y-12733609D01*
X11993191Y-12733609D01*
X11943799Y-12720375D01*
X11865892Y-12699500D01*
X11734108Y-12699500D01*
X11656200Y-12720375D01*
X11606809Y-12733609D01*
X11492690Y-12799496D01*
X11399496Y-12892690D01*
X11333609Y-13006809D01*
X11326294Y-13034109D01*
X11299500Y-13134108D01*
X11299500Y-13265892D01*
X11316059Y-13327690D01*
X11333609Y-13393190D01*
X11399496Y-13507309D01*
X11399498Y-13507311D01*
X11399500Y-13507314D01*
X11445505Y-13553319D01*
X11473281Y-13607834D01*
X11474500Y-13623321D01*
X11474500Y-14424165D01*
X11455593Y-14482356D01*
X11445504Y-14494169D01*
X10294169Y-15645504D01*
X10239652Y-15673281D01*
X10224165Y-15674500D01*
X3648322Y-15674500D01*
X3590131Y-15655593D01*
X3578319Y-15645504D01*
X3532315Y-15599500D01*
X3532309Y-15599496D01*
X3418189Y-15533609D01*
X3418191Y-15533609D01*
X3368799Y-15520375D01*
X3290892Y-15499500D01*
X3159108Y-15499500D01*
X3081200Y-15520375D01*
X3031809Y-15533609D01*
X2917690Y-15599496D01*
X2824496Y-15692690D01*
X2758609Y-15806809D01*
X2758608Y-15806814D01*
X2724500Y-15934108D01*
X350000Y-15934108D01*
X350000Y-14434108D01*
X4399500Y-14434108D01*
X4399500Y-14565892D01*
X4404489Y-14584511D01*
X4433609Y-14693190D01*
X4499496Y-14807309D01*
X4499498Y-14807311D01*
X4499500Y-14807314D01*
X4592686Y-14900500D01*
X4592688Y-14900501D01*
X4592690Y-14900503D01*
X4706810Y-14966390D01*
X4706808Y-14966390D01*
X4706812Y-14966391D01*
X4706814Y-14966392D01*
X4834108Y-15000500D01*
X4834110Y-15000500D01*
X4965890Y-15000500D01*
X4965892Y-15000500D01*
X5093186Y-14966392D01*
X5093188Y-14966390D01*
X5093190Y-14966390D01*
X5207309Y-14900503D01*
X5207309Y-14900502D01*
X5207314Y-14900500D01*
X5300500Y-14807314D01*
X5366392Y-14693186D01*
X5400500Y-14565892D01*
X5400500Y-14434108D01*
X5366392Y-14306814D01*
X5366390Y-14306811D01*
X5366390Y-14306809D01*
X5300503Y-14192690D01*
X5300499Y-14192684D01*
X5254496Y-14146681D01*
X5226719Y-14092164D01*
X5225500Y-14076678D01*
X5225500Y-14059500D01*
X5244407Y-14001309D01*
X5293907Y-13965345D01*
X5324500Y-13960500D01*
X8576678Y-13960500D01*
X8634869Y-13979407D01*
X8646681Y-13989496D01*
X8692684Y-14035499D01*
X8692690Y-14035503D01*
X8806810Y-14101390D01*
X8806808Y-14101390D01*
X8806812Y-14101391D01*
X8806814Y-14101392D01*
X8934108Y-14135500D01*
X8934110Y-14135500D01*
X9065890Y-14135500D01*
X9065892Y-14135500D01*
X9193186Y-14101392D01*
X9193188Y-14101390D01*
X9193190Y-14101390D01*
X9307309Y-14035503D01*
X9307309Y-14035502D01*
X9307314Y-14035500D01*
X9400500Y-13942314D01*
X9400503Y-13942309D01*
X9466390Y-13828190D01*
X9466390Y-13828188D01*
X9466392Y-13828186D01*
X9500500Y-13700892D01*
X9500500Y-13569108D01*
X9466392Y-13441814D01*
X9466390Y-13441811D01*
X9466390Y-13441809D01*
X9400503Y-13327690D01*
X9400501Y-13327688D01*
X9400500Y-13327686D01*
X9307314Y-13234500D01*
X9307311Y-13234498D01*
X9307309Y-13234496D01*
X9193189Y-13168609D01*
X9193191Y-13168609D01*
X9143799Y-13155375D01*
X9065892Y-13134500D01*
X8934108Y-13134500D01*
X8856200Y-13155375D01*
X8806809Y-13168609D01*
X8692690Y-13234496D01*
X8692684Y-13234500D01*
X8646681Y-13280504D01*
X8592164Y-13308281D01*
X8576678Y-13309500D01*
X4942853Y-13309500D01*
X4857147Y-13309500D01*
X4774362Y-13331682D01*
X4700138Y-13374535D01*
X4639535Y-13435138D01*
X4596682Y-13509362D01*
X4580687Y-13569059D01*
X4574500Y-13592148D01*
X4574500Y-14076678D01*
X4555593Y-14134869D01*
X4545504Y-14146681D01*
X4499500Y-14192684D01*
X4499496Y-14192690D01*
X4433609Y-14306809D01*
X4420572Y-14355466D01*
X4399500Y-14434108D01*
X350000Y-14434108D01*
X350000Y-5289593D01*
X368907Y-5231402D01*
X418407Y-5195438D01*
X479593Y-5195438D01*
X498500Y-5203857D01*
X606810Y-5266390D01*
X606808Y-5266390D01*
X606812Y-5266391D01*
X606814Y-5266392D01*
X734108Y-5300500D01*
X734110Y-5300500D01*
X865890Y-5300500D01*
X865892Y-5300500D01*
X993186Y-5266392D01*
X993188Y-5266390D01*
X993190Y-5266390D01*
X1107309Y-5200503D01*
X1107309Y-5200502D01*
X1107314Y-5200500D01*
X1200500Y-5107314D01*
X1204434Y-5100500D01*
X1266390Y-4993190D01*
X1266390Y-4993188D01*
X1266392Y-4993186D01*
X1300500Y-4865892D01*
X1300500Y-4734108D01*
X1266392Y-4606814D01*
X1266390Y-4606811D01*
X1266390Y-4606809D01*
X1200503Y-4492690D01*
X1200498Y-4492684D01*
X1179495Y-4471680D01*
X1151719Y-4417163D01*
X1150500Y-4401678D01*
X1150500Y-4249500D01*
X1169407Y-4191309D01*
X1218907Y-4155345D01*
X1249500Y-4150500D01*
X6860118Y-4150500D01*
X6918309Y-4169407D01*
X6954273Y-4218907D01*
X6954273Y-4280093D01*
X6945854Y-4299000D01*
X6883609Y-4406809D01*
X6883608Y-4406814D01*
X6849500Y-4534108D01*
X6849500Y-4665892D01*
X6866778Y-4730375D01*
X6883609Y-4793190D01*
X6949496Y-4907309D01*
X6949498Y-4907311D01*
X6949500Y-4907314D01*
X7042686Y-5000500D01*
X7067391Y-5014763D01*
X7108332Y-5060233D01*
X7114728Y-5121083D01*
X7084135Y-5174071D01*
X7028240Y-5198958D01*
X7017891Y-5199500D01*
X5852727Y-5199500D01*
X5747273Y-5199500D01*
X5645413Y-5226793D01*
X5645412Y-5226793D01*
X5645410Y-5226794D01*
X5645409Y-5226794D01*
X5554089Y-5279518D01*
X5479518Y-5354089D01*
X5426794Y-5445409D01*
X5426794Y-5445410D01*
X5426793Y-5445412D01*
X5426793Y-5445413D01*
X5403028Y-5534109D01*
X5399500Y-5547274D01*
X5399500Y-8200500D01*
X5380593Y-8258691D01*
X5331093Y-8294655D01*
X5300500Y-8299500D01*
X3558840Y-8299500D01*
X3509341Y-8286236D01*
X3418186Y-8233608D01*
X3290892Y-8199500D01*
X3159108Y-8199500D01*
X3081200Y-8220375D01*
X3031809Y-8233609D01*
X2917690Y-8299496D01*
X2824496Y-8392690D01*
X2758609Y-8506809D01*
X2758608Y-8506814D01*
X2724500Y-8634108D01*
X2724500Y-8765892D01*
X2748266Y-8854587D01*
X2758609Y-8893190D01*
X2824496Y-9007309D01*
X2824498Y-9007311D01*
X2824500Y-9007314D01*
X2917686Y-9100500D01*
X2917688Y-9100501D01*
X2917690Y-9100503D01*
X3031810Y-9166390D01*
X3031808Y-9166390D01*
X3031812Y-9166391D01*
X3031814Y-9166392D01*
X3159108Y-9200500D01*
X3159110Y-9200500D01*
X3290890Y-9200500D01*
X3290892Y-9200500D01*
X3418186Y-9166392D01*
X3509341Y-9113763D01*
X3558840Y-9100500D01*
X5852725Y-9100500D01*
X5852727Y-9100500D01*
X5954587Y-9073207D01*
X6045913Y-9020480D01*
X6120480Y-8945913D01*
X6173207Y-8854587D01*
X6200500Y-8752727D01*
X6200500Y-6099500D01*
X6219407Y-6041309D01*
X6268907Y-6005345D01*
X6299500Y-6000500D01*
X7166160Y-6000500D01*
X7215658Y-6013763D01*
X7306814Y-6066392D01*
X7434108Y-6100500D01*
X7434110Y-6100500D01*
X7565890Y-6100500D01*
X7565892Y-6100500D01*
X7693186Y-6066392D01*
X7693188Y-6066390D01*
X7693190Y-6066390D01*
X7807309Y-6000503D01*
X7807309Y-6000502D01*
X7807314Y-6000500D01*
X7900500Y-5907314D01*
X7966392Y-5793186D01*
X8000500Y-5665892D01*
X8000500Y-5534108D01*
X7966392Y-5406814D01*
X7966390Y-5406811D01*
X7966390Y-5406809D01*
X7900503Y-5292690D01*
X7900501Y-5292688D01*
X7900500Y-5292686D01*
X7807314Y-5199500D01*
X7782608Y-5185236D01*
X7741668Y-5139767D01*
X7735272Y-5078917D01*
X7765865Y-5025929D01*
X7821760Y-5001042D01*
X7832109Y-5000500D01*
X9000500Y-5000500D01*
X9058691Y-5019407D01*
X9094655Y-5068907D01*
X9099500Y-5099500D01*
X9099500Y-7065203D01*
X9080593Y-7123394D01*
X9050000Y-7150939D01*
X8931286Y-7219478D01*
X8931284Y-7219480D01*
X8819480Y-7331284D01*
X8740423Y-7468216D01*
X8699500Y-7620943D01*
X8699500Y-7779057D01*
X8740423Y-7931784D01*
X8819480Y-8068716D01*
X8931284Y-8180520D01*
X9068216Y-8259577D01*
X9220943Y-8300500D01*
X9220945Y-8300500D01*
X9779055Y-8300500D01*
X9779057Y-8300500D01*
X9931784Y-8259577D01*
X10068716Y-8180520D01*
X10180520Y-8068716D01*
X10259577Y-7931784D01*
X10300500Y-7779057D01*
X10300500Y-2699500D01*
X10319407Y-2641309D01*
X10368907Y-2605345D01*
X10399500Y-2600500D01*
X16300500Y-2600500D01*
X16358691Y-2619407D01*
X16394655Y-2668907D01*
X16399500Y-2699500D01*
X16399500Y-3320943D01*
X16399500Y-3479057D01*
X16440423Y-3631784D01*
X16519480Y-3768716D01*
X16631284Y-3880520D01*
X16768216Y-3959577D01*
X16920943Y-4000500D01*
X19804308Y-4000500D01*
X19862499Y-4019407D01*
X19898463Y-4068907D01*
X19900531Y-4078932D01*
X19901069Y-4078815D01*
X19902355Y-4084703D01*
X19947207Y-4212883D01*
X20027845Y-4322144D01*
X20027847Y-4322146D01*
X20027850Y-4322150D01*
X20027853Y-4322152D01*
X20027855Y-4322154D01*
X20137116Y-4402792D01*
X20137117Y-4402792D01*
X20137118Y-4402793D01*
X20265301Y-4447646D01*
X20295725Y-4450499D01*
X20295727Y-4450500D01*
X20295734Y-4450500D01*
X21904273Y-4450500D01*
X21904273Y-4450499D01*
X21934699Y-4447646D01*
X22062882Y-4402793D01*
X22172150Y-4322150D01*
X22252793Y-4212882D01*
X22297646Y-4084699D01*
X22300499Y-4054273D01*
X22300500Y-4054273D01*
X22300500Y-2745727D01*
X22300499Y-2745725D01*
X22299127Y-2731093D01*
X22297646Y-2715301D01*
X22252793Y-2587118D01*
X22188866Y-2500500D01*
X22172154Y-2477855D01*
X22172152Y-2477853D01*
X22172150Y-2477850D01*
X22172146Y-2477847D01*
X22172144Y-2477845D01*
X22062883Y-2397207D01*
X21934703Y-2352355D01*
X21934694Y-2352353D01*
X21904274Y-2349500D01*
X21904266Y-2349500D01*
X20295734Y-2349500D01*
X20295725Y-2349500D01*
X20265305Y-2352353D01*
X20265296Y-2352355D01*
X20137116Y-2397207D01*
X20027855Y-2477845D01*
X20027845Y-2477855D01*
X19947207Y-2587116D01*
X19902355Y-2715296D01*
X19901069Y-2721185D01*
X19898193Y-2720556D01*
X19878656Y-2765871D01*
X19826033Y-2797087D01*
X19804308Y-2799500D01*
X17699500Y-2799500D01*
X17641309Y-2780593D01*
X17605345Y-2731093D01*
X17600500Y-2700500D01*
X17600500Y-1920944D01*
X17600500Y-1920943D01*
X17559577Y-1768216D01*
X17480520Y-1631284D01*
X17368716Y-1519480D01*
X17231784Y-1440423D01*
X17079057Y-1399500D01*
X9779057Y-1399500D01*
X9620943Y-1399500D01*
X9468216Y-1440423D01*
X9331284Y-1519480D01*
X9219480Y-1631284D01*
X9140423Y-1768216D01*
X9113420Y-1868995D01*
X9099500Y-1920944D01*
X9099500Y-4100500D01*
X9080593Y-4158691D01*
X9031093Y-4194655D01*
X9000500Y-4199500D01*
X7799500Y-4199500D01*
X7741309Y-4180593D01*
X7705345Y-4131093D01*
X7700500Y-4100500D01*
X7700500Y-3753857D01*
X7700500Y-3753856D01*
X7676614Y-3664712D01*
X7630469Y-3584788D01*
X7565212Y-3519531D01*
X7495110Y-3479057D01*
X7485290Y-3473387D01*
X7485289Y-3473386D01*
X7485288Y-3473386D01*
X7396144Y-3449500D01*
X846144Y-3449500D01*
X753856Y-3449500D01*
X664712Y-3473386D01*
X664711Y-3473386D01*
X664709Y-3473387D01*
X584790Y-3519529D01*
X584788Y-3519530D01*
X584788Y-3519531D01*
X519531Y-3584788D01*
X519529Y-3584790D01*
X519004Y-3585316D01*
X464487Y-3613093D01*
X404055Y-3603522D01*
X360790Y-3560257D01*
X350000Y-3515312D01*
X350000Y-1731004D01*
X2899500Y-1731004D01*
X2899500Y-1868995D01*
X2926420Y-2004327D01*
X2926420Y-2004329D01*
X2979222Y-2131806D01*
X2979228Y-2131817D01*
X3055885Y-2246541D01*
X3153458Y-2344114D01*
X3268182Y-2420771D01*
X3268193Y-2420777D01*
X3315283Y-2440282D01*
X3395672Y-2473580D01*
X3531007Y-2500500D01*
X3531008Y-2500500D01*
X3668992Y-2500500D01*
X3668993Y-2500500D01*
X3804328Y-2473580D01*
X3931811Y-2420775D01*
X4046542Y-2344114D01*
X4144114Y-2246542D01*
X4220775Y-2131811D01*
X4273580Y-2004328D01*
X4300500Y-1868993D01*
X4300500Y-1731007D01*
X4300499Y-1731004D01*
X5899500Y-1731004D01*
X5899500Y-1868995D01*
X5926420Y-2004327D01*
X5926420Y-2004329D01*
X5979222Y-2131806D01*
X5979228Y-2131817D01*
X6055885Y-2246541D01*
X6153458Y-2344114D01*
X6268182Y-2420771D01*
X6268193Y-2420777D01*
X6315283Y-2440282D01*
X6395672Y-2473580D01*
X6531007Y-2500500D01*
X6531008Y-2500500D01*
X6668992Y-2500500D01*
X6668993Y-2500500D01*
X6804328Y-2473580D01*
X6931811Y-2420775D01*
X7046542Y-2344114D01*
X7144114Y-2246542D01*
X7220775Y-2131811D01*
X7273580Y-2004328D01*
X7300500Y-1868993D01*
X7300500Y-1731007D01*
X7273580Y-1595672D01*
X7220775Y-1468189D01*
X7220774Y-1468187D01*
X7220771Y-1468182D01*
X7144114Y-1353458D01*
X7046541Y-1255885D01*
X6931817Y-1179228D01*
X6931806Y-1179222D01*
X6804328Y-1126420D01*
X6668995Y-1099500D01*
X6668993Y-1099500D01*
X6531007Y-1099500D01*
X6531004Y-1099500D01*
X6395672Y-1126420D01*
X6395670Y-1126420D01*
X6268193Y-1179222D01*
X6268182Y-1179228D01*
X6153458Y-1255885D01*
X6055885Y-1353458D01*
X5979228Y-1468182D01*
X5979222Y-1468193D01*
X5926420Y-1595670D01*
X5926420Y-1595672D01*
X5899500Y-1731004D01*
X4300499Y-1731004D01*
X4273580Y-1595672D01*
X4220775Y-1468189D01*
X4220774Y-1468187D01*
X4220771Y-1468182D01*
X4144114Y-1353458D01*
X4046541Y-1255885D01*
X3931817Y-1179228D01*
X3931806Y-1179222D01*
X3804328Y-1126420D01*
X3668995Y-1099500D01*
X3668993Y-1099500D01*
X3531007Y-1099500D01*
X3531004Y-1099500D01*
X3395672Y-1126420D01*
X3395670Y-1126420D01*
X3268193Y-1179222D01*
X3268182Y-1179228D01*
X3153458Y-1255885D01*
X3055885Y-1353458D01*
X2979228Y-1468182D01*
X2979222Y-1468193D01*
X2926420Y-1595670D01*
X2926420Y-1595672D01*
X2899500Y-1731004D01*
X350000Y-1731004D01*
X350000Y-449000D01*
X368907Y-390809D01*
X418407Y-354845D01*
X449000Y-350000D01*
X23551000Y-350000D01*
X23609191Y-368907D01*
G37*
%TD.AperFunction*%
%TD*%
M02*
