%TF.GenerationSoftware,KiCad,Pcbnew,10.0.6*%
%TF.CreationDate,2026-09-09T21:57:27+08:00*%
%TF.ProjectId,mode2-no-firmware,6d6f6465-322d-46e6-9f2d-6669726d7761,rev?*%
%TF.SameCoordinates,Original*%
%TF.FileFunction,Legend,Bot*%
%TF.FilePolarity,Positive*%
%FSLAX46Y46*%
G04 Gerber Fmt 4.6, Leading zero omitted, Abs format (unit mm)*
G04 Created by KiCad (PCBNEW 10.0.6) date 2026-09-09 21:57:27*
%MOMM*%
%LPD*%
G01*
G04 APERTURE LIST*
%ADD10C,0.120000*%
G04 APERTURE END LIST*
D10*
X3147618Y-27363855D02*
X3147618Y-26563855D01*
X3147618Y-26563855D02*
X2690475Y-27363855D01*
X2690475Y-27363855D02*
X2690475Y-26563855D01*
X2157142Y-26563855D02*
X2004761Y-26563855D01*
X2004761Y-26563855D02*
X1928571Y-26601950D01*
X1928571Y-26601950D02*
X1852380Y-26678140D01*
X1852380Y-26678140D02*
X1814285Y-26830521D01*
X1814285Y-26830521D02*
X1814285Y-27097188D01*
X1814285Y-27097188D02*
X1852380Y-27249569D01*
X1852380Y-27249569D02*
X1928571Y-27325760D01*
X1928571Y-27325760D02*
X2004761Y-27363855D01*
X2004761Y-27363855D02*
X2157142Y-27363855D01*
X2157142Y-27363855D02*
X2233333Y-27325760D01*
X2233333Y-27325760D02*
X2309523Y-27249569D01*
X2309523Y-27249569D02*
X2347619Y-27097188D01*
X2347619Y-27097188D02*
X2347619Y-26830521D01*
X2347619Y-26830521D02*
X2309523Y-26678140D01*
X2309523Y-26678140D02*
X2233333Y-26601950D01*
X2233333Y-26601950D02*
X2157142Y-26563855D01*
X3133332Y-20063855D02*
X3399999Y-19682902D01*
X3590475Y-20063855D02*
X3590475Y-19263855D01*
X3590475Y-19263855D02*
X3285713Y-19263855D01*
X3285713Y-19263855D02*
X3209523Y-19301950D01*
X3209523Y-19301950D02*
X3171428Y-19340045D01*
X3171428Y-19340045D02*
X3133332Y-19416236D01*
X3133332Y-19416236D02*
X3133332Y-19530521D01*
X3133332Y-19530521D02*
X3171428Y-19606712D01*
X3171428Y-19606712D02*
X3209523Y-19644807D01*
X3209523Y-19644807D02*
X3285713Y-19682902D01*
X3285713Y-19682902D02*
X3590475Y-19682902D01*
X2371428Y-20063855D02*
X2828571Y-20063855D01*
X2599999Y-20063855D02*
X2599999Y-19263855D01*
X2599999Y-19263855D02*
X2676190Y-19378140D01*
X2676190Y-19378140D02*
X2752380Y-19454331D01*
X2752380Y-19454331D02*
X2828571Y-19492426D01*
X3795237Y-563855D02*
X3642856Y-563855D01*
X3642856Y-563855D02*
X3566666Y-601950D01*
X3566666Y-601950D02*
X3490475Y-678140D01*
X3490475Y-678140D02*
X3452380Y-830521D01*
X3452380Y-830521D02*
X3452380Y-1097188D01*
X3452380Y-1097188D02*
X3490475Y-1249569D01*
X3490475Y-1249569D02*
X3566666Y-1325760D01*
X3566666Y-1325760D02*
X3642856Y-1363855D01*
X3642856Y-1363855D02*
X3795237Y-1363855D01*
X3795237Y-1363855D02*
X3871428Y-1325760D01*
X3871428Y-1325760D02*
X3947618Y-1249569D01*
X3947618Y-1249569D02*
X3985714Y-1097188D01*
X3985714Y-1097188D02*
X3985714Y-830521D01*
X3985714Y-830521D02*
X3947618Y-678140D01*
X3947618Y-678140D02*
X3871428Y-601950D01*
X3871428Y-601950D02*
X3795237Y-563855D01*
X3109523Y-1363855D02*
X3109523Y-563855D01*
X3109523Y-563855D02*
X2652380Y-1363855D01*
X2652380Y-1363855D02*
X2652380Y-563855D01*
X4836667Y-22225760D02*
X4722381Y-22263855D01*
X4722381Y-22263855D02*
X4531905Y-22263855D01*
X4531905Y-22263855D02*
X4455714Y-22225760D01*
X4455714Y-22225760D02*
X4417619Y-22187664D01*
X4417619Y-22187664D02*
X4379524Y-22111474D01*
X4379524Y-22111474D02*
X4379524Y-22035283D01*
X4379524Y-22035283D02*
X4417619Y-21959093D01*
X4417619Y-21959093D02*
X4455714Y-21920998D01*
X4455714Y-21920998D02*
X4531905Y-21882902D01*
X4531905Y-21882902D02*
X4684286Y-21844807D01*
X4684286Y-21844807D02*
X4760476Y-21806712D01*
X4760476Y-21806712D02*
X4798571Y-21768617D01*
X4798571Y-21768617D02*
X4836667Y-21692426D01*
X4836667Y-21692426D02*
X4836667Y-21616236D01*
X4836667Y-21616236D02*
X4798571Y-21540045D01*
X4798571Y-21540045D02*
X4760476Y-21501950D01*
X4760476Y-21501950D02*
X4684286Y-21463855D01*
X4684286Y-21463855D02*
X4493809Y-21463855D01*
X4493809Y-21463855D02*
X4379524Y-21501950D01*
X4112857Y-21463855D02*
X3922381Y-22263855D01*
X3922381Y-22263855D02*
X3770000Y-21692426D01*
X3770000Y-21692426D02*
X3617619Y-22263855D01*
X3617619Y-22263855D02*
X3427143Y-21463855D01*
X2703333Y-22263855D02*
X3160476Y-22263855D01*
X2931904Y-22263855D02*
X2931904Y-21463855D01*
X2931904Y-21463855D02*
X3008095Y-21578140D01*
X3008095Y-21578140D02*
X3084285Y-21654331D01*
X3084285Y-21654331D02*
X3160476Y-21692426D01*
X4633332Y-8637664D02*
X4671428Y-8675760D01*
X4671428Y-8675760D02*
X4785713Y-8713855D01*
X4785713Y-8713855D02*
X4861904Y-8713855D01*
X4861904Y-8713855D02*
X4976190Y-8675760D01*
X4976190Y-8675760D02*
X5052380Y-8599569D01*
X5052380Y-8599569D02*
X5090475Y-8523379D01*
X5090475Y-8523379D02*
X5128571Y-8370998D01*
X5128571Y-8370998D02*
X5128571Y-8256712D01*
X5128571Y-8256712D02*
X5090475Y-8104331D01*
X5090475Y-8104331D02*
X5052380Y-8028140D01*
X5052380Y-8028140D02*
X4976190Y-7951950D01*
X4976190Y-7951950D02*
X4861904Y-7913855D01*
X4861904Y-7913855D02*
X4785713Y-7913855D01*
X4785713Y-7913855D02*
X4671428Y-7951950D01*
X4671428Y-7951950D02*
X4633332Y-7990045D01*
X3871428Y-8713855D02*
X4328571Y-8713855D01*
X4099999Y-8713855D02*
X4099999Y-7913855D01*
X4099999Y-7913855D02*
X4176190Y-8028140D01*
X4176190Y-8028140D02*
X4252380Y-8104331D01*
X4252380Y-8104331D02*
X4328571Y-8142426D01*
X5109523Y-13363855D02*
X5109523Y-14011474D01*
X5109523Y-14011474D02*
X5071428Y-14087664D01*
X5071428Y-14087664D02*
X5033333Y-14125760D01*
X5033333Y-14125760D02*
X4957142Y-14163855D01*
X4957142Y-14163855D02*
X4804761Y-14163855D01*
X4804761Y-14163855D02*
X4728571Y-14125760D01*
X4728571Y-14125760D02*
X4690476Y-14087664D01*
X4690476Y-14087664D02*
X4652380Y-14011474D01*
X4652380Y-14011474D02*
X4652380Y-13363855D01*
X3852381Y-14163855D02*
X4309524Y-14163855D01*
X4080952Y-14163855D02*
X4080952Y-13363855D01*
X4080952Y-13363855D02*
X4157143Y-13478140D01*
X4157143Y-13478140D02*
X4233333Y-13554331D01*
X4233333Y-13554331D02*
X4309524Y-13592426D01*
X5668570Y-27287664D02*
X5706666Y-27325760D01*
X5706666Y-27325760D02*
X5820951Y-27363855D01*
X5820951Y-27363855D02*
X5897142Y-27363855D01*
X5897142Y-27363855D02*
X6011428Y-27325760D01*
X6011428Y-27325760D02*
X6087618Y-27249569D01*
X6087618Y-27249569D02*
X6125713Y-27173379D01*
X6125713Y-27173379D02*
X6163809Y-27020998D01*
X6163809Y-27020998D02*
X6163809Y-26906712D01*
X6163809Y-26906712D02*
X6125713Y-26754331D01*
X6125713Y-26754331D02*
X6087618Y-26678140D01*
X6087618Y-26678140D02*
X6011428Y-26601950D01*
X6011428Y-26601950D02*
X5897142Y-26563855D01*
X5897142Y-26563855D02*
X5820951Y-26563855D01*
X5820951Y-26563855D02*
X5706666Y-26601950D01*
X5706666Y-26601950D02*
X5668570Y-26640045D01*
X5173332Y-26563855D02*
X5020951Y-26563855D01*
X5020951Y-26563855D02*
X4944761Y-26601950D01*
X4944761Y-26601950D02*
X4868570Y-26678140D01*
X4868570Y-26678140D02*
X4830475Y-26830521D01*
X4830475Y-26830521D02*
X4830475Y-27097188D01*
X4830475Y-27097188D02*
X4868570Y-27249569D01*
X4868570Y-27249569D02*
X4944761Y-27325760D01*
X4944761Y-27325760D02*
X5020951Y-27363855D01*
X5020951Y-27363855D02*
X5173332Y-27363855D01*
X5173332Y-27363855D02*
X5249523Y-27325760D01*
X5249523Y-27325760D02*
X5325713Y-27249569D01*
X5325713Y-27249569D02*
X5363809Y-27097188D01*
X5363809Y-27097188D02*
X5363809Y-26830521D01*
X5363809Y-26830521D02*
X5325713Y-26678140D01*
X5325713Y-26678140D02*
X5249523Y-26601950D01*
X5249523Y-26601950D02*
X5173332Y-26563855D01*
X4487618Y-27363855D02*
X4487618Y-26563855D01*
X4487618Y-26563855D02*
X4220952Y-27135283D01*
X4220952Y-27135283D02*
X3954285Y-26563855D01*
X3954285Y-26563855D02*
X3954285Y-27363855D01*
X9133332Y-9887664D02*
X9171428Y-9925760D01*
X9171428Y-9925760D02*
X9285713Y-9963855D01*
X9285713Y-9963855D02*
X9361904Y-9963855D01*
X9361904Y-9963855D02*
X9476190Y-9925760D01*
X9476190Y-9925760D02*
X9552380Y-9849569D01*
X9552380Y-9849569D02*
X9590475Y-9773379D01*
X9590475Y-9773379D02*
X9628571Y-9620998D01*
X9628571Y-9620998D02*
X9628571Y-9506712D01*
X9628571Y-9506712D02*
X9590475Y-9354331D01*
X9590475Y-9354331D02*
X9552380Y-9278140D01*
X9552380Y-9278140D02*
X9476190Y-9201950D01*
X9476190Y-9201950D02*
X9361904Y-9163855D01*
X9361904Y-9163855D02*
X9285713Y-9163855D01*
X9285713Y-9163855D02*
X9171428Y-9201950D01*
X9171428Y-9201950D02*
X9133332Y-9240045D01*
X8409523Y-9163855D02*
X8790475Y-9163855D01*
X8790475Y-9163855D02*
X8828571Y-9544807D01*
X8828571Y-9544807D02*
X8790475Y-9506712D01*
X8790475Y-9506712D02*
X8714285Y-9468617D01*
X8714285Y-9468617D02*
X8523809Y-9468617D01*
X8523809Y-9468617D02*
X8447618Y-9506712D01*
X8447618Y-9506712D02*
X8409523Y-9544807D01*
X8409523Y-9544807D02*
X8371428Y-9620998D01*
X8371428Y-9620998D02*
X8371428Y-9811474D01*
X8371428Y-9811474D02*
X8409523Y-9887664D01*
X8409523Y-9887664D02*
X8447618Y-9925760D01*
X8447618Y-9925760D02*
X8523809Y-9963855D01*
X8523809Y-9963855D02*
X8714285Y-9963855D01*
X8714285Y-9963855D02*
X8790475Y-9925760D01*
X8790475Y-9925760D02*
X8828571Y-9887664D01*
X9133332Y-12963855D02*
X9399999Y-12582902D01*
X9590475Y-12963855D02*
X9590475Y-12163855D01*
X9590475Y-12163855D02*
X9285713Y-12163855D01*
X9285713Y-12163855D02*
X9209523Y-12201950D01*
X9209523Y-12201950D02*
X9171428Y-12240045D01*
X9171428Y-12240045D02*
X9133332Y-12316236D01*
X9133332Y-12316236D02*
X9133332Y-12430521D01*
X9133332Y-12430521D02*
X9171428Y-12506712D01*
X9171428Y-12506712D02*
X9209523Y-12544807D01*
X9209523Y-12544807D02*
X9285713Y-12582902D01*
X9285713Y-12582902D02*
X9590475Y-12582902D01*
X8866666Y-12163855D02*
X8371428Y-12163855D01*
X8371428Y-12163855D02*
X8638094Y-12468617D01*
X8638094Y-12468617D02*
X8523809Y-12468617D01*
X8523809Y-12468617D02*
X8447618Y-12506712D01*
X8447618Y-12506712D02*
X8409523Y-12544807D01*
X8409523Y-12544807D02*
X8371428Y-12620998D01*
X8371428Y-12620998D02*
X8371428Y-12811474D01*
X8371428Y-12811474D02*
X8409523Y-12887664D01*
X8409523Y-12887664D02*
X8447618Y-12925760D01*
X8447618Y-12925760D02*
X8523809Y-12963855D01*
X8523809Y-12963855D02*
X8752380Y-12963855D01*
X8752380Y-12963855D02*
X8828571Y-12925760D01*
X8828571Y-12925760D02*
X8866666Y-12887664D01*
X9133332Y-15887664D02*
X9171428Y-15925760D01*
X9171428Y-15925760D02*
X9285713Y-15963855D01*
X9285713Y-15963855D02*
X9361904Y-15963855D01*
X9361904Y-15963855D02*
X9476190Y-15925760D01*
X9476190Y-15925760D02*
X9552380Y-15849569D01*
X9552380Y-15849569D02*
X9590475Y-15773379D01*
X9590475Y-15773379D02*
X9628571Y-15620998D01*
X9628571Y-15620998D02*
X9628571Y-15506712D01*
X9628571Y-15506712D02*
X9590475Y-15354331D01*
X9590475Y-15354331D02*
X9552380Y-15278140D01*
X9552380Y-15278140D02*
X9476190Y-15201950D01*
X9476190Y-15201950D02*
X9361904Y-15163855D01*
X9361904Y-15163855D02*
X9285713Y-15163855D01*
X9285713Y-15163855D02*
X9171428Y-15201950D01*
X9171428Y-15201950D02*
X9133332Y-15240045D01*
X8447618Y-15163855D02*
X8599999Y-15163855D01*
X8599999Y-15163855D02*
X8676190Y-15201950D01*
X8676190Y-15201950D02*
X8714285Y-15240045D01*
X8714285Y-15240045D02*
X8790475Y-15354331D01*
X8790475Y-15354331D02*
X8828571Y-15506712D01*
X8828571Y-15506712D02*
X8828571Y-15811474D01*
X8828571Y-15811474D02*
X8790475Y-15887664D01*
X8790475Y-15887664D02*
X8752380Y-15925760D01*
X8752380Y-15925760D02*
X8676190Y-15963855D01*
X8676190Y-15963855D02*
X8523809Y-15963855D01*
X8523809Y-15963855D02*
X8447618Y-15925760D01*
X8447618Y-15925760D02*
X8409523Y-15887664D01*
X8409523Y-15887664D02*
X8371428Y-15811474D01*
X8371428Y-15811474D02*
X8371428Y-15620998D01*
X8371428Y-15620998D02*
X8409523Y-15544807D01*
X8409523Y-15544807D02*
X8447618Y-15506712D01*
X8447618Y-15506712D02*
X8523809Y-15468617D01*
X8523809Y-15468617D02*
X8676190Y-15468617D01*
X8676190Y-15468617D02*
X8752380Y-15506712D01*
X8752380Y-15506712D02*
X8790475Y-15544807D01*
X8790475Y-15544807D02*
X8828571Y-15620998D01*
X9133332Y-18963855D02*
X9399999Y-18582902D01*
X9590475Y-18963855D02*
X9590475Y-18163855D01*
X9590475Y-18163855D02*
X9285713Y-18163855D01*
X9285713Y-18163855D02*
X9209523Y-18201950D01*
X9209523Y-18201950D02*
X9171428Y-18240045D01*
X9171428Y-18240045D02*
X9133332Y-18316236D01*
X9133332Y-18316236D02*
X9133332Y-18430521D01*
X9133332Y-18430521D02*
X9171428Y-18506712D01*
X9171428Y-18506712D02*
X9209523Y-18544807D01*
X9209523Y-18544807D02*
X9285713Y-18582902D01*
X9285713Y-18582902D02*
X9590475Y-18582902D01*
X8447618Y-18430521D02*
X8447618Y-18963855D01*
X8638094Y-18125760D02*
X8828571Y-18697188D01*
X8828571Y-18697188D02*
X8333332Y-18697188D01*
X9647618Y-27363855D02*
X9647618Y-26563855D01*
X9647618Y-26563855D02*
X9190475Y-27363855D01*
X9190475Y-27363855D02*
X9190475Y-26563855D01*
X8657142Y-26563855D02*
X8504761Y-26563855D01*
X8504761Y-26563855D02*
X8428571Y-26601950D01*
X8428571Y-26601950D02*
X8352380Y-26678140D01*
X8352380Y-26678140D02*
X8314285Y-26830521D01*
X8314285Y-26830521D02*
X8314285Y-27097188D01*
X8314285Y-27097188D02*
X8352380Y-27249569D01*
X8352380Y-27249569D02*
X8428571Y-27325760D01*
X8428571Y-27325760D02*
X8504761Y-27363855D01*
X8504761Y-27363855D02*
X8657142Y-27363855D01*
X8657142Y-27363855D02*
X8733333Y-27325760D01*
X8733333Y-27325760D02*
X8809523Y-27249569D01*
X8809523Y-27249569D02*
X8847619Y-27097188D01*
X8847619Y-27097188D02*
X8847619Y-26830521D01*
X8847619Y-26830521D02*
X8809523Y-26678140D01*
X8809523Y-26678140D02*
X8733333Y-26601950D01*
X8733333Y-26601950D02*
X8657142Y-26563855D01*
X11336667Y-22225760D02*
X11222381Y-22263855D01*
X11222381Y-22263855D02*
X11031905Y-22263855D01*
X11031905Y-22263855D02*
X10955714Y-22225760D01*
X10955714Y-22225760D02*
X10917619Y-22187664D01*
X10917619Y-22187664D02*
X10879524Y-22111474D01*
X10879524Y-22111474D02*
X10879524Y-22035283D01*
X10879524Y-22035283D02*
X10917619Y-21959093D01*
X10917619Y-21959093D02*
X10955714Y-21920998D01*
X10955714Y-21920998D02*
X11031905Y-21882902D01*
X11031905Y-21882902D02*
X11184286Y-21844807D01*
X11184286Y-21844807D02*
X11260476Y-21806712D01*
X11260476Y-21806712D02*
X11298571Y-21768617D01*
X11298571Y-21768617D02*
X11336667Y-21692426D01*
X11336667Y-21692426D02*
X11336667Y-21616236D01*
X11336667Y-21616236D02*
X11298571Y-21540045D01*
X11298571Y-21540045D02*
X11260476Y-21501950D01*
X11260476Y-21501950D02*
X11184286Y-21463855D01*
X11184286Y-21463855D02*
X10993809Y-21463855D01*
X10993809Y-21463855D02*
X10879524Y-21501950D01*
X10612857Y-21463855D02*
X10422381Y-22263855D01*
X10422381Y-22263855D02*
X10270000Y-21692426D01*
X10270000Y-21692426D02*
X10117619Y-22263855D01*
X10117619Y-22263855D02*
X9927143Y-21463855D01*
X9660476Y-21540045D02*
X9622380Y-21501950D01*
X9622380Y-21501950D02*
X9546190Y-21463855D01*
X9546190Y-21463855D02*
X9355714Y-21463855D01*
X9355714Y-21463855D02*
X9279523Y-21501950D01*
X9279523Y-21501950D02*
X9241428Y-21540045D01*
X9241428Y-21540045D02*
X9203333Y-21616236D01*
X9203333Y-21616236D02*
X9203333Y-21692426D01*
X9203333Y-21692426D02*
X9241428Y-21806712D01*
X9241428Y-21806712D02*
X9698571Y-22263855D01*
X9698571Y-22263855D02*
X9203333Y-22263855D01*
X12168570Y-27287664D02*
X12206666Y-27325760D01*
X12206666Y-27325760D02*
X12320951Y-27363855D01*
X12320951Y-27363855D02*
X12397142Y-27363855D01*
X12397142Y-27363855D02*
X12511428Y-27325760D01*
X12511428Y-27325760D02*
X12587618Y-27249569D01*
X12587618Y-27249569D02*
X12625713Y-27173379D01*
X12625713Y-27173379D02*
X12663809Y-27020998D01*
X12663809Y-27020998D02*
X12663809Y-26906712D01*
X12663809Y-26906712D02*
X12625713Y-26754331D01*
X12625713Y-26754331D02*
X12587618Y-26678140D01*
X12587618Y-26678140D02*
X12511428Y-26601950D01*
X12511428Y-26601950D02*
X12397142Y-26563855D01*
X12397142Y-26563855D02*
X12320951Y-26563855D01*
X12320951Y-26563855D02*
X12206666Y-26601950D01*
X12206666Y-26601950D02*
X12168570Y-26640045D01*
X11673332Y-26563855D02*
X11520951Y-26563855D01*
X11520951Y-26563855D02*
X11444761Y-26601950D01*
X11444761Y-26601950D02*
X11368570Y-26678140D01*
X11368570Y-26678140D02*
X11330475Y-26830521D01*
X11330475Y-26830521D02*
X11330475Y-27097188D01*
X11330475Y-27097188D02*
X11368570Y-27249569D01*
X11368570Y-27249569D02*
X11444761Y-27325760D01*
X11444761Y-27325760D02*
X11520951Y-27363855D01*
X11520951Y-27363855D02*
X11673332Y-27363855D01*
X11673332Y-27363855D02*
X11749523Y-27325760D01*
X11749523Y-27325760D02*
X11825713Y-27249569D01*
X11825713Y-27249569D02*
X11863809Y-27097188D01*
X11863809Y-27097188D02*
X11863809Y-26830521D01*
X11863809Y-26830521D02*
X11825713Y-26678140D01*
X11825713Y-26678140D02*
X11749523Y-26601950D01*
X11749523Y-26601950D02*
X11673332Y-26563855D01*
X10987618Y-27363855D02*
X10987618Y-26563855D01*
X10987618Y-26563855D02*
X10720952Y-27135283D01*
X10720952Y-27135283D02*
X10454285Y-26563855D01*
X10454285Y-26563855D02*
X10454285Y-27363855D01*
X12133332Y-20063855D02*
X12399999Y-19682902D01*
X12590475Y-20063855D02*
X12590475Y-19263855D01*
X12590475Y-19263855D02*
X12285713Y-19263855D01*
X12285713Y-19263855D02*
X12209523Y-19301950D01*
X12209523Y-19301950D02*
X12171428Y-19340045D01*
X12171428Y-19340045D02*
X12133332Y-19416236D01*
X12133332Y-19416236D02*
X12133332Y-19530521D01*
X12133332Y-19530521D02*
X12171428Y-19606712D01*
X12171428Y-19606712D02*
X12209523Y-19644807D01*
X12209523Y-19644807D02*
X12285713Y-19682902D01*
X12285713Y-19682902D02*
X12590475Y-19682902D01*
X11828571Y-19340045D02*
X11790475Y-19301950D01*
X11790475Y-19301950D02*
X11714285Y-19263855D01*
X11714285Y-19263855D02*
X11523809Y-19263855D01*
X11523809Y-19263855D02*
X11447618Y-19301950D01*
X11447618Y-19301950D02*
X11409523Y-19340045D01*
X11409523Y-19340045D02*
X11371428Y-19416236D01*
X11371428Y-19416236D02*
X11371428Y-19492426D01*
X11371428Y-19492426D02*
X11409523Y-19606712D01*
X11409523Y-19606712D02*
X11866666Y-20063855D01*
X11866666Y-20063855D02*
X11371428Y-20063855D01*
X13461903Y-563855D02*
X13309522Y-563855D01*
X13309522Y-563855D02*
X13233332Y-601950D01*
X13233332Y-601950D02*
X13157141Y-678140D01*
X13157141Y-678140D02*
X13119046Y-830521D01*
X13119046Y-830521D02*
X13119046Y-1097188D01*
X13119046Y-1097188D02*
X13157141Y-1249569D01*
X13157141Y-1249569D02*
X13233332Y-1325760D01*
X13233332Y-1325760D02*
X13309522Y-1363855D01*
X13309522Y-1363855D02*
X13461903Y-1363855D01*
X13461903Y-1363855D02*
X13538094Y-1325760D01*
X13538094Y-1325760D02*
X13614284Y-1249569D01*
X13614284Y-1249569D02*
X13652380Y-1097188D01*
X13652380Y-1097188D02*
X13652380Y-830521D01*
X13652380Y-830521D02*
X13614284Y-678140D01*
X13614284Y-678140D02*
X13538094Y-601950D01*
X13538094Y-601950D02*
X13461903Y-563855D01*
X12509523Y-944807D02*
X12776189Y-944807D01*
X12776189Y-1363855D02*
X12776189Y-563855D01*
X12776189Y-563855D02*
X12395237Y-563855D01*
X11823809Y-944807D02*
X12090475Y-944807D01*
X12090475Y-1363855D02*
X12090475Y-563855D01*
X12090475Y-563855D02*
X11709523Y-563855D01*
X14633332Y-8637664D02*
X14671428Y-8675760D01*
X14671428Y-8675760D02*
X14785713Y-8713855D01*
X14785713Y-8713855D02*
X14861904Y-8713855D01*
X14861904Y-8713855D02*
X14976190Y-8675760D01*
X14976190Y-8675760D02*
X15052380Y-8599569D01*
X15052380Y-8599569D02*
X15090475Y-8523379D01*
X15090475Y-8523379D02*
X15128571Y-8370998D01*
X15128571Y-8370998D02*
X15128571Y-8256712D01*
X15128571Y-8256712D02*
X15090475Y-8104331D01*
X15090475Y-8104331D02*
X15052380Y-8028140D01*
X15052380Y-8028140D02*
X14976190Y-7951950D01*
X14976190Y-7951950D02*
X14861904Y-7913855D01*
X14861904Y-7913855D02*
X14785713Y-7913855D01*
X14785713Y-7913855D02*
X14671428Y-7951950D01*
X14671428Y-7951950D02*
X14633332Y-7990045D01*
X14328571Y-7990045D02*
X14290475Y-7951950D01*
X14290475Y-7951950D02*
X14214285Y-7913855D01*
X14214285Y-7913855D02*
X14023809Y-7913855D01*
X14023809Y-7913855D02*
X13947618Y-7951950D01*
X13947618Y-7951950D02*
X13909523Y-7990045D01*
X13909523Y-7990045D02*
X13871428Y-8066236D01*
X13871428Y-8066236D02*
X13871428Y-8142426D01*
X13871428Y-8142426D02*
X13909523Y-8256712D01*
X13909523Y-8256712D02*
X14366666Y-8713855D01*
X14366666Y-8713855D02*
X13871428Y-8713855D01*
X15109523Y-13363855D02*
X15109523Y-14011474D01*
X15109523Y-14011474D02*
X15071428Y-14087664D01*
X15071428Y-14087664D02*
X15033333Y-14125760D01*
X15033333Y-14125760D02*
X14957142Y-14163855D01*
X14957142Y-14163855D02*
X14804761Y-14163855D01*
X14804761Y-14163855D02*
X14728571Y-14125760D01*
X14728571Y-14125760D02*
X14690476Y-14087664D01*
X14690476Y-14087664D02*
X14652380Y-14011474D01*
X14652380Y-14011474D02*
X14652380Y-13363855D01*
X14309524Y-13440045D02*
X14271428Y-13401950D01*
X14271428Y-13401950D02*
X14195238Y-13363855D01*
X14195238Y-13363855D02*
X14004762Y-13363855D01*
X14004762Y-13363855D02*
X13928571Y-13401950D01*
X13928571Y-13401950D02*
X13890476Y-13440045D01*
X13890476Y-13440045D02*
X13852381Y-13516236D01*
X13852381Y-13516236D02*
X13852381Y-13592426D01*
X13852381Y-13592426D02*
X13890476Y-13706712D01*
X13890476Y-13706712D02*
X14347619Y-14163855D01*
X14347619Y-14163855D02*
X13852381Y-14163855D01*
X15133332Y-24363855D02*
X15399999Y-23982902D01*
X15590475Y-24363855D02*
X15590475Y-23563855D01*
X15590475Y-23563855D02*
X15285713Y-23563855D01*
X15285713Y-23563855D02*
X15209523Y-23601950D01*
X15209523Y-23601950D02*
X15171428Y-23640045D01*
X15171428Y-23640045D02*
X15133332Y-23716236D01*
X15133332Y-23716236D02*
X15133332Y-23830521D01*
X15133332Y-23830521D02*
X15171428Y-23906712D01*
X15171428Y-23906712D02*
X15209523Y-23944807D01*
X15209523Y-23944807D02*
X15285713Y-23982902D01*
X15285713Y-23982902D02*
X15590475Y-23982902D01*
X14409523Y-23563855D02*
X14790475Y-23563855D01*
X14790475Y-23563855D02*
X14828571Y-23944807D01*
X14828571Y-23944807D02*
X14790475Y-23906712D01*
X14790475Y-23906712D02*
X14714285Y-23868617D01*
X14714285Y-23868617D02*
X14523809Y-23868617D01*
X14523809Y-23868617D02*
X14447618Y-23906712D01*
X14447618Y-23906712D02*
X14409523Y-23944807D01*
X14409523Y-23944807D02*
X14371428Y-24020998D01*
X14371428Y-24020998D02*
X14371428Y-24211474D01*
X14371428Y-24211474D02*
X14409523Y-24287664D01*
X14409523Y-24287664D02*
X14447618Y-24325760D01*
X14447618Y-24325760D02*
X14523809Y-24363855D01*
X14523809Y-24363855D02*
X14714285Y-24363855D01*
X14714285Y-24363855D02*
X14790475Y-24325760D01*
X14790475Y-24325760D02*
X14828571Y-24287664D01*
X16590475Y-20863855D02*
X16590475Y-20063855D01*
X16590475Y-20063855D02*
X16399999Y-20063855D01*
X16399999Y-20063855D02*
X16285713Y-20101950D01*
X16285713Y-20101950D02*
X16209523Y-20178140D01*
X16209523Y-20178140D02*
X16171428Y-20254331D01*
X16171428Y-20254331D02*
X16133332Y-20406712D01*
X16133332Y-20406712D02*
X16133332Y-20520998D01*
X16133332Y-20520998D02*
X16171428Y-20673379D01*
X16171428Y-20673379D02*
X16209523Y-20749569D01*
X16209523Y-20749569D02*
X16285713Y-20825760D01*
X16285713Y-20825760D02*
X16399999Y-20863855D01*
X16399999Y-20863855D02*
X16590475Y-20863855D01*
X15371428Y-20863855D02*
X15828571Y-20863855D01*
X15599999Y-20863855D02*
X15599999Y-20063855D01*
X15599999Y-20063855D02*
X15676190Y-20178140D01*
X15676190Y-20178140D02*
X15752380Y-20254331D01*
X15752380Y-20254331D02*
X15828571Y-20292426D01*
X17783332Y-4287664D02*
X17821428Y-4325760D01*
X17821428Y-4325760D02*
X17935713Y-4363855D01*
X17935713Y-4363855D02*
X18011904Y-4363855D01*
X18011904Y-4363855D02*
X18126190Y-4325760D01*
X18126190Y-4325760D02*
X18202380Y-4249569D01*
X18202380Y-4249569D02*
X18240475Y-4173379D01*
X18240475Y-4173379D02*
X18278571Y-4020998D01*
X18278571Y-4020998D02*
X18278571Y-3906712D01*
X18278571Y-3906712D02*
X18240475Y-3754331D01*
X18240475Y-3754331D02*
X18202380Y-3678140D01*
X18202380Y-3678140D02*
X18126190Y-3601950D01*
X18126190Y-3601950D02*
X18011904Y-3563855D01*
X18011904Y-3563855D02*
X17935713Y-3563855D01*
X17935713Y-3563855D02*
X17821428Y-3601950D01*
X17821428Y-3601950D02*
X17783332Y-3640045D01*
X17097618Y-3830521D02*
X17097618Y-4363855D01*
X17288094Y-3525760D02*
X17478571Y-4097188D01*
X17478571Y-4097188D02*
X16983332Y-4097188D01*
X18133332Y-24287664D02*
X18171428Y-24325760D01*
X18171428Y-24325760D02*
X18285713Y-24363855D01*
X18285713Y-24363855D02*
X18361904Y-24363855D01*
X18361904Y-24363855D02*
X18476190Y-24325760D01*
X18476190Y-24325760D02*
X18552380Y-24249569D01*
X18552380Y-24249569D02*
X18590475Y-24173379D01*
X18590475Y-24173379D02*
X18628571Y-24020998D01*
X18628571Y-24020998D02*
X18628571Y-23906712D01*
X18628571Y-23906712D02*
X18590475Y-23754331D01*
X18590475Y-23754331D02*
X18552380Y-23678140D01*
X18552380Y-23678140D02*
X18476190Y-23601950D01*
X18476190Y-23601950D02*
X18361904Y-23563855D01*
X18361904Y-23563855D02*
X18285713Y-23563855D01*
X18285713Y-23563855D02*
X18171428Y-23601950D01*
X18171428Y-23601950D02*
X18133332Y-23640045D01*
X17866666Y-23563855D02*
X17333332Y-23563855D01*
X17333332Y-23563855D02*
X17676190Y-24363855D01*
X19533332Y-10763855D02*
X19799999Y-10382902D01*
X19990475Y-10763855D02*
X19990475Y-9963855D01*
X19990475Y-9963855D02*
X19685713Y-9963855D01*
X19685713Y-9963855D02*
X19609523Y-10001950D01*
X19609523Y-10001950D02*
X19571428Y-10040045D01*
X19571428Y-10040045D02*
X19533332Y-10116236D01*
X19533332Y-10116236D02*
X19533332Y-10230521D01*
X19533332Y-10230521D02*
X19571428Y-10306712D01*
X19571428Y-10306712D02*
X19609523Y-10344807D01*
X19609523Y-10344807D02*
X19685713Y-10382902D01*
X19685713Y-10382902D02*
X19990475Y-10382902D01*
X18847618Y-9963855D02*
X18999999Y-9963855D01*
X18999999Y-9963855D02*
X19076190Y-10001950D01*
X19076190Y-10001950D02*
X19114285Y-10040045D01*
X19114285Y-10040045D02*
X19190475Y-10154331D01*
X19190475Y-10154331D02*
X19228571Y-10306712D01*
X19228571Y-10306712D02*
X19228571Y-10611474D01*
X19228571Y-10611474D02*
X19190475Y-10687664D01*
X19190475Y-10687664D02*
X19152380Y-10725760D01*
X19152380Y-10725760D02*
X19076190Y-10763855D01*
X19076190Y-10763855D02*
X18923809Y-10763855D01*
X18923809Y-10763855D02*
X18847618Y-10725760D01*
X18847618Y-10725760D02*
X18809523Y-10687664D01*
X18809523Y-10687664D02*
X18771428Y-10611474D01*
X18771428Y-10611474D02*
X18771428Y-10420998D01*
X18771428Y-10420998D02*
X18809523Y-10344807D01*
X18809523Y-10344807D02*
X18847618Y-10306712D01*
X18847618Y-10306712D02*
X18923809Y-10268617D01*
X18923809Y-10268617D02*
X19076190Y-10268617D01*
X19076190Y-10268617D02*
X19152380Y-10306712D01*
X19152380Y-10306712D02*
X19190475Y-10344807D01*
X19190475Y-10344807D02*
X19228571Y-10420998D01*
X21733332Y-22287664D02*
X21771428Y-22325760D01*
X21771428Y-22325760D02*
X21885713Y-22363855D01*
X21885713Y-22363855D02*
X21961904Y-22363855D01*
X21961904Y-22363855D02*
X22076190Y-22325760D01*
X22076190Y-22325760D02*
X22152380Y-22249569D01*
X22152380Y-22249569D02*
X22190475Y-22173379D01*
X22190475Y-22173379D02*
X22228571Y-22020998D01*
X22228571Y-22020998D02*
X22228571Y-21906712D01*
X22228571Y-21906712D02*
X22190475Y-21754331D01*
X22190475Y-21754331D02*
X22152380Y-21678140D01*
X22152380Y-21678140D02*
X22076190Y-21601950D01*
X22076190Y-21601950D02*
X21961904Y-21563855D01*
X21961904Y-21563855D02*
X21885713Y-21563855D01*
X21885713Y-21563855D02*
X21771428Y-21601950D01*
X21771428Y-21601950D02*
X21733332Y-21640045D01*
X21466666Y-21563855D02*
X20971428Y-21563855D01*
X20971428Y-21563855D02*
X21238094Y-21868617D01*
X21238094Y-21868617D02*
X21123809Y-21868617D01*
X21123809Y-21868617D02*
X21047618Y-21906712D01*
X21047618Y-21906712D02*
X21009523Y-21944807D01*
X21009523Y-21944807D02*
X20971428Y-22020998D01*
X20971428Y-22020998D02*
X20971428Y-22211474D01*
X20971428Y-22211474D02*
X21009523Y-22287664D01*
X21009523Y-22287664D02*
X21047618Y-22325760D01*
X21047618Y-22325760D02*
X21123809Y-22363855D01*
X21123809Y-22363855D02*
X21352380Y-22363855D01*
X21352380Y-22363855D02*
X21428571Y-22325760D01*
X21428571Y-22325760D02*
X21466666Y-22287664D01*
X22309523Y-18563855D02*
X22309523Y-19211474D01*
X22309523Y-19211474D02*
X22271428Y-19287664D01*
X22271428Y-19287664D02*
X22233333Y-19325760D01*
X22233333Y-19325760D02*
X22157142Y-19363855D01*
X22157142Y-19363855D02*
X22004761Y-19363855D01*
X22004761Y-19363855D02*
X21928571Y-19325760D01*
X21928571Y-19325760D02*
X21890476Y-19287664D01*
X21890476Y-19287664D02*
X21852380Y-19211474D01*
X21852380Y-19211474D02*
X21852380Y-18563855D01*
X21547619Y-18563855D02*
X21052381Y-18563855D01*
X21052381Y-18563855D02*
X21319047Y-18868617D01*
X21319047Y-18868617D02*
X21204762Y-18868617D01*
X21204762Y-18868617D02*
X21128571Y-18906712D01*
X21128571Y-18906712D02*
X21090476Y-18944807D01*
X21090476Y-18944807D02*
X21052381Y-19020998D01*
X21052381Y-19020998D02*
X21052381Y-19211474D01*
X21052381Y-19211474D02*
X21090476Y-19287664D01*
X21090476Y-19287664D02*
X21128571Y-19325760D01*
X21128571Y-19325760D02*
X21204762Y-19363855D01*
X21204762Y-19363855D02*
X21433333Y-19363855D01*
X21433333Y-19363855D02*
X21509524Y-19325760D01*
X21509524Y-19325760D02*
X21547619Y-19287664D01*
X22590476Y-7644807D02*
X22476190Y-7682902D01*
X22476190Y-7682902D02*
X22438095Y-7720998D01*
X22438095Y-7720998D02*
X22399999Y-7797188D01*
X22399999Y-7797188D02*
X22399999Y-7911474D01*
X22399999Y-7911474D02*
X22438095Y-7987664D01*
X22438095Y-7987664D02*
X22476190Y-8025760D01*
X22476190Y-8025760D02*
X22552380Y-8063855D01*
X22552380Y-8063855D02*
X22857142Y-8063855D01*
X22857142Y-8063855D02*
X22857142Y-7263855D01*
X22857142Y-7263855D02*
X22590476Y-7263855D01*
X22590476Y-7263855D02*
X22514285Y-7301950D01*
X22514285Y-7301950D02*
X22476190Y-7340045D01*
X22476190Y-7340045D02*
X22438095Y-7416236D01*
X22438095Y-7416236D02*
X22438095Y-7492426D01*
X22438095Y-7492426D02*
X22476190Y-7568617D01*
X22476190Y-7568617D02*
X22514285Y-7606712D01*
X22514285Y-7606712D02*
X22590476Y-7644807D01*
X22590476Y-7644807D02*
X22857142Y-7644807D01*
X22095238Y-7835283D02*
X21714285Y-7835283D01*
X22171428Y-8063855D02*
X21904761Y-7263855D01*
X21904761Y-7263855D02*
X21638095Y-8063855D01*
X21485714Y-7263855D02*
X21028571Y-7263855D01*
X21257143Y-8063855D02*
X21257143Y-7263855D01*
X24209523Y-16063855D02*
X24209523Y-15263855D01*
X24209523Y-15263855D02*
X23942857Y-15835283D01*
X23942857Y-15835283D02*
X23676190Y-15263855D01*
X23676190Y-15263855D02*
X23676190Y-16063855D01*
X23142856Y-15263855D02*
X22990475Y-15263855D01*
X22990475Y-15263855D02*
X22914285Y-15301950D01*
X22914285Y-15301950D02*
X22838094Y-15378140D01*
X22838094Y-15378140D02*
X22799999Y-15530521D01*
X22799999Y-15530521D02*
X22799999Y-15797188D01*
X22799999Y-15797188D02*
X22838094Y-15949569D01*
X22838094Y-15949569D02*
X22914285Y-16025760D01*
X22914285Y-16025760D02*
X22990475Y-16063855D01*
X22990475Y-16063855D02*
X23142856Y-16063855D01*
X23142856Y-16063855D02*
X23219047Y-16025760D01*
X23219047Y-16025760D02*
X23295237Y-15949569D01*
X23295237Y-15949569D02*
X23333333Y-15797188D01*
X23333333Y-15797188D02*
X23333333Y-15530521D01*
X23333333Y-15530521D02*
X23295237Y-15378140D01*
X23295237Y-15378140D02*
X23219047Y-15301950D01*
X23219047Y-15301950D02*
X23142856Y-15263855D01*
X22571428Y-15263855D02*
X22114285Y-15263855D01*
X22342857Y-16063855D02*
X22342857Y-15263855D01*
X21695237Y-15263855D02*
X21542856Y-15263855D01*
X21542856Y-15263855D02*
X21466666Y-15301950D01*
X21466666Y-15301950D02*
X21390475Y-15378140D01*
X21390475Y-15378140D02*
X21352380Y-15530521D01*
X21352380Y-15530521D02*
X21352380Y-15797188D01*
X21352380Y-15797188D02*
X21390475Y-15949569D01*
X21390475Y-15949569D02*
X21466666Y-16025760D01*
X21466666Y-16025760D02*
X21542856Y-16063855D01*
X21542856Y-16063855D02*
X21695237Y-16063855D01*
X21695237Y-16063855D02*
X21771428Y-16025760D01*
X21771428Y-16025760D02*
X21847618Y-15949569D01*
X21847618Y-15949569D02*
X21885714Y-15797188D01*
X21885714Y-15797188D02*
X21885714Y-15530521D01*
X21885714Y-15530521D02*
X21847618Y-15378140D01*
X21847618Y-15378140D02*
X21771428Y-15301950D01*
X21771428Y-15301950D02*
X21695237Y-15263855D01*
X20552380Y-16063855D02*
X20819047Y-15682902D01*
X21009523Y-16063855D02*
X21009523Y-15263855D01*
X21009523Y-15263855D02*
X20704761Y-15263855D01*
X20704761Y-15263855D02*
X20628571Y-15301950D01*
X20628571Y-15301950D02*
X20590476Y-15340045D01*
X20590476Y-15340045D02*
X20552380Y-15416236D01*
X20552380Y-15416236D02*
X20552380Y-15530521D01*
X20552380Y-15530521D02*
X20590476Y-15606712D01*
X20590476Y-15606712D02*
X20628571Y-15644807D01*
X20628571Y-15644807D02*
X20704761Y-15682902D01*
X20704761Y-15682902D02*
X21009523Y-15682902D01*
X24238095Y-840045D02*
X24199999Y-801950D01*
X24199999Y-801950D02*
X24123809Y-763855D01*
X24123809Y-763855D02*
X23933333Y-763855D01*
X23933333Y-763855D02*
X23857142Y-801950D01*
X23857142Y-801950D02*
X23819047Y-840045D01*
X23819047Y-840045D02*
X23780952Y-916236D01*
X23780952Y-916236D02*
X23780952Y-992426D01*
X23780952Y-992426D02*
X23819047Y-1106712D01*
X23819047Y-1106712D02*
X24276190Y-1563855D01*
X24276190Y-1563855D02*
X23780952Y-1563855D01*
X23514285Y-1563855D02*
X23095237Y-1030521D01*
X23514285Y-1030521D02*
X23095237Y-1563855D01*
X22828571Y-1335283D02*
X22447618Y-1335283D01*
X22904761Y-1563855D02*
X22638094Y-763855D01*
X22638094Y-763855D02*
X22371428Y-1563855D01*
X22142857Y-1335283D02*
X21761904Y-1335283D01*
X22219047Y-1563855D02*
X21952380Y-763855D01*
X21952380Y-763855D02*
X21685714Y-1563855D01*
X27004761Y-2819093D02*
X26395238Y-2819093D01*
X27004761Y-5359093D02*
X26395238Y-5359093D01*
X26699999Y-5663855D02*
X26699999Y-5054331D01*
X27547618Y-11223855D02*
X27547618Y-10423855D01*
X27547618Y-10423855D02*
X27280952Y-10995283D01*
X27280952Y-10995283D02*
X27014285Y-10423855D01*
X27014285Y-10423855D02*
X27014285Y-11223855D01*
X26671428Y-10500045D02*
X26633332Y-10461950D01*
X26633332Y-10461950D02*
X26557142Y-10423855D01*
X26557142Y-10423855D02*
X26366666Y-10423855D01*
X26366666Y-10423855D02*
X26290475Y-10461950D01*
X26290475Y-10461950D02*
X26252380Y-10500045D01*
X26252380Y-10500045D02*
X26214285Y-10576236D01*
X26214285Y-10576236D02*
X26214285Y-10652426D01*
X26214285Y-10652426D02*
X26252380Y-10766712D01*
X26252380Y-10766712D02*
X26709523Y-11223855D01*
X26709523Y-11223855D02*
X26214285Y-11223855D01*
X27547618Y-13763855D02*
X27547618Y-12963855D01*
X27547618Y-12963855D02*
X27280952Y-13535283D01*
X27280952Y-13535283D02*
X27014285Y-12963855D01*
X27014285Y-12963855D02*
X27014285Y-13763855D01*
X26214285Y-13763855D02*
X26671428Y-13763855D01*
X26442856Y-13763855D02*
X26442856Y-12963855D01*
X26442856Y-12963855D02*
X26519047Y-13078140D01*
X26519047Y-13078140D02*
X26595237Y-13154331D01*
X26595237Y-13154331D02*
X26671428Y-13192426D01*
X11942856Y-6910117D02*
X11942856Y-6010117D01*
X11942856Y-6010117D02*
X11642856Y-6652974D01*
X11642856Y-6652974D02*
X11342856Y-6010117D01*
X11342856Y-6010117D02*
X11342856Y-6910117D01*
X10742856Y-6010117D02*
X10571428Y-6010117D01*
X10571428Y-6010117D02*
X10485713Y-6052974D01*
X10485713Y-6052974D02*
X10399999Y-6138688D01*
X10399999Y-6138688D02*
X10357142Y-6310117D01*
X10357142Y-6310117D02*
X10357142Y-6610117D01*
X10357142Y-6610117D02*
X10399999Y-6781545D01*
X10399999Y-6781545D02*
X10485713Y-6867260D01*
X10485713Y-6867260D02*
X10571428Y-6910117D01*
X10571428Y-6910117D02*
X10742856Y-6910117D01*
X10742856Y-6910117D02*
X10828571Y-6867260D01*
X10828571Y-6867260D02*
X10914285Y-6781545D01*
X10914285Y-6781545D02*
X10957142Y-6610117D01*
X10957142Y-6610117D02*
X10957142Y-6310117D01*
X10957142Y-6310117D02*
X10914285Y-6138688D01*
X10914285Y-6138688D02*
X10828571Y-6052974D01*
X10828571Y-6052974D02*
X10742856Y-6010117D01*
X9971428Y-6910117D02*
X9971428Y-6010117D01*
X9971428Y-6010117D02*
X9757142Y-6010117D01*
X9757142Y-6010117D02*
X9628571Y-6052974D01*
X9628571Y-6052974D02*
X9542856Y-6138688D01*
X9542856Y-6138688D02*
X9499999Y-6224402D01*
X9499999Y-6224402D02*
X9457142Y-6395831D01*
X9457142Y-6395831D02*
X9457142Y-6524402D01*
X9457142Y-6524402D02*
X9499999Y-6695831D01*
X9499999Y-6695831D02*
X9542856Y-6781545D01*
X9542856Y-6781545D02*
X9628571Y-6867260D01*
X9628571Y-6867260D02*
X9757142Y-6910117D01*
X9757142Y-6910117D02*
X9971428Y-6910117D01*
X9071428Y-6438688D02*
X8771428Y-6438688D01*
X8642856Y-6910117D02*
X9071428Y-6910117D01*
X9071428Y-6910117D02*
X9071428Y-6010117D01*
X9071428Y-6010117D02*
X8642856Y-6010117D01*
X7614285Y-6095831D02*
X7571428Y-6052974D01*
X7571428Y-6052974D02*
X7485714Y-6010117D01*
X7485714Y-6010117D02*
X7271428Y-6010117D01*
X7271428Y-6010117D02*
X7185714Y-6052974D01*
X7185714Y-6052974D02*
X7142856Y-6095831D01*
X7142856Y-6095831D02*
X7099999Y-6181545D01*
X7099999Y-6181545D02*
X7099999Y-6267260D01*
X7099999Y-6267260D02*
X7142856Y-6395831D01*
X7142856Y-6395831D02*
X7657142Y-6910117D01*
X7657142Y-6910117D02*
X7099999Y-6910117D01*
X5385714Y-5967260D02*
X6157142Y-7124402D01*
X4100000Y-6438688D02*
X4400000Y-6438688D01*
X4400000Y-6910117D02*
X4400000Y-6010117D01*
X4400000Y-6010117D02*
X3971428Y-6010117D01*
M02*
