%TF.GenerationSoftware,KiCad,Pcbnew,10.0.6*%
%TF.CreationDate,2026-09-09T21:57:27+08:00*%
%TF.ProjectId,mode2-no-firmware,6d6f6465-322d-46e6-9f2d-6669726d7761,rev?*%
%TF.SameCoordinates,Original*%
%TF.FileFunction,Soldermask,Top*%
%TF.FilePolarity,Negative*%
%FSLAX46Y46*%
G04 Gerber Fmt 4.6, Leading zero omitted, Abs format (unit mm)*
G04 Created by KiCad (PCBNEW 10.0.6) date 2026-09-09 21:57:27*
%MOMM*%
%LPD*%
G01*
G04 APERTURE LIST*
G04 Aperture macros list*
%AMRoundRect*
0 Rectangle with rounded corners*
0 $1 Rounding radius*
0 $2 $3 $4 $5 $6 $7 $8 $9 X,Y pos of 4 corners*
0 Add a 4 corners polygon primitive as box body*
4,1,4,$2,$3,$4,$5,$6,$7,$8,$9,$2,$3,0*
0 Add four circle primitives for the rounded corners*
1,1,$1+$1,$2,$3*
1,1,$1+$1,$4,$5*
1,1,$1+$1,$6,$7*
1,1,$1+$1,$8,$9*
0 Add four rect primitives between the rounded corners*
20,1,$1+$1,$2,$3,$4,$5,0*
20,1,$1+$1,$4,$5,$6,$7,0*
20,1,$1+$1,$6,$7,$8,$9,0*
20,1,$1+$1,$8,$9,$2,$3,0*%
G04 Aperture macros list end*
%ADD10RoundRect,0.225000X-0.225000X-0.250000X0.225000X-0.250000X0.225000X0.250000X-0.225000X0.250000X0*%
%ADD11RoundRect,0.250000X0.550000X-1.250000X0.550000X1.250000X-0.550000X1.250000X-0.550000X-1.250000X0*%
%ADD12R,2.100000X2.100000*%
%ADD13C,2.100000*%
%ADD14RoundRect,0.150000X-0.825000X-0.150000X0.825000X-0.150000X0.825000X0.150000X-0.825000X0.150000X0*%
%ADD15RoundRect,0.062500X0.237500X0.062500X-0.237500X0.062500X-0.237500X-0.062500X0.237500X-0.062500X0*%
%ADD16R,0.900000X1.600000*%
%ADD17R,2.600000X2.600000*%
%ADD18C,2.600000*%
%ADD19RoundRect,0.200000X0.275000X-0.200000X0.275000X0.200000X-0.275000X0.200000X-0.275000X-0.200000X0*%
%ADD20RoundRect,0.250000X0.625000X-0.312500X0.625000X0.312500X-0.625000X0.312500X-0.625000X-0.312500X0*%
%ADD21RoundRect,0.200000X-0.200000X-0.275000X0.200000X-0.275000X0.200000X0.275000X-0.200000X0.275000X0*%
%ADD22RoundRect,0.112500X-0.187500X-0.112500X0.187500X-0.112500X0.187500X0.112500X-0.187500X0.112500X0*%
%ADD23RoundRect,0.225000X0.250000X-0.225000X0.250000X0.225000X-0.250000X0.225000X-0.250000X-0.225000X0*%
G04 APERTURE END LIST*
D10*
%TO.C,C3*%
X20825000Y-22000000D03*
X22375000Y-22000000D03*
%TD*%
%TO.C,C1*%
X3725000Y-8350000D03*
X5275000Y-8350000D03*
%TD*%
D11*
%TO.C,C4*%
X17650000Y-6200000D03*
X17650000Y-1800000D03*
%TD*%
D12*
%TO.C,P3*%
X9000000Y-24500000D03*
D13*
X11540000Y-24500000D03*
%TD*%
D12*
%TO.C,P4*%
X24600000Y-13400000D03*
D13*
X24600000Y-10860000D03*
%TD*%
D14*
%TO.C,U2*%
X12025000Y-9990000D03*
X12025000Y-11260000D03*
X12025000Y-12530000D03*
X12025000Y-13800000D03*
X12025000Y-15070000D03*
X12025000Y-16340000D03*
X12025000Y-17610000D03*
X16975000Y-17610000D03*
X16975000Y-16340000D03*
X16975000Y-15070000D03*
X16975000Y-13800000D03*
X16975000Y-12530000D03*
X16975000Y-11260000D03*
X16975000Y-9990000D03*
%TD*%
D15*
%TO.C,U3*%
X22650000Y-19750000D03*
X22650000Y-19250000D03*
X22650000Y-18750000D03*
X22650000Y-18250000D03*
X20750000Y-18250000D03*
X20750000Y-18750000D03*
X20750000Y-19250000D03*
X20750000Y-19750000D03*
D16*
X21700000Y-19000000D03*
%TD*%
D17*
%TO.C,S0*%
X3300000Y-4000000D03*
D18*
X8000000Y-4000000D03*
X12700000Y-4000000D03*
%TD*%
D19*
%TO.C,R5*%
X15000000Y-24825000D03*
X15000000Y-23175000D03*
%TD*%
%TO.C,R3*%
X9000000Y-13425000D03*
X9000000Y-11775000D03*
%TD*%
D20*
%TO.C,R6*%
X19400000Y-11862500D03*
X19400000Y-8937500D03*
%TD*%
D12*
%TO.C,P1*%
X24600000Y-5300000D03*
D13*
X24600000Y-2760000D03*
%TD*%
D21*
%TO.C,R2*%
X11175000Y-19700000D03*
X12825000Y-19700000D03*
%TD*%
%TO.C,R1*%
X2175000Y-19700000D03*
X3825000Y-19700000D03*
%TD*%
D22*
%TO.C,D1*%
X14950000Y-20500000D03*
X17050000Y-20500000D03*
%TD*%
D23*
%TO.C,C6*%
X9000000Y-16375000D03*
X9000000Y-14825000D03*
%TD*%
D19*
%TO.C,R4*%
X9000000Y-19425000D03*
X9000000Y-17775000D03*
%TD*%
D23*
%TO.C,C5*%
X9000000Y-10375000D03*
X9000000Y-8825000D03*
%TD*%
D14*
%TO.C,U1*%
X2025000Y-9990000D03*
X2025000Y-11260000D03*
X2025000Y-12530000D03*
X2025000Y-13800000D03*
X2025000Y-15070000D03*
X2025000Y-16340000D03*
X2025000Y-17610000D03*
X6975000Y-17610000D03*
X6975000Y-16340000D03*
X6975000Y-15070000D03*
X6975000Y-13800000D03*
X6975000Y-12530000D03*
X6975000Y-11260000D03*
X6975000Y-9990000D03*
%TD*%
D12*
%TO.C,P2*%
X2500000Y-24500000D03*
D13*
X5040000Y-24500000D03*
%TD*%
D10*
%TO.C,C2*%
X13725000Y-8350000D03*
X15275000Y-8350000D03*
%TD*%
D23*
%TO.C,C7*%
X18000000Y-24775000D03*
X18000000Y-23225000D03*
%TD*%
M02*
