%TF.GenerationSoftware,KiCad,Pcbnew,10.0.6*%
%TF.CreationDate,2026-09-09T21:57:27+08:00*%
%TF.ProjectId,mode2-no-firmware,6d6f6465-322d-46e6-9f2d-6669726d7761,rev?*%
%TF.SameCoordinates,Original*%
%TF.FileFunction,Copper,L1,Top*%
%TF.FilePolarity,Positive*%
%FSLAX46Y46*%
G04 Gerber Fmt 4.6, Leading zero omitted, Abs format (unit mm)*
G04 Created by KiCad (PCBNEW 10.0.6) date 2026-09-09 21:57:27*
%MOMM*%
%LPD*%
G01*
G04 APERTURE LIST*
G04 Aperture macros list*
%AMRoundRect*
0 Rectangle with rounded corners*
0 $1 Rounding radius*
0 $2 $3 $4 $5 $6 $7 $8 $9 X,Y pos of 4 corners*
0 Add a 4 corners polygon primitive as box body*
4,1,4,$2,$3,$4,$5,$6,$7,$8,$9,$2,$3,0*
0 Add four circle primitives for the rounded corners*
1,1,$1+$1,$2,$3*
1,1,$1+$1,$4,$5*
1,1,$1+$1,$6,$7*
1,1,$1+$1,$8,$9*
0 Add four rect primitives between the rounded corners*
20,1,$1+$1,$2,$3,$4,$5,0*
20,1,$1+$1,$4,$5,$6,$7,0*
20,1,$1+$1,$6,$7,$8,$9,0*
20,1,$1+$1,$8,$9,$2,$3,0*%
G04 Aperture macros list end*
%TA.AperFunction,SMDPad,CuDef*%
%ADD10RoundRect,0.225000X-0.225000X-0.250000X0.225000X-0.250000X0.225000X0.250000X-0.225000X0.250000X0*%
%TD*%
%TA.AperFunction,SMDPad,CuDef*%
%ADD11RoundRect,0.250000X0.550000X-1.250000X0.550000X1.250000X-0.550000X1.250000X-0.550000X-1.250000X0*%
%TD*%
%TA.AperFunction,ComponentPad*%
%ADD12R,2.100000X2.100000*%
%TD*%
%TA.AperFunction,ComponentPad*%
%ADD13C,2.100000*%
%TD*%
%TA.AperFunction,SMDPad,CuDef*%
%ADD14RoundRect,0.150000X-0.825000X-0.150000X0.825000X-0.150000X0.825000X0.150000X-0.825000X0.150000X0*%
%TD*%
%TA.AperFunction,SMDPad,CuDef*%
%ADD15RoundRect,0.062500X0.237500X0.062500X-0.237500X0.062500X-0.237500X-0.062500X0.237500X-0.062500X0*%
%TD*%
%TA.AperFunction,HeatsinkPad*%
%ADD16C,0.500000*%
%TD*%
%TA.AperFunction,HeatsinkPad*%
%ADD17R,0.900000X1.600000*%
%TD*%
%TA.AperFunction,ComponentPad*%
%ADD18R,2.600000X2.600000*%
%TD*%
%TA.AperFunction,ComponentPad*%
%ADD19C,2.600000*%
%TD*%
%TA.AperFunction,SMDPad,CuDef*%
%ADD20RoundRect,0.200000X0.275000X-0.200000X0.275000X0.200000X-0.275000X0.200000X-0.275000X-0.200000X0*%
%TD*%
%TA.AperFunction,SMDPad,CuDef*%
%ADD21RoundRect,0.250000X0.625000X-0.312500X0.625000X0.312500X-0.625000X0.312500X-0.625000X-0.312500X0*%
%TD*%
%TA.AperFunction,SMDPad,CuDef*%
%ADD22RoundRect,0.200000X-0.200000X-0.275000X0.200000X-0.275000X0.200000X0.275000X-0.200000X0.275000X0*%
%TD*%
%TA.AperFunction,SMDPad,CuDef*%
%ADD23RoundRect,0.112500X-0.187500X-0.112500X0.187500X-0.112500X0.187500X0.112500X-0.187500X0.112500X0*%
%TD*%
%TA.AperFunction,SMDPad,CuDef*%
%ADD24RoundRect,0.225000X0.250000X-0.225000X0.250000X0.225000X-0.250000X0.225000X-0.250000X-0.225000X0*%
%TD*%
%TA.AperFunction,ViaPad*%
%ADD25C,0.600000*%
%TD*%
%TA.AperFunction,Conductor*%
%ADD26C,0.600000*%
%TD*%
%TA.AperFunction,Conductor*%
%ADD27C,0.200000*%
%TD*%
%TA.AperFunction,Conductor*%
%ADD28C,0.250000*%
%TD*%
G04 APERTURE END LIST*
D10*
%TO.P,C3,1*%
%TO.N,/VCC*%
X20825000Y-22000000D03*
%TO.P,C3,2*%
%TO.N,/GND*%
X22375000Y-22000000D03*
%TD*%
%TO.P,C1,1*%
%TO.N,/VCC*%
X3725000Y-8350000D03*
%TO.P,C1,2*%
%TO.N,/GND*%
X5275000Y-8350000D03*
%TD*%
D11*
%TO.P,C4,1*%
%TO.N,/VCC*%
X17650000Y-6200000D03*
%TO.P,C4,2*%
%TO.N,/GND*%
X17650000Y-1800000D03*
%TD*%
D12*
%TO.P,P3,1*%
%TO.N,/SW2*%
X9000000Y-24500000D03*
D13*
%TO.P,P3,2*%
%TO.N,/GND*%
X11540000Y-24500000D03*
%TD*%
D12*
%TO.P,P4,1*%
%TO.N,/M1*%
X24600000Y-13400000D03*
D13*
%TO.P,P4,2*%
%TO.N,/M2*%
X24600000Y-10860000D03*
%TD*%
D14*
%TO.P,U2,1*%
%TO.N,/RESET_N*%
X12025000Y-9990000D03*
%TO.P,U2,2*%
%TO.N,/NOT_REV*%
X12025000Y-11260000D03*
%TO.P,U2,3*%
%TO.N,/CLK1*%
X12025000Y-12530000D03*
%TO.P,U2,4*%
%TO.N,/VCC*%
X12025000Y-13800000D03*
%TO.P,U2,5*%
%TO.N,/RUN*%
X12025000Y-15070000D03*
%TO.P,U2,6*%
%TO.N,unconnected-(U2-1Q_n-Pad6)*%
X12025000Y-16340000D03*
%TO.P,U2,7*%
%TO.N,/GND*%
X12025000Y-17610000D03*
%TO.P,U2,8*%
%TO.N,/NOT_REV*%
X16975000Y-17610000D03*
%TO.P,U2,9*%
%TO.N,/REV*%
X16975000Y-16340000D03*
%TO.P,U2,10*%
%TO.N,/VCC*%
X16975000Y-15070000D03*
%TO.P,U2,11*%
%TO.N,/CLK2*%
X16975000Y-13800000D03*
%TO.P,U2,12*%
%TO.N,/RUN*%
X16975000Y-12530000D03*
%TO.P,U2,13*%
X16975000Y-11260000D03*
%TO.P,U2,14*%
%TO.N,/VCC*%
X16975000Y-9990000D03*
%TD*%
D15*
%TO.P,U3,1*%
%TO.N,/VCC*%
X22650000Y-19750000D03*
%TO.P,U3,2*%
%TO.N,/M2*%
X22650000Y-19250000D03*
%TO.P,U3,3*%
%TO.N,/M1*%
X22650000Y-18750000D03*
%TO.P,U3,4*%
%TO.N,/GND*%
X22650000Y-18250000D03*
%TO.P,U3,5*%
%TO.N,/RUN*%
X20750000Y-18250000D03*
%TO.P,U3,6*%
%TO.N,/REV*%
X20750000Y-18750000D03*
%TO.P,U3,7*%
%TO.N,/VCC*%
X20750000Y-19250000D03*
%TO.P,U3,8*%
X20750000Y-19750000D03*
D16*
%TO.P,U3,9*%
%TO.N,/GND*%
X21700000Y-19550000D03*
D17*
X21700000Y-19000000D03*
D16*
X21700000Y-18450000D03*
%TD*%
D18*
%TO.P,S0,1*%
%TO.N,/BATT+*%
X3300000Y-4000000D03*
D19*
%TO.P,S0,2*%
%TO.N,/VCC*%
X8000000Y-4000000D03*
%TO.P,S0,3*%
%TO.N,/DISCH*%
X12700000Y-4000000D03*
%TD*%
D20*
%TO.P,R5,1*%
%TO.N,/VCC*%
X15000000Y-24825000D03*
%TO.P,R5,2*%
%TO.N,/POR_RC*%
X15000000Y-23175000D03*
%TD*%
%TO.P,R3,1*%
%TO.N,/SW1*%
X9000000Y-13425000D03*
%TO.P,R3,2*%
%TO.N,/DB1*%
X9000000Y-11775000D03*
%TD*%
D21*
%TO.P,R6,1*%
%TO.N,/DISCH*%
X19400000Y-11862500D03*
%TO.P,R6,2*%
%TO.N,/GND*%
X19400000Y-8937500D03*
%TD*%
D12*
%TO.P,P1,1*%
%TO.N,/BATT+*%
X24600000Y-5300000D03*
D13*
%TO.P,P1,2*%
%TO.N,/GND*%
X24600000Y-2760000D03*
%TD*%
D22*
%TO.P,R2,1*%
%TO.N,/VCC*%
X11175000Y-19700000D03*
%TO.P,R2,2*%
%TO.N,/SW2*%
X12825000Y-19700000D03*
%TD*%
%TO.P,R1,1*%
%TO.N,/VCC*%
X2175000Y-19700000D03*
%TO.P,R1,2*%
%TO.N,/SW1*%
X3825000Y-19700000D03*
%TD*%
D23*
%TO.P,D1,1*%
%TO.N,/VCC*%
X14950000Y-20500000D03*
%TO.P,D1,2*%
%TO.N,/POR_RC*%
X17050000Y-20500000D03*
%TD*%
D24*
%TO.P,C6,1*%
%TO.N,/DB2*%
X9000000Y-16375000D03*
%TO.P,C6,2*%
%TO.N,/GND*%
X9000000Y-14825000D03*
%TD*%
D20*
%TO.P,R4,1*%
%TO.N,/SW2*%
X9000000Y-19425000D03*
%TO.P,R4,2*%
%TO.N,/DB2*%
X9000000Y-17775000D03*
%TD*%
D24*
%TO.P,C5,1*%
%TO.N,/DB1*%
X9000000Y-10375000D03*
%TO.P,C5,2*%
%TO.N,/GND*%
X9000000Y-8825000D03*
%TD*%
D14*
%TO.P,U1,1*%
%TO.N,/DB1*%
X2025000Y-9990000D03*
%TO.P,U1,2*%
%TO.N,/CLK1*%
X2025000Y-11260000D03*
%TO.P,U1,3*%
%TO.N,/DB2*%
X2025000Y-12530000D03*
%TO.P,U1,4*%
%TO.N,/CLK2*%
X2025000Y-13800000D03*
%TO.P,U1,5*%
%TO.N,/POR_RC*%
X2025000Y-15070000D03*
%TO.P,U1,6*%
%TO.N,/POR_INV*%
X2025000Y-16340000D03*
%TO.P,U1,7*%
%TO.N,/GND*%
X2025000Y-17610000D03*
%TO.P,U1,8*%
%TO.N,/RESET_N*%
X6975000Y-17610000D03*
%TO.P,U1,9*%
%TO.N,/POR_INV*%
X6975000Y-16340000D03*
%TO.P,U1,10*%
%TO.N,unconnected-(U1-5Y-Pad10)*%
X6975000Y-15070000D03*
%TO.P,U1,11*%
%TO.N,/GND*%
X6975000Y-13800000D03*
%TO.P,U1,12*%
%TO.N,unconnected-(U1-6Y-Pad12)*%
X6975000Y-12530000D03*
%TO.P,U1,13*%
%TO.N,/GND*%
X6975000Y-11260000D03*
%TO.P,U1,14*%
%TO.N,/VCC*%
X6975000Y-9990000D03*
%TD*%
D12*
%TO.P,P2,1*%
%TO.N,/SW1*%
X2500000Y-24500000D03*
D13*
%TO.P,P2,2*%
%TO.N,/GND*%
X5040000Y-24500000D03*
%TD*%
D10*
%TO.P,C2,1*%
%TO.N,/VCC*%
X13725000Y-8350000D03*
%TO.P,C2,2*%
%TO.N,/GND*%
X15275000Y-8350000D03*
%TD*%
D24*
%TO.P,C7,1*%
%TO.N,/POR_RC*%
X18000000Y-24775000D03*
%TO.P,C7,2*%
%TO.N,/GND*%
X18000000Y-23225000D03*
%TD*%
D25*
%TO.N,/VCC*%
X15450000Y-13800000D03*
X17000000Y-14650000D03*
X17000000Y-21250000D03*
X17000000Y-10400000D03*
X17000000Y-15500000D03*
%TO.N,/GND*%
X15300000Y-8950000D03*
%TO.N,/SW2*%
X9000000Y-21550000D03*
X9600000Y-19850000D03*
X12250000Y-19850000D03*
X8400000Y-19850000D03*
%TO.N,/RESET_N*%
X7350000Y-17200000D03*
X11600000Y-10400000D03*
%TO.N,/NOT_REV*%
X14350000Y-17600000D03*
X12250000Y-11700000D03*
%TO.N,/CLK1*%
X3150000Y-11250000D03*
X10000000Y-12550000D03*
%TO.N,/RUN*%
X12400000Y-14650000D03*
X14500000Y-12550000D03*
%TO.N,/REV*%
X16150000Y-16750000D03*
X16150000Y-19200000D03*
%TO.N,/DISCH*%
X14300000Y-5600000D03*
X19400000Y-10700000D03*
%TO.N,/POR_RC*%
X1750000Y-15500000D03*
X15800000Y-20100000D03*
X15800000Y-22400000D03*
X14900000Y-19200000D03*
%TO.N,/SW1*%
X10000000Y-16250000D03*
X3300000Y-23100000D03*
X4950000Y-18550000D03*
X3300000Y-19850000D03*
%TO.N,/DB1*%
X3150000Y-9800000D03*
X8500000Y-9800000D03*
%TO.N,/DB2*%
X5250000Y-12550000D03*
X8500000Y-15800000D03*
%TO.N,/POR_INV*%
X2400000Y-16750000D03*
X6550000Y-16750000D03*
%TD*%
%TO.N,/VCC*%
D26*
X20750000Y-20700000D02*
X20200000Y-21250000D01*
D27*
X20300000Y-20700000D02*
X20750000Y-20700000D01*
D26*
X15000000Y-24800000D02*
X14700000Y-24800000D01*
X13700000Y-8350000D02*
X13700000Y-7950000D01*
X2900000Y-20700000D02*
X2150000Y-19950000D01*
D27*
X19800000Y-19500000D02*
X19800000Y-20200000D01*
D26*
X14300000Y-7350000D02*
X16250000Y-7350000D01*
X14000000Y-24100000D02*
X14000000Y-21450000D01*
X3700000Y-8350000D02*
X3700000Y-8750000D01*
X17000000Y-15050000D02*
X17000000Y-15500000D01*
X14700000Y-24800000D02*
X14000000Y-24100000D01*
X20800000Y-21450000D02*
X20400000Y-21050000D01*
D27*
X19800000Y-20200000D02*
X20300000Y-20700000D01*
D26*
X3700000Y-8750000D02*
X4300000Y-9350000D01*
X11150000Y-19950000D02*
X11150000Y-19750000D01*
X14000000Y-21450000D02*
X14750000Y-20700000D01*
X11200000Y-19700000D02*
X10200000Y-20700000D01*
D27*
X19800000Y-19500000D02*
X20050000Y-19250000D01*
D26*
X8000000Y-4000000D02*
X8000000Y-7850000D01*
X13200000Y-7850000D02*
X13700000Y-8350000D01*
X17650000Y-6200000D02*
X17000000Y-6850000D01*
X14750000Y-20700000D02*
X11900000Y-20700000D01*
X13700000Y-7950000D02*
X14300000Y-7350000D01*
X10200000Y-20700000D02*
X2900000Y-20700000D01*
X20200000Y-21250000D02*
X15500000Y-21250000D01*
X6950000Y-8900000D02*
X8000000Y-7850000D01*
X17000000Y-6850000D02*
X17000000Y-10000000D01*
X8000000Y-7850000D02*
X13200000Y-7850000D01*
X17000000Y-10000000D02*
X17000000Y-10400000D01*
X2150000Y-19950000D02*
X2150000Y-19700000D01*
D27*
X20750000Y-19750000D02*
X20750000Y-20700000D01*
D26*
X11900000Y-20700000D02*
X11150000Y-19950000D01*
X6950000Y-10000000D02*
X6950000Y-8900000D01*
D27*
X20750000Y-19250000D02*
X20050000Y-19250000D01*
D26*
X14950000Y-20500000D02*
X14750000Y-20700000D01*
X20800000Y-20650000D02*
X20750000Y-20700000D01*
X20800000Y-22000000D02*
X20800000Y-21450000D01*
X4300000Y-9350000D02*
X6500000Y-9350000D01*
X17000000Y-14650000D02*
X17000000Y-15050000D01*
D27*
X22650000Y-19750000D02*
X22650000Y-20400000D01*
D26*
X15500000Y-21250000D02*
X14850000Y-20600000D01*
X6500000Y-9350000D02*
X7250000Y-8600000D01*
X22400000Y-20650000D02*
X20800000Y-20650000D01*
X16250000Y-7350000D02*
X17000000Y-8100000D01*
X12000000Y-13800000D02*
X15450000Y-13800000D01*
D27*
X22400000Y-20650000D02*
X22650000Y-20400000D01*
%TO.N,/SW2*%
D28*
X12400000Y-19700000D02*
X12250000Y-19850000D01*
X8850000Y-19400000D02*
X9000000Y-19400000D01*
X9000000Y-24500000D02*
X9000000Y-21550000D01*
X9150000Y-19400000D02*
X9000000Y-19400000D01*
X12800000Y-19700000D02*
X12400000Y-19700000D01*
X9600000Y-19850000D02*
X9150000Y-19400000D01*
X8400000Y-19850000D02*
X8850000Y-19400000D01*
%TO.N,/M1*%
D26*
X24600000Y-13400000D02*
X24500000Y-13500000D01*
X24500000Y-13500000D02*
X24500000Y-18500000D01*
D27*
X24500000Y-18500000D02*
X24250000Y-18750000D01*
X22650000Y-18750000D02*
X24250000Y-18750000D01*
%TO.N,/M2*%
D26*
X23950000Y-19600000D02*
X23850000Y-19500000D01*
D27*
X22650000Y-19250000D02*
X23600000Y-19250000D01*
D26*
X26200000Y-18300000D02*
X24900000Y-19600000D01*
X25250000Y-10850000D02*
X26200000Y-11800000D01*
X24600000Y-10850000D02*
X25250000Y-10850000D01*
X26200000Y-11800000D02*
X26200000Y-18300000D01*
X24900000Y-19600000D02*
X23950000Y-19600000D01*
D27*
X23600000Y-19250000D02*
X23850000Y-19500000D01*
%TO.N,/RESET_N*%
D28*
X7350000Y-17200000D02*
X6950000Y-17600000D01*
X12000000Y-10000000D02*
X11600000Y-10400000D01*
%TO.N,/NOT_REV*%
X17000000Y-17600000D02*
X14350000Y-17600000D01*
X12250000Y-11700000D02*
X12250000Y-11500000D01*
X12250000Y-11500000D02*
X12000000Y-11250000D01*
%TO.N,/CLK1*%
X12000000Y-12550000D02*
X10000000Y-12550000D01*
X3150000Y-11250000D02*
X2000000Y-11250000D01*
%TO.N,/RUN*%
X20750000Y-15600000D02*
X17700000Y-12550000D01*
X17000000Y-12550000D02*
X14500000Y-12550000D01*
X17700000Y-12550000D02*
X17000000Y-12550000D01*
X20750000Y-18250000D02*
X20750000Y-15600000D01*
X12400000Y-14650000D02*
X12000000Y-15050000D01*
X17000000Y-11250000D02*
X17000000Y-12550000D01*
%TO.N,/REV*%
X16150000Y-16750000D02*
X16550000Y-16350000D01*
X18150000Y-19200000D02*
X16150000Y-19200000D01*
X18600000Y-18750000D02*
X18150000Y-19200000D01*
X16550000Y-16350000D02*
X17000000Y-16350000D01*
X20750000Y-18750000D02*
X18600000Y-18750000D01*
%TO.N,/CLK2*%
X18300000Y-14400000D02*
X18300000Y-18300000D01*
X5900000Y-18550000D02*
X3350000Y-16000000D01*
X17700000Y-13800000D02*
X18300000Y-14400000D01*
X3350000Y-14400000D02*
X2750000Y-13800000D01*
X18300000Y-18300000D02*
X18050000Y-18550000D01*
X2750000Y-13800000D02*
X2000000Y-13800000D01*
X17000000Y-13800000D02*
X17700000Y-13800000D01*
X18050000Y-18550000D02*
X5900000Y-18550000D01*
X3350000Y-16000000D02*
X3350000Y-14400000D01*
%TO.N,/BATT+*%
D26*
X16250000Y-3850000D02*
X14550000Y-2150000D01*
X20150000Y-5300000D02*
X18700000Y-3850000D01*
X14550000Y-2150000D02*
X5150000Y-2150000D01*
X24600000Y-5300000D02*
X20150000Y-5300000D01*
X5150000Y-2150000D02*
X3300000Y-4000000D01*
X18700000Y-3850000D02*
X16250000Y-3850000D01*
%TO.N,/DISCH*%
D28*
X14300000Y-5600000D02*
X12700000Y-4000000D01*
X19400000Y-11850000D02*
X19400000Y-10700000D01*
%TO.N,/POR_RC*%
X16200000Y-20500000D02*
X14900000Y-19200000D01*
X17450000Y-24750000D02*
X15450000Y-22750000D01*
X18000000Y-24750000D02*
X17450000Y-24750000D01*
X15800000Y-20100000D02*
X15750000Y-20050000D01*
X1750000Y-15500000D02*
X2000000Y-15250000D01*
X17050000Y-20500000D02*
X16200000Y-20500000D01*
X2000000Y-15250000D02*
X2000000Y-15050000D01*
X15000000Y-23200000D02*
X15800000Y-22400000D01*
%TO.N,/SW1*%
X3800000Y-19700000D02*
X3450000Y-19700000D01*
X9000000Y-13400000D02*
X9250000Y-13400000D01*
X4950000Y-18550000D02*
X3800000Y-19700000D01*
X3300000Y-23100000D02*
X2500000Y-23900000D01*
X10000000Y-14150000D02*
X10000000Y-16250000D01*
X9250000Y-13400000D02*
X10000000Y-14150000D01*
X2500000Y-23900000D02*
X2500000Y-24500000D01*
X3450000Y-19700000D02*
X3300000Y-19850000D01*
%TO.N,/DB1*%
X9000000Y-11800000D02*
X9000000Y-10400000D01*
X9000000Y-10300000D02*
X8500000Y-9800000D01*
X2200000Y-9800000D02*
X2000000Y-10000000D01*
X3150000Y-9800000D02*
X2200000Y-9800000D01*
X9000000Y-10400000D02*
X9000000Y-10300000D01*
%TO.N,/DB2*%
X5250000Y-12550000D02*
X2000000Y-12550000D01*
X9000000Y-16400000D02*
X9000000Y-16300000D01*
X9000000Y-16300000D02*
X8500000Y-15800000D01*
X9000000Y-17750000D02*
X9000000Y-16400000D01*
%TO.N,/POR_INV*%
X2400000Y-16750000D02*
X2000000Y-16350000D01*
X6950000Y-16350000D02*
X6550000Y-16750000D01*
%TD*%
%TA.AperFunction,Conductor*%
%TO.N,/GND*%
G36*
X16059869Y-7869407D02*
G01*
X16071682Y-7879496D01*
X16470504Y-8278318D01*
X16498281Y-8332835D01*
X16499500Y-8348322D01*
X16499500Y-9390500D01*
X16480593Y-9448691D01*
X16431093Y-9484655D01*
X16400500Y-9489500D01*
X16116740Y-9489500D01*
X16082673Y-9494463D01*
X16048604Y-9499427D01*
X15943518Y-9550801D01*
X15860801Y-9633518D01*
X15809427Y-9738604D01*
X15804463Y-9772673D01*
X15799500Y-9806740D01*
X15799500Y-10173260D01*
X15804066Y-10204595D01*
X15809427Y-10241395D01*
X15840773Y-10305513D01*
X15860802Y-10346483D01*
X15943517Y-10429198D01*
X15997285Y-10455483D01*
X16048604Y-10480572D01*
X16048605Y-10480572D01*
X16048607Y-10480573D01*
X16116740Y-10490500D01*
X16430128Y-10490500D01*
X16488319Y-10509407D01*
X16524283Y-10558907D01*
X16525754Y-10563876D01*
X16526638Y-10567174D01*
X16533608Y-10593186D01*
X16543893Y-10611000D01*
X16556615Y-10670847D01*
X16531729Y-10726743D01*
X16478741Y-10757336D01*
X16458157Y-10759500D01*
X16116740Y-10759500D01*
X16082673Y-10764463D01*
X16048604Y-10769427D01*
X15943518Y-10820801D01*
X15860801Y-10903518D01*
X15809427Y-11008604D01*
X15809427Y-11008607D01*
X15799500Y-11076740D01*
X15799500Y-11443260D01*
X15802712Y-11465305D01*
X15809427Y-11511395D01*
X15831876Y-11557314D01*
X15860802Y-11616483D01*
X15943517Y-11699198D01*
X15978684Y-11716390D01*
X16048604Y-11750572D01*
X16048605Y-11750572D01*
X16048607Y-11750573D01*
X16116740Y-11760500D01*
X16575500Y-11760500D01*
X16633691Y-11779407D01*
X16669655Y-11828907D01*
X16674500Y-11859500D01*
X16674500Y-11930500D01*
X16655593Y-11988691D01*
X16606093Y-12024655D01*
X16575500Y-12029500D01*
X16116740Y-12029500D01*
X16082673Y-12034463D01*
X16048604Y-12039427D01*
X15943518Y-12090801D01*
X15860800Y-12173519D01*
X15856035Y-12180194D01*
X15853749Y-12178562D01*
X15820476Y-12212955D01*
X15774079Y-12224500D01*
X14923322Y-12224500D01*
X14865131Y-12205593D01*
X14853319Y-12195504D01*
X14807315Y-12149500D01*
X14807309Y-12149496D01*
X14693189Y-12083609D01*
X14693191Y-12083609D01*
X14643799Y-12070375D01*
X14565892Y-12049500D01*
X14434108Y-12049500D01*
X14356200Y-12070375D01*
X14306809Y-12083609D01*
X14192690Y-12149496D01*
X14099496Y-12242690D01*
X14033609Y-12356809D01*
X14028601Y-12375499D01*
X13999500Y-12484108D01*
X13999500Y-12615892D01*
X14025588Y-12713256D01*
X14033609Y-12743190D01*
X14099496Y-12857309D01*
X14099498Y-12857311D01*
X14099500Y-12857314D01*
X14192686Y-12950500D01*
X14192688Y-12950501D01*
X14192690Y-12950503D01*
X14306810Y-13016390D01*
X14306808Y-13016390D01*
X14306812Y-13016391D01*
X14306814Y-13016392D01*
X14434108Y-13050500D01*
X14434110Y-13050500D01*
X14565890Y-13050500D01*
X14565892Y-13050500D01*
X14693186Y-13016392D01*
X14693188Y-13016390D01*
X14693190Y-13016390D01*
X14807309Y-12950503D01*
X14807310Y-12950502D01*
X14807314Y-12950500D01*
X14807315Y-12950499D01*
X14853319Y-12904496D01*
X14907836Y-12876719D01*
X14923322Y-12875500D01*
X15808811Y-12875500D01*
X15867002Y-12894407D01*
X15878814Y-12904496D01*
X15924818Y-12950499D01*
X15943517Y-12969198D01*
X15997285Y-12995483D01*
X16048604Y-13020572D01*
X16048605Y-13020572D01*
X16048607Y-13020573D01*
X16116740Y-13030500D01*
X17679165Y-13030500D01*
X17737356Y-13049407D01*
X17749169Y-13059496D01*
X17820169Y-13130496D01*
X17847946Y-13185013D01*
X17838375Y-13245445D01*
X17795110Y-13288710D01*
X17750165Y-13299500D01*
X16116740Y-13299500D01*
X16082673Y-13304463D01*
X16048604Y-13309427D01*
X15943518Y-13360801D01*
X15943515Y-13360803D01*
X15901069Y-13403249D01*
X15846552Y-13431026D01*
X15786120Y-13421454D01*
X15761065Y-13403251D01*
X15757314Y-13399500D01*
X15757311Y-13399498D01*
X15757309Y-13399496D01*
X15643189Y-13333609D01*
X15643191Y-13333609D01*
X15593799Y-13320375D01*
X15515892Y-13299500D01*
X12883260Y-13299500D01*
X11166740Y-13299500D01*
X11132673Y-13304463D01*
X11098604Y-13309427D01*
X10993518Y-13360801D01*
X10910801Y-13443518D01*
X10859427Y-13548604D01*
X10859427Y-13548607D01*
X10849500Y-13616740D01*
X10849500Y-13983260D01*
X10855488Y-14024360D01*
X10859427Y-14051395D01*
X10910801Y-14156481D01*
X10910802Y-14156483D01*
X10993517Y-14239198D01*
X11027541Y-14255831D01*
X11098604Y-14290572D01*
X11098605Y-14290572D01*
X11098607Y-14290573D01*
X11166740Y-14300500D01*
X11852383Y-14300500D01*
X11910574Y-14319407D01*
X11946538Y-14368907D01*
X11946538Y-14430093D01*
X11938118Y-14449002D01*
X11933608Y-14456811D01*
X11927134Y-14480971D01*
X11923075Y-14496123D01*
X11889752Y-14547437D01*
X11832631Y-14569364D01*
X11827449Y-14569500D01*
X11166740Y-14569500D01*
X11132673Y-14574463D01*
X11098604Y-14579427D01*
X10993518Y-14630801D01*
X10910801Y-14713518D01*
X10859427Y-14818604D01*
X10859427Y-14818607D01*
X10849500Y-14886740D01*
X10849500Y-15253260D01*
X10852371Y-15272962D01*
X10859427Y-15321395D01*
X10897609Y-15399496D01*
X10910802Y-15426483D01*
X10993517Y-15509198D01*
X11047285Y-15535483D01*
X11098604Y-15560572D01*
X11098605Y-15560572D01*
X11098607Y-15560573D01*
X11166740Y-15570500D01*
X11166743Y-15570500D01*
X12883257Y-15570500D01*
X12883260Y-15570500D01*
X12951393Y-15560573D01*
X13056483Y-15509198D01*
X13139198Y-15426483D01*
X13190573Y-15321393D01*
X13200500Y-15253260D01*
X13200500Y-14886740D01*
X13190573Y-14818607D01*
X13139198Y-14713517D01*
X13056483Y-14630802D01*
X12951393Y-14579427D01*
X12951391Y-14579426D01*
X12951390Y-14579426D01*
X12946776Y-14578000D01*
X12896764Y-14542751D01*
X12880385Y-14509038D01*
X12869860Y-14469758D01*
X12866392Y-14456814D01*
X12861882Y-14449002D01*
X12849159Y-14389154D01*
X12874044Y-14333258D01*
X12927031Y-14302664D01*
X12947617Y-14300500D01*
X15515890Y-14300500D01*
X15515892Y-14300500D01*
X15643186Y-14266392D01*
X15643188Y-14266390D01*
X15643190Y-14266390D01*
X15757312Y-14200501D01*
X15757311Y-14200501D01*
X15757314Y-14200500D01*
X15761055Y-14196758D01*
X15815567Y-14168975D01*
X15876000Y-14178539D01*
X15901066Y-14196747D01*
X15943517Y-14239198D01*
X15977541Y-14255831D01*
X16048604Y-14290572D01*
X16048605Y-14290572D01*
X16048607Y-14290573D01*
X16116740Y-14300500D01*
X16452383Y-14300500D01*
X16510574Y-14319407D01*
X16546538Y-14368907D01*
X16546538Y-14430093D01*
X16538118Y-14449002D01*
X16533608Y-14456811D01*
X16527134Y-14480971D01*
X16523075Y-14496123D01*
X16489752Y-14547437D01*
X16432631Y-14569364D01*
X16427449Y-14569500D01*
X16116740Y-14569500D01*
X16082673Y-14574463D01*
X16048604Y-14579427D01*
X15943518Y-14630801D01*
X15860801Y-14713518D01*
X15809427Y-14818604D01*
X15809427Y-14818607D01*
X15799500Y-14886740D01*
X15799500Y-15253260D01*
X15802371Y-15272962D01*
X15809427Y-15321395D01*
X15847609Y-15399496D01*
X15860802Y-15426483D01*
X15943517Y-15509198D01*
X15997285Y-15535483D01*
X16048604Y-15560572D01*
X16048605Y-15560572D01*
X16048607Y-15560573D01*
X16116740Y-15570500D01*
X16424769Y-15570500D01*
X16482960Y-15589407D01*
X16518924Y-15638907D01*
X16520395Y-15643876D01*
X16533608Y-15693187D01*
X16536093Y-15699187D01*
X16534248Y-15699950D01*
X16545067Y-15750849D01*
X16520180Y-15806745D01*
X16467191Y-15837337D01*
X16446609Y-15839500D01*
X16116740Y-15839500D01*
X16089932Y-15843406D01*
X16048604Y-15849427D01*
X15943518Y-15900801D01*
X15860801Y-15983518D01*
X15809427Y-16088604D01*
X15799500Y-16156743D01*
X15799500Y-16351678D01*
X15780593Y-16409869D01*
X15770505Y-16421680D01*
X15749501Y-16442684D01*
X15749496Y-16442690D01*
X15683609Y-16556809D01*
X15665287Y-16625191D01*
X15649500Y-16684108D01*
X15649500Y-16815892D01*
X15677996Y-16922241D01*
X15683609Y-16943190D01*
X15749496Y-17057309D01*
X15749498Y-17057311D01*
X15749500Y-17057314D01*
X15797684Y-17105498D01*
X15825460Y-17160013D01*
X15815889Y-17220445D01*
X15772624Y-17263710D01*
X15727679Y-17274500D01*
X14773322Y-17274500D01*
X14715131Y-17255593D01*
X14703319Y-17245504D01*
X14657315Y-17199500D01*
X14657309Y-17199496D01*
X14543189Y-17133609D01*
X14543191Y-17133609D01*
X14490261Y-17119427D01*
X14415892Y-17099500D01*
X14284108Y-17099500D01*
X14209739Y-17119427D01*
X14156809Y-17133609D01*
X14042690Y-17199496D01*
X13949496Y-17292690D01*
X13883609Y-17406809D01*
X13883608Y-17406814D01*
X13849500Y-17534108D01*
X13849500Y-17665892D01*
X13872081Y-17750165D01*
X13883609Y-17793190D01*
X13949496Y-17907309D01*
X13949498Y-17907311D01*
X13949500Y-17907314D01*
X14042686Y-18000500D01*
X14110692Y-18039763D01*
X14151633Y-18085233D01*
X14158029Y-18146083D01*
X14127436Y-18199071D01*
X14071540Y-18223958D01*
X14061192Y-18224500D01*
X9756554Y-18224500D01*
X9698363Y-18205593D01*
X9662399Y-18156093D01*
X9662399Y-18108470D01*
X9659427Y-18108000D01*
X9661619Y-18094161D01*
X9675500Y-18006519D01*
X9675499Y-17543482D01*
X9668417Y-17498764D01*
X9660647Y-17449700D01*
X9660646Y-17449698D01*
X9660646Y-17449696D01*
X9603050Y-17336658D01*
X9513342Y-17246950D01*
X9507123Y-17243781D01*
X9393361Y-17185816D01*
X9394152Y-17184263D01*
X9352348Y-17153891D01*
X9333441Y-17095701D01*
X9352349Y-17037510D01*
X9387492Y-17007494D01*
X9503220Y-16948528D01*
X9598528Y-16853220D01*
X9652381Y-16747526D01*
X9695645Y-16704263D01*
X9756077Y-16694692D01*
X9790091Y-16706737D01*
X9806814Y-16716392D01*
X9934108Y-16750500D01*
X9934110Y-16750500D01*
X10065890Y-16750500D01*
X10065892Y-16750500D01*
X10193186Y-16716392D01*
X10193188Y-16716390D01*
X10193190Y-16716390D01*
X10307309Y-16650503D01*
X10307309Y-16650502D01*
X10307314Y-16650500D01*
X10400500Y-16557314D01*
X10408032Y-16544269D01*
X10466390Y-16443190D01*
X10466390Y-16443188D01*
X10466392Y-16443186D01*
X10500500Y-16315892D01*
X10500500Y-16184108D01*
X10493167Y-16156740D01*
X10849500Y-16156740D01*
X10849500Y-16523260D01*
X10850933Y-16533094D01*
X10859427Y-16591395D01*
X10904752Y-16684108D01*
X10910802Y-16696483D01*
X10993517Y-16779198D01*
X11047285Y-16805483D01*
X11098604Y-16830572D01*
X11098605Y-16830572D01*
X11098607Y-16830573D01*
X11166740Y-16840500D01*
X11166743Y-16840500D01*
X12883257Y-16840500D01*
X12883260Y-16840500D01*
X12951393Y-16830573D01*
X13056483Y-16779198D01*
X13139198Y-16696483D01*
X13190573Y-16591393D01*
X13200500Y-16523260D01*
X13200500Y-16156740D01*
X13190573Y-16088607D01*
X13175030Y-16056814D01*
X13139198Y-15983518D01*
X13139198Y-15983517D01*
X13056483Y-15900802D01*
X13048256Y-15896780D01*
X12951395Y-15849427D01*
X12924139Y-15845456D01*
X12883260Y-15839500D01*
X11166740Y-15839500D01*
X11139932Y-15843406D01*
X11098604Y-15849427D01*
X10993518Y-15900801D01*
X10910801Y-15983518D01*
X10859427Y-16088604D01*
X10859427Y-16088607D01*
X10849500Y-16156740D01*
X10493167Y-16156740D01*
X10466392Y-16056814D01*
X10466390Y-16056811D01*
X10466390Y-16056809D01*
X10400503Y-15942690D01*
X10400499Y-15942684D01*
X10354496Y-15896681D01*
X10326719Y-15842164D01*
X10325500Y-15826678D01*
X10325500Y-14107148D01*
X10325500Y-14107147D01*
X10303318Y-14024362D01*
X10303318Y-14024361D01*
X10303318Y-14024360D01*
X10260468Y-13950142D01*
X10260467Y-13950141D01*
X10260466Y-13950140D01*
X10260465Y-13950138D01*
X9704495Y-13394168D01*
X9676718Y-13339651D01*
X9675499Y-13324164D01*
X9675499Y-13193478D01*
X9663882Y-13120125D01*
X9673454Y-13059693D01*
X9716719Y-13016429D01*
X9777151Y-13006858D01*
X9800333Y-13015073D01*
X9800816Y-13013908D01*
X9806808Y-13016390D01*
X9806812Y-13016391D01*
X9806814Y-13016392D01*
X9934108Y-13050500D01*
X9934110Y-13050500D01*
X10065890Y-13050500D01*
X10065892Y-13050500D01*
X10193186Y-13016392D01*
X10193188Y-13016390D01*
X10193190Y-13016390D01*
X10307309Y-12950503D01*
X10307310Y-12950502D01*
X10307314Y-12950500D01*
X10307315Y-12950499D01*
X10353319Y-12904496D01*
X10407836Y-12876719D01*
X10423322Y-12875500D01*
X10858811Y-12875500D01*
X10917002Y-12894407D01*
X10928814Y-12904496D01*
X10974818Y-12950499D01*
X10993517Y-12969198D01*
X11047285Y-12995483D01*
X11098604Y-13020572D01*
X11098605Y-13020572D01*
X11098607Y-13020573D01*
X11166740Y-13030500D01*
X11166743Y-13030500D01*
X12883257Y-13030500D01*
X12883260Y-13030500D01*
X12951393Y-13020573D01*
X13056483Y-12969198D01*
X13139198Y-12886483D01*
X13190573Y-12781393D01*
X13200500Y-12713260D01*
X13200500Y-12346740D01*
X13190573Y-12278607D01*
X13187230Y-12271769D01*
X13154808Y-12205448D01*
X13139198Y-12173517D01*
X13056483Y-12090802D01*
X13045204Y-12085288D01*
X12951395Y-12039427D01*
X12924139Y-12035456D01*
X12883260Y-12029500D01*
X12883257Y-12029500D01*
X12808093Y-12029500D01*
X12749902Y-12010593D01*
X12713938Y-11961093D01*
X12713938Y-11899907D01*
X12716322Y-11893443D01*
X12716389Y-11893189D01*
X12716392Y-11893186D01*
X12732284Y-11833875D01*
X12765607Y-11782563D01*
X12822728Y-11760636D01*
X12827910Y-11760500D01*
X12883257Y-11760500D01*
X12883260Y-11760500D01*
X12951393Y-11750573D01*
X13056483Y-11699198D01*
X13139198Y-11616483D01*
X13190573Y-11511393D01*
X13200500Y-11443260D01*
X13200500Y-11076740D01*
X13190573Y-11008607D01*
X13190027Y-11007491D01*
X13139198Y-10903518D01*
X13139198Y-10903517D01*
X13056483Y-10820802D01*
X13056481Y-10820801D01*
X12951395Y-10769427D01*
X12918476Y-10764631D01*
X12883260Y-10759500D01*
X12883257Y-10759500D01*
X12141843Y-10759500D01*
X12083652Y-10740593D01*
X12047688Y-10691093D01*
X12047688Y-10629907D01*
X12056104Y-10611003D01*
X12066392Y-10593186D01*
X12073362Y-10567174D01*
X12074246Y-10563876D01*
X12107570Y-10512562D01*
X12164692Y-10490636D01*
X12169872Y-10490500D01*
X12883257Y-10490500D01*
X12883260Y-10490500D01*
X12951393Y-10480573D01*
X13056483Y-10429198D01*
X13139198Y-10346483D01*
X13190573Y-10241393D01*
X13200500Y-10173260D01*
X13200500Y-9806740D01*
X13190573Y-9738607D01*
X13188374Y-9734109D01*
X13165483Y-9687285D01*
X13139198Y-9633517D01*
X13056483Y-9550802D01*
X13055499Y-9550321D01*
X12951395Y-9499427D01*
X12924139Y-9495456D01*
X12883260Y-9489500D01*
X11166740Y-9489500D01*
X11132673Y-9494463D01*
X11098604Y-9499427D01*
X10993518Y-9550801D01*
X10910801Y-9633518D01*
X10859427Y-9738604D01*
X10854463Y-9772673D01*
X10849500Y-9806740D01*
X10849500Y-10173260D01*
X10854066Y-10204595D01*
X10859427Y-10241395D01*
X10890773Y-10305513D01*
X10910802Y-10346483D01*
X10993517Y-10429198D01*
X11063676Y-10463496D01*
X11107650Y-10506039D01*
X11115822Y-10526812D01*
X11133608Y-10593187D01*
X11152617Y-10626112D01*
X11165338Y-10685960D01*
X11140451Y-10741855D01*
X11104820Y-10764631D01*
X11105514Y-10766050D01*
X10993518Y-10820801D01*
X10910801Y-10903518D01*
X10859427Y-11008604D01*
X10859427Y-11008607D01*
X10849500Y-11076740D01*
X10849500Y-11443260D01*
X10852712Y-11465305D01*
X10859427Y-11511395D01*
X10881876Y-11557314D01*
X10910802Y-11616483D01*
X10993517Y-11699198D01*
X11028684Y-11716390D01*
X11098604Y-11750572D01*
X11098605Y-11750572D01*
X11098607Y-11750573D01*
X11166740Y-11760500D01*
X11672090Y-11760500D01*
X11730281Y-11779407D01*
X11766245Y-11828907D01*
X11767710Y-11833854D01*
X11783608Y-11893186D01*
X11783608Y-11893187D01*
X11785288Y-11899454D01*
X11783939Y-11899815D01*
X11788171Y-11953615D01*
X11756199Y-12005783D01*
X11699670Y-12029195D01*
X11691907Y-12029500D01*
X11166740Y-12029500D01*
X11132673Y-12034463D01*
X11098604Y-12039427D01*
X10993518Y-12090801D01*
X10910800Y-12173519D01*
X10906035Y-12180194D01*
X10903749Y-12178562D01*
X10870476Y-12212955D01*
X10824079Y-12224500D01*
X10423322Y-12224500D01*
X10365131Y-12205593D01*
X10353319Y-12195504D01*
X10307315Y-12149500D01*
X10307309Y-12149496D01*
X10193189Y-12083609D01*
X10193191Y-12083609D01*
X10143799Y-12070375D01*
X10065892Y-12049500D01*
X9934108Y-12049500D01*
X9806814Y-12083608D01*
X9806812Y-12083608D01*
X9800546Y-12085288D01*
X9799749Y-12082317D01*
X9751266Y-12086071D01*
X9699138Y-12054036D01*
X9675794Y-11997479D01*
X9675499Y-11989860D01*
X9675499Y-11543482D01*
X9667455Y-11492690D01*
X9660647Y-11449700D01*
X9660646Y-11449698D01*
X9660646Y-11449696D01*
X9603050Y-11336658D01*
X9513342Y-11246950D01*
X9475856Y-11227850D01*
X9393361Y-11185816D01*
X9394152Y-11184263D01*
X9352348Y-11153891D01*
X9333441Y-11095701D01*
X9352349Y-11037510D01*
X9387492Y-11007494D01*
X9503220Y-10948528D01*
X9598528Y-10853220D01*
X9659719Y-10733126D01*
X9675500Y-10633488D01*
X9675500Y-10116512D01*
X9674042Y-10107309D01*
X9671703Y-10092541D01*
X9659719Y-10016874D01*
X9659716Y-10016869D01*
X9659716Y-10016867D01*
X9598529Y-9896782D01*
X9598528Y-9896780D01*
X9503220Y-9801472D01*
X9503217Y-9801470D01*
X9383132Y-9740283D01*
X9383127Y-9740281D01*
X9383126Y-9740281D01*
X9344151Y-9734108D01*
X9283490Y-9724500D01*
X9283488Y-9724500D01*
X9073891Y-9724500D01*
X9015700Y-9705593D01*
X8979736Y-9656093D01*
X8978270Y-9651144D01*
X8966392Y-9606814D01*
X8966390Y-9606811D01*
X8966390Y-9606809D01*
X8900503Y-9492690D01*
X8900501Y-9492688D01*
X8900500Y-9492686D01*
X8807314Y-9399500D01*
X8807311Y-9399498D01*
X8807309Y-9399496D01*
X8693189Y-9333609D01*
X8693191Y-9333609D01*
X8626370Y-9315705D01*
X8565892Y-9299500D01*
X8434108Y-9299500D01*
X8373630Y-9315705D01*
X8306809Y-9333609D01*
X8192690Y-9399496D01*
X8099497Y-9492689D01*
X8099496Y-9492691D01*
X8099051Y-9493462D01*
X8098577Y-9493887D01*
X8095549Y-9497835D01*
X8094816Y-9497273D01*
X8053575Y-9534395D01*
X7992723Y-9540781D01*
X7969842Y-9532889D01*
X7901395Y-9499427D01*
X7874139Y-9495456D01*
X7833260Y-9489500D01*
X7833257Y-9489500D01*
X7549500Y-9489500D01*
X7491309Y-9470593D01*
X7455345Y-9421093D01*
X7450500Y-9390500D01*
X7450500Y-9148321D01*
X7469407Y-9090130D01*
X7479490Y-9078323D01*
X7650500Y-8907314D01*
X7650500Y-8907313D01*
X8178317Y-8379496D01*
X8232834Y-8351719D01*
X8248321Y-8350500D01*
X12951678Y-8350500D01*
X13009869Y-8369407D01*
X13021682Y-8379496D01*
X13045504Y-8403318D01*
X13073281Y-8457835D01*
X13074500Y-8473322D01*
X13074500Y-8633489D01*
X13090281Y-8733125D01*
X13090283Y-8733132D01*
X13151470Y-8853217D01*
X13151472Y-8853220D01*
X13246780Y-8948528D01*
X13246782Y-8948529D01*
X13366867Y-9009716D01*
X13366869Y-9009716D01*
X13366874Y-9009719D01*
X13442541Y-9021703D01*
X13466510Y-9025500D01*
X13466512Y-9025500D01*
X13983490Y-9025500D01*
X14004885Y-9022111D01*
X14083126Y-9009719D01*
X14203220Y-8948528D01*
X14298528Y-8853220D01*
X14359719Y-8733126D01*
X14375500Y-8633488D01*
X14375500Y-8066512D01*
X14375500Y-8066510D01*
X14375500Y-8066506D01*
X14371879Y-8043651D01*
X14381447Y-7983219D01*
X14399652Y-7958160D01*
X14478318Y-7879496D01*
X14532835Y-7851719D01*
X14548321Y-7850500D01*
X16001678Y-7850500D01*
X16059869Y-7869407D01*
G37*
%TD.AperFunction*%
%TA.AperFunction,Conductor*%
G36*
X27609191Y-368907D02*
G01*
X27645155Y-418407D01*
X27650000Y-449000D01*
X27650000Y-27551000D01*
X27631093Y-27609191D01*
X27581593Y-27645155D01*
X27551000Y-27650000D01*
X449000Y-27650000D01*
X390809Y-27631093D01*
X354845Y-27581593D01*
X350000Y-27551000D01*
X350000Y-23430253D01*
X1249500Y-23430253D01*
X1249500Y-25569746D01*
X1249501Y-25569758D01*
X1261132Y-25628227D01*
X1261133Y-25628231D01*
X1305448Y-25694552D01*
X1371769Y-25738867D01*
X1416231Y-25747711D01*
X1430241Y-25750498D01*
X1430246Y-25750498D01*
X1430252Y-25750500D01*
X1430253Y-25750500D01*
X3569747Y-25750500D01*
X3569748Y-25750500D01*
X3628231Y-25738867D01*
X3694552Y-25694552D01*
X3738867Y-25628231D01*
X3750500Y-25569748D01*
X3750500Y-23430252D01*
X3741564Y-23385326D01*
X3748754Y-23324565D01*
X3752916Y-23316525D01*
X3766392Y-23293186D01*
X3800500Y-23165892D01*
X3800500Y-23034108D01*
X3766392Y-22906814D01*
X3766390Y-22906811D01*
X3766390Y-22906809D01*
X3700503Y-22792690D01*
X3700501Y-22792688D01*
X3700500Y-22792686D01*
X3607314Y-22699500D01*
X3607311Y-22699498D01*
X3607309Y-22699496D01*
X3493189Y-22633609D01*
X3493191Y-22633609D01*
X3443799Y-22620375D01*
X3365892Y-22599500D01*
X3234108Y-22599500D01*
X3156200Y-22620375D01*
X3106809Y-22633609D01*
X2992690Y-22699496D01*
X2899496Y-22792690D01*
X2833609Y-22906809D01*
X2799500Y-23034109D01*
X2799500Y-23099165D01*
X2780593Y-23157356D01*
X2770504Y-23169169D01*
X2719169Y-23220504D01*
X2664652Y-23248281D01*
X2649165Y-23249500D01*
X1430252Y-23249500D01*
X1430251Y-23249500D01*
X1430241Y-23249501D01*
X1371772Y-23261132D01*
X1371766Y-23261134D01*
X1305451Y-23305445D01*
X1305445Y-23305451D01*
X1261134Y-23371766D01*
X1261132Y-23371772D01*
X1249501Y-23430241D01*
X1249500Y-23430253D01*
X350000Y-23430253D01*
X350000Y-12346740D01*
X849500Y-12346740D01*
X849500Y-12713260D01*
X850460Y-12719847D01*
X859427Y-12781395D01*
X888340Y-12840536D01*
X910802Y-12886483D01*
X993517Y-12969198D01*
X1047285Y-12995483D01*
X1098604Y-13020572D01*
X1098605Y-13020572D01*
X1098607Y-13020573D01*
X1166740Y-13030500D01*
X1166743Y-13030500D01*
X2883257Y-13030500D01*
X2883260Y-13030500D01*
X2951393Y-13020573D01*
X3056483Y-12969198D01*
X3088835Y-12936846D01*
X3121186Y-12904496D01*
X3175703Y-12876719D01*
X3191189Y-12875500D01*
X4826678Y-12875500D01*
X4884869Y-12894407D01*
X4896681Y-12904496D01*
X4942684Y-12950499D01*
X4942690Y-12950503D01*
X5056810Y-13016390D01*
X5056808Y-13016390D01*
X5056812Y-13016391D01*
X5056814Y-13016392D01*
X5184108Y-13050500D01*
X5184110Y-13050500D01*
X5315890Y-13050500D01*
X5315892Y-13050500D01*
X5443186Y-13016392D01*
X5443188Y-13016390D01*
X5443190Y-13016390D01*
X5557309Y-12950503D01*
X5557309Y-12950502D01*
X5557314Y-12950500D01*
X5650500Y-12857314D01*
X5663662Y-12834515D01*
X5709132Y-12793575D01*
X5769982Y-12787179D01*
X5822970Y-12817772D01*
X5838340Y-12840536D01*
X5860802Y-12886483D01*
X5943517Y-12969198D01*
X5997285Y-12995483D01*
X6048604Y-13020572D01*
X6048605Y-13020572D01*
X6048607Y-13020573D01*
X6116740Y-13030500D01*
X6116743Y-13030500D01*
X7833257Y-13030500D01*
X7833260Y-13030500D01*
X7901393Y-13020573D01*
X8006483Y-12969198D01*
X8089198Y-12886483D01*
X8140573Y-12781393D01*
X8150500Y-12713260D01*
X8150500Y-12346740D01*
X8140573Y-12278607D01*
X8137230Y-12271769D01*
X8104808Y-12205448D01*
X8089198Y-12173517D01*
X8006483Y-12090802D01*
X7995204Y-12085288D01*
X7901395Y-12039427D01*
X7874139Y-12035456D01*
X7833260Y-12029500D01*
X6116740Y-12029500D01*
X6082673Y-12034463D01*
X6048604Y-12039427D01*
X5943518Y-12090801D01*
X5860799Y-12173520D01*
X5827750Y-12241124D01*
X5785207Y-12285098D01*
X5724941Y-12295667D01*
X5669973Y-12268794D01*
X5653074Y-12247143D01*
X5650503Y-12242690D01*
X5650501Y-12242688D01*
X5650500Y-12242686D01*
X5557314Y-12149500D01*
X5557311Y-12149498D01*
X5557309Y-12149496D01*
X5443189Y-12083609D01*
X5443191Y-12083609D01*
X5393799Y-12070375D01*
X5315892Y-12049500D01*
X5184108Y-12049500D01*
X5106200Y-12070375D01*
X5056809Y-12083609D01*
X4942690Y-12149496D01*
X4942684Y-12149500D01*
X4896681Y-12195504D01*
X4842164Y-12223281D01*
X4826678Y-12224500D01*
X3225921Y-12224500D01*
X3167730Y-12205593D01*
X3145486Y-12179107D01*
X3143965Y-12180194D01*
X3139199Y-12173519D01*
X3139198Y-12173518D01*
X3139198Y-12173517D01*
X3056483Y-12090802D01*
X3045204Y-12085288D01*
X2951395Y-12039427D01*
X2924139Y-12035456D01*
X2883260Y-12029500D01*
X1166740Y-12029500D01*
X1132673Y-12034463D01*
X1098604Y-12039427D01*
X993518Y-12090801D01*
X910801Y-12173518D01*
X859427Y-12278604D01*
X859427Y-12278607D01*
X849500Y-12346740D01*
X350000Y-12346740D01*
X350000Y-11076740D01*
X849500Y-11076740D01*
X849500Y-11443260D01*
X852712Y-11465305D01*
X859427Y-11511395D01*
X881876Y-11557314D01*
X910802Y-11616483D01*
X993517Y-11699198D01*
X1028684Y-11716390D01*
X1098604Y-11750572D01*
X1098605Y-11750572D01*
X1098607Y-11750573D01*
X1166740Y-11760500D01*
X1166743Y-11760500D01*
X2883257Y-11760500D01*
X2883260Y-11760500D01*
X2951393Y-11750573D01*
X2965173Y-11743835D01*
X3025755Y-11735263D01*
X3034271Y-11737146D01*
X3084108Y-11750500D01*
X3084110Y-11750500D01*
X3215890Y-11750500D01*
X3215892Y-11750500D01*
X3343186Y-11716392D01*
X3343188Y-11716390D01*
X3343190Y-11716390D01*
X3457309Y-11650503D01*
X3457309Y-11650502D01*
X3457314Y-11650500D01*
X3550500Y-11557314D01*
X3558489Y-11543477D01*
X3616390Y-11443190D01*
X3616390Y-11443188D01*
X3616392Y-11443186D01*
X3650500Y-11315892D01*
X3650500Y-11184108D01*
X3616392Y-11056814D01*
X3616390Y-11056811D01*
X3616390Y-11056809D01*
X3550503Y-10942690D01*
X3550501Y-10942688D01*
X3550500Y-10942686D01*
X3457314Y-10849500D01*
X3457311Y-10849498D01*
X3457309Y-10849496D01*
X3343189Y-10783609D01*
X3343191Y-10783609D01*
X3293799Y-10770375D01*
X3215892Y-10749500D01*
X3084108Y-10749500D01*
X3056959Y-10756774D01*
X3006063Y-10770411D01*
X2959147Y-10769523D01*
X2959000Y-10770536D01*
X2951394Y-10769427D01*
X2951393Y-10769427D01*
X2883260Y-10759500D01*
X1166740Y-10759500D01*
X1132673Y-10764463D01*
X1098604Y-10769427D01*
X993518Y-10820801D01*
X910801Y-10903518D01*
X859427Y-11008604D01*
X859427Y-11008607D01*
X849500Y-11076740D01*
X350000Y-11076740D01*
X350000Y-9806740D01*
X849500Y-9806740D01*
X849500Y-10173260D01*
X854066Y-10204595D01*
X859427Y-10241395D01*
X890773Y-10305513D01*
X910802Y-10346483D01*
X993517Y-10429198D01*
X1047285Y-10455483D01*
X1098604Y-10480572D01*
X1098605Y-10480572D01*
X1098607Y-10480573D01*
X1166740Y-10490500D01*
X1166743Y-10490500D01*
X2883257Y-10490500D01*
X2883260Y-10490500D01*
X2951393Y-10480573D01*
X3056483Y-10429198D01*
X3139198Y-10346483D01*
X3139201Y-10346475D01*
X3142480Y-10341885D01*
X3191681Y-10305513D01*
X3210134Y-10301257D01*
X3215879Y-10300500D01*
X3215892Y-10300500D01*
X3343186Y-10266392D01*
X3343189Y-10266390D01*
X3343190Y-10266390D01*
X3457309Y-10200503D01*
X3457309Y-10200502D01*
X3457314Y-10200500D01*
X3550500Y-10107314D01*
X3616392Y-9993186D01*
X3650500Y-9865892D01*
X3650500Y-9734108D01*
X3626877Y-9645945D01*
X3630080Y-9584847D01*
X3668585Y-9537297D01*
X3727685Y-9521461D01*
X3784807Y-9543387D01*
X3792497Y-9550311D01*
X3992686Y-9750500D01*
X3992688Y-9750501D01*
X3992690Y-9750503D01*
X4106810Y-9816390D01*
X4106808Y-9816390D01*
X4106812Y-9816391D01*
X4106814Y-9816392D01*
X4234107Y-9850500D01*
X4234108Y-9850500D01*
X5700500Y-9850500D01*
X5758691Y-9869407D01*
X5794655Y-9918907D01*
X5799500Y-9949500D01*
X5799500Y-10173260D01*
X5804066Y-10204595D01*
X5809427Y-10241395D01*
X5840773Y-10305513D01*
X5860802Y-10346483D01*
X5943517Y-10429198D01*
X5997285Y-10455483D01*
X6048604Y-10480572D01*
X6048605Y-10480572D01*
X6048607Y-10480573D01*
X6116740Y-10490500D01*
X6833753Y-10490500D01*
X6859375Y-10493873D01*
X6884108Y-10500500D01*
X6884109Y-10500500D01*
X7015891Y-10500500D01*
X7015892Y-10500500D01*
X7040625Y-10493873D01*
X7066247Y-10490500D01*
X7833257Y-10490500D01*
X7833260Y-10490500D01*
X7901393Y-10480573D01*
X8006483Y-10429198D01*
X8089198Y-10346483D01*
X8121051Y-10281325D01*
X8163593Y-10237353D01*
X8223858Y-10226783D01*
X8259490Y-10239070D01*
X8274999Y-10248024D01*
X8315941Y-10293494D01*
X8324500Y-10333761D01*
X8324500Y-10633488D01*
X8336199Y-10707356D01*
X8340281Y-10733125D01*
X8340283Y-10733132D01*
X8401470Y-10853217D01*
X8401472Y-10853220D01*
X8496780Y-10948528D01*
X8612504Y-11007492D01*
X8655768Y-11050756D01*
X8665339Y-11111188D01*
X8637562Y-11165705D01*
X8606188Y-11184931D01*
X8606639Y-11185816D01*
X8486659Y-11246949D01*
X8396949Y-11336659D01*
X8339354Y-11449695D01*
X8324500Y-11543477D01*
X8324500Y-12006520D01*
X8324501Y-12006523D01*
X8339352Y-12100299D01*
X8339354Y-12100304D01*
X8396950Y-12213342D01*
X8486658Y-12303050D01*
X8599696Y-12360646D01*
X8693481Y-12375500D01*
X9306518Y-12375499D01*
X9306520Y-12375499D01*
X9306520Y-12375498D01*
X9344329Y-12369510D01*
X9387875Y-12362615D01*
X9448307Y-12372187D01*
X9491571Y-12415452D01*
X9501142Y-12475884D01*
X9499672Y-12482798D01*
X9499500Y-12484107D01*
X9499500Y-12484108D01*
X9499500Y-12615892D01*
X9510786Y-12658015D01*
X9527354Y-12719847D01*
X9524151Y-12780948D01*
X9485646Y-12828498D01*
X9426545Y-12844333D01*
X9401138Y-12839625D01*
X9400305Y-12839354D01*
X9400304Y-12839354D01*
X9369758Y-12834516D01*
X9306522Y-12824500D01*
X8693479Y-12824500D01*
X8693476Y-12824501D01*
X8599700Y-12839352D01*
X8599695Y-12839354D01*
X8486659Y-12896949D01*
X8396949Y-12986659D01*
X8339354Y-13099695D01*
X8324500Y-13193477D01*
X8324500Y-13656520D01*
X8324501Y-13656523D01*
X8339352Y-13750299D01*
X8339354Y-13750304D01*
X8396950Y-13863342D01*
X8486658Y-13953050D01*
X8599696Y-14010646D01*
X8693481Y-14025500D01*
X9306518Y-14025499D01*
X9350494Y-14018534D01*
X9410924Y-14028105D01*
X9435984Y-14046311D01*
X9645504Y-14255831D01*
X9673281Y-14310348D01*
X9674500Y-14325835D01*
X9674500Y-15733745D01*
X9655593Y-15791936D01*
X9606093Y-15827900D01*
X9544907Y-15827900D01*
X9505498Y-15803750D01*
X9503220Y-15801472D01*
X9503217Y-15801470D01*
X9383132Y-15740283D01*
X9383127Y-15740281D01*
X9383126Y-15740281D01*
X9341859Y-15733745D01*
X9283490Y-15724500D01*
X9283488Y-15724500D01*
X9073891Y-15724500D01*
X9015700Y-15705593D01*
X8979736Y-15656093D01*
X8978270Y-15651144D01*
X8966392Y-15606814D01*
X8966390Y-15606811D01*
X8966390Y-15606809D01*
X8900503Y-15492690D01*
X8900501Y-15492688D01*
X8900500Y-15492686D01*
X8807314Y-15399500D01*
X8807311Y-15399498D01*
X8807309Y-15399496D01*
X8693189Y-15333609D01*
X8693191Y-15333609D01*
X8643799Y-15320375D01*
X8565892Y-15299500D01*
X8434108Y-15299500D01*
X8356200Y-15320375D01*
X8306809Y-15333609D01*
X8298997Y-15338120D01*
X8239149Y-15350839D01*
X8183254Y-15325951D01*
X8152663Y-15272962D01*
X8150500Y-15252382D01*
X8150500Y-14886743D01*
X8150500Y-14886740D01*
X8140573Y-14818607D01*
X8089198Y-14713517D01*
X8006483Y-14630802D01*
X7974499Y-14615166D01*
X7901395Y-14579427D01*
X7874139Y-14575456D01*
X7833260Y-14569500D01*
X6116740Y-14569500D01*
X6082673Y-14574463D01*
X6048604Y-14579427D01*
X5943518Y-14630801D01*
X5860801Y-14713518D01*
X5809427Y-14818604D01*
X5809427Y-14818607D01*
X5799500Y-14886740D01*
X5799500Y-15253260D01*
X5802371Y-15272962D01*
X5809427Y-15321395D01*
X5847609Y-15399496D01*
X5860802Y-15426483D01*
X5943517Y-15509198D01*
X5997285Y-15535483D01*
X6048604Y-15560572D01*
X6048605Y-15560572D01*
X6048607Y-15560573D01*
X6116740Y-15570500D01*
X6116743Y-15570500D01*
X7833256Y-15570500D01*
X7833260Y-15570500D01*
X7901393Y-15560573D01*
X7901395Y-15560571D01*
X7903047Y-15560331D01*
X7963356Y-15570651D01*
X8006081Y-15614448D01*
X8014903Y-15674994D01*
X8012949Y-15683913D01*
X7999500Y-15734108D01*
X7999500Y-15734109D01*
X7999500Y-15749251D01*
X7980593Y-15807442D01*
X7931093Y-15843406D01*
X7886228Y-15847217D01*
X7846114Y-15841372D01*
X7833260Y-15839500D01*
X6116740Y-15839500D01*
X6089932Y-15843406D01*
X6048604Y-15849427D01*
X5943518Y-15900801D01*
X5860801Y-15983518D01*
X5809427Y-16088604D01*
X5809427Y-16088607D01*
X5799500Y-16156740D01*
X5799500Y-16523260D01*
X5800933Y-16533094D01*
X5809427Y-16591395D01*
X5854752Y-16684108D01*
X5860802Y-16696483D01*
X5943517Y-16779198D01*
X6013676Y-16813496D01*
X6057650Y-16856039D01*
X6065822Y-16876812D01*
X6083608Y-16943187D01*
X6102617Y-16976112D01*
X6115338Y-17035960D01*
X6090451Y-17091855D01*
X6054820Y-17114631D01*
X6055514Y-17116050D01*
X5943518Y-17170801D01*
X5860801Y-17253518D01*
X5809427Y-17358604D01*
X5799500Y-17426743D01*
X5799500Y-17750165D01*
X5780593Y-17808356D01*
X5731093Y-17844320D01*
X5669907Y-17844320D01*
X5630496Y-17820169D01*
X3704496Y-15894169D01*
X3676719Y-15839652D01*
X3675500Y-15824165D01*
X3675500Y-14357147D01*
X3671625Y-14342686D01*
X3653318Y-14274361D01*
X3653316Y-14274358D01*
X3653316Y-14274356D01*
X3610468Y-14200142D01*
X3610464Y-14200137D01*
X3229496Y-13819168D01*
X3201719Y-13764652D01*
X3200500Y-13749165D01*
X3200500Y-13616743D01*
X3200500Y-13616740D01*
X3190573Y-13548607D01*
X3139198Y-13443517D01*
X3056483Y-13360802D01*
X3013218Y-13339651D01*
X2951395Y-13309427D01*
X2924139Y-13305456D01*
X2883260Y-13299500D01*
X1166740Y-13299500D01*
X1132673Y-13304463D01*
X1098604Y-13309427D01*
X993518Y-13360801D01*
X910801Y-13443518D01*
X859427Y-13548604D01*
X859427Y-13548607D01*
X849500Y-13616740D01*
X849500Y-13983260D01*
X855488Y-14024360D01*
X859427Y-14051395D01*
X910801Y-14156481D01*
X910802Y-14156483D01*
X993517Y-14239198D01*
X1027541Y-14255831D01*
X1098604Y-14290572D01*
X1098605Y-14290572D01*
X1098607Y-14290573D01*
X1166740Y-14300500D01*
X2749165Y-14300500D01*
X2807356Y-14319407D01*
X2819169Y-14329496D01*
X2890169Y-14400496D01*
X2917946Y-14455013D01*
X2908375Y-14515445D01*
X2865110Y-14558710D01*
X2820165Y-14569500D01*
X1166740Y-14569500D01*
X1132673Y-14574463D01*
X1098604Y-14579427D01*
X993518Y-14630801D01*
X910801Y-14713518D01*
X859427Y-14818604D01*
X859427Y-14818607D01*
X849500Y-14886740D01*
X849500Y-15253260D01*
X852371Y-15272962D01*
X859427Y-15321395D01*
X897609Y-15399496D01*
X910802Y-15426483D01*
X993517Y-15509198D01*
X1047285Y-15535483D01*
X1098604Y-15560572D01*
X1098605Y-15560572D01*
X1098607Y-15560573D01*
X1166740Y-15570500D01*
X1174769Y-15570500D01*
X1232960Y-15589407D01*
X1268924Y-15638907D01*
X1270395Y-15643876D01*
X1283608Y-15693187D01*
X1286093Y-15699187D01*
X1284248Y-15699950D01*
X1295067Y-15750849D01*
X1270180Y-15806745D01*
X1217191Y-15837337D01*
X1196609Y-15839500D01*
X1166740Y-15839500D01*
X1139932Y-15843406D01*
X1098604Y-15849427D01*
X993518Y-15900801D01*
X910801Y-15983518D01*
X859427Y-16088604D01*
X859427Y-16088607D01*
X849500Y-16156740D01*
X849500Y-16523260D01*
X850933Y-16533094D01*
X859427Y-16591395D01*
X904752Y-16684108D01*
X910802Y-16696483D01*
X993517Y-16779198D01*
X1047285Y-16805483D01*
X1098604Y-16830572D01*
X1098605Y-16830572D01*
X1098607Y-16830573D01*
X1166740Y-16840500D01*
X1830128Y-16840500D01*
X1888319Y-16859407D01*
X1924283Y-16908907D01*
X1925754Y-16913876D01*
X1931251Y-16934390D01*
X1933608Y-16943186D01*
X1999500Y-17057314D01*
X2092686Y-17150500D01*
X2092688Y-17150501D01*
X2092690Y-17150503D01*
X2206810Y-17216390D01*
X2206808Y-17216390D01*
X2206812Y-17216391D01*
X2206814Y-17216392D01*
X2334108Y-17250500D01*
X2334110Y-17250500D01*
X2465890Y-17250500D01*
X2465892Y-17250500D01*
X2593186Y-17216392D01*
X2593188Y-17216390D01*
X2593190Y-17216390D01*
X2707309Y-17150503D01*
X2707309Y-17150502D01*
X2707314Y-17150500D01*
X2800500Y-17057314D01*
X2866392Y-16943186D01*
X2874246Y-16913876D01*
X2877472Y-16901834D01*
X2910795Y-16850519D01*
X2944914Y-16835636D01*
X2944051Y-16832841D01*
X2951386Y-16830573D01*
X2951393Y-16830573D01*
X3056483Y-16779198D01*
X3139198Y-16696483D01*
X3190573Y-16591393D01*
X3199067Y-16533090D01*
X3226165Y-16478237D01*
X3280333Y-16449785D01*
X3340879Y-16458605D01*
X3367036Y-16477362D01*
X4806287Y-17916613D01*
X4834064Y-17971130D01*
X4824493Y-18031562D01*
X4781228Y-18074827D01*
X4761907Y-18082243D01*
X4756814Y-18083607D01*
X4756810Y-18083609D01*
X4642690Y-18149496D01*
X4549496Y-18242690D01*
X4483609Y-18356809D01*
X4449500Y-18484109D01*
X4449500Y-18549165D01*
X4430593Y-18607356D01*
X4420503Y-18619169D01*
X4044167Y-18995504D01*
X3989651Y-19023281D01*
X3974164Y-19024500D01*
X3593479Y-19024500D01*
X3593476Y-19024501D01*
X3499700Y-19039352D01*
X3499695Y-19039354D01*
X3386659Y-19096949D01*
X3296949Y-19186659D01*
X3239352Y-19299698D01*
X3238736Y-19301595D01*
X3237564Y-19303206D01*
X3235816Y-19306639D01*
X3235272Y-19306361D01*
X3202768Y-19351092D01*
X3170209Y-19366620D01*
X3106812Y-19383608D01*
X3106810Y-19383609D01*
X2992690Y-19449496D01*
X2992689Y-19449497D01*
X2992686Y-19449499D01*
X2992686Y-19449500D01*
X2944500Y-19497685D01*
X2889986Y-19525461D01*
X2829554Y-19515890D01*
X2786289Y-19472625D01*
X2775499Y-19427680D01*
X2775499Y-19393478D01*
X2775498Y-19393476D01*
X2760647Y-19299700D01*
X2760646Y-19299698D01*
X2760646Y-19299696D01*
X2703050Y-19186658D01*
X2613342Y-19096950D01*
X2500304Y-19039354D01*
X2500305Y-19039354D01*
X2406522Y-19024500D01*
X1943479Y-19024500D01*
X1943476Y-19024501D01*
X1849700Y-19039352D01*
X1849695Y-19039354D01*
X1736659Y-19096949D01*
X1646949Y-19186659D01*
X1589354Y-19299695D01*
X1574500Y-19393477D01*
X1574500Y-20006520D01*
X1574501Y-20006523D01*
X1589352Y-20100299D01*
X1589354Y-20100304D01*
X1646950Y-20213342D01*
X1736658Y-20303050D01*
X1842119Y-20356785D01*
X1867175Y-20374989D01*
X2592686Y-21100500D01*
X2592688Y-21100501D01*
X2592689Y-21100502D01*
X2592690Y-21100503D01*
X2706810Y-21166390D01*
X2706808Y-21166390D01*
X2706812Y-21166391D01*
X2706814Y-21166392D01*
X2834107Y-21200500D01*
X2834108Y-21200500D01*
X8452383Y-21200500D01*
X8510574Y-21219407D01*
X8546538Y-21268907D01*
X8546538Y-21330093D01*
X8538118Y-21349002D01*
X8533609Y-21356810D01*
X8527980Y-21377817D01*
X8499500Y-21484108D01*
X8499500Y-21615892D01*
X8502830Y-21628319D01*
X8533609Y-21743190D01*
X8599496Y-21857309D01*
X8599498Y-21857311D01*
X8599500Y-21857314D01*
X8645505Y-21903319D01*
X8673281Y-21957834D01*
X8674500Y-21973321D01*
X8674500Y-23150500D01*
X8655593Y-23208691D01*
X8606093Y-23244655D01*
X8575500Y-23249500D01*
X7930252Y-23249500D01*
X7930251Y-23249500D01*
X7930241Y-23249501D01*
X7871772Y-23261132D01*
X7871766Y-23261134D01*
X7805451Y-23305445D01*
X7805445Y-23305451D01*
X7761134Y-23371766D01*
X7761132Y-23371772D01*
X7749501Y-23430241D01*
X7749500Y-23430253D01*
X7749500Y-25569746D01*
X7749501Y-25569758D01*
X7761132Y-25628227D01*
X7761133Y-25628231D01*
X7805448Y-25694552D01*
X7871769Y-25738867D01*
X7916231Y-25747711D01*
X7930241Y-25750498D01*
X7930246Y-25750498D01*
X7930252Y-25750500D01*
X7930253Y-25750500D01*
X10069747Y-25750500D01*
X10069748Y-25750500D01*
X10128231Y-25738867D01*
X10194552Y-25694552D01*
X10238867Y-25628231D01*
X10250500Y-25569748D01*
X10250500Y-23430252D01*
X10238867Y-23371769D01*
X10194552Y-23305448D01*
X10176201Y-23293186D01*
X10128233Y-23261134D01*
X10128231Y-23261133D01*
X10128228Y-23261132D01*
X10128227Y-23261132D01*
X10069758Y-23249501D01*
X10069748Y-23249500D01*
X10069747Y-23249500D01*
X9424500Y-23249500D01*
X9366309Y-23230593D01*
X9330345Y-23181093D01*
X9325500Y-23150500D01*
X9325500Y-21973321D01*
X9344407Y-21915130D01*
X9354490Y-21903323D01*
X9400500Y-21857314D01*
X9400503Y-21857309D01*
X9466390Y-21743190D01*
X9466390Y-21743188D01*
X9466392Y-21743186D01*
X9500500Y-21615892D01*
X9500500Y-21484108D01*
X9466392Y-21356814D01*
X9461882Y-21349002D01*
X9449159Y-21289154D01*
X9474044Y-21233258D01*
X9527031Y-21202664D01*
X9547617Y-21200500D01*
X10265890Y-21200500D01*
X10265892Y-21200500D01*
X10393186Y-21166392D01*
X10393188Y-21166390D01*
X10393190Y-21166390D01*
X10507309Y-21100503D01*
X10507309Y-21100502D01*
X10507314Y-21100500D01*
X10979998Y-20627815D01*
X11034513Y-20600040D01*
X11094945Y-20609611D01*
X11120000Y-20627814D01*
X11592686Y-21100500D01*
X11592688Y-21100501D01*
X11592690Y-21100503D01*
X11706810Y-21166390D01*
X11706808Y-21166390D01*
X11706812Y-21166391D01*
X11706814Y-21166392D01*
X11834107Y-21200500D01*
X11834108Y-21200500D01*
X13419678Y-21200500D01*
X13477869Y-21219407D01*
X13513833Y-21268907D01*
X13515305Y-21325122D01*
X13508628Y-21350040D01*
X13499500Y-21384108D01*
X13499500Y-24034108D01*
X13499500Y-24165892D01*
X13510138Y-24205593D01*
X13533609Y-24293190D01*
X13599496Y-24407309D01*
X13599497Y-24407310D01*
X13599498Y-24407311D01*
X13599500Y-24407314D01*
X14202651Y-25010465D01*
X14299500Y-25107314D01*
X14325009Y-25132823D01*
X14343214Y-25157881D01*
X14391791Y-25253217D01*
X14396950Y-25263342D01*
X14486658Y-25353050D01*
X14599696Y-25410646D01*
X14693481Y-25425500D01*
X15306518Y-25425499D01*
X15306520Y-25425499D01*
X15306521Y-25425498D01*
X15353411Y-25418072D01*
X15400299Y-25410647D01*
X15400299Y-25410646D01*
X15400304Y-25410646D01*
X15513342Y-25353050D01*
X15603050Y-25263342D01*
X15660646Y-25150304D01*
X15675500Y-25056519D01*
X15675499Y-24593482D01*
X15660646Y-24499696D01*
X15603050Y-24386658D01*
X15513342Y-24296950D01*
X15400304Y-24239354D01*
X15400305Y-24239354D01*
X15306522Y-24224500D01*
X15306519Y-24224500D01*
X14873322Y-24224500D01*
X14815131Y-24205593D01*
X14803318Y-24195504D01*
X14540392Y-23932578D01*
X14512615Y-23878061D01*
X14522186Y-23817629D01*
X14565451Y-23774364D01*
X14625881Y-23764793D01*
X14693481Y-23775500D01*
X15306518Y-23775499D01*
X15306520Y-23775499D01*
X15306521Y-23775498D01*
X15374119Y-23764793D01*
X15400299Y-23760647D01*
X15400299Y-23760646D01*
X15400304Y-23760646D01*
X15513342Y-23703050D01*
X15603050Y-23613342D01*
X15625562Y-23569158D01*
X15668824Y-23525896D01*
X15729256Y-23516324D01*
X15783773Y-23544100D01*
X17250138Y-25010465D01*
X17250140Y-25010466D01*
X17250141Y-25010467D01*
X17250142Y-25010468D01*
X17287076Y-25031792D01*
X17328017Y-25077261D01*
X17335357Y-25102039D01*
X17340281Y-25133126D01*
X17340283Y-25133132D01*
X17401470Y-25253217D01*
X17401472Y-25253220D01*
X17496780Y-25348528D01*
X17496782Y-25348529D01*
X17616867Y-25409716D01*
X17616869Y-25409716D01*
X17616874Y-25409719D01*
X17692541Y-25421703D01*
X17716510Y-25425500D01*
X17716512Y-25425500D01*
X18283490Y-25425500D01*
X18304885Y-25422111D01*
X18383126Y-25409719D01*
X18503220Y-25348528D01*
X18598528Y-25253220D01*
X18659719Y-25133126D01*
X18675500Y-25033488D01*
X18675500Y-24516512D01*
X18672836Y-24499695D01*
X18671703Y-24492541D01*
X18659719Y-24416874D01*
X18659716Y-24416869D01*
X18659716Y-24416867D01*
X18598529Y-24296782D01*
X18598528Y-24296780D01*
X18503220Y-24201472D01*
X18503217Y-24201470D01*
X18383132Y-24140283D01*
X18383127Y-24140281D01*
X18383126Y-24140281D01*
X18349913Y-24135020D01*
X18283490Y-24124500D01*
X18283488Y-24124500D01*
X17716512Y-24124500D01*
X17716510Y-24124500D01*
X17616874Y-24140281D01*
X17616867Y-24140283D01*
X17496782Y-24201470D01*
X17490475Y-24206053D01*
X17489098Y-24204158D01*
X17444743Y-24226740D01*
X17384315Y-24217149D01*
X17359285Y-24198958D01*
X16104074Y-22943747D01*
X16076297Y-22889230D01*
X16085868Y-22828798D01*
X16104074Y-22803739D01*
X16107311Y-22800501D01*
X16107314Y-22800500D01*
X16200500Y-22707314D01*
X16200503Y-22707309D01*
X16266390Y-22593190D01*
X16266390Y-22593188D01*
X16266392Y-22593186D01*
X16300500Y-22465892D01*
X16300500Y-22334108D01*
X16266392Y-22206814D01*
X16266390Y-22206811D01*
X16266390Y-22206809D01*
X16200503Y-22092690D01*
X16200501Y-22092688D01*
X16200500Y-22092686D01*
X16107314Y-21999500D01*
X16107311Y-21999498D01*
X16107309Y-21999496D01*
X15996007Y-21935236D01*
X15955066Y-21889767D01*
X15948670Y-21828917D01*
X15979263Y-21775929D01*
X16035159Y-21751042D01*
X16045507Y-21750500D01*
X16934108Y-21750500D01*
X17065892Y-21750500D01*
X20075500Y-21750500D01*
X20133691Y-21769407D01*
X20169655Y-21818907D01*
X20174500Y-21849500D01*
X20174500Y-22283489D01*
X20190281Y-22383125D01*
X20190283Y-22383132D01*
X20251470Y-22503217D01*
X20251472Y-22503220D01*
X20346780Y-22598528D01*
X20346782Y-22598529D01*
X20466867Y-22659716D01*
X20466869Y-22659716D01*
X20466874Y-22659719D01*
X20542541Y-22671703D01*
X20566510Y-22675500D01*
X20566512Y-22675500D01*
X21083490Y-22675500D01*
X21104885Y-22672111D01*
X21183126Y-22659719D01*
X21303220Y-22598528D01*
X21398528Y-22503220D01*
X21459719Y-22383126D01*
X21475500Y-22283488D01*
X21475500Y-21716512D01*
X21459719Y-21616874D01*
X21459716Y-21616869D01*
X21459716Y-21616867D01*
X21398529Y-21496782D01*
X21398528Y-21496780D01*
X21324614Y-21422866D01*
X21298994Y-21378489D01*
X21275159Y-21289535D01*
X21275159Y-21289534D01*
X21275159Y-21289533D01*
X21271298Y-21275125D01*
X21274499Y-21214023D01*
X21313003Y-21166473D01*
X21366924Y-21150500D01*
X22465890Y-21150500D01*
X22465892Y-21150500D01*
X22593186Y-21116392D01*
X22593188Y-21116390D01*
X22593190Y-21116390D01*
X22707309Y-21050503D01*
X22707309Y-21050502D01*
X22707314Y-21050500D01*
X22800500Y-20957314D01*
X22866392Y-20843186D01*
X22900500Y-20715892D01*
X22900500Y-20593648D01*
X22913763Y-20544149D01*
X22914965Y-20542066D01*
X22930021Y-20515989D01*
X22950500Y-20439562D01*
X22950500Y-20139627D01*
X22969407Y-20081436D01*
X22994495Y-20057314D01*
X23077112Y-20002112D01*
X23135240Y-19915117D01*
X23150500Y-19838401D01*
X23150499Y-19661600D01*
X23150499Y-19661599D01*
X23150499Y-19661592D01*
X23150263Y-19659194D01*
X23150499Y-19658118D01*
X23150499Y-19656737D01*
X23150802Y-19656736D01*
X23163381Y-19599432D01*
X23209121Y-19558794D01*
X23248787Y-19550500D01*
X23269410Y-19550500D01*
X23327601Y-19569407D01*
X23363565Y-19618907D01*
X23365035Y-19623872D01*
X23375143Y-19661595D01*
X23383609Y-19693190D01*
X23449496Y-19807309D01*
X23449500Y-19807314D01*
X23549499Y-19907314D01*
X23642685Y-20000499D01*
X23642690Y-20000503D01*
X23756810Y-20066390D01*
X23756808Y-20066390D01*
X23756812Y-20066391D01*
X23756814Y-20066392D01*
X23884107Y-20100500D01*
X23884108Y-20100500D01*
X23884109Y-20100500D01*
X24965890Y-20100500D01*
X24965892Y-20100500D01*
X25093186Y-20066392D01*
X25093188Y-20066390D01*
X25093190Y-20066390D01*
X25207309Y-20000503D01*
X25207309Y-20000502D01*
X25207314Y-20000500D01*
X26600500Y-18607314D01*
X26606095Y-18597623D01*
X26666390Y-18493190D01*
X26666390Y-18493188D01*
X26666392Y-18493186D01*
X26700500Y-18365892D01*
X26700500Y-18234107D01*
X26700500Y-11734108D01*
X26666392Y-11606814D01*
X26666390Y-11606811D01*
X26666390Y-11606809D01*
X26600503Y-11492690D01*
X26600499Y-11492685D01*
X26507314Y-11399499D01*
X26507314Y-11399500D01*
X25869687Y-10761873D01*
X25841911Y-10707358D01*
X25823829Y-10593186D01*
X25819710Y-10567178D01*
X25817023Y-10558907D01*
X25758884Y-10379975D01*
X25669524Y-10204595D01*
X25553828Y-10045354D01*
X25414646Y-9906172D01*
X25255405Y-9790476D01*
X25255404Y-9790475D01*
X25255402Y-9790474D01*
X25080025Y-9701116D01*
X24892821Y-9640289D01*
X24698420Y-9609500D01*
X24698417Y-9609500D01*
X24501583Y-9609500D01*
X24501580Y-9609500D01*
X24307178Y-9640289D01*
X24119974Y-9701116D01*
X23944597Y-9790474D01*
X23785355Y-9906171D01*
X23646171Y-10045355D01*
X23530474Y-10204597D01*
X23441116Y-10379974D01*
X23380289Y-10567178D01*
X23349500Y-10761579D01*
X23349500Y-10958420D01*
X23380289Y-11152821D01*
X23441116Y-11340025D01*
X23528432Y-11511395D01*
X23530476Y-11515405D01*
X23646172Y-11674646D01*
X23785354Y-11813828D01*
X23944595Y-11929524D01*
X23944597Y-11929525D01*
X24008902Y-11962290D01*
X24052167Y-12005555D01*
X24061738Y-12065987D01*
X24033961Y-12120504D01*
X23979444Y-12148281D01*
X23963957Y-12149500D01*
X23530252Y-12149500D01*
X23530251Y-12149500D01*
X23530241Y-12149501D01*
X23471772Y-12161132D01*
X23471766Y-12161134D01*
X23405451Y-12205445D01*
X23405445Y-12205451D01*
X23361134Y-12271766D01*
X23361132Y-12271772D01*
X23349501Y-12330241D01*
X23349500Y-12330253D01*
X23349500Y-14469746D01*
X23349501Y-14469758D01*
X23361132Y-14528227D01*
X23361134Y-14528233D01*
X23405445Y-14594548D01*
X23405448Y-14594552D01*
X23471769Y-14638867D01*
X23516231Y-14647711D01*
X23530241Y-14650498D01*
X23530246Y-14650498D01*
X23530252Y-14650500D01*
X23900500Y-14650500D01*
X23958691Y-14669407D01*
X23994655Y-14718907D01*
X23999500Y-14749500D01*
X23999500Y-18350500D01*
X23980593Y-18408691D01*
X23931093Y-18444655D01*
X23900500Y-18449500D01*
X23033324Y-18449500D01*
X22995442Y-18441966D01*
X22990119Y-18439761D01*
X22990117Y-18439760D01*
X22990113Y-18439759D01*
X22913410Y-18424501D01*
X22913402Y-18424500D01*
X22913401Y-18424500D01*
X22913400Y-18424500D01*
X22386602Y-18424500D01*
X22386595Y-18424501D01*
X22309883Y-18439759D01*
X22309881Y-18439760D01*
X22222890Y-18497886D01*
X22222886Y-18497890D01*
X22164762Y-18584879D01*
X22164759Y-18584886D01*
X22149501Y-18661589D01*
X22149500Y-18661599D01*
X22149500Y-18838397D01*
X22149501Y-18838399D01*
X22164759Y-18915115D01*
X22164759Y-18915116D01*
X22164760Y-18915117D01*
X22184726Y-18944999D01*
X22201334Y-19003887D01*
X22184727Y-19054999D01*
X22164761Y-19084880D01*
X22164759Y-19084886D01*
X22149501Y-19161589D01*
X22149500Y-19161599D01*
X22149500Y-19338397D01*
X22149501Y-19338404D01*
X22164759Y-19415115D01*
X22164759Y-19415116D01*
X22164760Y-19415117D01*
X22184726Y-19444999D01*
X22201334Y-19503887D01*
X22184727Y-19554999D01*
X22164761Y-19584880D01*
X22164759Y-19584886D01*
X22149501Y-19661589D01*
X22149500Y-19661599D01*
X22149500Y-19838397D01*
X22149501Y-19838404D01*
X22164759Y-19915116D01*
X22164760Y-19915118D01*
X22218469Y-19995498D01*
X22235078Y-20054386D01*
X22213901Y-20111790D01*
X22163027Y-20145783D01*
X22136154Y-20149500D01*
X21263846Y-20149500D01*
X21205655Y-20130593D01*
X21169691Y-20081093D01*
X21169691Y-20019907D01*
X21181531Y-19995498D01*
X21186067Y-19988710D01*
X21235240Y-19915117D01*
X21250500Y-19838401D01*
X21250499Y-19661600D01*
X21235240Y-19584883D01*
X21215273Y-19555001D01*
X21198665Y-19496114D01*
X21215274Y-19444998D01*
X21235238Y-19415120D01*
X21235238Y-19415119D01*
X21235240Y-19415117D01*
X21250500Y-19338401D01*
X21250499Y-19161600D01*
X21235240Y-19084883D01*
X21228970Y-19075500D01*
X21215274Y-19055002D01*
X21198665Y-18996114D01*
X21215274Y-18944998D01*
X21235238Y-18915120D01*
X21235238Y-18915119D01*
X21235240Y-18915117D01*
X21250500Y-18838401D01*
X21250499Y-18661600D01*
X21235240Y-18584883D01*
X21235237Y-18584879D01*
X21215274Y-18555002D01*
X21198665Y-18496114D01*
X21215274Y-18444998D01*
X21235238Y-18415120D01*
X21235238Y-18415119D01*
X21235240Y-18415117D01*
X21250500Y-18338401D01*
X21250499Y-18161600D01*
X21235240Y-18084883D01*
X21235237Y-18084879D01*
X21199612Y-18031562D01*
X21177112Y-17997888D01*
X21177108Y-17997885D01*
X21119498Y-17959391D01*
X21081619Y-17911341D01*
X21075500Y-17877076D01*
X21075500Y-15557148D01*
X21075500Y-15557147D01*
X21053318Y-15474362D01*
X21010465Y-15400138D01*
X21009823Y-15399496D01*
X20949862Y-15339534D01*
X20949862Y-15339535D01*
X18179496Y-12569169D01*
X18151719Y-12514652D01*
X18150500Y-12499165D01*
X18150500Y-12346741D01*
X18150241Y-12343168D01*
X18151968Y-12343042D01*
X18160110Y-12295388D01*
X18143776Y-12282791D01*
X18136559Y-12270396D01*
X18132617Y-12262334D01*
X18312830Y-12262334D01*
X18319696Y-12265939D01*
X18342291Y-12302388D01*
X18372207Y-12387883D01*
X18452845Y-12497144D01*
X18452847Y-12497146D01*
X18452850Y-12497150D01*
X18452853Y-12497152D01*
X18452855Y-12497154D01*
X18562116Y-12577792D01*
X18562117Y-12577792D01*
X18562118Y-12577793D01*
X18690301Y-12622646D01*
X18720725Y-12625499D01*
X18720727Y-12625500D01*
X18720734Y-12625500D01*
X20079273Y-12625500D01*
X20079273Y-12625499D01*
X20109699Y-12622646D01*
X20237882Y-12577793D01*
X20347150Y-12497150D01*
X20427793Y-12387882D01*
X20472646Y-12259699D01*
X20475499Y-12229273D01*
X20475500Y-12229273D01*
X20475500Y-11495727D01*
X20475499Y-11495725D01*
X20472646Y-11465301D01*
X20427793Y-11337118D01*
X20427454Y-11336659D01*
X20347154Y-11227855D01*
X20347152Y-11227853D01*
X20347150Y-11227850D01*
X20347146Y-11227847D01*
X20347144Y-11227845D01*
X20237883Y-11147207D01*
X20109703Y-11102355D01*
X20109694Y-11102353D01*
X20079274Y-11099500D01*
X20079266Y-11099500D01*
X19918750Y-11099500D01*
X19860559Y-11080593D01*
X19824595Y-11031093D01*
X19824595Y-10969907D01*
X19833013Y-10951000D01*
X19837813Y-10942686D01*
X19866392Y-10893186D01*
X19900500Y-10765892D01*
X19900500Y-10634108D01*
X19866392Y-10506814D01*
X19866390Y-10506811D01*
X19866390Y-10506809D01*
X19800503Y-10392690D01*
X19800501Y-10392688D01*
X19800500Y-10392686D01*
X19707314Y-10299500D01*
X19707311Y-10299498D01*
X19707309Y-10299496D01*
X19593189Y-10233609D01*
X19593191Y-10233609D01*
X19543799Y-10220375D01*
X19465892Y-10199500D01*
X19334108Y-10199500D01*
X19256200Y-10220375D01*
X19206809Y-10233609D01*
X19092690Y-10299496D01*
X18999496Y-10392690D01*
X18933609Y-10506809D01*
X18919650Y-10558907D01*
X18899500Y-10634108D01*
X18899500Y-10765892D01*
X18914213Y-10820801D01*
X18933608Y-10893187D01*
X18966987Y-10951000D01*
X18979708Y-11010848D01*
X18954821Y-11066744D01*
X18901833Y-11097337D01*
X18881250Y-11099500D01*
X18720725Y-11099500D01*
X18690305Y-11102353D01*
X18690296Y-11102355D01*
X18562116Y-11147207D01*
X18452855Y-11227845D01*
X18452845Y-11227855D01*
X18372207Y-11337116D01*
X18348020Y-11406238D01*
X18348019Y-11406240D01*
X18327354Y-11465301D01*
X18324500Y-11495734D01*
X18324500Y-12228347D01*
X18324460Y-12229746D01*
X18312830Y-12262334D01*
X18132617Y-12262334D01*
X18131331Y-12259703D01*
X18089198Y-12173517D01*
X18006483Y-12090802D01*
X17995204Y-12085288D01*
X17901395Y-12039427D01*
X17874139Y-12035456D01*
X17833260Y-12029500D01*
X17833257Y-12029500D01*
X17424500Y-12029500D01*
X17366309Y-12010593D01*
X17330345Y-11961093D01*
X17325500Y-11930500D01*
X17325500Y-11859500D01*
X17344407Y-11801309D01*
X17393907Y-11765345D01*
X17424500Y-11760500D01*
X17833257Y-11760500D01*
X17833260Y-11760500D01*
X17901393Y-11750573D01*
X18006483Y-11699198D01*
X18089198Y-11616483D01*
X18140573Y-11511393D01*
X18150500Y-11443260D01*
X18150500Y-11076740D01*
X18140573Y-11008607D01*
X18140027Y-11007491D01*
X18089198Y-10903518D01*
X18089198Y-10903517D01*
X18006483Y-10820802D01*
X18006481Y-10820801D01*
X17901395Y-10769427D01*
X17868476Y-10764631D01*
X17833260Y-10759500D01*
X17833257Y-10759500D01*
X17541843Y-10759500D01*
X17483652Y-10740593D01*
X17447688Y-10691093D01*
X17447688Y-10629907D01*
X17456104Y-10611003D01*
X17466392Y-10593186D01*
X17473362Y-10567174D01*
X17474246Y-10563876D01*
X17507570Y-10512562D01*
X17564692Y-10490636D01*
X17569872Y-10490500D01*
X17833257Y-10490500D01*
X17833260Y-10490500D01*
X17901393Y-10480573D01*
X18006483Y-10429198D01*
X18089198Y-10346483D01*
X18140573Y-10241393D01*
X18150500Y-10173260D01*
X18150500Y-9806740D01*
X18140573Y-9738607D01*
X18138374Y-9734109D01*
X18115483Y-9687285D01*
X18089198Y-9633517D01*
X18006483Y-9550802D01*
X18005499Y-9550321D01*
X17901395Y-9499427D01*
X17874139Y-9495456D01*
X17833260Y-9489500D01*
X17833257Y-9489500D01*
X17599500Y-9489500D01*
X17541309Y-9470593D01*
X17505345Y-9421093D01*
X17500500Y-9390500D01*
X17500500Y-7999500D01*
X17519407Y-7941309D01*
X17568907Y-7905345D01*
X17599500Y-7900500D01*
X18254273Y-7900500D01*
X18254273Y-7900499D01*
X18284699Y-7897646D01*
X18412882Y-7852793D01*
X18522150Y-7772150D01*
X18602793Y-7662882D01*
X18647646Y-7534699D01*
X18650499Y-7504273D01*
X18650500Y-7504273D01*
X18650500Y-4895727D01*
X18650499Y-4895725D01*
X18647646Y-4865305D01*
X18647646Y-4865301D01*
X18602793Y-4737118D01*
X18602793Y-4737117D01*
X18599748Y-4731356D01*
X18589274Y-4671074D01*
X18616234Y-4616148D01*
X18670330Y-4587559D01*
X18730898Y-4596227D01*
X18757280Y-4615094D01*
X19749500Y-5607314D01*
X19749499Y-5607314D01*
X19842685Y-5700499D01*
X19842690Y-5700503D01*
X19956810Y-5766390D01*
X19956808Y-5766390D01*
X19956812Y-5766391D01*
X19956814Y-5766392D01*
X20084108Y-5800500D01*
X23250500Y-5800500D01*
X23308691Y-5819407D01*
X23344655Y-5868907D01*
X23349500Y-5899500D01*
X23349500Y-6369746D01*
X23349501Y-6369758D01*
X23361132Y-6428227D01*
X23361133Y-6428231D01*
X23405448Y-6494552D01*
X23471769Y-6538867D01*
X23516231Y-6547711D01*
X23530241Y-6550498D01*
X23530246Y-6550498D01*
X23530252Y-6550500D01*
X23530253Y-6550500D01*
X25669747Y-6550500D01*
X25669748Y-6550500D01*
X25728231Y-6538867D01*
X25794552Y-6494552D01*
X25838867Y-6428231D01*
X25850500Y-6369748D01*
X25850500Y-4230252D01*
X25838867Y-4171769D01*
X25794552Y-4105448D01*
X25794548Y-4105445D01*
X25728233Y-4061134D01*
X25728231Y-4061133D01*
X25728228Y-4061132D01*
X25728227Y-4061132D01*
X25669758Y-4049501D01*
X25669748Y-4049500D01*
X23530252Y-4049500D01*
X23530251Y-4049500D01*
X23530241Y-4049501D01*
X23471772Y-4061132D01*
X23471766Y-4061134D01*
X23405451Y-4105445D01*
X23405445Y-4105451D01*
X23361134Y-4171766D01*
X23361132Y-4171772D01*
X23349501Y-4230241D01*
X23349500Y-4230253D01*
X23349500Y-4700500D01*
X23330593Y-4758691D01*
X23281093Y-4794655D01*
X23250500Y-4799500D01*
X20398322Y-4799500D01*
X20340131Y-4780593D01*
X20328318Y-4770504D01*
X19675906Y-4118092D01*
X19007314Y-3449500D01*
X19007311Y-3449498D01*
X19007310Y-3449497D01*
X19007309Y-3449496D01*
X18893189Y-3383609D01*
X18893191Y-3383609D01*
X18843799Y-3370375D01*
X18765892Y-3349500D01*
X18765890Y-3349500D01*
X16498322Y-3349500D01*
X16440131Y-3330593D01*
X16428318Y-3320504D01*
X15663259Y-2555445D01*
X14857314Y-1749500D01*
X14857311Y-1749498D01*
X14857310Y-1749497D01*
X14857309Y-1749496D01*
X14743189Y-1683609D01*
X14743191Y-1683609D01*
X14693799Y-1670375D01*
X14615892Y-1649500D01*
X5215892Y-1649500D01*
X5084107Y-1649500D01*
X5006200Y-1670374D01*
X4956809Y-1683609D01*
X4842690Y-1749496D01*
X4121682Y-2470504D01*
X4067165Y-2498281D01*
X4051678Y-2499500D01*
X1980252Y-2499500D01*
X1980251Y-2499500D01*
X1980241Y-2499501D01*
X1921772Y-2511132D01*
X1921766Y-2511134D01*
X1855451Y-2555445D01*
X1855445Y-2555451D01*
X1811134Y-2621766D01*
X1811132Y-2621772D01*
X1799501Y-2680241D01*
X1799500Y-2680253D01*
X1799500Y-5319746D01*
X1799501Y-5319758D01*
X1811132Y-5378227D01*
X1811134Y-5378233D01*
X1855445Y-5444548D01*
X1855448Y-5444552D01*
X1921769Y-5488867D01*
X1966231Y-5497711D01*
X1980241Y-5500498D01*
X1980246Y-5500498D01*
X1980252Y-5500500D01*
X1980253Y-5500500D01*
X4619747Y-5500500D01*
X4619748Y-5500500D01*
X4678231Y-5488867D01*
X4744552Y-5444552D01*
X4788867Y-5378231D01*
X4800500Y-5319748D01*
X4800500Y-3248322D01*
X4819407Y-3190131D01*
X4829496Y-3178318D01*
X5328318Y-2679496D01*
X5382835Y-2651719D01*
X5398322Y-2650500D01*
X6999934Y-2650500D01*
X7058125Y-2669407D01*
X7094089Y-2718907D01*
X7094089Y-2780093D01*
X7058125Y-2829592D01*
X7022495Y-2855478D01*
X6855482Y-3022491D01*
X6716655Y-3213569D01*
X6609432Y-3424007D01*
X6536445Y-3648636D01*
X6499500Y-3881904D01*
X6499500Y-4118095D01*
X6536445Y-4351363D01*
X6609432Y-4575992D01*
X6708540Y-4770504D01*
X6716657Y-4786433D01*
X6855483Y-4977510D01*
X7022490Y-5144517D01*
X7213567Y-5283343D01*
X7424008Y-5390568D01*
X7431088Y-5392868D01*
X7480590Y-5428829D01*
X7499500Y-5487019D01*
X7499500Y-7601678D01*
X7480593Y-7659869D01*
X7470504Y-7671681D01*
X6942686Y-8199499D01*
X6942686Y-8199500D01*
X6321682Y-8820504D01*
X6267165Y-8848281D01*
X6251678Y-8849500D01*
X4548322Y-8849500D01*
X4490131Y-8830593D01*
X4478318Y-8820504D01*
X4399656Y-8741842D01*
X4371879Y-8687325D01*
X4371879Y-8656349D01*
X4375500Y-8633489D01*
X4375500Y-8066510D01*
X4364886Y-7999500D01*
X4359719Y-7966874D01*
X4359716Y-7966869D01*
X4359716Y-7966867D01*
X4298529Y-7846782D01*
X4298528Y-7846780D01*
X4203220Y-7751472D01*
X4203217Y-7751470D01*
X4083132Y-7690283D01*
X4083127Y-7690281D01*
X4083126Y-7690281D01*
X4049913Y-7685020D01*
X3983490Y-7674500D01*
X3983488Y-7674500D01*
X3466512Y-7674500D01*
X3466510Y-7674500D01*
X3366874Y-7690281D01*
X3366867Y-7690283D01*
X3246782Y-7751470D01*
X3151470Y-7846782D01*
X3090283Y-7966867D01*
X3090281Y-7966874D01*
X3074500Y-8066510D01*
X3074500Y-8633489D01*
X3090281Y-8733125D01*
X3090283Y-8733132D01*
X3151470Y-8853217D01*
X3151473Y-8853221D01*
X3214147Y-8915896D01*
X3229112Y-8938289D01*
X3230363Y-8937567D01*
X3299496Y-9057309D01*
X3299498Y-9057311D01*
X3299500Y-9057314D01*
X3399679Y-9157493D01*
X3427455Y-9212008D01*
X3417884Y-9272440D01*
X3374619Y-9315705D01*
X3314187Y-9325276D01*
X3304052Y-9323122D01*
X3269093Y-9313755D01*
X3215892Y-9299500D01*
X3084108Y-9299500D01*
X3023630Y-9315705D01*
X2956809Y-9333609D01*
X2842690Y-9399496D01*
X2842684Y-9399500D01*
X2796681Y-9445504D01*
X2742164Y-9473281D01*
X2726678Y-9474500D01*
X2248932Y-9474500D01*
X2248916Y-9474499D01*
X2242853Y-9474499D01*
X2157147Y-9474499D01*
X2157144Y-9474499D01*
X2113755Y-9486126D01*
X2088131Y-9489500D01*
X1166740Y-9489500D01*
X1132673Y-9494463D01*
X1098604Y-9499427D01*
X993518Y-9550801D01*
X910801Y-9633518D01*
X859427Y-9738604D01*
X854463Y-9772673D01*
X849500Y-9806740D01*
X350000Y-9806740D01*
X350000Y-449000D01*
X368907Y-390809D01*
X418407Y-354845D01*
X449000Y-350000D01*
X27551000Y-350000D01*
X27609191Y-368907D01*
G37*
%TD.AperFunction*%
%TD*%
M02*
