%TF.GenerationSoftware,KiCad,Pcbnew,10.0.6*%
%TF.CreationDate,2026-09-09T21:57:27+08:00*%
%TF.ProjectId,mode2-no-firmware,6d6f6465-322d-46e6-9f2d-6669726d7761,rev?*%
%TF.SameCoordinates,Original*%
%TF.FileFunction,Copper,L2,Bot*%
%TF.FilePolarity,Positive*%
%FSLAX46Y46*%
G04 Gerber Fmt 4.6, Leading zero omitted, Abs format (unit mm)*
G04 Created by KiCad (PCBNEW 10.0.6) date 2026-09-09 21:57:27*
%MOMM*%
%LPD*%
G01*
G04 APERTURE LIST*
%TA.AperFunction,ComponentPad*%
%ADD10R,2.100000X2.100000*%
%TD*%
%TA.AperFunction,ComponentPad*%
%ADD11C,2.100000*%
%TD*%
%TA.AperFunction,HeatsinkPad*%
%ADD12C,0.500000*%
%TD*%
%TA.AperFunction,HeatsinkPad*%
%ADD13R,0.500000X1.600000*%
%TD*%
%TA.AperFunction,ComponentPad*%
%ADD14R,2.600000X2.600000*%
%TD*%
%TA.AperFunction,ComponentPad*%
%ADD15C,2.600000*%
%TD*%
%TA.AperFunction,ViaPad*%
%ADD16C,0.600000*%
%TD*%
%TA.AperFunction,Conductor*%
%ADD17C,0.600000*%
%TD*%
%TA.AperFunction,Conductor*%
%ADD18C,0.250000*%
%TD*%
G04 APERTURE END LIST*
D10*
%TO.P,P3,1*%
%TO.N,/SW2*%
X9000000Y-24500000D03*
D11*
%TO.P,P3,2*%
%TO.N,/GND*%
X11540000Y-24500000D03*
%TD*%
D10*
%TO.P,P4,1*%
%TO.N,/M1*%
X24600000Y-13400000D03*
D11*
%TO.P,P4,2*%
%TO.N,/M2*%
X24600000Y-10860000D03*
%TD*%
D12*
%TO.P,U3,9*%
%TO.N,/GND*%
X21700000Y-19550000D03*
D13*
X21700000Y-19000000D03*
D12*
X21700000Y-18450000D03*
%TD*%
D14*
%TO.P,S0,1*%
%TO.N,/BATT+*%
X3300000Y-4000000D03*
D15*
%TO.P,S0,2*%
%TO.N,/VCC*%
X8000000Y-4000000D03*
%TO.P,S0,3*%
%TO.N,/DISCH*%
X12700000Y-4000000D03*
%TD*%
D10*
%TO.P,P1,1*%
%TO.N,/BATT+*%
X24600000Y-5300000D03*
D11*
%TO.P,P1,2*%
%TO.N,/GND*%
X24600000Y-2760000D03*
%TD*%
D10*
%TO.P,P2,1*%
%TO.N,/SW1*%
X2500000Y-24500000D03*
D11*
%TO.P,P2,2*%
%TO.N,/GND*%
X5040000Y-24500000D03*
%TD*%
D16*
%TO.N,/VCC*%
X15450000Y-13800000D03*
X17000000Y-14650000D03*
X17000000Y-21250000D03*
X17000000Y-10400000D03*
X17000000Y-15500000D03*
%TO.N,/GND*%
X15300000Y-8950000D03*
%TO.N,/SW2*%
X9000000Y-21550000D03*
X9600000Y-19850000D03*
X12250000Y-19850000D03*
X8400000Y-19850000D03*
%TO.N,/RESET_N*%
X7350000Y-17200000D03*
X11600000Y-10400000D03*
%TO.N,/NOT_REV*%
X14350000Y-17600000D03*
X12250000Y-11700000D03*
%TO.N,/CLK1*%
X3150000Y-11250000D03*
X10000000Y-12550000D03*
%TO.N,/RUN*%
X12400000Y-14650000D03*
X14500000Y-12550000D03*
%TO.N,/REV*%
X16150000Y-16750000D03*
X16150000Y-19200000D03*
%TO.N,/DISCH*%
X14300000Y-5600000D03*
X19400000Y-10700000D03*
%TO.N,/POR_RC*%
X1750000Y-15500000D03*
X15800000Y-20100000D03*
X15800000Y-22400000D03*
X14900000Y-19200000D03*
%TO.N,/SW1*%
X10000000Y-16250000D03*
X3300000Y-23100000D03*
X4950000Y-18550000D03*
X3300000Y-19850000D03*
%TO.N,/DB1*%
X3150000Y-9800000D03*
X8500000Y-9800000D03*
%TO.N,/DB2*%
X5250000Y-12550000D03*
X8500000Y-15800000D03*
%TO.N,/POR_INV*%
X2400000Y-16750000D03*
X6550000Y-16750000D03*
%TD*%
%TO.N,/VCC*%
D17*
X17000000Y-15500000D02*
X17000000Y-21250000D01*
X15450000Y-13800000D02*
X17000000Y-13800000D01*
X17000000Y-10400000D02*
X17000000Y-14650000D01*
%TO.N,/SW2*%
D18*
X12250000Y-19850000D02*
X9600000Y-19850000D01*
X9000000Y-21550000D02*
X9000000Y-20450000D01*
X9000000Y-20450000D02*
X8400000Y-19850000D01*
%TO.N,/RESET_N*%
X8100000Y-17200000D02*
X7350000Y-17200000D01*
X11600000Y-10400000D02*
X11600000Y-13700000D01*
X11600000Y-13700000D02*
X8100000Y-17200000D01*
%TO.N,/NOT_REV*%
X11750000Y-14300000D02*
X12250000Y-13800000D01*
X11750000Y-15000000D02*
X11750000Y-14300000D01*
X12250000Y-13800000D02*
X12250000Y-11700000D01*
X14350000Y-17600000D02*
X11750000Y-15000000D01*
%TO.N,/CLK1*%
X8700000Y-11250000D02*
X3150000Y-11250000D01*
X10000000Y-12550000D02*
X8700000Y-11250000D01*
%TO.N,/RUN*%
X14500000Y-12550000D02*
X12400000Y-14650000D01*
%TO.N,/REV*%
X16150000Y-19200000D02*
X16150000Y-16750000D01*
%TO.N,/DISCH*%
X19400000Y-10700000D02*
X14300000Y-5600000D01*
%TO.N,/POR_RC*%
X14900000Y-19200000D02*
X3850000Y-19200000D01*
X3850000Y-19200000D02*
X1750000Y-17100000D01*
X15800000Y-22400000D02*
X15800000Y-20100000D01*
X1750000Y-17100000D02*
X1750000Y-15500000D01*
%TO.N,/SW1*%
X10000000Y-16250000D02*
X7700000Y-18550000D01*
X7700000Y-18550000D02*
X4950000Y-18550000D01*
X3300000Y-19850000D02*
X3300000Y-23100000D01*
%TO.N,/DB1*%
X8500000Y-9800000D02*
X3150000Y-9800000D01*
%TO.N,/DB2*%
X8500000Y-15800000D02*
X5250000Y-12550000D01*
%TO.N,/POR_INV*%
X6550000Y-16750000D02*
X2400000Y-16750000D01*
%TD*%
%TA.AperFunction,Conductor*%
%TO.N,/GND*%
G36*
X27609191Y-368907D02*
G01*
X27645155Y-418407D01*
X27650000Y-449000D01*
X27650000Y-27551000D01*
X27631093Y-27609191D01*
X27581593Y-27645155D01*
X27551000Y-27650000D01*
X449000Y-27650000D01*
X390809Y-27631093D01*
X354845Y-27581593D01*
X350000Y-27551000D01*
X350000Y-15434108D01*
X1249500Y-15434108D01*
X1249500Y-15565892D01*
X1260464Y-15606810D01*
X1283609Y-15693190D01*
X1349496Y-15807309D01*
X1349498Y-15807311D01*
X1349500Y-15807314D01*
X1395505Y-15853319D01*
X1423281Y-15907834D01*
X1424500Y-15923321D01*
X1424500Y-17057147D01*
X1424500Y-17142853D01*
X1426549Y-17150499D01*
X1446683Y-17225643D01*
X1489531Y-17299857D01*
X1489532Y-17299858D01*
X1489533Y-17299859D01*
X1489535Y-17299862D01*
X2432359Y-18242686D01*
X3370169Y-19180496D01*
X3397946Y-19235013D01*
X3388375Y-19295445D01*
X3345110Y-19338710D01*
X3300165Y-19349500D01*
X3234108Y-19349500D01*
X3156200Y-19370375D01*
X3106809Y-19383609D01*
X2992690Y-19449496D01*
X2899496Y-19542690D01*
X2833609Y-19656809D01*
X2822170Y-19699500D01*
X2799500Y-19784108D01*
X2799500Y-19915892D01*
X2829579Y-20028151D01*
X2833609Y-20043190D01*
X2899496Y-20157309D01*
X2899498Y-20157311D01*
X2899500Y-20157314D01*
X2945505Y-20203319D01*
X2973281Y-20257834D01*
X2974500Y-20273321D01*
X2974500Y-22676678D01*
X2955593Y-22734869D01*
X2945504Y-22746681D01*
X2899500Y-22792684D01*
X2899496Y-22792690D01*
X2833609Y-22906809D01*
X2799500Y-23034109D01*
X2799500Y-23150500D01*
X2780593Y-23208691D01*
X2731093Y-23244655D01*
X2700500Y-23249500D01*
X1430252Y-23249500D01*
X1430251Y-23249500D01*
X1430241Y-23249501D01*
X1371772Y-23261132D01*
X1371766Y-23261134D01*
X1305451Y-23305445D01*
X1305445Y-23305451D01*
X1261134Y-23371766D01*
X1261132Y-23371772D01*
X1249501Y-23430241D01*
X1249500Y-23430253D01*
X1249500Y-25569746D01*
X1249501Y-25569758D01*
X1261132Y-25628227D01*
X1261133Y-25628231D01*
X1305448Y-25694552D01*
X1371769Y-25738867D01*
X1416231Y-25747711D01*
X1430241Y-25750498D01*
X1430246Y-25750498D01*
X1430252Y-25750500D01*
X1430253Y-25750500D01*
X3569747Y-25750500D01*
X3569748Y-25750500D01*
X3628231Y-25738867D01*
X3694552Y-25694552D01*
X3738867Y-25628231D01*
X3750500Y-25569748D01*
X3750500Y-23430253D01*
X7749500Y-23430253D01*
X7749500Y-25569746D01*
X7749501Y-25569758D01*
X7761132Y-25628227D01*
X7761133Y-25628231D01*
X7805448Y-25694552D01*
X7871769Y-25738867D01*
X7916231Y-25747711D01*
X7930241Y-25750498D01*
X7930246Y-25750498D01*
X7930252Y-25750500D01*
X7930253Y-25750500D01*
X10069747Y-25750500D01*
X10069748Y-25750500D01*
X10128231Y-25738867D01*
X10194552Y-25694552D01*
X10238867Y-25628231D01*
X10250500Y-25569748D01*
X10250500Y-23430252D01*
X10238867Y-23371769D01*
X10194552Y-23305448D01*
X10176201Y-23293186D01*
X10128233Y-23261134D01*
X10128231Y-23261133D01*
X10128228Y-23261132D01*
X10128227Y-23261132D01*
X10069758Y-23249501D01*
X10069748Y-23249500D01*
X7930252Y-23249500D01*
X7930251Y-23249500D01*
X7930241Y-23249501D01*
X7871772Y-23261132D01*
X7871766Y-23261134D01*
X7805451Y-23305445D01*
X7805445Y-23305451D01*
X7761134Y-23371766D01*
X7761132Y-23371772D01*
X7749501Y-23430241D01*
X7749500Y-23430253D01*
X3750500Y-23430253D01*
X3750500Y-23430252D01*
X3741404Y-23384526D01*
X3741270Y-23383789D01*
X3745247Y-23354201D01*
X3748754Y-23324565D01*
X3749397Y-23323321D01*
X3749421Y-23323149D01*
X3749565Y-23322997D01*
X3752916Y-23316525D01*
X3766392Y-23293186D01*
X3800500Y-23165892D01*
X3800500Y-23034108D01*
X3766392Y-22906814D01*
X3766390Y-22906811D01*
X3766390Y-22906809D01*
X3700503Y-22792690D01*
X3700499Y-22792684D01*
X3654496Y-22746681D01*
X3626719Y-22692164D01*
X3625500Y-22676678D01*
X3625500Y-20273321D01*
X3644407Y-20215130D01*
X3654490Y-20203323D01*
X3700500Y-20157314D01*
X3766392Y-20043186D01*
X3800500Y-19915892D01*
X3800500Y-19784108D01*
X3766392Y-19656814D01*
X3766391Y-19656812D01*
X3764712Y-19650546D01*
X3767697Y-19649746D01*
X3763909Y-19601348D01*
X3795901Y-19549192D01*
X3852439Y-19525802D01*
X3860164Y-19525500D01*
X3892852Y-19525500D01*
X7839836Y-19525500D01*
X7898027Y-19544407D01*
X7933991Y-19593907D01*
X7933991Y-19650198D01*
X7935288Y-19650546D01*
X7933608Y-19656812D01*
X7933608Y-19656814D01*
X7899500Y-19784108D01*
X7899500Y-19915892D01*
X7929579Y-20028151D01*
X7933609Y-20043190D01*
X7999496Y-20157309D01*
X7999498Y-20157311D01*
X7999500Y-20157314D01*
X8092686Y-20250500D01*
X8092688Y-20250501D01*
X8092690Y-20250503D01*
X8206810Y-20316390D01*
X8206808Y-20316390D01*
X8206812Y-20316391D01*
X8206814Y-20316392D01*
X8334108Y-20350500D01*
X8399165Y-20350500D01*
X8457356Y-20369407D01*
X8469169Y-20379496D01*
X8645504Y-20555831D01*
X8673281Y-20610348D01*
X8674500Y-20625835D01*
X8674500Y-21126678D01*
X8655593Y-21184869D01*
X8645504Y-21196681D01*
X8599500Y-21242684D01*
X8599496Y-21242690D01*
X8533609Y-21356809D01*
X8533608Y-21356814D01*
X8499500Y-21484108D01*
X8499500Y-21615892D01*
X8508773Y-21650500D01*
X8533609Y-21743190D01*
X8599496Y-21857309D01*
X8599498Y-21857311D01*
X8599500Y-21857314D01*
X8692686Y-21950500D01*
X8692688Y-21950501D01*
X8692690Y-21950503D01*
X8806810Y-22016390D01*
X8806808Y-22016390D01*
X8806812Y-22016391D01*
X8806814Y-22016392D01*
X8934108Y-22050500D01*
X8934110Y-22050500D01*
X9065890Y-22050500D01*
X9065892Y-22050500D01*
X9193186Y-22016392D01*
X9193188Y-22016390D01*
X9193190Y-22016390D01*
X9307309Y-21950503D01*
X9307309Y-21950502D01*
X9307314Y-21950500D01*
X9400500Y-21857314D01*
X9400503Y-21857309D01*
X9466390Y-21743190D01*
X9466390Y-21743188D01*
X9466392Y-21743186D01*
X9500500Y-21615892D01*
X9500500Y-21484108D01*
X9466392Y-21356814D01*
X9466390Y-21356811D01*
X9466390Y-21356809D01*
X9400503Y-21242690D01*
X9400499Y-21242684D01*
X9354496Y-21196681D01*
X9326719Y-21142164D01*
X9325500Y-21126678D01*
X9325500Y-20423622D01*
X9344407Y-20365431D01*
X9393907Y-20329467D01*
X9450121Y-20327996D01*
X9534108Y-20350500D01*
X9534109Y-20350500D01*
X9665890Y-20350500D01*
X9665892Y-20350500D01*
X9793186Y-20316392D01*
X9793188Y-20316390D01*
X9793190Y-20316390D01*
X9907309Y-20250503D01*
X9907310Y-20250502D01*
X9907314Y-20250500D01*
X9925500Y-20232314D01*
X9953319Y-20204496D01*
X10007836Y-20176719D01*
X10023322Y-20175500D01*
X11826678Y-20175500D01*
X11884869Y-20194407D01*
X11896681Y-20204496D01*
X11942684Y-20250499D01*
X11942690Y-20250503D01*
X12056810Y-20316390D01*
X12056808Y-20316390D01*
X12056812Y-20316391D01*
X12056814Y-20316392D01*
X12184108Y-20350500D01*
X12184110Y-20350500D01*
X12315890Y-20350500D01*
X12315892Y-20350500D01*
X12443186Y-20316392D01*
X12443188Y-20316390D01*
X12443190Y-20316390D01*
X12557309Y-20250503D01*
X12557309Y-20250502D01*
X12557314Y-20250500D01*
X12650500Y-20157314D01*
X12716392Y-20043186D01*
X12750500Y-19915892D01*
X12750500Y-19784108D01*
X12716392Y-19656814D01*
X12716391Y-19656812D01*
X12714712Y-19650546D01*
X12717697Y-19649746D01*
X12713909Y-19601348D01*
X12745901Y-19549192D01*
X12802439Y-19525802D01*
X12810164Y-19525500D01*
X14476678Y-19525500D01*
X14534869Y-19544407D01*
X14546681Y-19554496D01*
X14592684Y-19600499D01*
X14592690Y-19600503D01*
X14706810Y-19666390D01*
X14706808Y-19666390D01*
X14706812Y-19666391D01*
X14706814Y-19666392D01*
X14834108Y-19700500D01*
X14834110Y-19700500D01*
X14965890Y-19700500D01*
X14965892Y-19700500D01*
X15093186Y-19666392D01*
X15093188Y-19666390D01*
X15093190Y-19666390D01*
X15207309Y-19600503D01*
X15207309Y-19600502D01*
X15207314Y-19600500D01*
X15300500Y-19507314D01*
X15320979Y-19471843D01*
X15366390Y-19393190D01*
X15366390Y-19393188D01*
X15366392Y-19393186D01*
X15400500Y-19265892D01*
X15400500Y-19134108D01*
X15366392Y-19006814D01*
X15366390Y-19006811D01*
X15366390Y-19006809D01*
X15300503Y-18892690D01*
X15300501Y-18892688D01*
X15300500Y-18892686D01*
X15207314Y-18799500D01*
X15207311Y-18799498D01*
X15207309Y-18799496D01*
X15093189Y-18733609D01*
X15093191Y-18733609D01*
X15043799Y-18720375D01*
X14965892Y-18699500D01*
X14834108Y-18699500D01*
X14756200Y-18720375D01*
X14706809Y-18733609D01*
X14592690Y-18799496D01*
X14592684Y-18799500D01*
X14546681Y-18845504D01*
X14492164Y-18873281D01*
X14476678Y-18874500D01*
X8074834Y-18874500D01*
X8016643Y-18855593D01*
X7980679Y-18806093D01*
X7980679Y-18744907D01*
X8004828Y-18705498D01*
X9930831Y-16779496D01*
X9985348Y-16751719D01*
X10000835Y-16750500D01*
X10065890Y-16750500D01*
X10065892Y-16750500D01*
X10193186Y-16716392D01*
X10193188Y-16716390D01*
X10193190Y-16716390D01*
X10307309Y-16650503D01*
X10307309Y-16650502D01*
X10307314Y-16650500D01*
X10400500Y-16557314D01*
X10400792Y-16556809D01*
X10466390Y-16443190D01*
X10466390Y-16443188D01*
X10466392Y-16443186D01*
X10500500Y-16315892D01*
X10500500Y-16184108D01*
X10466392Y-16056814D01*
X10466390Y-16056811D01*
X10466390Y-16056809D01*
X10400503Y-15942690D01*
X10400501Y-15942688D01*
X10400500Y-15942686D01*
X10307314Y-15849500D01*
X10307311Y-15849498D01*
X10307309Y-15849496D01*
X10193189Y-15783609D01*
X10193185Y-15783607D01*
X10188093Y-15782243D01*
X10136779Y-15748919D01*
X10114853Y-15691797D01*
X10130689Y-15632697D01*
X10143708Y-15616618D01*
X11255496Y-14504831D01*
X11310013Y-14477054D01*
X11370445Y-14486625D01*
X11413710Y-14529890D01*
X11424500Y-14574835D01*
X11424500Y-14957147D01*
X11424500Y-15042853D01*
X11426549Y-15050500D01*
X11446683Y-15125643D01*
X11489531Y-15199857D01*
X11489533Y-15199859D01*
X11489535Y-15199862D01*
X13820505Y-17530832D01*
X13848281Y-17585347D01*
X13849500Y-17600834D01*
X13849500Y-17665892D01*
X13858773Y-17700500D01*
X13883609Y-17793190D01*
X13949496Y-17907309D01*
X13949498Y-17907311D01*
X13949500Y-17907314D01*
X14042686Y-18000500D01*
X14042688Y-18000501D01*
X14042690Y-18000503D01*
X14156810Y-18066390D01*
X14156808Y-18066390D01*
X14156812Y-18066391D01*
X14156814Y-18066392D01*
X14284108Y-18100500D01*
X14284110Y-18100500D01*
X14415890Y-18100500D01*
X14415892Y-18100500D01*
X14543186Y-18066392D01*
X14543188Y-18066390D01*
X14543190Y-18066390D01*
X14657309Y-18000503D01*
X14657309Y-18000502D01*
X14657314Y-18000500D01*
X14750500Y-17907314D01*
X14816392Y-17793186D01*
X14850500Y-17665892D01*
X14850500Y-17534108D01*
X14816392Y-17406814D01*
X14816390Y-17406811D01*
X14816390Y-17406809D01*
X14750503Y-17292690D01*
X14750501Y-17292688D01*
X14750500Y-17292686D01*
X14657314Y-17199500D01*
X14657311Y-17199498D01*
X14657309Y-17199496D01*
X14543189Y-17133609D01*
X14543191Y-17133609D01*
X14493799Y-17120375D01*
X14415892Y-17099500D01*
X14415890Y-17099500D01*
X14350835Y-17099500D01*
X14292644Y-17080593D01*
X14280831Y-17070504D01*
X12504279Y-15293952D01*
X12476502Y-15239435D01*
X12486073Y-15179003D01*
X12529338Y-15135738D01*
X12548652Y-15128324D01*
X12593186Y-15116392D01*
X12707314Y-15050500D01*
X12800500Y-14957314D01*
X12800503Y-14957309D01*
X12866390Y-14843190D01*
X12866390Y-14843188D01*
X12866392Y-14843186D01*
X12900500Y-14715892D01*
X12900500Y-14650835D01*
X12919407Y-14592644D01*
X12929496Y-14580831D01*
X13776219Y-13734108D01*
X14949500Y-13734108D01*
X14949500Y-13865892D01*
X14965509Y-13925639D01*
X14983609Y-13993190D01*
X15049496Y-14107309D01*
X15049498Y-14107311D01*
X15049500Y-14107314D01*
X15142686Y-14200500D01*
X15142688Y-14200501D01*
X15142690Y-14200503D01*
X15256810Y-14266390D01*
X15256808Y-14266390D01*
X15256812Y-14266391D01*
X15256814Y-14266392D01*
X15384108Y-14300500D01*
X16400500Y-14300500D01*
X16458691Y-14319407D01*
X16494655Y-14368907D01*
X16499500Y-14399500D01*
X16499500Y-14715892D01*
X16529579Y-14828151D01*
X16533609Y-14843190D01*
X16599496Y-14957309D01*
X16599498Y-14957311D01*
X16599500Y-14957314D01*
X16647184Y-15004998D01*
X16674960Y-15059513D01*
X16665389Y-15119945D01*
X16647185Y-15145000D01*
X16613183Y-15179003D01*
X16599497Y-15192689D01*
X16599496Y-15192690D01*
X16533609Y-15306809D01*
X16499500Y-15434109D01*
X16499500Y-16202382D01*
X16480593Y-16260573D01*
X16431093Y-16296537D01*
X16369907Y-16296537D01*
X16351003Y-16288120D01*
X16343189Y-16283609D01*
X16343191Y-16283609D01*
X16278934Y-16266392D01*
X16215892Y-16249500D01*
X16084108Y-16249500D01*
X16021066Y-16266392D01*
X15956809Y-16283609D01*
X15842690Y-16349496D01*
X15749496Y-16442690D01*
X15683609Y-16556809D01*
X15683608Y-16556814D01*
X15649500Y-16684108D01*
X15649500Y-16815892D01*
X15660138Y-16855593D01*
X15683609Y-16943190D01*
X15749496Y-17057309D01*
X15749498Y-17057311D01*
X15749500Y-17057314D01*
X15795505Y-17103319D01*
X15823281Y-17157834D01*
X15824500Y-17173321D01*
X15824500Y-18776678D01*
X15805593Y-18834869D01*
X15795504Y-18846681D01*
X15749500Y-18892684D01*
X15749496Y-18892690D01*
X15683609Y-19006809D01*
X15683608Y-19006814D01*
X15649500Y-19134108D01*
X15649500Y-19265892D01*
X15679579Y-19378151D01*
X15683609Y-19393190D01*
X15729020Y-19471843D01*
X15741742Y-19531691D01*
X15716855Y-19587587D01*
X15668908Y-19616969D01*
X15606814Y-19633607D01*
X15606810Y-19633609D01*
X15492690Y-19699496D01*
X15399496Y-19792690D01*
X15333609Y-19906809D01*
X15323558Y-19944320D01*
X15299500Y-20034108D01*
X15299500Y-20165892D01*
X15322171Y-20250503D01*
X15333609Y-20293190D01*
X15399496Y-20407309D01*
X15399498Y-20407311D01*
X15399500Y-20407314D01*
X15445505Y-20453319D01*
X15473281Y-20507834D01*
X15474500Y-20523321D01*
X15474500Y-21976678D01*
X15455593Y-22034869D01*
X15445504Y-22046681D01*
X15399500Y-22092684D01*
X15399496Y-22092690D01*
X15333609Y-22206809D01*
X15333608Y-22206814D01*
X15299500Y-22334108D01*
X15299500Y-22465892D01*
X15329579Y-22578151D01*
X15333609Y-22593190D01*
X15399496Y-22707309D01*
X15399498Y-22707311D01*
X15399500Y-22707314D01*
X15492686Y-22800500D01*
X15492688Y-22800501D01*
X15492690Y-22800503D01*
X15606810Y-22866390D01*
X15606808Y-22866390D01*
X15606812Y-22866391D01*
X15606814Y-22866392D01*
X15734108Y-22900500D01*
X15734110Y-22900500D01*
X15865890Y-22900500D01*
X15865892Y-22900500D01*
X15993186Y-22866392D01*
X15993188Y-22866390D01*
X15993190Y-22866390D01*
X16107309Y-22800503D01*
X16107309Y-22800502D01*
X16107314Y-22800500D01*
X16200500Y-22707314D01*
X16266392Y-22593186D01*
X16300500Y-22465892D01*
X16300500Y-22334108D01*
X16266392Y-22206814D01*
X16266390Y-22206811D01*
X16266390Y-22206809D01*
X16200503Y-22092690D01*
X16200499Y-22092684D01*
X16154496Y-22046681D01*
X16126719Y-21992164D01*
X16125500Y-21976678D01*
X16125500Y-20523321D01*
X16144407Y-20465130D01*
X16154490Y-20453323D01*
X16200500Y-20407314D01*
X16200503Y-20407309D01*
X16266390Y-20293190D01*
X16266390Y-20293188D01*
X16266392Y-20293186D01*
X16300500Y-20165892D01*
X16300500Y-20034108D01*
X16266392Y-19906814D01*
X16266390Y-19906811D01*
X16266390Y-19906809D01*
X16220979Y-19828156D01*
X16208257Y-19768308D01*
X16233143Y-19712412D01*
X16281091Y-19683030D01*
X16343186Y-19666392D01*
X16343188Y-19666391D01*
X16350998Y-19661882D01*
X16410846Y-19649159D01*
X16466742Y-19674044D01*
X16497336Y-19727031D01*
X16499500Y-19747617D01*
X16499500Y-21315892D01*
X16510464Y-21356809D01*
X16533609Y-21443190D01*
X16599496Y-21557309D01*
X16599498Y-21557311D01*
X16599500Y-21557314D01*
X16692686Y-21650500D01*
X16692688Y-21650501D01*
X16692690Y-21650503D01*
X16806810Y-21716390D01*
X16806808Y-21716390D01*
X16806812Y-21716391D01*
X16806814Y-21716392D01*
X16934108Y-21750500D01*
X16934110Y-21750500D01*
X17065890Y-21750500D01*
X17065892Y-21750500D01*
X17193186Y-21716392D01*
X17193188Y-21716390D01*
X17193190Y-21716390D01*
X17307309Y-21650503D01*
X17307309Y-21650502D01*
X17307314Y-21650500D01*
X17400500Y-21557314D01*
X17466392Y-21443186D01*
X17500500Y-21315892D01*
X17500500Y-15434108D01*
X17466392Y-15306814D01*
X17466390Y-15306811D01*
X17466390Y-15306809D01*
X17400503Y-15192690D01*
X17400501Y-15192688D01*
X17400500Y-15192686D01*
X17352815Y-15145001D01*
X17325040Y-15090487D01*
X17334611Y-15030055D01*
X17352814Y-15004999D01*
X17400500Y-14957314D01*
X17400503Y-14957309D01*
X17466390Y-14843190D01*
X17466390Y-14843188D01*
X17466392Y-14843186D01*
X17500500Y-14715892D01*
X17500500Y-10334108D01*
X17466392Y-10206814D01*
X17466390Y-10206811D01*
X17466390Y-10206809D01*
X17400503Y-10092690D01*
X17400501Y-10092688D01*
X17400500Y-10092686D01*
X17307314Y-9999500D01*
X17307311Y-9999498D01*
X17307309Y-9999496D01*
X17193189Y-9933609D01*
X17193191Y-9933609D01*
X17143799Y-9920375D01*
X17065892Y-9899500D01*
X16934108Y-9899500D01*
X16856200Y-9920375D01*
X16806809Y-9933609D01*
X16692690Y-9999496D01*
X16599496Y-10092690D01*
X16533609Y-10206809D01*
X16499500Y-10334109D01*
X16499500Y-13200500D01*
X16480593Y-13258691D01*
X16431093Y-13294655D01*
X16400500Y-13299500D01*
X15384108Y-13299500D01*
X15306200Y-13320375D01*
X15256809Y-13333609D01*
X15142690Y-13399496D01*
X15049496Y-13492690D01*
X14983609Y-13606809D01*
X14983608Y-13606814D01*
X14949500Y-13734108D01*
X13776219Y-13734108D01*
X14430831Y-13079496D01*
X14485348Y-13051719D01*
X14500835Y-13050500D01*
X14565890Y-13050500D01*
X14565892Y-13050500D01*
X14693186Y-13016392D01*
X14693188Y-13016390D01*
X14693190Y-13016390D01*
X14807309Y-12950503D01*
X14807309Y-12950502D01*
X14807314Y-12950500D01*
X14900500Y-12857314D01*
X14966392Y-12743186D01*
X15000500Y-12615892D01*
X15000500Y-12484108D01*
X14966392Y-12356814D01*
X14966390Y-12356811D01*
X14966390Y-12356809D01*
X14900503Y-12242690D01*
X14900501Y-12242688D01*
X14900500Y-12242686D01*
X14807314Y-12149500D01*
X14807311Y-12149498D01*
X14807309Y-12149496D01*
X14693189Y-12083609D01*
X14693191Y-12083609D01*
X14643799Y-12070375D01*
X14565892Y-12049500D01*
X14434108Y-12049500D01*
X14356200Y-12070375D01*
X14306809Y-12083609D01*
X14192690Y-12149496D01*
X14099496Y-12242690D01*
X14033609Y-12356809D01*
X14033608Y-12356814D01*
X14000379Y-12480830D01*
X13999500Y-12484109D01*
X13999500Y-12549165D01*
X13980593Y-12607356D01*
X13970504Y-12619169D01*
X12744504Y-13845169D01*
X12689987Y-13872946D01*
X12629555Y-13863375D01*
X12586290Y-13820110D01*
X12575500Y-13775165D01*
X12575500Y-12123321D01*
X12594407Y-12065130D01*
X12604490Y-12053323D01*
X12650500Y-12007314D01*
X12716392Y-11893186D01*
X12750500Y-11765892D01*
X12750500Y-11634108D01*
X12716392Y-11506814D01*
X12716390Y-11506811D01*
X12716390Y-11506809D01*
X12650503Y-11392690D01*
X12650501Y-11392688D01*
X12650500Y-11392686D01*
X12557314Y-11299500D01*
X12557311Y-11299498D01*
X12557309Y-11299496D01*
X12443189Y-11233609D01*
X12443191Y-11233609D01*
X12393799Y-11220375D01*
X12315892Y-11199500D01*
X12184108Y-11199500D01*
X12056814Y-11233608D01*
X12056812Y-11233608D01*
X12050546Y-11235288D01*
X12049746Y-11232302D01*
X12001348Y-11236091D01*
X11949192Y-11204099D01*
X11925802Y-11147561D01*
X11925500Y-11139836D01*
X11925500Y-10823321D01*
X11944407Y-10765130D01*
X11954490Y-10753323D01*
X12000500Y-10707314D01*
X12066392Y-10593186D01*
X12100500Y-10465892D01*
X12100500Y-10334108D01*
X12066392Y-10206814D01*
X12066390Y-10206811D01*
X12066390Y-10206809D01*
X12000503Y-10092690D01*
X12000501Y-10092688D01*
X12000500Y-10092686D01*
X11907314Y-9999500D01*
X11907311Y-9999498D01*
X11907309Y-9999496D01*
X11793189Y-9933609D01*
X11793191Y-9933609D01*
X11743799Y-9920375D01*
X11665892Y-9899500D01*
X11534108Y-9899500D01*
X11456200Y-9920375D01*
X11406809Y-9933609D01*
X11292690Y-9999496D01*
X11199496Y-10092690D01*
X11133609Y-10206809D01*
X11126428Y-10233609D01*
X11099500Y-10334108D01*
X11099500Y-10465892D01*
X11110464Y-10506809D01*
X11133609Y-10593190D01*
X11199496Y-10707309D01*
X11199498Y-10707311D01*
X11199500Y-10707314D01*
X11245505Y-10753319D01*
X11273281Y-10807834D01*
X11274500Y-10823321D01*
X11274500Y-13524165D01*
X11255593Y-13582356D01*
X11245504Y-13594169D01*
X9143952Y-15695720D01*
X9089435Y-15723497D01*
X9029003Y-15713926D01*
X8985738Y-15670661D01*
X8978323Y-15651343D01*
X8966392Y-15606814D01*
X8966391Y-15606813D01*
X8966391Y-15606811D01*
X8966390Y-15606810D01*
X8900503Y-15492690D01*
X8900501Y-15492688D01*
X8900500Y-15492686D01*
X8807314Y-15399500D01*
X8807311Y-15399498D01*
X8807309Y-15399496D01*
X8693189Y-15333609D01*
X8693191Y-15333609D01*
X8643799Y-15320375D01*
X8565892Y-15299500D01*
X8565890Y-15299500D01*
X8500835Y-15299500D01*
X8442644Y-15280593D01*
X8430831Y-15270504D01*
X5779496Y-12619169D01*
X5751719Y-12564652D01*
X5750500Y-12549165D01*
X5750500Y-12484109D01*
X5750500Y-12484108D01*
X5716392Y-12356814D01*
X5716390Y-12356811D01*
X5716390Y-12356809D01*
X5650503Y-12242690D01*
X5650501Y-12242688D01*
X5650500Y-12242686D01*
X5557314Y-12149500D01*
X5557311Y-12149498D01*
X5557309Y-12149496D01*
X5443189Y-12083609D01*
X5443191Y-12083609D01*
X5393799Y-12070375D01*
X5315892Y-12049500D01*
X5184108Y-12049500D01*
X5106200Y-12070375D01*
X5056809Y-12083609D01*
X4942690Y-12149496D01*
X4849496Y-12242690D01*
X4783609Y-12356809D01*
X4783608Y-12356814D01*
X4749500Y-12484108D01*
X4749500Y-12615892D01*
X4779579Y-12728151D01*
X4783609Y-12743190D01*
X4849496Y-12857309D01*
X4849498Y-12857311D01*
X4849500Y-12857314D01*
X4942686Y-12950500D01*
X4942688Y-12950501D01*
X4942690Y-12950503D01*
X5056810Y-13016390D01*
X5056808Y-13016390D01*
X5056812Y-13016391D01*
X5056814Y-13016392D01*
X5184108Y-13050500D01*
X5249165Y-13050500D01*
X5307356Y-13069407D01*
X5319169Y-13079496D01*
X7970504Y-15730831D01*
X7998281Y-15785348D01*
X7999500Y-15800835D01*
X7999500Y-15865892D01*
X8014888Y-15923321D01*
X8033609Y-15993190D01*
X8099496Y-16107309D01*
X8099498Y-16107311D01*
X8099500Y-16107314D01*
X8192686Y-16200500D01*
X8192688Y-16200501D01*
X8192690Y-16200503D01*
X8306810Y-16266390D01*
X8306811Y-16266391D01*
X8306813Y-16266391D01*
X8306814Y-16266392D01*
X8351339Y-16278322D01*
X8402652Y-16311644D01*
X8424580Y-16368765D01*
X8408745Y-16427866D01*
X8395720Y-16443951D01*
X7994169Y-16845503D01*
X7939652Y-16873281D01*
X7924165Y-16874500D01*
X7773322Y-16874500D01*
X7715131Y-16855593D01*
X7703319Y-16845504D01*
X7657315Y-16799500D01*
X7657309Y-16799496D01*
X7543189Y-16733609D01*
X7543191Y-16733609D01*
X7478927Y-16716390D01*
X7415892Y-16699500D01*
X7284108Y-16699500D01*
X7165621Y-16731247D01*
X7104521Y-16728045D01*
X7056971Y-16689540D01*
X7044374Y-16661247D01*
X7016392Y-16556814D01*
X7016390Y-16556811D01*
X7016390Y-16556809D01*
X6950503Y-16442690D01*
X6950501Y-16442688D01*
X6950500Y-16442686D01*
X6857314Y-16349500D01*
X6857311Y-16349498D01*
X6857309Y-16349496D01*
X6743189Y-16283609D01*
X6743191Y-16283609D01*
X6678934Y-16266392D01*
X6615892Y-16249500D01*
X6484108Y-16249500D01*
X6421066Y-16266392D01*
X6356809Y-16283609D01*
X6242690Y-16349496D01*
X6242684Y-16349500D01*
X6196681Y-16395504D01*
X6142164Y-16423281D01*
X6126678Y-16424500D01*
X2823322Y-16424500D01*
X2765131Y-16405593D01*
X2753319Y-16395504D01*
X2707315Y-16349500D01*
X2707309Y-16349496D01*
X2593189Y-16283609D01*
X2593191Y-16283609D01*
X2528934Y-16266392D01*
X2465892Y-16249500D01*
X2334108Y-16249500D01*
X2206814Y-16283608D01*
X2206812Y-16283608D01*
X2200546Y-16285288D01*
X2199746Y-16282302D01*
X2151348Y-16286091D01*
X2099192Y-16254099D01*
X2075802Y-16197561D01*
X2075500Y-16189836D01*
X2075500Y-15923321D01*
X2094407Y-15865130D01*
X2104490Y-15853323D01*
X2150500Y-15807314D01*
X2183879Y-15749500D01*
X2216390Y-15693190D01*
X2216390Y-15693188D01*
X2216392Y-15693186D01*
X2250500Y-15565892D01*
X2250500Y-15434108D01*
X2216392Y-15306814D01*
X2216390Y-15306811D01*
X2216390Y-15306809D01*
X2150503Y-15192690D01*
X2150501Y-15192688D01*
X2150500Y-15192686D01*
X2057314Y-15099500D01*
X2057311Y-15099498D01*
X2057309Y-15099496D01*
X1943189Y-15033609D01*
X1943191Y-15033609D01*
X1893799Y-15020375D01*
X1815892Y-14999500D01*
X1684108Y-14999500D01*
X1606200Y-15020375D01*
X1556809Y-15033609D01*
X1442690Y-15099496D01*
X1349496Y-15192690D01*
X1283609Y-15306809D01*
X1276428Y-15333609D01*
X1249500Y-15434108D01*
X350000Y-15434108D01*
X350000Y-11184108D01*
X2649500Y-11184108D01*
X2649500Y-11315892D01*
X2670077Y-11392686D01*
X2683609Y-11443190D01*
X2749496Y-11557309D01*
X2749498Y-11557311D01*
X2749500Y-11557314D01*
X2842686Y-11650500D01*
X2842688Y-11650501D01*
X2842690Y-11650503D01*
X2956810Y-11716390D01*
X2956808Y-11716390D01*
X2956812Y-11716391D01*
X2956814Y-11716392D01*
X3084108Y-11750500D01*
X3084110Y-11750500D01*
X3215890Y-11750500D01*
X3215892Y-11750500D01*
X3343186Y-11716392D01*
X3343188Y-11716390D01*
X3343190Y-11716390D01*
X3457309Y-11650503D01*
X3457310Y-11650502D01*
X3457314Y-11650500D01*
X3473706Y-11634108D01*
X3503319Y-11604496D01*
X3557836Y-11576719D01*
X3573322Y-11575500D01*
X8524165Y-11575500D01*
X8582356Y-11594407D01*
X8594169Y-11604496D01*
X9470504Y-12480830D01*
X9498281Y-12535347D01*
X9499500Y-12550834D01*
X9499500Y-12615892D01*
X9529579Y-12728151D01*
X9533609Y-12743190D01*
X9599496Y-12857309D01*
X9599498Y-12857311D01*
X9599500Y-12857314D01*
X9692686Y-12950500D01*
X9692688Y-12950501D01*
X9692690Y-12950503D01*
X9806810Y-13016390D01*
X9806808Y-13016390D01*
X9806812Y-13016391D01*
X9806814Y-13016392D01*
X9934108Y-13050500D01*
X9934110Y-13050500D01*
X10065890Y-13050500D01*
X10065892Y-13050500D01*
X10193186Y-13016392D01*
X10193188Y-13016390D01*
X10193190Y-13016390D01*
X10307309Y-12950503D01*
X10307309Y-12950502D01*
X10307314Y-12950500D01*
X10400500Y-12857314D01*
X10466392Y-12743186D01*
X10500500Y-12615892D01*
X10500500Y-12484108D01*
X10466392Y-12356814D01*
X10466390Y-12356811D01*
X10466390Y-12356809D01*
X10400503Y-12242690D01*
X10400501Y-12242688D01*
X10400500Y-12242686D01*
X10307314Y-12149500D01*
X10307311Y-12149498D01*
X10307309Y-12149496D01*
X10193189Y-12083609D01*
X10193191Y-12083609D01*
X10143799Y-12070375D01*
X10065892Y-12049500D01*
X10065890Y-12049500D01*
X10000834Y-12049500D01*
X9942643Y-12030593D01*
X9930830Y-12020504D01*
X9467635Y-11557309D01*
X8899862Y-10989535D01*
X8899859Y-10989533D01*
X8899857Y-10989531D01*
X8825642Y-10946683D01*
X8825644Y-10946683D01*
X8793521Y-10938076D01*
X8742853Y-10924500D01*
X8742851Y-10924500D01*
X3573322Y-10924500D01*
X3515131Y-10905593D01*
X3503319Y-10895504D01*
X3457315Y-10849500D01*
X3457309Y-10849496D01*
X3343189Y-10783609D01*
X3343191Y-10783609D01*
X3277068Y-10765892D01*
X3215892Y-10749500D01*
X3084108Y-10749500D01*
X3022932Y-10765892D01*
X2956809Y-10783609D01*
X2842690Y-10849496D01*
X2749496Y-10942690D01*
X2683609Y-11056809D01*
X2683608Y-11056814D01*
X2649500Y-11184108D01*
X350000Y-11184108D01*
X350000Y-9734108D01*
X2649500Y-9734108D01*
X2649500Y-9865892D01*
X2660293Y-9906171D01*
X2683609Y-9993190D01*
X2749496Y-10107309D01*
X2749498Y-10107311D01*
X2749500Y-10107314D01*
X2842686Y-10200500D01*
X2842688Y-10200501D01*
X2842690Y-10200503D01*
X2956810Y-10266390D01*
X2956808Y-10266390D01*
X2956812Y-10266391D01*
X2956814Y-10266392D01*
X3084108Y-10300500D01*
X3084110Y-10300500D01*
X3215890Y-10300500D01*
X3215892Y-10300500D01*
X3343186Y-10266392D01*
X3343188Y-10266390D01*
X3343190Y-10266390D01*
X3457309Y-10200503D01*
X3457310Y-10200502D01*
X3457314Y-10200500D01*
X3477221Y-10180593D01*
X3503319Y-10154496D01*
X3557836Y-10126719D01*
X3573322Y-10125500D01*
X8076678Y-10125500D01*
X8134869Y-10144407D01*
X8146681Y-10154496D01*
X8192684Y-10200499D01*
X8192690Y-10200503D01*
X8306810Y-10266390D01*
X8306808Y-10266390D01*
X8306812Y-10266391D01*
X8306814Y-10266392D01*
X8434108Y-10300500D01*
X8434110Y-10300500D01*
X8565890Y-10300500D01*
X8565892Y-10300500D01*
X8693186Y-10266392D01*
X8693188Y-10266390D01*
X8693190Y-10266390D01*
X8807309Y-10200503D01*
X8807309Y-10200502D01*
X8807314Y-10200500D01*
X8900500Y-10107314D01*
X8966392Y-9993186D01*
X9000500Y-9865892D01*
X9000500Y-9734108D01*
X8966392Y-9606814D01*
X8966390Y-9606811D01*
X8966390Y-9606809D01*
X8900503Y-9492690D01*
X8900501Y-9492688D01*
X8900500Y-9492686D01*
X8807314Y-9399500D01*
X8807311Y-9399498D01*
X8807309Y-9399496D01*
X8693189Y-9333609D01*
X8693191Y-9333609D01*
X8643799Y-9320375D01*
X8565892Y-9299500D01*
X8434108Y-9299500D01*
X8356200Y-9320375D01*
X8306809Y-9333609D01*
X8192690Y-9399496D01*
X8192684Y-9399500D01*
X8146681Y-9445504D01*
X8092164Y-9473281D01*
X8076678Y-9474500D01*
X3573322Y-9474500D01*
X3515131Y-9455593D01*
X3503319Y-9445504D01*
X3457315Y-9399500D01*
X3457309Y-9399496D01*
X3343189Y-9333609D01*
X3343191Y-9333609D01*
X3293799Y-9320375D01*
X3215892Y-9299500D01*
X3084108Y-9299500D01*
X3006200Y-9320375D01*
X2956809Y-9333609D01*
X2842690Y-9399496D01*
X2749496Y-9492690D01*
X2683609Y-9606809D01*
X2683608Y-9606814D01*
X2649500Y-9734108D01*
X350000Y-9734108D01*
X350000Y-5534108D01*
X13799500Y-5534108D01*
X13799500Y-5665892D01*
X13829579Y-5778151D01*
X13833609Y-5793190D01*
X13899496Y-5907309D01*
X13899498Y-5907311D01*
X13899500Y-5907314D01*
X13992686Y-6000500D01*
X13992688Y-6000501D01*
X13992690Y-6000503D01*
X14106810Y-6066390D01*
X14106808Y-6066390D01*
X14106812Y-6066391D01*
X14106814Y-6066392D01*
X14234108Y-6100500D01*
X14299165Y-6100500D01*
X14357356Y-6119407D01*
X14369169Y-6129496D01*
X18870504Y-10630831D01*
X18898281Y-10685348D01*
X18899500Y-10700835D01*
X18899500Y-10765892D01*
X18929579Y-10878151D01*
X18933609Y-10893190D01*
X18999496Y-11007309D01*
X18999498Y-11007311D01*
X18999500Y-11007314D01*
X19092686Y-11100500D01*
X19092688Y-11100501D01*
X19092690Y-11100503D01*
X19206810Y-11166390D01*
X19206808Y-11166390D01*
X19206812Y-11166391D01*
X19206814Y-11166392D01*
X19334108Y-11200500D01*
X19334110Y-11200500D01*
X19465890Y-11200500D01*
X19465892Y-11200500D01*
X19593186Y-11166392D01*
X19593188Y-11166390D01*
X19593190Y-11166390D01*
X19707309Y-11100503D01*
X19707309Y-11100502D01*
X19707314Y-11100500D01*
X19800500Y-11007314D01*
X19828731Y-10958417D01*
X19866390Y-10893190D01*
X19866390Y-10893188D01*
X19866392Y-10893186D01*
X19900500Y-10765892D01*
X19900500Y-10761579D01*
X23349500Y-10761579D01*
X23349500Y-10958420D01*
X23380289Y-11152821D01*
X23441116Y-11340025D01*
X23526098Y-11506814D01*
X23530476Y-11515405D01*
X23646172Y-11674646D01*
X23785354Y-11813828D01*
X23944595Y-11929524D01*
X23944597Y-11929525D01*
X24008902Y-11962290D01*
X24052167Y-12005555D01*
X24061738Y-12065987D01*
X24033961Y-12120504D01*
X23979444Y-12148281D01*
X23963957Y-12149500D01*
X23530252Y-12149500D01*
X23530251Y-12149500D01*
X23530241Y-12149501D01*
X23471772Y-12161132D01*
X23471766Y-12161134D01*
X23405451Y-12205445D01*
X23405445Y-12205451D01*
X23361134Y-12271766D01*
X23361132Y-12271772D01*
X23349501Y-12330241D01*
X23349500Y-12330253D01*
X23349500Y-14469746D01*
X23349501Y-14469758D01*
X23361132Y-14528227D01*
X23361134Y-14528233D01*
X23404173Y-14592644D01*
X23405448Y-14594552D01*
X23471769Y-14638867D01*
X23516231Y-14647711D01*
X23530241Y-14650498D01*
X23530246Y-14650498D01*
X23530252Y-14650500D01*
X23530253Y-14650500D01*
X25669747Y-14650500D01*
X25669748Y-14650500D01*
X25728231Y-14638867D01*
X25794552Y-14594552D01*
X25838867Y-14528231D01*
X25850500Y-14469748D01*
X25850500Y-12330252D01*
X25838867Y-12271769D01*
X25794552Y-12205448D01*
X25794548Y-12205445D01*
X25728233Y-12161134D01*
X25728231Y-12161133D01*
X25728228Y-12161132D01*
X25728227Y-12161132D01*
X25669758Y-12149501D01*
X25669748Y-12149500D01*
X25236043Y-12149500D01*
X25177852Y-12130593D01*
X25141888Y-12081093D01*
X25141888Y-12019907D01*
X25177852Y-11970407D01*
X25191098Y-11962290D01*
X25205834Y-11954781D01*
X25255405Y-11929524D01*
X25414646Y-11813828D01*
X25553828Y-11674646D01*
X25669524Y-11515405D01*
X25758884Y-11340025D01*
X25819709Y-11152826D01*
X25820543Y-11147561D01*
X25850500Y-10958420D01*
X25850500Y-10761579D01*
X25819710Y-10567178D01*
X25819709Y-10567174D01*
X25758884Y-10379975D01*
X25669524Y-10204595D01*
X25553828Y-10045354D01*
X25414646Y-9906172D01*
X25255405Y-9790476D01*
X25255404Y-9790475D01*
X25255402Y-9790474D01*
X25080025Y-9701116D01*
X24892821Y-9640289D01*
X24698420Y-9609500D01*
X24698417Y-9609500D01*
X24501583Y-9609500D01*
X24501580Y-9609500D01*
X24307178Y-9640289D01*
X24119974Y-9701116D01*
X23944597Y-9790474D01*
X23785355Y-9906171D01*
X23646171Y-10045355D01*
X23530474Y-10204597D01*
X23441116Y-10379974D01*
X23380289Y-10567178D01*
X23349500Y-10761579D01*
X19900500Y-10761579D01*
X19900500Y-10634108D01*
X19866392Y-10506814D01*
X19866390Y-10506811D01*
X19866390Y-10506809D01*
X19800503Y-10392690D01*
X19800501Y-10392688D01*
X19800500Y-10392686D01*
X19707314Y-10299500D01*
X19707311Y-10299498D01*
X19707309Y-10299496D01*
X19593189Y-10233609D01*
X19593191Y-10233609D01*
X19543799Y-10220375D01*
X19465892Y-10199500D01*
X19465890Y-10199500D01*
X19400835Y-10199500D01*
X19342644Y-10180593D01*
X19330831Y-10170504D01*
X14829496Y-5669169D01*
X14801719Y-5614652D01*
X14800500Y-5599165D01*
X14800500Y-5534109D01*
X14800500Y-5534108D01*
X14766392Y-5406814D01*
X14766390Y-5406811D01*
X14766390Y-5406809D01*
X14700503Y-5292690D01*
X14700501Y-5292688D01*
X14700500Y-5292686D01*
X14607314Y-5199500D01*
X14607311Y-5199498D01*
X14607309Y-5199496D01*
X14493189Y-5133609D01*
X14493191Y-5133609D01*
X14443799Y-5120375D01*
X14365892Y-5099500D01*
X14234108Y-5099500D01*
X14156200Y-5120375D01*
X14106809Y-5133609D01*
X13992690Y-5199496D01*
X13899496Y-5292690D01*
X13833609Y-5406809D01*
X13833608Y-5406814D01*
X13799500Y-5534108D01*
X350000Y-5534108D01*
X350000Y-2680253D01*
X1799500Y-2680253D01*
X1799500Y-5319746D01*
X1799501Y-5319758D01*
X1811132Y-5378227D01*
X1811134Y-5378233D01*
X1830232Y-5406814D01*
X1855448Y-5444552D01*
X1921769Y-5488867D01*
X1966231Y-5497711D01*
X1980241Y-5500498D01*
X1980246Y-5500498D01*
X1980252Y-5500500D01*
X1980253Y-5500500D01*
X4619747Y-5500500D01*
X4619748Y-5500500D01*
X4678231Y-5488867D01*
X4744552Y-5444552D01*
X4788867Y-5378231D01*
X4800500Y-5319748D01*
X4800500Y-3881904D01*
X6499500Y-3881904D01*
X6499500Y-4118095D01*
X6536445Y-4351363D01*
X6536447Y-4351368D01*
X6609432Y-4575992D01*
X6716657Y-4786433D01*
X6855483Y-4977510D01*
X7022490Y-5144517D01*
X7213567Y-5283343D01*
X7424008Y-5390568D01*
X7648632Y-5463553D01*
X7648633Y-5463553D01*
X7648636Y-5463554D01*
X7881905Y-5500500D01*
X7881908Y-5500500D01*
X8118095Y-5500500D01*
X8351363Y-5463554D01*
X8351364Y-5463553D01*
X8351368Y-5463553D01*
X8575992Y-5390568D01*
X8786433Y-5283343D01*
X8977510Y-5144517D01*
X9144517Y-4977510D01*
X9283343Y-4786433D01*
X9390568Y-4575992D01*
X9463553Y-4351368D01*
X9482736Y-4230252D01*
X9500500Y-4118095D01*
X9500500Y-3881904D01*
X11199500Y-3881904D01*
X11199500Y-4118095D01*
X11236445Y-4351363D01*
X11236447Y-4351368D01*
X11309432Y-4575992D01*
X11416657Y-4786433D01*
X11555483Y-4977510D01*
X11722490Y-5144517D01*
X11913567Y-5283343D01*
X12124008Y-5390568D01*
X12348632Y-5463553D01*
X12348633Y-5463553D01*
X12348636Y-5463554D01*
X12581905Y-5500500D01*
X12581908Y-5500500D01*
X12818095Y-5500500D01*
X13051363Y-5463554D01*
X13051364Y-5463553D01*
X13051368Y-5463553D01*
X13275992Y-5390568D01*
X13486433Y-5283343D01*
X13677510Y-5144517D01*
X13844517Y-4977510D01*
X13983343Y-4786433D01*
X14090568Y-4575992D01*
X14163553Y-4351368D01*
X14182736Y-4230253D01*
X23349500Y-4230253D01*
X23349500Y-6369746D01*
X23349501Y-6369758D01*
X23361132Y-6428227D01*
X23361133Y-6428231D01*
X23405448Y-6494552D01*
X23471769Y-6538867D01*
X23516231Y-6547711D01*
X23530241Y-6550498D01*
X23530246Y-6550498D01*
X23530252Y-6550500D01*
X23530253Y-6550500D01*
X25669747Y-6550500D01*
X25669748Y-6550500D01*
X25728231Y-6538867D01*
X25794552Y-6494552D01*
X25838867Y-6428231D01*
X25850500Y-6369748D01*
X25850500Y-4230252D01*
X25838867Y-4171769D01*
X25794552Y-4105448D01*
X25794548Y-4105445D01*
X25728233Y-4061134D01*
X25728231Y-4061133D01*
X25728228Y-4061132D01*
X25728227Y-4061132D01*
X25669758Y-4049501D01*
X25669748Y-4049500D01*
X23530252Y-4049500D01*
X23530251Y-4049500D01*
X23530241Y-4049501D01*
X23471772Y-4061132D01*
X23471766Y-4061134D01*
X23405451Y-4105445D01*
X23405445Y-4105451D01*
X23361134Y-4171766D01*
X23361132Y-4171772D01*
X23349501Y-4230241D01*
X23349500Y-4230253D01*
X14182736Y-4230253D01*
X14182738Y-4230241D01*
X14185959Y-4209901D01*
X14200500Y-4118094D01*
X14200500Y-3881904D01*
X14163554Y-3648636D01*
X14163553Y-3648632D01*
X14090568Y-3424008D01*
X13983343Y-3213567D01*
X13844517Y-3022490D01*
X13677510Y-2855483D01*
X13486433Y-2716657D01*
X13486432Y-2716656D01*
X13486430Y-2716655D01*
X13275992Y-2609432D01*
X13051363Y-2536445D01*
X12818095Y-2499500D01*
X12818092Y-2499500D01*
X12581908Y-2499500D01*
X12581905Y-2499500D01*
X12348636Y-2536445D01*
X12124007Y-2609432D01*
X11913569Y-2716655D01*
X11722491Y-2855482D01*
X11555482Y-3022491D01*
X11416655Y-3213569D01*
X11309432Y-3424007D01*
X11236445Y-3648636D01*
X11199500Y-3881904D01*
X9500500Y-3881904D01*
X9463554Y-3648636D01*
X9463553Y-3648632D01*
X9390568Y-3424008D01*
X9283343Y-3213567D01*
X9144517Y-3022490D01*
X8977510Y-2855483D01*
X8786433Y-2716657D01*
X8786432Y-2716656D01*
X8786430Y-2716655D01*
X8575992Y-2609432D01*
X8351363Y-2536445D01*
X8118095Y-2499500D01*
X8118092Y-2499500D01*
X7881908Y-2499500D01*
X7881905Y-2499500D01*
X7648636Y-2536445D01*
X7424007Y-2609432D01*
X7213569Y-2716655D01*
X7022491Y-2855482D01*
X6855482Y-3022491D01*
X6716655Y-3213569D01*
X6609432Y-3424007D01*
X6536445Y-3648636D01*
X6499500Y-3881904D01*
X4800500Y-3881904D01*
X4800500Y-2680252D01*
X4788867Y-2621769D01*
X4744552Y-2555448D01*
X4744548Y-2555445D01*
X4678233Y-2511134D01*
X4678231Y-2511133D01*
X4678228Y-2511132D01*
X4678227Y-2511132D01*
X4619758Y-2499501D01*
X4619748Y-2499500D01*
X1980252Y-2499500D01*
X1980251Y-2499500D01*
X1980241Y-2499501D01*
X1921772Y-2511132D01*
X1921766Y-2511134D01*
X1855451Y-2555445D01*
X1855445Y-2555451D01*
X1811134Y-2621766D01*
X1811132Y-2621772D01*
X1799501Y-2680241D01*
X1799500Y-2680253D01*
X350000Y-2680253D01*
X350000Y-449000D01*
X368907Y-390809D01*
X418407Y-354845D01*
X449000Y-350000D01*
X27551000Y-350000D01*
X27609191Y-368907D01*
G37*
%TD.AperFunction*%
%TD*%
M02*
