%TF.GenerationSoftware,KiCad,Pcbnew,10.0.6*%
%TF.CreationDate,2026-09-09T07:05:11+08:00*%
%TF.ProjectId,mode2-motor,6d6f6465-322d-46d6-9f74-6f722e6b6963,rev?*%
%TF.SameCoordinates,Original*%
%TF.FileFunction,Legend,Top*%
%TF.FilePolarity,Positive*%
%FSLAX46Y46*%
G04 Gerber Fmt 4.6, Leading zero omitted, Abs format (unit mm)*
G04 Created by KiCad (PCBNEW 10.0.6) date 2026-09-09 07:05:11*
%MOMM*%
%LPD*%
G01*
G04 APERTURE LIST*
%ADD10C,0.120000*%
G04 APERTURE END LIST*
D10*
X285714Y-3330521D02*
X666666Y-3330521D01*
X285714Y-3140045D02*
X666666Y-3140045D01*
X285714Y-3025760D02*
X285714Y-3863855D01*
X438095Y-3597188D02*
X1123809Y-3597188D01*
X476190Y-3406712D02*
X1085714Y-3406712D01*
X857143Y-3330521D02*
X1276190Y-3330521D01*
X857143Y-3140045D02*
X1276190Y-3140045D01*
X857143Y-3025760D02*
X857143Y-3292426D01*
X895238Y-3406712D02*
X895238Y-3863855D01*
X1085714Y-3863855D02*
X1276190Y-3863855D01*
X285714Y-3025760D02*
X666666Y-3025760D01*
X666666Y-3025760D02*
X666666Y-3292426D01*
X857143Y-3025760D02*
X1276190Y-3025760D01*
X1276190Y-3025760D02*
X1276190Y-3863855D01*
X628571Y-3444807D02*
X628571Y-3711474D01*
X628571Y-3711474D02*
X552381Y-3825760D01*
X552381Y-3825760D02*
X476190Y-3863855D01*
X9285714Y-6692426D02*
X9666666Y-6692426D01*
X9285714Y-6540045D02*
X9666666Y-6540045D01*
X9285714Y-6425760D02*
X9285714Y-7263855D01*
X9438095Y-6959093D02*
X9742857Y-6959093D01*
X9476190Y-6768617D02*
X9590476Y-6882902D01*
X9628571Y-6730521D02*
X9514285Y-6806712D01*
X9704762Y-6768617D02*
X9514285Y-6959093D01*
X9704762Y-7035283D02*
X9666666Y-7187664D01*
X9780952Y-6959093D02*
X10123809Y-6959093D01*
X9780952Y-6768617D02*
X9895238Y-6882902D01*
X9857143Y-7149569D02*
X10047619Y-7149569D01*
X9857143Y-7035283D02*
X9857143Y-7263855D01*
X9857143Y-6692426D02*
X10276190Y-6692426D01*
X9857143Y-6540045D02*
X10276190Y-6540045D01*
X9857143Y-6425760D02*
X9857143Y-6692426D01*
X9933333Y-6730521D02*
X9819047Y-6806712D01*
X10009524Y-6768617D02*
X9857143Y-6959093D01*
X10047619Y-7035283D02*
X10047619Y-7149569D01*
X10123809Y-7263855D02*
X10276190Y-7263855D01*
X9285714Y-6425760D02*
X9704762Y-6425760D01*
X9704762Y-6425760D02*
X9704762Y-6692426D01*
X9857143Y-6425760D02*
X10276190Y-6425760D01*
X10276190Y-6425760D02*
X10276190Y-7263855D01*
X9514285Y-7035283D02*
X9514285Y-7149569D01*
X9514285Y-7149569D02*
X9704762Y-7149569D01*
X9704762Y-7149569D02*
X9590476Y-7263855D01*
X5290476Y-13913855D02*
X5290476Y-14561474D01*
X5290476Y-14561474D02*
X5328571Y-14637664D01*
X5328571Y-14637664D02*
X5366666Y-14675760D01*
X5366666Y-14675760D02*
X5442857Y-14713855D01*
X5442857Y-14713855D02*
X5595238Y-14713855D01*
X5595238Y-14713855D02*
X5671428Y-14675760D01*
X5671428Y-14675760D02*
X5709523Y-14637664D01*
X5709523Y-14637664D02*
X5747619Y-14561474D01*
X5747619Y-14561474D02*
X5747619Y-13913855D01*
X6547618Y-14713855D02*
X6090475Y-14713855D01*
X6319047Y-14713855D02*
X6319047Y-13913855D01*
X6319047Y-13913855D02*
X6242856Y-14028140D01*
X6242856Y-14028140D02*
X6166666Y-14104331D01*
X6166666Y-14104331D02*
X6090475Y-14142426D01*
X17409524Y-17163855D02*
X17409524Y-16363855D01*
X17409524Y-16363855D02*
X17714286Y-16363855D01*
X17714286Y-16363855D02*
X17790476Y-16401950D01*
X17790476Y-16401950D02*
X17828571Y-16440045D01*
X17828571Y-16440045D02*
X17866667Y-16516236D01*
X17866667Y-16516236D02*
X17866667Y-16630521D01*
X17866667Y-16630521D02*
X17828571Y-16706712D01*
X17828571Y-16706712D02*
X17790476Y-16744807D01*
X17790476Y-16744807D02*
X17714286Y-16782902D01*
X17714286Y-16782902D02*
X17409524Y-16782902D01*
X18590476Y-16363855D02*
X18209524Y-16363855D01*
X18209524Y-16363855D02*
X18171428Y-16744807D01*
X18171428Y-16744807D02*
X18209524Y-16706712D01*
X18209524Y-16706712D02*
X18285714Y-16668617D01*
X18285714Y-16668617D02*
X18476190Y-16668617D01*
X18476190Y-16668617D02*
X18552381Y-16706712D01*
X18552381Y-16706712D02*
X18590476Y-16744807D01*
X18590476Y-16744807D02*
X18628571Y-16820998D01*
X18628571Y-16820998D02*
X18628571Y-17011474D01*
X18628571Y-17011474D02*
X18590476Y-17087664D01*
X18590476Y-17087664D02*
X18552381Y-17125760D01*
X18552381Y-17125760D02*
X18476190Y-17163855D01*
X18476190Y-17163855D02*
X18285714Y-17163855D01*
X18285714Y-17163855D02*
X18209524Y-17125760D01*
X18209524Y-17125760D02*
X18171428Y-17087664D01*
X17766667Y-8487663D02*
X17728571Y-8525759D01*
X17728571Y-8525759D02*
X17614286Y-8563854D01*
X17614286Y-8563854D02*
X17538095Y-8563854D01*
X17538095Y-8563854D02*
X17423809Y-8525759D01*
X17423809Y-8525759D02*
X17347619Y-8449568D01*
X17347619Y-8449568D02*
X17309524Y-8373378D01*
X17309524Y-8373378D02*
X17271428Y-8220997D01*
X17271428Y-8220997D02*
X17271428Y-8106711D01*
X17271428Y-8106711D02*
X17309524Y-7954330D01*
X17309524Y-7954330D02*
X17347619Y-7878139D01*
X17347619Y-7878139D02*
X17423809Y-7801949D01*
X17423809Y-7801949D02*
X17538095Y-7763854D01*
X17538095Y-7763854D02*
X17614286Y-7763854D01*
X17614286Y-7763854D02*
X17728571Y-7801949D01*
X17728571Y-7801949D02*
X17766667Y-7840044D01*
X18033333Y-7763854D02*
X18528571Y-7763854D01*
X18528571Y-7763854D02*
X18261905Y-8068616D01*
X18261905Y-8068616D02*
X18376190Y-8068616D01*
X18376190Y-8068616D02*
X18452381Y-8106711D01*
X18452381Y-8106711D02*
X18490476Y-8144806D01*
X18490476Y-8144806D02*
X18528571Y-8220997D01*
X18528571Y-8220997D02*
X18528571Y-8411473D01*
X18528571Y-8411473D02*
X18490476Y-8487663D01*
X18490476Y-8487663D02*
X18452381Y-8525759D01*
X18452381Y-8525759D02*
X18376190Y-8563854D01*
X18376190Y-8563854D02*
X18147619Y-8563854D01*
X18147619Y-8563854D02*
X18071428Y-8525759D01*
X18071428Y-8525759D02*
X18033333Y-8487663D01*
X19809524Y-8763855D02*
X19809524Y-7963855D01*
X19809524Y-7963855D02*
X20114286Y-7963855D01*
X20114286Y-7963855D02*
X20190476Y-8001950D01*
X20190476Y-8001950D02*
X20228571Y-8040045D01*
X20228571Y-8040045D02*
X20266667Y-8116236D01*
X20266667Y-8116236D02*
X20266667Y-8230521D01*
X20266667Y-8230521D02*
X20228571Y-8306712D01*
X20228571Y-8306712D02*
X20190476Y-8344807D01*
X20190476Y-8344807D02*
X20114286Y-8382902D01*
X20114286Y-8382902D02*
X19809524Y-8382902D01*
X20952381Y-8230521D02*
X20952381Y-8763855D01*
X20761905Y-7925760D02*
X20571428Y-8497188D01*
X20571428Y-8497188D02*
X21066667Y-8497188D01*
X6866667Y-7287664D02*
X6828571Y-7325760D01*
X6828571Y-7325760D02*
X6714286Y-7363855D01*
X6714286Y-7363855D02*
X6638095Y-7363855D01*
X6638095Y-7363855D02*
X6523809Y-7325760D01*
X6523809Y-7325760D02*
X6447619Y-7249569D01*
X6447619Y-7249569D02*
X6409524Y-7173379D01*
X6409524Y-7173379D02*
X6371428Y-7020998D01*
X6371428Y-7020998D02*
X6371428Y-6906712D01*
X6371428Y-6906712D02*
X6409524Y-6754331D01*
X6409524Y-6754331D02*
X6447619Y-6678140D01*
X6447619Y-6678140D02*
X6523809Y-6601950D01*
X6523809Y-6601950D02*
X6638095Y-6563855D01*
X6638095Y-6563855D02*
X6714286Y-6563855D01*
X6714286Y-6563855D02*
X6828571Y-6601950D01*
X6828571Y-6601950D02*
X6866667Y-6640045D01*
X7628571Y-7363855D02*
X7171428Y-7363855D01*
X7400000Y-7363855D02*
X7400000Y-6563855D01*
X7400000Y-6563855D02*
X7323809Y-6678140D01*
X7323809Y-6678140D02*
X7247619Y-6754331D01*
X7247619Y-6754331D02*
X7171428Y-6792426D01*
X11266667Y-12663855D02*
X11000000Y-12282902D01*
X10809524Y-12663855D02*
X10809524Y-11863855D01*
X10809524Y-11863855D02*
X11114286Y-11863855D01*
X11114286Y-11863855D02*
X11190476Y-11901950D01*
X11190476Y-11901950D02*
X11228571Y-11940045D01*
X11228571Y-11940045D02*
X11266667Y-12016236D01*
X11266667Y-12016236D02*
X11266667Y-12130521D01*
X11266667Y-12130521D02*
X11228571Y-12206712D01*
X11228571Y-12206712D02*
X11190476Y-12244807D01*
X11190476Y-12244807D02*
X11114286Y-12282902D01*
X11114286Y-12282902D02*
X10809524Y-12282902D01*
X12028571Y-12663855D02*
X11571428Y-12663855D01*
X11800000Y-12663855D02*
X11800000Y-11863855D01*
X11800000Y-11863855D02*
X11723809Y-11978140D01*
X11723809Y-11978140D02*
X11647619Y-12054331D01*
X11647619Y-12054331D02*
X11571428Y-12092426D01*
X19809524Y-6263855D02*
X19809524Y-5463855D01*
X19809524Y-5463855D02*
X20114286Y-5463855D01*
X20114286Y-5463855D02*
X20190476Y-5501950D01*
X20190476Y-5501950D02*
X20228571Y-5540045D01*
X20228571Y-5540045D02*
X20266667Y-5616236D01*
X20266667Y-5616236D02*
X20266667Y-5730521D01*
X20266667Y-5730521D02*
X20228571Y-5806712D01*
X20228571Y-5806712D02*
X20190476Y-5844807D01*
X20190476Y-5844807D02*
X20114286Y-5882902D01*
X20114286Y-5882902D02*
X19809524Y-5882902D01*
X21028571Y-6263855D02*
X20571428Y-6263855D01*
X20800000Y-6263855D02*
X20800000Y-5463855D01*
X20800000Y-5463855D02*
X20723809Y-5578140D01*
X20723809Y-5578140D02*
X20647619Y-5654331D01*
X20647619Y-5654331D02*
X20571428Y-5692426D01*
X17766667Y-14987664D02*
X17728571Y-15025760D01*
X17728571Y-15025760D02*
X17614286Y-15063855D01*
X17614286Y-15063855D02*
X17538095Y-15063855D01*
X17538095Y-15063855D02*
X17423809Y-15025760D01*
X17423809Y-15025760D02*
X17347619Y-14949569D01*
X17347619Y-14949569D02*
X17309524Y-14873379D01*
X17309524Y-14873379D02*
X17271428Y-14720998D01*
X17271428Y-14720998D02*
X17271428Y-14606712D01*
X17271428Y-14606712D02*
X17309524Y-14454331D01*
X17309524Y-14454331D02*
X17347619Y-14378140D01*
X17347619Y-14378140D02*
X17423809Y-14301950D01*
X17423809Y-14301950D02*
X17538095Y-14263855D01*
X17538095Y-14263855D02*
X17614286Y-14263855D01*
X17614286Y-14263855D02*
X17728571Y-14301950D01*
X17728571Y-14301950D02*
X17766667Y-14340045D01*
X18071428Y-14340045D02*
X18109524Y-14301950D01*
X18109524Y-14301950D02*
X18185714Y-14263855D01*
X18185714Y-14263855D02*
X18376190Y-14263855D01*
X18376190Y-14263855D02*
X18452381Y-14301950D01*
X18452381Y-14301950D02*
X18490476Y-14340045D01*
X18490476Y-14340045D02*
X18528571Y-14416236D01*
X18528571Y-14416236D02*
X18528571Y-14492426D01*
X18528571Y-14492426D02*
X18490476Y-14606712D01*
X18490476Y-14606712D02*
X18033333Y-15063855D01*
X18033333Y-15063855D02*
X18528571Y-15063855D01*
X13390476Y-12563855D02*
X13390476Y-13211474D01*
X13390476Y-13211474D02*
X13428571Y-13287664D01*
X13428571Y-13287664D02*
X13466666Y-13325760D01*
X13466666Y-13325760D02*
X13542857Y-13363855D01*
X13542857Y-13363855D02*
X13695238Y-13363855D01*
X13695238Y-13363855D02*
X13771428Y-13325760D01*
X13771428Y-13325760D02*
X13809523Y-13287664D01*
X13809523Y-13287664D02*
X13847619Y-13211474D01*
X13847619Y-13211474D02*
X13847619Y-12563855D01*
X14190475Y-12640045D02*
X14228571Y-12601950D01*
X14228571Y-12601950D02*
X14304761Y-12563855D01*
X14304761Y-12563855D02*
X14495237Y-12563855D01*
X14495237Y-12563855D02*
X14571428Y-12601950D01*
X14571428Y-12601950D02*
X14609523Y-12640045D01*
X14609523Y-12640045D02*
X14647618Y-12716236D01*
X14647618Y-12716236D02*
X14647618Y-12792426D01*
X14647618Y-12792426D02*
X14609523Y-12906712D01*
X14609523Y-12906712D02*
X14152380Y-13363855D01*
X14152380Y-13363855D02*
X14647618Y-13363855D01*
X6390475Y-2325760D02*
X6504761Y-2363855D01*
X6504761Y-2363855D02*
X6695237Y-2363855D01*
X6695237Y-2363855D02*
X6771428Y-2325760D01*
X6771428Y-2325760D02*
X6809523Y-2287664D01*
X6809523Y-2287664D02*
X6847618Y-2211474D01*
X6847618Y-2211474D02*
X6847618Y-2135283D01*
X6847618Y-2135283D02*
X6809523Y-2059093D01*
X6809523Y-2059093D02*
X6771428Y-2020998D01*
X6771428Y-2020998D02*
X6695237Y-1982902D01*
X6695237Y-1982902D02*
X6542856Y-1944807D01*
X6542856Y-1944807D02*
X6466666Y-1906712D01*
X6466666Y-1906712D02*
X6428571Y-1868617D01*
X6428571Y-1868617D02*
X6390475Y-1792426D01*
X6390475Y-1792426D02*
X6390475Y-1716236D01*
X6390475Y-1716236D02*
X6428571Y-1640045D01*
X6428571Y-1640045D02*
X6466666Y-1601950D01*
X6466666Y-1601950D02*
X6542856Y-1563855D01*
X6542856Y-1563855D02*
X6733333Y-1563855D01*
X6733333Y-1563855D02*
X6847618Y-1601950D01*
X7342857Y-1563855D02*
X7419047Y-1563855D01*
X7419047Y-1563855D02*
X7495238Y-1601950D01*
X7495238Y-1601950D02*
X7533333Y-1640045D01*
X7533333Y-1640045D02*
X7571428Y-1716236D01*
X7571428Y-1716236D02*
X7609523Y-1868617D01*
X7609523Y-1868617D02*
X7609523Y-2059093D01*
X7609523Y-2059093D02*
X7571428Y-2211474D01*
X7571428Y-2211474D02*
X7533333Y-2287664D01*
X7533333Y-2287664D02*
X7495238Y-2325760D01*
X7495238Y-2325760D02*
X7419047Y-2363855D01*
X7419047Y-2363855D02*
X7342857Y-2363855D01*
X7342857Y-2363855D02*
X7266666Y-2325760D01*
X7266666Y-2325760D02*
X7228571Y-2287664D01*
X7228571Y-2287664D02*
X7190476Y-2211474D01*
X7190476Y-2211474D02*
X7152380Y-2059093D01*
X7152380Y-2059093D02*
X7152380Y-1868617D01*
X7152380Y-1868617D02*
X7190476Y-1716236D01*
X7190476Y-1716236D02*
X7228571Y-1640045D01*
X7228571Y-1640045D02*
X7266666Y-1601950D01*
X7266666Y-1601950D02*
X7342857Y-1563855D01*
%TO.C,U1*%
X3640000Y-8440000D02*
X7760000Y-8440000D01*
X3640000Y-8535000D02*
X3640000Y-8440000D01*
X3640000Y-13560000D02*
X3640000Y-13465000D01*
X7760000Y-8440000D02*
X7760000Y-8535000D01*
X7760000Y-13465000D02*
X7760000Y-13560000D01*
X7760000Y-13560000D02*
X3640000Y-13560000D01*
X3100000Y-8530000D02*
X2860000Y-8200000D01*
X3340000Y-8200000D01*
X3100000Y-8530000D01*
G36*
X3100000Y-8530000D02*
G01*
X2860000Y-8200000D01*
X3340000Y-8200000D01*
X3100000Y-8530000D01*
G37*
%TO.C,C3*%
X13240000Y-2040000D02*
X14940000Y-2040000D01*
X13240000Y-6495563D02*
X13240000Y-2040000D01*
X14002500Y-8112500D02*
X14627500Y-8112500D01*
X14304437Y-7560000D02*
X13240000Y-6495563D01*
X14304437Y-7560000D02*
X14940000Y-7560000D01*
X14315000Y-8425000D02*
X14315000Y-7800000D01*
X17695563Y-7560000D02*
X17060000Y-7560000D01*
X17695563Y-7560000D02*
X18760000Y-6495563D01*
X18760000Y-2040000D02*
X17060000Y-2040000D01*
X18760000Y-6495563D02*
X18760000Y-2040000D01*
%TO.C,P3*%
X7240000Y-14690000D02*
X7240000Y-15940000D01*
X7540000Y-16300000D02*
X8150000Y-16300000D01*
X7540000Y-17600000D02*
X8150000Y-17600000D01*
X8150000Y-15600000D02*
X8150000Y-19100000D01*
X8150000Y-19100000D02*
X13050000Y-19100000D01*
X8490000Y-14690000D02*
X7240000Y-14690000D01*
X9000000Y-14790000D02*
X9000000Y-14990000D01*
X9300000Y-14790000D02*
X9000000Y-14790000D01*
X9300000Y-14890000D02*
X9000000Y-14890000D01*
X9300000Y-14990000D02*
X9300000Y-14790000D01*
X10100000Y-14990000D02*
X10100000Y-15600000D01*
X10100000Y-15600000D02*
X8150000Y-15600000D01*
X10500000Y-18600000D02*
X10700000Y-18600000D01*
X10500000Y-19100000D02*
X10500000Y-18600000D01*
X10600000Y-19100000D02*
X10600000Y-18600000D01*
X10700000Y-18600000D02*
X10700000Y-19100000D01*
X11100000Y-15600000D02*
X11100000Y-14990000D01*
X13050000Y-15600000D02*
X11100000Y-15600000D01*
X13050000Y-19100000D02*
X13050000Y-15600000D01*
X13660000Y-16300000D02*
X13050000Y-16300000D01*
X13660000Y-17600000D02*
X13050000Y-17600000D01*
X7540000Y-14990000D02*
X13660000Y-14990000D01*
X13660000Y-19710000D01*
X7540000Y-19710000D01*
X7540000Y-14990000D01*
%TO.C,C1*%
X3859420Y-6890000D02*
X4140580Y-6890000D01*
X3859420Y-7910000D02*
X4140580Y-7910000D01*
%TO.C,R1*%
X11737258Y-12977500D02*
X11262742Y-12977500D01*
X11737258Y-14022500D02*
X11262742Y-14022500D01*
%TO.C,P2*%
X140000Y-14690000D02*
X140000Y-15940000D01*
X440000Y-16300000D02*
X1050000Y-16300000D01*
X440000Y-17600000D02*
X1050000Y-17600000D01*
X1050000Y-15600000D02*
X1050000Y-19100000D01*
X1050000Y-19100000D02*
X5950000Y-19100000D01*
X1390000Y-14690000D02*
X140000Y-14690000D01*
X1900000Y-14790000D02*
X1900000Y-14990000D01*
X2200000Y-14790000D02*
X1900000Y-14790000D01*
X2200000Y-14890000D02*
X1900000Y-14890000D01*
X2200000Y-14990000D02*
X2200000Y-14790000D01*
X3000000Y-14990000D02*
X3000000Y-15600000D01*
X3000000Y-15600000D02*
X1050000Y-15600000D01*
X3400000Y-18600000D02*
X3600000Y-18600000D01*
X3400000Y-19100000D02*
X3400000Y-18600000D01*
X3500000Y-19100000D02*
X3500000Y-18600000D01*
X3600000Y-18600000D02*
X3600000Y-19100000D01*
X4000000Y-15600000D02*
X4000000Y-14990000D01*
X5950000Y-15600000D02*
X4000000Y-15600000D01*
X5950000Y-19100000D02*
X5950000Y-15600000D01*
X6560000Y-16300000D02*
X5950000Y-16300000D01*
X6560000Y-17600000D02*
X5950000Y-17600000D01*
X440000Y-14990000D02*
X6560000Y-14990000D01*
X6560000Y-19710000D01*
X440000Y-19710000D01*
X440000Y-14990000D01*
%TO.C,C2*%
X15859420Y-12990000D02*
X16140580Y-12990000D01*
X15859420Y-14010000D02*
X16140580Y-14010000D01*
%TO.C,U2*%
X12890000Y-10065000D02*
X15110000Y-10065000D01*
X14695568Y-12335000D02*
X12890000Y-12335000D01*
X14990000Y-12340000D02*
X15130000Y-12530000D01*
X14850000Y-12530000D01*
X14990000Y-12340000D01*
G36*
X15130000Y-12530000D02*
G01*
X14850000Y-12530000D01*
X14990000Y-12340000D01*
X15130000Y-12530000D01*
G37*
%TO.C,S0*%
X1800000Y-840000D02*
X12200000Y-840000D01*
X12200000Y-6160000D01*
X1800000Y-6160000D01*
X1800000Y-840000D01*
%TD*%
M02*
