M48
; DRILL file KiCad 10.0.6 date 2026-09-09T07:05:11
; FORMAT={-:-/ absolute / metric / decimal}
; #@! TF.CreationDate,2026-09-09T07:05:11+08:00
; #@! TF.GenerationSoftware,Kicad,Pcbnew,10.0.6
; #@! TF.FileFunction,Plated,1,2,PTH
FMAT,2
METRIC
; #@! TA.AperFunction,Plated,PTH,ComponentDrill
T1C0.200
; #@! TA.AperFunction,Plated,PTH,ViaDrill
T2C0.300
; #@! TA.AperFunction,Plated,PTH,ComponentDrill
T3C0.750
; #@! TA.AperFunction,Plated,PTH,ComponentDrill
T4C0.800
; #@! TA.AperFunction,Plated,PTH,ComponentDrill
T5C1.000
; #@! TA.AperFunction,Plated,PTH,ComponentDrill
T6C1.100
%
G90
G05
T1
X14.0Y-10.65
X14.0Y-11.75
T2
X1.0Y-7.5
X2.0Y-14.7
X3.225Y-14.0
X4.9Y-12.5
X5.5Y-7.4
X6.5Y-9.3
X9.0Y-11.635
X9.1Y-9.095
X9.4Y-10.365
X11.0Y-7.2
X11.0Y-14.6
X11.8Y-11.2
X12.325Y-14.4
X15.225Y-14.4
X16.2Y-10.3
X17.5Y-13.5
X18.2Y-6.2
X20.5Y-7.1
X20.5Y-16.0
T3
X2.5Y-16.8
X4.5Y-16.8
X9.6Y-16.8
X11.6Y-16.8
T4
X20.5Y-1.8
X20.5Y-4.3
X20.5Y-10.0
X20.5Y-12.5
T5
X15.3Y-18.4
X17.84Y-18.4
X20.38Y-18.4
T6
X4.46Y-3.5
X7.0Y-3.5
X9.54Y-3.5
M30
