#VRML V2.0 utf8
Transform { translation 0.0 0.0 0.39370078740157477 children [Shape { appearance Appearance {material Material {diffuseColor .55 .12 .10}} geometry Box {size 5.0 2.5984251968503935 0.7874015748031495} }] }
Transform { translation 0.0 0.0 1.6437007874015748 children [Shape { appearance Appearance {material Material {diffuseColor .65 .67 .69}} geometry Box {size 5.0 2.5984251968503935 1.7125984251968502} }] }
Transform { translation -0.4744094488188977 0.0 3.5 children [Shape { appearance Appearance {material Material {diffuseColor .08 .08 .08}} geometry Box {size 1.5196850393700787 1.5196850393700787 2.0} }] }
Transform { translation -1.8503937007874016 0.0 -0.8562992125984251 children [Shape { appearance Appearance {material Material {diffuseColor .72 .67 .42}} geometry Box {size 0.5 0.2992125984251969 2.5} }] }
Transform { translation 0.0 0.0 -0.8562992125984251 children [Shape { appearance Appearance {material Material {diffuseColor .72 .67 .42}} geometry Box {size 0.5 0.2992125984251969 2.5} }] }
Transform { translation 1.8503937007874016 0.0 -0.8562992125984251 children [Shape { appearance Appearance {material Material {diffuseColor .72 .67 .42}} geometry Box {size 0.5 0.2992125984251969 2.5} }] }