#VRML V2.0 utf8
Transform { translation 0.5 0.05905511811023622 1.0236220472440944 children [ Shape { appearance Appearance { material Material { diffuseColor .03 .42 .20 } } geometry Box { size 2.0 2.4803149606299213 2.047244094488189 } } ] }
Transform { translation 0.5 0.21653543307086615 2.736220472440945 children [ Shape { appearance Appearance { material Material { diffuseColor .03 .42 .20 } } geometry Box { size 2.0 1.2598425196850394 1.3779527559055118 } } ] }
Transform { translation 0.0 0.0 -0.6889763779527559 children [ Shape { appearance Appearance { material Material { diffuseColor .7 .7 .7 } } geometry Box { size 0.31496062992125984 0.19685039370078738 1.3779527559055118 } } ] }
Transform { translation 0.0 -1.1830708661417322 0.8661417322834646 children [ Shape { appearance Appearance { material Material { diffuseColor .06 .08 .06 } } geometry Box { size 0.6496062992125984 0.007874015748031496 0.7874015748031495 } } ] }
Shape { appearance Appearance { material Material { diffuseColor .7 .7 .7 } } geometry IndexedFaceSet { solid FALSE coord Coordinate { point [ 0.3543307086614173 0.21653543307086615 3.3464566929133857, 0.3422571825433707 0.30824296873711365 3.3464566929133857, 0.30685939504173027 0.39370078740157477 3.3464566929133857, 0.25054964687712317 0.4670850799479893 3.3464566929133857, 0.1771653543307087 0.5233948281125964 3.3464566929133857, 0.09170753566624751 0.5587926156142369 3.3464566929133857, 2.1696498410090903e-17 0.5708661417322836 3.3464566929133857, -0.09170753566624747 0.5587926156142369 3.3464566929133857, -0.17716535433070857 0.5233948281125964 3.3464566929133857, -0.2505496468771231 0.4670850799479893 3.3464566929133857, -0.30685939504173027 0.39370078740157477 3.3464566929133857, -0.3422571825433706 0.30824296873711376 3.3464566929133857, -0.3543307086614173 0.2165354330708662 3.3464566929133857, -0.3422571825433707 0.12482789740461862 3.3464566929133857, -0.3068593950417303 0.039370078740157605 3.3464566929133857, -0.2505496468771233 -0.034014213806256834 3.3464566929133857, -0.17716535433070882 -0.09032396197086402 3.3464566929133857, -0.09170753566624747 -0.1257217494725045 3.3464566929133857, -6.508949523027271e-17 -0.13779527559055116 3.3464566929133857, 0.09170753566624736 -0.12572174947250456 3.3464566929133857, 0.1771653543307087 -0.09032396197086406 3.3464566929133857, 0.25054964687712306 -0.034014213806257056 3.3464566929133857, 0.30685939504173015 0.03937007874015734 3.3464566929133857, 0.34225718254337056 0.12482789740461835 3.3464566929133857, 0.3543307086614173 0.21653543307086615 3.4645669291338583, 0.3422571825433707 0.30824296873711365 3.4645669291338583, 0.30685939504173027 0.39370078740157477 3.4645669291338583, 0.25054964687712317 0.4670850799479893 3.4645669291338583, 0.1771653543307087 0.5233948281125964 3.4645669291338583, 0.09170753566624751 0.5587926156142369 3.4645669291338583, 2.1696498410090903e-17 0.5708661417322836 3.4645669291338583, -0.09170753566624747 0.5587926156142369 3.4645669291338583, -0.17716535433070857 0.5233948281125964 3.4645669291338583, -0.2505496468771231 0.4670850799479893 3.4645669291338583, -0.30685939504173027 0.39370078740157477 3.4645669291338583, -0.3422571825433706 0.30824296873711376 3.4645669291338583, -0.3543307086614173 0.2165354330708662 3.4645669291338583, -0.3422571825433707 0.12482789740461862 3.4645669291338583, -0.3068593950417303 0.039370078740157605 3.4645669291338583, -0.2505496468771233 -0.034014213806256834 3.4645669291338583, -0.17716535433070882 -0.09032396197086402 3.4645669291338583, -0.09170753566624747 -0.1257217494725045 3.4645669291338583, -6.508949523027271e-17 -0.13779527559055116 3.4645669291338583, 0.09170753566624736 -0.12572174947250456 3.4645669291338583, 0.1771653543307087 -0.09032396197086406 3.4645669291338583, 0.25054964687712306 -0.034014213806257056 3.4645669291338583, 0.30685939504173015 0.03937007874015734 3.4645669291338583, 0.34225718254337056 0.12482789740461835 3.4645669291338583 ] } coordIndex [ 23 22 21 20 19 18 17 16 15 14 13 12 11 10 9 8 7 6 5 4 3 2 1 0 -1, 24 25 26 27 28 29 30 31 32 33 34 35 36 37 38 39 40 41 42 43 44 45 46 47 -1, 0 1 25 24 -1, 1 2 26 25 -1, 2 3 27 26 -1, 3 4 28 27 -1, 4 5 29 28 -1, 5 6 30 29 -1, 6 7 31 30 -1, 7 8 32 31 -1, 8 9 33 32 -1, 9 10 34 33 -1, 10 11 35 34 -1, 11 12 36 35 -1, 12 13 37 36 -1, 13 14 38 37 -1, 14 15 39 38 -1, 15 16 40 39 -1, 16 17 41 40 -1, 17 18 42 41 -1, 18 19 43 42 -1, 19 20 44 43 -1, 20 21 45 44 -1, 21 22 46 45 -1, 22 23 47 46 -1, 23 0 24 47 -1 ] } }
Transform { translation 0.0 0.21653543307086615 3.468503937007874 children [ Shape { appearance Appearance { material Material { diffuseColor .12 .12 .12 } } geometry Box { size 0.6299212598425197 0.08661417322834646 0.007874015748031496 } } ] }
Transform { translation 1.0 0.0 -0.6889763779527559 children [ Shape { appearance Appearance { material Material { diffuseColor .7 .7 .7 } } geometry Box { size 0.31496062992125984 0.19685039370078738 1.3779527559055118 } } ] }
Transform { translation 1.0 -1.1830708661417322 0.8661417322834646 children [ Shape { appearance Appearance { material Material { diffuseColor .06 .08 .06 } } geometry Box { size 0.6496062992125984 0.007874015748031496 0.7874015748031495 } } ] }
Shape { appearance Appearance { material Material { diffuseColor .7 .7 .7 } } geometry IndexedFaceSet { solid FALSE coord Coordinate { point [ 1.3543307086614174 0.21653543307086615 3.3464566929133857, 1.3422571825433707 0.30824296873711365 3.3464566929133857, 1.3068593950417302 0.39370078740157477 3.3464566929133857, 1.2505496468771231 0.4670850799479893 3.3464566929133857, 1.1771653543307088 0.5233948281125964 3.3464566929133857, 1.0917075356662476 0.5587926156142369 3.3464566929133857, 1.0 0.5708661417322836 3.3464566929133857, 0.9082924643337525 0.5587926156142369 3.3464566929133857, 0.8228346456692914 0.5233948281125964 3.3464566929133857, 0.7494503531228769 0.4670850799479893 3.3464566929133857, 0.6931406049582697 0.39370078740157477 3.3464566929133857, 0.6577428174566293 0.30824296873711376 3.3464566929133857, 0.6456692913385828 0.2165354330708662 3.3464566929133857, 0.6577428174566293 0.12482789740461862 3.3464566929133857, 0.6931406049582697 0.039370078740157605 3.3464566929133857, 0.7494503531228767 -0.034014213806256834 3.3464566929133857, 0.8228346456692913 -0.09032396197086402 3.3464566929133857, 0.9082924643337525 -0.1257217494725045 3.3464566929133857, 1.0 -0.13779527559055116 3.3464566929133857, 1.0917075356662473 -0.12572174947250456 3.3464566929133857, 1.1771653543307088 -0.09032396197086406 3.3464566929133857, 1.250549646877123 -0.034014213806257056 3.3464566929133857, 1.3068593950417302 0.03937007874015734 3.3464566929133857, 1.3422571825433707 0.12482789740461835 3.3464566929133857, 1.3543307086614174 0.21653543307086615 3.4645669291338583, 1.3422571825433707 0.30824296873711365 3.4645669291338583, 1.3068593950417302 0.39370078740157477 3.4645669291338583, 1.2505496468771231 0.4670850799479893 3.4645669291338583, 1.1771653543307088 0.5233948281125964 3.4645669291338583, 1.0917075356662476 0.5587926156142369 3.4645669291338583, 1.0 0.5708661417322836 3.4645669291338583, 0.9082924643337525 0.5587926156142369 3.4645669291338583, 0.8228346456692914 0.5233948281125964 3.4645669291338583, 0.7494503531228769 0.4670850799479893 3.4645669291338583, 0.6931406049582697 0.39370078740157477 3.4645669291338583, 0.6577428174566293 0.30824296873711376 3.4645669291338583, 0.6456692913385828 0.2165354330708662 3.4645669291338583, 0.6577428174566293 0.12482789740461862 3.4645669291338583, 0.6931406049582697 0.039370078740157605 3.4645669291338583, 0.7494503531228767 -0.034014213806256834 3.4645669291338583, 0.8228346456692913 -0.09032396197086402 3.4645669291338583, 0.9082924643337525 -0.1257217494725045 3.4645669291338583, 1.0 -0.13779527559055116 3.4645669291338583, 1.0917075356662473 -0.12572174947250456 3.4645669291338583, 1.1771653543307088 -0.09032396197086406 3.4645669291338583, 1.250549646877123 -0.034014213806257056 3.4645669291338583, 1.3068593950417302 0.03937007874015734 3.4645669291338583, 1.3422571825433707 0.12482789740461835 3.4645669291338583 ] } coordIndex [ 23 22 21 20 19 18 17 16 15 14 13 12 11 10 9 8 7 6 5 4 3 2 1 0 -1, 24 25 26 27 28 29 30 31 32 33 34 35 36 37 38 39 40 41 42 43 44 45 46 47 -1, 0 1 25 24 -1, 1 2 26 25 -1, 2 3 27 26 -1, 3 4 28 27 -1, 4 5 29 28 -1, 5 6 30 29 -1, 6 7 31 30 -1, 7 8 32 31 -1, 8 9 33 32 -1, 9 10 34 33 -1, 10 11 35 34 -1, 11 12 36 35 -1, 12 13 37 36 -1, 13 14 38 37 -1, 14 15 39 38 -1, 15 16 40 39 -1, 16 17 41 40 -1, 17 18 42 41 -1, 18 19 43 42 -1, 19 20 44 43 -1, 20 21 45 44 -1, 21 22 46 45 -1, 22 23 47 46 -1, 23 0 24 47 -1 ] } }
Transform { translation 1.0 0.21653543307086615 3.468503937007874 children [ Shape { appearance Appearance { material Material { diffuseColor .12 .12 .12 } } geometry Box { size 0.6299212598425197 0.08661417322834646 0.007874015748031496 } } ] }