#VRML V2.0 utf8
Transform { translation 0.0 0.0 0.17716535433070865 children [ Shape { appearance Appearance { material Material { diffuseColor .09 .09 .10 } } geometry Box { size 0.7874015748031495 0.7874015748031495 0.31496062992125984 } } ] }
Transform { translation -0.3543307086614173 -0.2952755905511811 0.023622047244094488 children [ Shape { appearance Appearance { material Material { diffuseColor .65 .65 .65 } } geometry Box { size 0.23622047244094488 0.09842519685039369 0.047244094488188976 } } ] }
Transform { translation -0.3543307086614173 -0.09842519685039369 0.023622047244094488 children [ Shape { appearance Appearance { material Material { diffuseColor .65 .65 .65 } } geometry Box { size 0.23622047244094488 0.09842519685039369 0.047244094488188976 } } ] }
Transform { translation -0.3543307086614173 0.09842519685039369 0.023622047244094488 children [ Shape { appearance Appearance { material Material { diffuseColor .65 .65 .65 } } geometry Box { size 0.23622047244094488 0.09842519685039369 0.047244094488188976 } } ] }
Transform { translation -0.3543307086614173 0.2952755905511811 0.023622047244094488 children [ Shape { appearance Appearance { material Material { diffuseColor .65 .65 .65 } } geometry Box { size 0.23622047244094488 0.09842519685039369 0.047244094488188976 } } ] }
Transform { translation 0.3543307086614173 -0.2952755905511811 0.023622047244094488 children [ Shape { appearance Appearance { material Material { diffuseColor .65 .65 .65 } } geometry Box { size 0.23622047244094488 0.09842519685039369 0.047244094488188976 } } ] }
Transform { translation 0.3543307086614173 -0.09842519685039369 0.023622047244094488 children [ Shape { appearance Appearance { material Material { diffuseColor .65 .65 .65 } } geometry Box { size 0.23622047244094488 0.09842519685039369 0.047244094488188976 } } ] }
Transform { translation 0.3543307086614173 0.09842519685039369 0.023622047244094488 children [ Shape { appearance Appearance { material Material { diffuseColor .65 .65 .65 } } geometry Box { size 0.23622047244094488 0.09842519685039369 0.047244094488188976 } } ] }
Transform { translation 0.3543307086614173 0.2952755905511811 0.023622047244094488 children [ Shape { appearance Appearance { material Material { diffuseColor .65 .65 .65 } } geometry Box { size 0.23622047244094488 0.09842519685039369 0.047244094488188976 } } ] }
Transform { translation 0.0 0.0 0.00984251968503937 children [ Shape { appearance Appearance { material Material { diffuseColor .65 .65 .65 } } geometry Box { size 0.3543307086614173 0.6299212598425197 0.01968503937007874 } } ] }
Transform { translation -0.23622047244094488 0.23622047244094488 0.33661417322834647 children [ Shape { appearance Appearance { material Material { diffuseColor .75 .75 .75 } } geometry Box { size 0.07086614173228346 0.07086614173228346 0.003937007874015748 } } ] }