#VRML V2.0 utf8
Transform { translation 0.0 0.0 0.2755905511811023 children [ Shape { appearance Appearance { material Material { diffuseColor .65 .65 .65 } } geometry Box { size 2.6377952755905514 1.1023622047244093 0.5511811023622046 } } ] }
Transform { translation -0.31496062992125984 0.8366141732283464 0.2755905511811023 children [ Shape { appearance Appearance { material Material { diffuseColor .9 .9 .85 } } geometry Box { size 0.5118110236220472 0.5708661417322834 0.452755905511811 } } ] }
Transform { translation -1.4468503937007873 -0.4330708661417323 0.02952755905511811 children [ Shape { appearance Appearance { material Material { diffuseColor .7 .7 .7 } } geometry Box { size 0.41338582677165353 0.2755905511811023 0.05905511811023622 } } ] }
Transform { translation -1.4468503937007873 0.4330708661417323 0.02952755905511811 children [ Shape { appearance Appearance { material Material { diffuseColor .7 .7 .7 } } geometry Box { size 0.41338582677165353 0.2755905511811023 0.05905511811023622 } } ] }
Transform { translation 1.4468503937007873 -0.4330708661417323 0.02952755905511811 children [ Shape { appearance Appearance { material Material { diffuseColor .7 .7 .7 } } geometry Box { size 0.41338582677165353 0.2755905511811023 0.05905511811023622 } } ] }
Transform { translation 1.4468503937007873 0.4330708661417323 0.02952755905511811 children [ Shape { appearance Appearance { material Material { diffuseColor .7 .7 .7 } } geometry Box { size 0.41338582677165353 0.2755905511811023 0.05905511811023622 } } ] }
Transform { translation -0.8858267716535433 -0.7677165354330708 0.02952755905511811 children [ Shape { appearance Appearance { material Material { diffuseColor .7 .7 .7 } } geometry Box { size 0.15748031496062992 0.5118110236220472 0.05905511811023622 } } ] }
Transform { translation -0.2952755905511811 -0.7677165354330708 0.02952755905511811 children [ Shape { appearance Appearance { material Material { diffuseColor .7 .7 .7 } } geometry Box { size 0.15748031496062992 0.5118110236220472 0.05905511811023622 } } ] }
Transform { translation 0.8858267716535433 -0.7677165354330708 0.02952755905511811 children [ Shape { appearance Appearance { material Material { diffuseColor .7 .7 .7 } } geometry Box { size 0.15748031496062992 0.5118110236220472 0.05905511811023622 } } ] }