M48
; DRILL file KiCad 10.0.6 date 2026-09-09T07:34:39
; FORMAT={-:-/ absolute / metric / decimal}
; #@! TF.CreationDate,2026-09-09T07:34:39+08:00
; #@! TF.GenerationSoftware,Kicad,Pcbnew,10.0.6
; #@! TF.FileFunction,Plated,1,2,PTH
FMAT,2
METRIC
; #@! TA.AperFunction,Plated,PTH,ComponentDrill
T1C0.200
; #@! TA.AperFunction,Plated,PTH,ViaDrill
T2C0.300
; #@! TA.AperFunction,Plated,PTH,ComponentDrill
T3C0.750
; #@! TA.AperFunction,Plated,PTH,ComponentDrill
T4C1.000
%
G90
G05
T1
X14.0Y-12.65
X14.0Y-13.75
T2
X0.8Y-4.8
X1.0Y-9.5
X2.0Y-16.7
X3.225Y-8.7
X3.225Y-16.0
X4.9Y-14.5
X5.5Y-9.4
X6.5Y-11.3
X7.35Y-4.6
X7.5Y-5.6
X9.0Y-13.635
X9.1Y-11.095
X9.3Y-7.7
X9.4Y-12.365
X11.0Y-9.2
X11.0Y-16.6
X11.8Y-13.2
X12.325Y-16.4
X15.225Y-16.4
X15.3Y-8.6
X16.2Y-12.3
X17.5Y-15.5
X21.0Y-9.0
X22.7Y-18.0
T3
X2.5Y-18.8
X4.5Y-18.8
X9.6Y-18.8
X11.6Y-18.8
T4
X15.3Y-20.4
X17.84Y-20.4
X20.38Y-20.4
X21.1Y-3.4
X21.1Y-5.9
X21.1Y-12.0
X21.1Y-14.5
M30
