<svg xmlns="http://www.w3.org/2000/svg" width="1800" height="1160" viewBox="0 0 1800 1160">
<rect width="100%" height="100%" fill="white"/>
<text x="60" y="74" font-family="Microsoft JhengHei,sans-serif" font-size="38" fill="#25313d" text-anchor="start" font-weight="700">模式二固定版｜最少元件接線草圖</text>
<text x="60" y="118" font-family="Microsoft JhengHei,sans-serif" font-size="25" fill="#657382" text-anchor="start" font-weight="400">2 粒 AA 串聯 · Tamiya FA-130 · 兩個機械微動開關 · 無 J1、無 LED</text>
<polyline points="60,145 1740,145" fill="none" stroke="#dce3e8" stroke-width="1.5" stroke-linejoin="round"/>
<text x="60" y="205" font-family="Microsoft JhengHei,sans-serif" font-size="24" fill="#b64936" text-anchor="start" font-weight="400">電池 +</text>
<polyline points="155,210 220,210" fill="none" stroke="#b64936" stroke-width="2.5" stroke-linejoin="round"/>
<circle cx="220" cy="210" r="4" fill="white" stroke="#b64936" stroke-width="2"/>
<circle cx="290" cy="210" r="4" fill="white" stroke="#b64936" stroke-width="2"/>
<polyline points="220,210 282,190" fill="none" stroke="#b64936" stroke-width="2.5" stroke-linejoin="round"/>
<polyline points="290,210 1360,210" fill="none" stroke="#b64936" stroke-width="3" stroke-linejoin="round"/>
<text x="253" y="177" font-family="Microsoft JhengHei,sans-serif" font-size="21" fill="#25313d" text-anchor="middle" font-weight="400">S0 電源開關</text>
<text x="1400" y="218" font-family="Microsoft JhengHei,sans-serif" font-size="23" fill="#b64936" text-anchor="start" font-weight="400">VBAT 約 2.4–3.0 V（標稱）</text>
<text x="60" y="284" font-family="Microsoft JhengHei,sans-serif" font-size="24" fill="#25313d" text-anchor="start" font-weight="400">電池 -</text>
<polyline points="155,280 195,280 195,302" fill="none" stroke="#25313d" stroke-width="2.5" stroke-linejoin="round"/>
<polyline points="195,302 195,312" fill="none" stroke="#25313d" stroke-width="2.5" stroke-linejoin="round"/>
<polyline points="180,312 210,312" fill="none" stroke="#25313d" stroke-width="2.5" stroke-linejoin="round"/>
<polyline points="185,319 205,319" fill="none" stroke="#25313d" stroke-width="2.5" stroke-linejoin="round"/>
<polyline points="190,326 200,326" fill="none" stroke="#25313d" stroke-width="2.5" stroke-linejoin="round"/>
<text x="240" y="303" font-family="Microsoft JhengHei,sans-serif" font-size="21" fill="#657382" text-anchor="start" font-weight="400">所有 GND 相連</text>
<circle cx="470" cy="210" r="4" fill="#b64936" stroke="#b64936" stroke-width="2"/>
<polyline points="470,210 470,250" fill="none" stroke="#b64936" stroke-width="2.5" stroke-linejoin="round"/>
<polyline points="470,250 470,278.0" fill="none" stroke="#25313d" stroke-width="2.5" stroke-linejoin="round"/>
<polyline points="452,278.0 488,278.0" fill="none" stroke="#25313d" stroke-width="2.5" stroke-linejoin="round"/>
<polyline points="452,292.0 488,292.0" fill="none" stroke="#25313d" stroke-width="2.5" stroke-linejoin="round"/>
<polyline points="470,292.0 470,320" fill="none" stroke="#25313d" stroke-width="2.5" stroke-linejoin="round"/>
<text x="502" y="279.0" font-family="Microsoft JhengHei,sans-serif" font-size="21" fill="#25313d" text-anchor="start" font-weight="700">C1</text>
<text x="502" y="309.0" font-family="Microsoft JhengHei,sans-serif" font-size="21" fill="#25313d" text-anchor="start" font-weight="400">100 nF</text>
<polyline points="470,320 470,330" fill="none" stroke="#25313d" stroke-width="2.5" stroke-linejoin="round"/>
<polyline points="455,330 485,330" fill="none" stroke="#25313d" stroke-width="2.5" stroke-linejoin="round"/>
<polyline points="460,337 480,337" fill="none" stroke="#25313d" stroke-width="2.5" stroke-linejoin="round"/>
<polyline points="465,344 475,344" fill="none" stroke="#25313d" stroke-width="2.5" stroke-linejoin="round"/>
<circle cx="930" cy="210" r="4" fill="#b64936" stroke="#b64936" stroke-width="2"/>
<polyline points="930,210 930,250" fill="none" stroke="#b64936" stroke-width="2.5" stroke-linejoin="round"/>
<polyline points="930,250 930,278.0" fill="none" stroke="#25313d" stroke-width="2.5" stroke-linejoin="round"/>
<polyline points="912,278.0 948,278.0" fill="none" stroke="#25313d" stroke-width="2.5" stroke-linejoin="round"/>
<polyline points="912,292.0 948,292.0" fill="none" stroke="#25313d" stroke-width="2.5" stroke-linejoin="round"/>
<polyline points="930,292.0 930,320" fill="none" stroke="#25313d" stroke-width="2.5" stroke-linejoin="round"/>
<text x="962" y="279.0" font-family="Microsoft JhengHei,sans-serif" font-size="21" fill="#25313d" text-anchor="start" font-weight="700">C2</text>
<text x="962" y="309.0" font-family="Microsoft JhengHei,sans-serif" font-size="21" fill="#25313d" text-anchor="start" font-weight="400">100 nF</text>
<polyline points="930,320 930,330" fill="none" stroke="#25313d" stroke-width="2.5" stroke-linejoin="round"/>
<polyline points="915,330 945,330" fill="none" stroke="#25313d" stroke-width="2.5" stroke-linejoin="round"/>
<polyline points="920,337 940,337" fill="none" stroke="#25313d" stroke-width="2.5" stroke-linejoin="round"/>
<polyline points="925,344 935,344" fill="none" stroke="#25313d" stroke-width="2.5" stroke-linejoin="round"/>
<circle cx="1360" cy="210" r="4" fill="#b64936" stroke="#b64936" stroke-width="2"/>
<polyline points="1360,210 1360,250" fill="none" stroke="#b64936" stroke-width="2.5" stroke-linejoin="round"/>
<polyline points="1360,250 1360,278.0" fill="none" stroke="#25313d" stroke-width="2.5" stroke-linejoin="round"/>
<polyline points="1342,278.0 1378,278.0" fill="none" stroke="#25313d" stroke-width="2.5" stroke-linejoin="round"/>
<polyline points="1342,292.0 1378,292.0" fill="none" stroke="#25313d" stroke-width="2.5" stroke-linejoin="round"/>
<polyline points="1360,292.0 1360,320" fill="none" stroke="#25313d" stroke-width="2.5" stroke-linejoin="round"/>
<text x="1392" y="279.0" font-family="Microsoft JhengHei,sans-serif" font-size="21" fill="#25313d" text-anchor="start" font-weight="700">C3</text>
<text x="1392" y="309.0" font-family="Microsoft JhengHei,sans-serif" font-size="21" fill="#25313d" text-anchor="start" font-weight="400">100 µF / 6.3 V</text>
<text x="1331" y="266.0" font-family="Microsoft JhengHei,sans-serif" font-size="22" fill="#b64936" text-anchor="start" font-weight="400">+</text>
<polyline points="1360,320 1360,330" fill="none" stroke="#25313d" stroke-width="2.5" stroke-linejoin="round"/>
<polyline points="1345,330 1375,330" fill="none" stroke="#25313d" stroke-width="2.5" stroke-linejoin="round"/>
<polyline points="1350,337 1370,337" fill="none" stroke="#25313d" stroke-width="2.5" stroke-linejoin="round"/>
<polyline points="1355,344 1365,344" fill="none" stroke="#25313d" stroke-width="2.5" stroke-linejoin="round"/>
<text x="470" y="378" font-family="Microsoft JhengHei,sans-serif" font-size="19" fill="#657382" text-anchor="middle" font-weight="400">靠近 U1</text>
<text x="930" y="378" font-family="Microsoft JhengHei,sans-serif" font-size="19" fill="#657382" text-anchor="middle" font-weight="400">靠近 U2</text>
<text x="1360" y="378" font-family="Microsoft JhengHei,sans-serif" font-size="19" fill="#657382" text-anchor="middle" font-weight="400">靠近 U2；容量為初值</text>
<rect x="460" y="410" width="310" height="330" fill="#f7fafb" stroke="#25313d" stroke-width="2"/>
<rect x="990" y="410" width="310" height="330" fill="#f7fafb" stroke="#25313d" stroke-width="2"/>
<text x="615" y="450" font-family="Microsoft JhengHei,sans-serif" font-size="27" fill="#25313d" text-anchor="middle" font-weight="700">U1  ATtiny202</text>
<text x="615" y="480" font-family="Microsoft JhengHei,sans-serif" font-size="20" fill="#657382" text-anchor="middle" font-weight="400">SOIC-8 · 需燒錄程式</text>
<text x="1145" y="450" font-family="Microsoft JhengHei,sans-serif" font-size="25" fill="#25313d" text-anchor="middle" font-weight="700">U2  DRV8213DSG</text>
<text x="1145" y="480" font-family="Microsoft JhengHei,sans-serif" font-size="20" fill="#657382" text-anchor="middle" font-weight="400">WSON-8 · 2 × 2 mm</text>
<circle cx="660" cy="210" r="4" fill="#b64936" stroke="#b64936" stroke-width="2"/>
<polyline points="660,210 660,410" fill="none" stroke="#b64936" stroke-width="2.5" stroke-linejoin="round"/>
<text x="675" y="396" font-family="Microsoft JhengHei,sans-serif" font-size="20" fill="#b64936" text-anchor="start" font-weight="400">(1) VDD</text>
<circle cx="1130" cy="210" r="4" fill="#b64936" stroke="#b64936" stroke-width="2"/>
<polyline points="1130,210 1130,410" fill="none" stroke="#b64936" stroke-width="2.5" stroke-linejoin="round"/>
<text x="1145" y="396" font-family="Microsoft JhengHei,sans-serif" font-size="20" fill="#b64936" text-anchor="start" font-weight="400">(1) VM</text>
<polyline points="140,530 210,530" fill="none" stroke="#25313d" stroke-width="2.5" stroke-linejoin="round"/>
<polyline points="140,530 140,548" fill="none" stroke="#25313d" stroke-width="2.5" stroke-linejoin="round"/>
<polyline points="140,548 140,558" fill="none" stroke="#25313d" stroke-width="2.5" stroke-linejoin="round"/>
<polyline points="125,558 155,558" fill="none" stroke="#25313d" stroke-width="2.5" stroke-linejoin="round"/>
<polyline points="130,565 150,565" fill="none" stroke="#25313d" stroke-width="2.5" stroke-linejoin="round"/>
<polyline points="135,572 145,572" fill="none" stroke="#25313d" stroke-width="2.5" stroke-linejoin="round"/>
<circle cx="210" cy="530" r="4" fill="white" stroke="#25313d" stroke-width="2"/>
<circle cx="280" cy="530" r="4" fill="white" stroke="#25313d" stroke-width="2"/>
<polyline points="210,530 271,508" fill="none" stroke="#25313d" stroke-width="2.5" stroke-linejoin="round"/>
<polyline points="280,530 460,530" fill="none" stroke="#236c85" stroke-width="2.5" stroke-linejoin="round"/>
<text x="245" y="491" font-family="Microsoft JhengHei,sans-serif" font-size="23" fill="#25313d" text-anchor="middle" font-weight="700">SW1 常開</text>
<text x="206" y="563" font-family="Microsoft JhengHei,sans-serif" font-size="18" fill="#657382" text-anchor="middle" font-weight="400">COM</text>
<text x="288" y="563" font-family="Microsoft JhengHei,sans-serif" font-size="18" fill="#657382" text-anchor="middle" font-weight="400">NO</text>
<text x="478" y="537" font-family="Microsoft JhengHei,sans-serif" font-size="22" fill="#25313d" text-anchor="start" font-weight="400">(2) PA6</text>
<polyline points="140,630 210,630" fill="none" stroke="#25313d" stroke-width="2.5" stroke-linejoin="round"/>
<polyline points="140,630 140,648" fill="none" stroke="#25313d" stroke-width="2.5" stroke-linejoin="round"/>
<polyline points="140,648 140,658" fill="none" stroke="#25313d" stroke-width="2.5" stroke-linejoin="round"/>
<polyline points="125,658 155,658" fill="none" stroke="#25313d" stroke-width="2.5" stroke-linejoin="round"/>
<polyline points="130,665 150,665" fill="none" stroke="#25313d" stroke-width="2.5" stroke-linejoin="round"/>
<polyline points="135,672 145,672" fill="none" stroke="#25313d" stroke-width="2.5" stroke-linejoin="round"/>
<circle cx="210" cy="630" r="4" fill="white" stroke="#25313d" stroke-width="2"/>
<circle cx="280" cy="630" r="4" fill="white" stroke="#25313d" stroke-width="2"/>
<polyline points="210,630 271,608" fill="none" stroke="#25313d" stroke-width="2.5" stroke-linejoin="round"/>
<polyline points="280,630 460,630" fill="none" stroke="#236c85" stroke-width="2.5" stroke-linejoin="round"/>
<text x="245" y="591" font-family="Microsoft JhengHei,sans-serif" font-size="23" fill="#25313d" text-anchor="middle" font-weight="700">SW2 常開</text>
<text x="206" y="663" font-family="Microsoft JhengHei,sans-serif" font-size="18" fill="#657382" text-anchor="middle" font-weight="400">COM</text>
<text x="288" y="663" font-family="Microsoft JhengHei,sans-serif" font-size="18" fill="#657382" text-anchor="middle" font-weight="400">NO</text>
<text x="478" y="637" font-family="Microsoft JhengHei,sans-serif" font-size="22" fill="#25313d" text-anchor="start" font-weight="400">(3) PA7</text>
<text x="210" y="699" font-family="Microsoft JhengHei,sans-serif" font-size="20" fill="#657382" text-anchor="middle" font-weight="400">NC 不接</text>
<text x="752" y="537" font-family="Microsoft JhengHei,sans-serif" font-size="22" fill="#25313d" text-anchor="end" font-weight="400">PA1 (4)</text>
<text x="1008" y="537" font-family="Microsoft JhengHei,sans-serif" font-size="22" fill="#25313d" text-anchor="start" font-weight="400">(6) IN1</text>
<polyline points="770,530 990,530" fill="none" stroke="#236c85" stroke-width="2.5" stroke-linejoin="round"/>
<text x="752" y="617" font-family="Microsoft JhengHei,sans-serif" font-size="22" fill="#25313d" text-anchor="end" font-weight="400">PA2 (5)</text>
<text x="1008" y="617" font-family="Microsoft JhengHei,sans-serif" font-size="22" fill="#25313d" text-anchor="start" font-weight="400">(5) IN2</text>
<polyline points="770,610 990,610" fill="none" stroke="#236c85" stroke-width="2.5" stroke-linejoin="round"/>
<text x="880" y="509" font-family="Microsoft JhengHei,sans-serif" font-size="19" fill="#236c85" text-anchor="middle" font-weight="400">正反轉控制</text>
<text x="478" y="696" font-family="Microsoft JhengHei,sans-serif" font-size="21" fill="#25313d" text-anchor="start" font-weight="400">(6) UPDI</text>
<polyline points="320,690 460,690" fill="none" stroke="#236c85" stroke-width="2.5" stroke-linejoin="round"/>
<circle cx="320" cy="690" r="5" fill="white" stroke="#236c85" stroke-width="2"/>
<text x="303" y="733" font-family="Microsoft JhengHei,sans-serif" font-size="20" fill="#657382" text-anchor="middle" font-weight="400">燒錄焊盤</text>
<text x="752" y="696" font-family="Microsoft JhengHei,sans-serif" font-size="21" fill="#25313d" text-anchor="end" font-weight="400">PA3 (7)</text>
<text x="1008" y="696" font-family="Microsoft JhengHei,sans-serif" font-size="21" fill="#25313d" text-anchor="start" font-weight="400">(8) IPROPI</text>
<polyline points="770,690 990,690" fill="none" stroke="#236c85" stroke-width="2.5" stroke-linejoin="round"/>
<text x="880" y="669" font-family="Microsoft JhengHei,sans-serif" font-size="19" fill="#236c85" text-anchor="middle" font-weight="400">電流回讀</text>
<circle cx="870" cy="690" r="4" fill="#236c85" stroke="#236c85" stroke-width="2"/>
<polyline points="870,690 870,765" fill="none" stroke="#25313d" stroke-width="2.5" stroke-linejoin="round"/>
<rect x="859" y="765" width="22" height="54" fill="white" stroke="#25313d" stroke-width="2"/>
<polyline points="870,819 870,832" fill="none" stroke="#25313d" stroke-width="2.5" stroke-linejoin="round"/>
<polyline points="870,832 870,842" fill="none" stroke="#25313d" stroke-width="2.5" stroke-linejoin="round"/>
<polyline points="855,842 885,842" fill="none" stroke="#25313d" stroke-width="2.5" stroke-linejoin="round"/>
<polyline points="860,849 880,849" fill="none" stroke="#25313d" stroke-width="2.5" stroke-linejoin="round"/>
<polyline points="865,856 875,856" fill="none" stroke="#25313d" stroke-width="2.5" stroke-linejoin="round"/>
<text x="907" y="783" font-family="Microsoft JhengHei,sans-serif" font-size="22" fill="#25313d" text-anchor="start" font-weight="700">R1</text>
<text x="907" y="814" font-family="Microsoft JhengHei,sans-serif" font-size="22" fill="#25313d" text-anchor="start" font-weight="400">1.24 kΩ · 1%</text>
<text x="870" y="891" font-family="Microsoft JhengHei,sans-serif" font-size="22" fill="#25313d" text-anchor="middle" font-weight="700">標稱限流約 2.0 A</text>
<text x="660" y="726" font-family="Microsoft JhengHei,sans-serif" font-size="20" fill="#25313d" text-anchor="middle" font-weight="400">GND (8)</text>
<polyline points="660,740 660,798" fill="none" stroke="#25313d" stroke-width="2.5" stroke-linejoin="round"/>
<polyline points="660,798 660,808" fill="none" stroke="#25313d" stroke-width="2.5" stroke-linejoin="round"/>
<polyline points="645,808 675,808" fill="none" stroke="#25313d" stroke-width="2.5" stroke-linejoin="round"/>
<polyline points="650,815 670,815" fill="none" stroke="#25313d" stroke-width="2.5" stroke-linejoin="round"/>
<polyline points="655,822 665,822" fill="none" stroke="#25313d" stroke-width="2.5" stroke-linejoin="round"/>
<text x="1080" y="726" font-family="Microsoft JhengHei,sans-serif" font-size="19" fill="#25313d" text-anchor="middle" font-weight="400">GND (4)</text>
<polyline points="1080,740 1080,798" fill="none" stroke="#25313d" stroke-width="2.5" stroke-linejoin="round"/>
<polyline points="1080,798 1080,808" fill="none" stroke="#25313d" stroke-width="2.5" stroke-linejoin="round"/>
<polyline points="1065,808 1095,808" fill="none" stroke="#25313d" stroke-width="2.5" stroke-linejoin="round"/>
<polyline points="1070,815 1090,815" fill="none" stroke="#25313d" stroke-width="2.5" stroke-linejoin="round"/>
<polyline points="1075,822 1085,822" fill="none" stroke="#25313d" stroke-width="2.5" stroke-linejoin="round"/>
<text x="1225" y="726" font-family="Microsoft JhengHei,sans-serif" font-size="19" fill="#25313d" text-anchor="middle" font-weight="400">GAINSEL (7)</text>
<polyline points="1225,740 1225,798" fill="none" stroke="#25313d" stroke-width="2.5" stroke-linejoin="round"/>
<polyline points="1225,798 1225,808" fill="none" stroke="#25313d" stroke-width="2.5" stroke-linejoin="round"/>
<polyline points="1210,808 1240,808" fill="none" stroke="#25313d" stroke-width="2.5" stroke-linejoin="round"/>
<polyline points="1215,815 1235,815" fill="none" stroke="#25313d" stroke-width="2.5" stroke-linejoin="round"/>
<polyline points="1220,822 1230,822" fill="none" stroke="#25313d" stroke-width="2.5" stroke-linejoin="round"/>
<text x="1160" y="870" font-family="Microsoft JhengHei,sans-serif" font-size="20" fill="#657382" text-anchor="middle" font-weight="400">裸露散熱焊盤也接 GND</text>
<text x="1282" y="525" font-family="Microsoft JhengHei,sans-serif" font-size="21" fill="#25313d" text-anchor="end" font-weight="400">OUT1 (2)</text>
<text x="1282" y="605" font-family="Microsoft JhengHei,sans-serif" font-size="21" fill="#25313d" text-anchor="end" font-weight="400">OUT2 (3)</text>
<polyline points="1300,520 1570,520 1570,537" fill="none" stroke="#236c85" stroke-width="3" stroke-linejoin="round"/>
<polyline points="1300,600 1360,600 1360,630 1570,630 1570,613" fill="none" stroke="#236c85" stroke-width="3" stroke-linejoin="round"/>
<circle cx="1570" cy="575" r="38" fill="white" stroke="#236c85" stroke-width="2"/>
<text x="1570" y="587" font-family="Microsoft JhengHei,sans-serif" font-size="32" fill="#236c85" text-anchor="middle" font-weight="400">M</text>
<text x="1570" y="459" font-family="Microsoft JhengHei,sans-serif" font-size="25" fill="#25313d" text-anchor="middle" font-weight="700">FA-130 馬達</text>
<circle cx="1430" cy="520" r="4" fill="#236c85" stroke="#236c85" stroke-width="2"/>
<circle cx="1430" cy="630" r="4" fill="#236c85" stroke="#236c85" stroke-width="2"/>
<polyline points="1430,520 1430,549" fill="none" stroke="#236c85" stroke-width="2.5" stroke-linejoin="round"/>
<polyline points="1412,549 1448,549" fill="none" stroke="#236c85" stroke-width="2.5" stroke-linejoin="round"/>
<polyline points="1412,561 1448,561" fill="none" stroke="#236c85" stroke-width="2.5" stroke-linejoin="round"/>
<polyline points="1430,561 1430,630" fill="none" stroke="#236c85" stroke-width="2.5" stroke-linejoin="round"/>
<text x="1430" y="679" font-family="Microsoft JhengHei,sans-serif" font-size="22" fill="#25313d" text-anchor="middle" font-weight="400">C4 · 100 nF</text>
<text x="1505" y="724" font-family="Microsoft JhengHei,sans-serif" font-size="22" fill="#657382" text-anchor="middle" font-weight="400">C4 焊在馬達端子旁</text>
<text x="1505" y="759" font-family="Microsoft JhengHei,sans-serif" font-size="20" fill="#657382" text-anchor="middle" font-weight="400">馬達兩端都不可固定接 GND</text>
<text x="75" y="797" font-family="Microsoft JhengHei,sans-serif" font-size="22" fill="#25313d" text-anchor="start" font-weight="700">燒錄只留 3 個接觸焊盤</text>
<circle cx="145" cy="841" r="9" fill="white" stroke="#b64936" stroke-width="2"/>
<text x="145" y="882" font-family="Microsoft JhengHei,sans-serif" font-size="20" fill="#b64936" text-anchor="middle" font-weight="400">VBAT</text>
<circle cx="285" cy="841" r="9" fill="white" stroke="#236c85" stroke-width="2"/>
<text x="285" y="882" font-family="Microsoft JhengHei,sans-serif" font-size="20" fill="#236c85" text-anchor="middle" font-weight="400">UPDI</text>
<circle cx="425" cy="841" r="9" fill="white" stroke="#25313d" stroke-width="2"/>
<text x="425" y="882" font-family="Microsoft JhengHei,sans-serif" font-size="20" fill="#25313d" text-anchor="middle" font-weight="400">GND</text>
<polyline points="60,932 1740,932" fill="none" stroke="#dce3e8" stroke-width="1.5" stroke-linejoin="round"/>
<text x="60" y="977" font-family="Microsoft JhengHei,sans-serif" font-size="24" fill="#25313d" text-anchor="start" font-weight="700">板上核心：2 IC + 1 電阻 + 3 電容；另加 S0。開關及馬達以焊線連接。</text>
<text x="60" y="1017" font-family="Microsoft JhengHei,sans-serif" font-size="22" fill="#25313d" text-anchor="start" font-weight="400">MCU 程式：內建上拉、接點防彈跳、模式二、停止後鎖定 3 秒；時脈不超過 5 MHz。</text>
<text x="60" y="1057" font-family="Microsoft JhengHei,sans-serif" font-size="22" fill="#25313d" text-anchor="start" font-weight="400">R1、C3 為原型初值，需驗證啟動、換向及溫升；限流不等於卡住後自動停機。</text>
<text x="60" y="1114" font-family="Microsoft JhengHei,sans-serif" font-size="20" fill="#657382" text-anchor="start" font-weight="400">接線草圖 v1｜數字為實際接腳號，符號位置不代表封裝腳位｜尚未作 PCB 佈線或實機測試</text>
</svg>