%TF.GenerationSoftware,KiCad,Pcbnew,10.0.6*%
%TF.CreationDate,2026-09-09T22:30:14+08:00*%
%TF.ProjectId,mode2-no-firmware,6d6f6465-322d-46e6-9f2d-6669726d7761,rev?*%
%TF.SameCoordinates,Original*%
%TF.FileFunction,Soldermask,Top*%
%TF.FilePolarity,Negative*%
%FSLAX46Y46*%
G04 Gerber Fmt 4.6, Leading zero omitted, Abs format (unit mm)*
G04 Created by KiCad (PCBNEW 10.0.6) date 2026-09-09 22:30:14*
%MOMM*%
%LPD*%
G01*
G04 APERTURE LIST*
G04 Aperture macros list*
%AMRoundRect*
0 Rectangle with rounded corners*
0 $1 Rounding radius*
0 $2 $3 $4 $5 $6 $7 $8 $9 X,Y pos of 4 corners*
0 Add a 4 corners polygon primitive as box body*
4,1,4,$2,$3,$4,$5,$6,$7,$8,$9,$2,$3,0*
0 Add four circle primitives for the rounded corners*
1,1,$1+$1,$2,$3*
1,1,$1+$1,$4,$5*
1,1,$1+$1,$6,$7*
1,1,$1+$1,$8,$9*
0 Add four rect primitives between the rounded corners*
20,1,$1+$1,$2,$3,$4,$5,0*
20,1,$1+$1,$4,$5,$6,$7,0*
20,1,$1+$1,$6,$7,$8,$9,0*
20,1,$1+$1,$8,$9,$2,$3,0*%
G04 Aperture macros list end*
%ADD10RoundRect,0.112500X-0.187500X-0.112500X0.187500X-0.112500X0.187500X0.112500X-0.187500X0.112500X0*%
%ADD11RoundRect,0.200000X-0.200000X-0.275000X0.200000X-0.275000X0.200000X0.275000X-0.200000X0.275000X0*%
%ADD12R,2.100000X2.100000*%
%ADD13C,2.100000*%
%ADD14RoundRect,0.225000X-0.225000X-0.250000X0.225000X-0.250000X0.225000X0.250000X-0.225000X0.250000X0*%
%ADD15R,2.600000X2.600000*%
%ADD16C,2.600000*%
%ADD17RoundRect,0.200000X0.275000X-0.200000X0.275000X0.200000X-0.275000X0.200000X-0.275000X-0.200000X0*%
%ADD18RoundRect,0.150000X-0.825000X-0.150000X0.825000X-0.150000X0.825000X0.150000X-0.825000X0.150000X0*%
%ADD19RoundRect,0.250000X0.550000X-1.250000X0.550000X1.250000X-0.550000X1.250000X-0.550000X-1.250000X0*%
%ADD20RoundRect,0.250000X0.625000X-0.312500X0.625000X0.312500X-0.625000X0.312500X-0.625000X-0.312500X0*%
%ADD21RoundRect,0.225000X0.250000X-0.225000X0.250000X0.225000X-0.250000X0.225000X-0.250000X-0.225000X0*%
%ADD22RoundRect,0.062500X0.237500X0.062500X-0.237500X0.062500X-0.237500X-0.062500X0.237500X-0.062500X0*%
%ADD23R,0.900000X1.600000*%
G04 APERTURE END LIST*
D10*
%TO.C,D1*%
X25950000Y-28000000D03*
X28050000Y-28000000D03*
%TD*%
D11*
%TO.C,R2*%
X17175000Y-29000000D03*
X18825000Y-29000000D03*
%TD*%
D12*
%TO.C,P4*%
X36600000Y-18000000D03*
D13*
X36600000Y-15460000D03*
%TD*%
D14*
%TO.C,C1*%
X6725000Y-14500000D03*
X8275000Y-14500000D03*
%TD*%
D15*
%TO.C,S0*%
X5300000Y-5000000D03*
D16*
X10000000Y-5000000D03*
X14700000Y-5000000D03*
%TD*%
D17*
%TO.C,R3*%
X12500000Y-18825000D03*
X12500000Y-17175000D03*
%TD*%
D18*
%TO.C,U2*%
X17525000Y-16190000D03*
X17525000Y-17460000D03*
X17525000Y-18730000D03*
X17525000Y-20000000D03*
X17525000Y-21270000D03*
X17525000Y-22540000D03*
X17525000Y-23810000D03*
X22475000Y-23810000D03*
X22475000Y-22540000D03*
X22475000Y-21270000D03*
X22475000Y-20000000D03*
X22475000Y-18730000D03*
X22475000Y-17460000D03*
X22475000Y-16190000D03*
%TD*%
D12*
%TO.C,P3*%
X16000000Y-36500000D03*
D13*
X18540000Y-36500000D03*
%TD*%
D14*
%TO.C,C2*%
X19225000Y-14500000D03*
X20775000Y-14500000D03*
%TD*%
D19*
%TO.C,C4*%
X28000000Y-12200000D03*
X28000000Y-7800000D03*
%TD*%
D20*
%TO.C,R6*%
X21000000Y-7462500D03*
X21000000Y-4537500D03*
%TD*%
D14*
%TO.C,C3*%
X30225000Y-23000000D03*
X31775000Y-23000000D03*
%TD*%
D11*
%TO.C,R1*%
X5175000Y-29000000D03*
X6825000Y-29000000D03*
%TD*%
D21*
%TO.C,C7*%
X28000000Y-33775000D03*
X28000000Y-32225000D03*
%TD*%
D12*
%TO.C,P1*%
X36600000Y-5300000D03*
D13*
X36600000Y-2760000D03*
%TD*%
D17*
%TO.C,R5*%
X24000000Y-33825000D03*
X24000000Y-32175000D03*
%TD*%
D21*
%TO.C,C6*%
X12500000Y-23775000D03*
X12500000Y-22225000D03*
%TD*%
D18*
%TO.C,U1*%
X5025000Y-16190000D03*
X5025000Y-17460000D03*
X5025000Y-18730000D03*
X5025000Y-20000000D03*
X5025000Y-21270000D03*
X5025000Y-22540000D03*
X5025000Y-23810000D03*
X9975000Y-23810000D03*
X9975000Y-22540000D03*
X9975000Y-21270000D03*
X9975000Y-20000000D03*
X9975000Y-18730000D03*
X9975000Y-17460000D03*
X9975000Y-16190000D03*
%TD*%
D12*
%TO.C,P2*%
X6000000Y-36500000D03*
D13*
X8540000Y-36500000D03*
%TD*%
D22*
%TO.C,U3*%
X31950000Y-20750000D03*
X31950000Y-20250000D03*
X31950000Y-19750000D03*
X31950000Y-19250000D03*
X30050000Y-19250000D03*
X30050000Y-19750000D03*
X30050000Y-20250000D03*
X30050000Y-20750000D03*
D23*
X31000000Y-20000000D03*
%TD*%
D21*
%TO.C,C5*%
X12500000Y-15775000D03*
X12500000Y-14225000D03*
%TD*%
D17*
%TO.C,R4*%
X12500000Y-26825000D03*
X12500000Y-25175000D03*
%TD*%
M02*
