%TF.GenerationSoftware,KiCad,Pcbnew,10.0.6*%
%TF.CreationDate,2026-09-09T22:30:14+08:00*%
%TF.ProjectId,mode2-no-firmware,6d6f6465-322d-46e6-9f2d-6669726d7761,rev?*%
%TF.SameCoordinates,Original*%
%TF.FileFunction,Legend,Bot*%
%TF.FilePolarity,Positive*%
%FSLAX46Y46*%
G04 Gerber Fmt 4.6, Leading zero omitted, Abs format (unit mm)*
G04 Created by KiCad (PCBNEW 10.0.6) date 2026-09-09 22:30:14*
%MOMM*%
%LPD*%
G01*
G04 APERTURE LIST*
%ADD10C,0.120000*%
G04 APERTURE END LIST*
D10*
X6133332Y-29363855D02*
X6399999Y-28982902D01*
X6590475Y-29363855D02*
X6590475Y-28563855D01*
X6590475Y-28563855D02*
X6285713Y-28563855D01*
X6285713Y-28563855D02*
X6209523Y-28601950D01*
X6209523Y-28601950D02*
X6171428Y-28640045D01*
X6171428Y-28640045D02*
X6133332Y-28716236D01*
X6133332Y-28716236D02*
X6133332Y-28830521D01*
X6133332Y-28830521D02*
X6171428Y-28906712D01*
X6171428Y-28906712D02*
X6209523Y-28944807D01*
X6209523Y-28944807D02*
X6285713Y-28982902D01*
X6285713Y-28982902D02*
X6590475Y-28982902D01*
X5371428Y-29363855D02*
X5828571Y-29363855D01*
X5599999Y-29363855D02*
X5599999Y-28563855D01*
X5599999Y-28563855D02*
X5676190Y-28678140D01*
X5676190Y-28678140D02*
X5752380Y-28754331D01*
X5752380Y-28754331D02*
X5828571Y-28792426D01*
X6647618Y-32563855D02*
X6647618Y-31763855D01*
X6647618Y-31763855D02*
X6190475Y-32563855D01*
X6190475Y-32563855D02*
X6190475Y-31763855D01*
X5657142Y-31763855D02*
X5504761Y-31763855D01*
X5504761Y-31763855D02*
X5428571Y-31801950D01*
X5428571Y-31801950D02*
X5352380Y-31878140D01*
X5352380Y-31878140D02*
X5314285Y-32030521D01*
X5314285Y-32030521D02*
X5314285Y-32297188D01*
X5314285Y-32297188D02*
X5352380Y-32449569D01*
X5352380Y-32449569D02*
X5428571Y-32525760D01*
X5428571Y-32525760D02*
X5504761Y-32563855D01*
X5504761Y-32563855D02*
X5657142Y-32563855D01*
X5657142Y-32563855D02*
X5733333Y-32525760D01*
X5733333Y-32525760D02*
X5809523Y-32449569D01*
X5809523Y-32449569D02*
X5847619Y-32297188D01*
X5847619Y-32297188D02*
X5847619Y-32030521D01*
X5847619Y-32030521D02*
X5809523Y-31878140D01*
X5809523Y-31878140D02*
X5733333Y-31801950D01*
X5733333Y-31801950D02*
X5657142Y-31763855D01*
X7633332Y-14787664D02*
X7671428Y-14825760D01*
X7671428Y-14825760D02*
X7785713Y-14863855D01*
X7785713Y-14863855D02*
X7861904Y-14863855D01*
X7861904Y-14863855D02*
X7976190Y-14825760D01*
X7976190Y-14825760D02*
X8052380Y-14749569D01*
X8052380Y-14749569D02*
X8090475Y-14673379D01*
X8090475Y-14673379D02*
X8128571Y-14520998D01*
X8128571Y-14520998D02*
X8128571Y-14406712D01*
X8128571Y-14406712D02*
X8090475Y-14254331D01*
X8090475Y-14254331D02*
X8052380Y-14178140D01*
X8052380Y-14178140D02*
X7976190Y-14101950D01*
X7976190Y-14101950D02*
X7861904Y-14063855D01*
X7861904Y-14063855D02*
X7785713Y-14063855D01*
X7785713Y-14063855D02*
X7671428Y-14101950D01*
X7671428Y-14101950D02*
X7633332Y-14140045D01*
X6871428Y-14863855D02*
X7328571Y-14863855D01*
X7099999Y-14863855D02*
X7099999Y-14063855D01*
X7099999Y-14063855D02*
X7176190Y-14178140D01*
X7176190Y-14178140D02*
X7252380Y-14254331D01*
X7252380Y-14254331D02*
X7328571Y-14292426D01*
X8109523Y-19563855D02*
X8109523Y-20211474D01*
X8109523Y-20211474D02*
X8071428Y-20287664D01*
X8071428Y-20287664D02*
X8033333Y-20325760D01*
X8033333Y-20325760D02*
X7957142Y-20363855D01*
X7957142Y-20363855D02*
X7804761Y-20363855D01*
X7804761Y-20363855D02*
X7728571Y-20325760D01*
X7728571Y-20325760D02*
X7690476Y-20287664D01*
X7690476Y-20287664D02*
X7652380Y-20211474D01*
X7652380Y-20211474D02*
X7652380Y-19563855D01*
X6852381Y-20363855D02*
X7309524Y-20363855D01*
X7080952Y-20363855D02*
X7080952Y-19563855D01*
X7080952Y-19563855D02*
X7157143Y-19678140D01*
X7157143Y-19678140D02*
X7233333Y-19754331D01*
X7233333Y-19754331D02*
X7309524Y-19792426D01*
X9168570Y-32487664D02*
X9206666Y-32525760D01*
X9206666Y-32525760D02*
X9320951Y-32563855D01*
X9320951Y-32563855D02*
X9397142Y-32563855D01*
X9397142Y-32563855D02*
X9511428Y-32525760D01*
X9511428Y-32525760D02*
X9587618Y-32449569D01*
X9587618Y-32449569D02*
X9625713Y-32373379D01*
X9625713Y-32373379D02*
X9663809Y-32220998D01*
X9663809Y-32220998D02*
X9663809Y-32106712D01*
X9663809Y-32106712D02*
X9625713Y-31954331D01*
X9625713Y-31954331D02*
X9587618Y-31878140D01*
X9587618Y-31878140D02*
X9511428Y-31801950D01*
X9511428Y-31801950D02*
X9397142Y-31763855D01*
X9397142Y-31763855D02*
X9320951Y-31763855D01*
X9320951Y-31763855D02*
X9206666Y-31801950D01*
X9206666Y-31801950D02*
X9168570Y-31840045D01*
X8673332Y-31763855D02*
X8520951Y-31763855D01*
X8520951Y-31763855D02*
X8444761Y-31801950D01*
X8444761Y-31801950D02*
X8368570Y-31878140D01*
X8368570Y-31878140D02*
X8330475Y-32030521D01*
X8330475Y-32030521D02*
X8330475Y-32297188D01*
X8330475Y-32297188D02*
X8368570Y-32449569D01*
X8368570Y-32449569D02*
X8444761Y-32525760D01*
X8444761Y-32525760D02*
X8520951Y-32563855D01*
X8520951Y-32563855D02*
X8673332Y-32563855D01*
X8673332Y-32563855D02*
X8749523Y-32525760D01*
X8749523Y-32525760D02*
X8825713Y-32449569D01*
X8825713Y-32449569D02*
X8863809Y-32297188D01*
X8863809Y-32297188D02*
X8863809Y-32030521D01*
X8863809Y-32030521D02*
X8825713Y-31878140D01*
X8825713Y-31878140D02*
X8749523Y-31801950D01*
X8749523Y-31801950D02*
X8673332Y-31763855D01*
X7987618Y-32563855D02*
X7987618Y-31763855D01*
X7987618Y-31763855D02*
X7720952Y-32335283D01*
X7720952Y-32335283D02*
X7454285Y-31763855D01*
X7454285Y-31763855D02*
X7454285Y-32563855D01*
X12633332Y-15287664D02*
X12671428Y-15325760D01*
X12671428Y-15325760D02*
X12785713Y-15363855D01*
X12785713Y-15363855D02*
X12861904Y-15363855D01*
X12861904Y-15363855D02*
X12976190Y-15325760D01*
X12976190Y-15325760D02*
X13052380Y-15249569D01*
X13052380Y-15249569D02*
X13090475Y-15173379D01*
X13090475Y-15173379D02*
X13128571Y-15020998D01*
X13128571Y-15020998D02*
X13128571Y-14906712D01*
X13128571Y-14906712D02*
X13090475Y-14754331D01*
X13090475Y-14754331D02*
X13052380Y-14678140D01*
X13052380Y-14678140D02*
X12976190Y-14601950D01*
X12976190Y-14601950D02*
X12861904Y-14563855D01*
X12861904Y-14563855D02*
X12785713Y-14563855D01*
X12785713Y-14563855D02*
X12671428Y-14601950D01*
X12671428Y-14601950D02*
X12633332Y-14640045D01*
X11909523Y-14563855D02*
X12290475Y-14563855D01*
X12290475Y-14563855D02*
X12328571Y-14944807D01*
X12328571Y-14944807D02*
X12290475Y-14906712D01*
X12290475Y-14906712D02*
X12214285Y-14868617D01*
X12214285Y-14868617D02*
X12023809Y-14868617D01*
X12023809Y-14868617D02*
X11947618Y-14906712D01*
X11947618Y-14906712D02*
X11909523Y-14944807D01*
X11909523Y-14944807D02*
X11871428Y-15020998D01*
X11871428Y-15020998D02*
X11871428Y-15211474D01*
X11871428Y-15211474D02*
X11909523Y-15287664D01*
X11909523Y-15287664D02*
X11947618Y-15325760D01*
X11947618Y-15325760D02*
X12023809Y-15363855D01*
X12023809Y-15363855D02*
X12214285Y-15363855D01*
X12214285Y-15363855D02*
X12290475Y-15325760D01*
X12290475Y-15325760D02*
X12328571Y-15287664D01*
X12633332Y-18363855D02*
X12899999Y-17982902D01*
X13090475Y-18363855D02*
X13090475Y-17563855D01*
X13090475Y-17563855D02*
X12785713Y-17563855D01*
X12785713Y-17563855D02*
X12709523Y-17601950D01*
X12709523Y-17601950D02*
X12671428Y-17640045D01*
X12671428Y-17640045D02*
X12633332Y-17716236D01*
X12633332Y-17716236D02*
X12633332Y-17830521D01*
X12633332Y-17830521D02*
X12671428Y-17906712D01*
X12671428Y-17906712D02*
X12709523Y-17944807D01*
X12709523Y-17944807D02*
X12785713Y-17982902D01*
X12785713Y-17982902D02*
X13090475Y-17982902D01*
X12366666Y-17563855D02*
X11871428Y-17563855D01*
X11871428Y-17563855D02*
X12138094Y-17868617D01*
X12138094Y-17868617D02*
X12023809Y-17868617D01*
X12023809Y-17868617D02*
X11947618Y-17906712D01*
X11947618Y-17906712D02*
X11909523Y-17944807D01*
X11909523Y-17944807D02*
X11871428Y-18020998D01*
X11871428Y-18020998D02*
X11871428Y-18211474D01*
X11871428Y-18211474D02*
X11909523Y-18287664D01*
X11909523Y-18287664D02*
X11947618Y-18325760D01*
X11947618Y-18325760D02*
X12023809Y-18363855D01*
X12023809Y-18363855D02*
X12252380Y-18363855D01*
X12252380Y-18363855D02*
X12328571Y-18325760D01*
X12328571Y-18325760D02*
X12366666Y-18287664D01*
X12633332Y-23287664D02*
X12671428Y-23325760D01*
X12671428Y-23325760D02*
X12785713Y-23363855D01*
X12785713Y-23363855D02*
X12861904Y-23363855D01*
X12861904Y-23363855D02*
X12976190Y-23325760D01*
X12976190Y-23325760D02*
X13052380Y-23249569D01*
X13052380Y-23249569D02*
X13090475Y-23173379D01*
X13090475Y-23173379D02*
X13128571Y-23020998D01*
X13128571Y-23020998D02*
X13128571Y-22906712D01*
X13128571Y-22906712D02*
X13090475Y-22754331D01*
X13090475Y-22754331D02*
X13052380Y-22678140D01*
X13052380Y-22678140D02*
X12976190Y-22601950D01*
X12976190Y-22601950D02*
X12861904Y-22563855D01*
X12861904Y-22563855D02*
X12785713Y-22563855D01*
X12785713Y-22563855D02*
X12671428Y-22601950D01*
X12671428Y-22601950D02*
X12633332Y-22640045D01*
X11947618Y-22563855D02*
X12099999Y-22563855D01*
X12099999Y-22563855D02*
X12176190Y-22601950D01*
X12176190Y-22601950D02*
X12214285Y-22640045D01*
X12214285Y-22640045D02*
X12290475Y-22754331D01*
X12290475Y-22754331D02*
X12328571Y-22906712D01*
X12328571Y-22906712D02*
X12328571Y-23211474D01*
X12328571Y-23211474D02*
X12290475Y-23287664D01*
X12290475Y-23287664D02*
X12252380Y-23325760D01*
X12252380Y-23325760D02*
X12176190Y-23363855D01*
X12176190Y-23363855D02*
X12023809Y-23363855D01*
X12023809Y-23363855D02*
X11947618Y-23325760D01*
X11947618Y-23325760D02*
X11909523Y-23287664D01*
X11909523Y-23287664D02*
X11871428Y-23211474D01*
X11871428Y-23211474D02*
X11871428Y-23020998D01*
X11871428Y-23020998D02*
X11909523Y-22944807D01*
X11909523Y-22944807D02*
X11947618Y-22906712D01*
X11947618Y-22906712D02*
X12023809Y-22868617D01*
X12023809Y-22868617D02*
X12176190Y-22868617D01*
X12176190Y-22868617D02*
X12252380Y-22906712D01*
X12252380Y-22906712D02*
X12290475Y-22944807D01*
X12290475Y-22944807D02*
X12328571Y-23020998D01*
X12633332Y-26363855D02*
X12899999Y-25982902D01*
X13090475Y-26363855D02*
X13090475Y-25563855D01*
X13090475Y-25563855D02*
X12785713Y-25563855D01*
X12785713Y-25563855D02*
X12709523Y-25601950D01*
X12709523Y-25601950D02*
X12671428Y-25640045D01*
X12671428Y-25640045D02*
X12633332Y-25716236D01*
X12633332Y-25716236D02*
X12633332Y-25830521D01*
X12633332Y-25830521D02*
X12671428Y-25906712D01*
X12671428Y-25906712D02*
X12709523Y-25944807D01*
X12709523Y-25944807D02*
X12785713Y-25982902D01*
X12785713Y-25982902D02*
X13090475Y-25982902D01*
X11947618Y-25830521D02*
X11947618Y-26363855D01*
X12138094Y-25525760D02*
X12328571Y-26097188D01*
X12328571Y-26097188D02*
X11833332Y-26097188D01*
X16647618Y-32563855D02*
X16647618Y-31763855D01*
X16647618Y-31763855D02*
X16190475Y-32563855D01*
X16190475Y-32563855D02*
X16190475Y-31763855D01*
X15657142Y-31763855D02*
X15504761Y-31763855D01*
X15504761Y-31763855D02*
X15428571Y-31801950D01*
X15428571Y-31801950D02*
X15352380Y-31878140D01*
X15352380Y-31878140D02*
X15314285Y-32030521D01*
X15314285Y-32030521D02*
X15314285Y-32297188D01*
X15314285Y-32297188D02*
X15352380Y-32449569D01*
X15352380Y-32449569D02*
X15428571Y-32525760D01*
X15428571Y-32525760D02*
X15504761Y-32563855D01*
X15504761Y-32563855D02*
X15657142Y-32563855D01*
X15657142Y-32563855D02*
X15733333Y-32525760D01*
X15733333Y-32525760D02*
X15809523Y-32449569D01*
X15809523Y-32449569D02*
X15847619Y-32297188D01*
X15847619Y-32297188D02*
X15847619Y-32030521D01*
X15847619Y-32030521D02*
X15809523Y-31878140D01*
X15809523Y-31878140D02*
X15733333Y-31801950D01*
X15733333Y-31801950D02*
X15657142Y-31763855D01*
X18133332Y-29363855D02*
X18399999Y-28982902D01*
X18590475Y-29363855D02*
X18590475Y-28563855D01*
X18590475Y-28563855D02*
X18285713Y-28563855D01*
X18285713Y-28563855D02*
X18209523Y-28601950D01*
X18209523Y-28601950D02*
X18171428Y-28640045D01*
X18171428Y-28640045D02*
X18133332Y-28716236D01*
X18133332Y-28716236D02*
X18133332Y-28830521D01*
X18133332Y-28830521D02*
X18171428Y-28906712D01*
X18171428Y-28906712D02*
X18209523Y-28944807D01*
X18209523Y-28944807D02*
X18285713Y-28982902D01*
X18285713Y-28982902D02*
X18590475Y-28982902D01*
X17828571Y-28640045D02*
X17790475Y-28601950D01*
X17790475Y-28601950D02*
X17714285Y-28563855D01*
X17714285Y-28563855D02*
X17523809Y-28563855D01*
X17523809Y-28563855D02*
X17447618Y-28601950D01*
X17447618Y-28601950D02*
X17409523Y-28640045D01*
X17409523Y-28640045D02*
X17371428Y-28716236D01*
X17371428Y-28716236D02*
X17371428Y-28792426D01*
X17371428Y-28792426D02*
X17409523Y-28906712D01*
X17409523Y-28906712D02*
X17866666Y-29363855D01*
X17866666Y-29363855D02*
X17371428Y-29363855D01*
X19168570Y-32487664D02*
X19206666Y-32525760D01*
X19206666Y-32525760D02*
X19320951Y-32563855D01*
X19320951Y-32563855D02*
X19397142Y-32563855D01*
X19397142Y-32563855D02*
X19511428Y-32525760D01*
X19511428Y-32525760D02*
X19587618Y-32449569D01*
X19587618Y-32449569D02*
X19625713Y-32373379D01*
X19625713Y-32373379D02*
X19663809Y-32220998D01*
X19663809Y-32220998D02*
X19663809Y-32106712D01*
X19663809Y-32106712D02*
X19625713Y-31954331D01*
X19625713Y-31954331D02*
X19587618Y-31878140D01*
X19587618Y-31878140D02*
X19511428Y-31801950D01*
X19511428Y-31801950D02*
X19397142Y-31763855D01*
X19397142Y-31763855D02*
X19320951Y-31763855D01*
X19320951Y-31763855D02*
X19206666Y-31801950D01*
X19206666Y-31801950D02*
X19168570Y-31840045D01*
X18673332Y-31763855D02*
X18520951Y-31763855D01*
X18520951Y-31763855D02*
X18444761Y-31801950D01*
X18444761Y-31801950D02*
X18368570Y-31878140D01*
X18368570Y-31878140D02*
X18330475Y-32030521D01*
X18330475Y-32030521D02*
X18330475Y-32297188D01*
X18330475Y-32297188D02*
X18368570Y-32449569D01*
X18368570Y-32449569D02*
X18444761Y-32525760D01*
X18444761Y-32525760D02*
X18520951Y-32563855D01*
X18520951Y-32563855D02*
X18673332Y-32563855D01*
X18673332Y-32563855D02*
X18749523Y-32525760D01*
X18749523Y-32525760D02*
X18825713Y-32449569D01*
X18825713Y-32449569D02*
X18863809Y-32297188D01*
X18863809Y-32297188D02*
X18863809Y-32030521D01*
X18863809Y-32030521D02*
X18825713Y-31878140D01*
X18825713Y-31878140D02*
X18749523Y-31801950D01*
X18749523Y-31801950D02*
X18673332Y-31763855D01*
X17987618Y-32563855D02*
X17987618Y-31763855D01*
X17987618Y-31763855D02*
X17720952Y-32335283D01*
X17720952Y-32335283D02*
X17454285Y-31763855D01*
X17454285Y-31763855D02*
X17454285Y-32563855D01*
X20133332Y-14787664D02*
X20171428Y-14825760D01*
X20171428Y-14825760D02*
X20285713Y-14863855D01*
X20285713Y-14863855D02*
X20361904Y-14863855D01*
X20361904Y-14863855D02*
X20476190Y-14825760D01*
X20476190Y-14825760D02*
X20552380Y-14749569D01*
X20552380Y-14749569D02*
X20590475Y-14673379D01*
X20590475Y-14673379D02*
X20628571Y-14520998D01*
X20628571Y-14520998D02*
X20628571Y-14406712D01*
X20628571Y-14406712D02*
X20590475Y-14254331D01*
X20590475Y-14254331D02*
X20552380Y-14178140D01*
X20552380Y-14178140D02*
X20476190Y-14101950D01*
X20476190Y-14101950D02*
X20361904Y-14063855D01*
X20361904Y-14063855D02*
X20285713Y-14063855D01*
X20285713Y-14063855D02*
X20171428Y-14101950D01*
X20171428Y-14101950D02*
X20133332Y-14140045D01*
X19828571Y-14140045D02*
X19790475Y-14101950D01*
X19790475Y-14101950D02*
X19714285Y-14063855D01*
X19714285Y-14063855D02*
X19523809Y-14063855D01*
X19523809Y-14063855D02*
X19447618Y-14101950D01*
X19447618Y-14101950D02*
X19409523Y-14140045D01*
X19409523Y-14140045D02*
X19371428Y-14216236D01*
X19371428Y-14216236D02*
X19371428Y-14292426D01*
X19371428Y-14292426D02*
X19409523Y-14406712D01*
X19409523Y-14406712D02*
X19866666Y-14863855D01*
X19866666Y-14863855D02*
X19371428Y-14863855D01*
X20609523Y-19563855D02*
X20609523Y-20211474D01*
X20609523Y-20211474D02*
X20571428Y-20287664D01*
X20571428Y-20287664D02*
X20533333Y-20325760D01*
X20533333Y-20325760D02*
X20457142Y-20363855D01*
X20457142Y-20363855D02*
X20304761Y-20363855D01*
X20304761Y-20363855D02*
X20228571Y-20325760D01*
X20228571Y-20325760D02*
X20190476Y-20287664D01*
X20190476Y-20287664D02*
X20152380Y-20211474D01*
X20152380Y-20211474D02*
X20152380Y-19563855D01*
X19809524Y-19640045D02*
X19771428Y-19601950D01*
X19771428Y-19601950D02*
X19695238Y-19563855D01*
X19695238Y-19563855D02*
X19504762Y-19563855D01*
X19504762Y-19563855D02*
X19428571Y-19601950D01*
X19428571Y-19601950D02*
X19390476Y-19640045D01*
X19390476Y-19640045D02*
X19352381Y-19716236D01*
X19352381Y-19716236D02*
X19352381Y-19792426D01*
X19352381Y-19792426D02*
X19390476Y-19906712D01*
X19390476Y-19906712D02*
X19847619Y-20363855D01*
X19847619Y-20363855D02*
X19352381Y-20363855D01*
X21133332Y-6363855D02*
X21399999Y-5982902D01*
X21590475Y-6363855D02*
X21590475Y-5563855D01*
X21590475Y-5563855D02*
X21285713Y-5563855D01*
X21285713Y-5563855D02*
X21209523Y-5601950D01*
X21209523Y-5601950D02*
X21171428Y-5640045D01*
X21171428Y-5640045D02*
X21133332Y-5716236D01*
X21133332Y-5716236D02*
X21133332Y-5830521D01*
X21133332Y-5830521D02*
X21171428Y-5906712D01*
X21171428Y-5906712D02*
X21209523Y-5944807D01*
X21209523Y-5944807D02*
X21285713Y-5982902D01*
X21285713Y-5982902D02*
X21590475Y-5982902D01*
X20447618Y-5563855D02*
X20599999Y-5563855D01*
X20599999Y-5563855D02*
X20676190Y-5601950D01*
X20676190Y-5601950D02*
X20714285Y-5640045D01*
X20714285Y-5640045D02*
X20790475Y-5754331D01*
X20790475Y-5754331D02*
X20828571Y-5906712D01*
X20828571Y-5906712D02*
X20828571Y-6211474D01*
X20828571Y-6211474D02*
X20790475Y-6287664D01*
X20790475Y-6287664D02*
X20752380Y-6325760D01*
X20752380Y-6325760D02*
X20676190Y-6363855D01*
X20676190Y-6363855D02*
X20523809Y-6363855D01*
X20523809Y-6363855D02*
X20447618Y-6325760D01*
X20447618Y-6325760D02*
X20409523Y-6287664D01*
X20409523Y-6287664D02*
X20371428Y-6211474D01*
X20371428Y-6211474D02*
X20371428Y-6020998D01*
X20371428Y-6020998D02*
X20409523Y-5944807D01*
X20409523Y-5944807D02*
X20447618Y-5906712D01*
X20447618Y-5906712D02*
X20523809Y-5868617D01*
X20523809Y-5868617D02*
X20676190Y-5868617D01*
X20676190Y-5868617D02*
X20752380Y-5906712D01*
X20752380Y-5906712D02*
X20790475Y-5944807D01*
X20790475Y-5944807D02*
X20828571Y-6020998D01*
X24133332Y-33363855D02*
X24399999Y-32982902D01*
X24590475Y-33363855D02*
X24590475Y-32563855D01*
X24590475Y-32563855D02*
X24285713Y-32563855D01*
X24285713Y-32563855D02*
X24209523Y-32601950D01*
X24209523Y-32601950D02*
X24171428Y-32640045D01*
X24171428Y-32640045D02*
X24133332Y-32716236D01*
X24133332Y-32716236D02*
X24133332Y-32830521D01*
X24133332Y-32830521D02*
X24171428Y-32906712D01*
X24171428Y-32906712D02*
X24209523Y-32944807D01*
X24209523Y-32944807D02*
X24285713Y-32982902D01*
X24285713Y-32982902D02*
X24590475Y-32982902D01*
X23409523Y-32563855D02*
X23790475Y-32563855D01*
X23790475Y-32563855D02*
X23828571Y-32944807D01*
X23828571Y-32944807D02*
X23790475Y-32906712D01*
X23790475Y-32906712D02*
X23714285Y-32868617D01*
X23714285Y-32868617D02*
X23523809Y-32868617D01*
X23523809Y-32868617D02*
X23447618Y-32906712D01*
X23447618Y-32906712D02*
X23409523Y-32944807D01*
X23409523Y-32944807D02*
X23371428Y-33020998D01*
X23371428Y-33020998D02*
X23371428Y-33211474D01*
X23371428Y-33211474D02*
X23409523Y-33287664D01*
X23409523Y-33287664D02*
X23447618Y-33325760D01*
X23447618Y-33325760D02*
X23523809Y-33363855D01*
X23523809Y-33363855D02*
X23714285Y-33363855D01*
X23714285Y-33363855D02*
X23790475Y-33325760D01*
X23790475Y-33325760D02*
X23828571Y-33287664D01*
X27590475Y-28363855D02*
X27590475Y-27563855D01*
X27590475Y-27563855D02*
X27399999Y-27563855D01*
X27399999Y-27563855D02*
X27285713Y-27601950D01*
X27285713Y-27601950D02*
X27209523Y-27678140D01*
X27209523Y-27678140D02*
X27171428Y-27754331D01*
X27171428Y-27754331D02*
X27133332Y-27906712D01*
X27133332Y-27906712D02*
X27133332Y-28020998D01*
X27133332Y-28020998D02*
X27171428Y-28173379D01*
X27171428Y-28173379D02*
X27209523Y-28249569D01*
X27209523Y-28249569D02*
X27285713Y-28325760D01*
X27285713Y-28325760D02*
X27399999Y-28363855D01*
X27399999Y-28363855D02*
X27590475Y-28363855D01*
X26371428Y-28363855D02*
X26828571Y-28363855D01*
X26599999Y-28363855D02*
X26599999Y-27563855D01*
X26599999Y-27563855D02*
X26676190Y-27678140D01*
X26676190Y-27678140D02*
X26752380Y-27754331D01*
X26752380Y-27754331D02*
X26828571Y-27792426D01*
X28133332Y-10287664D02*
X28171428Y-10325760D01*
X28171428Y-10325760D02*
X28285713Y-10363855D01*
X28285713Y-10363855D02*
X28361904Y-10363855D01*
X28361904Y-10363855D02*
X28476190Y-10325760D01*
X28476190Y-10325760D02*
X28552380Y-10249569D01*
X28552380Y-10249569D02*
X28590475Y-10173379D01*
X28590475Y-10173379D02*
X28628571Y-10020998D01*
X28628571Y-10020998D02*
X28628571Y-9906712D01*
X28628571Y-9906712D02*
X28590475Y-9754331D01*
X28590475Y-9754331D02*
X28552380Y-9678140D01*
X28552380Y-9678140D02*
X28476190Y-9601950D01*
X28476190Y-9601950D02*
X28361904Y-9563855D01*
X28361904Y-9563855D02*
X28285713Y-9563855D01*
X28285713Y-9563855D02*
X28171428Y-9601950D01*
X28171428Y-9601950D02*
X28133332Y-9640045D01*
X27447618Y-9830521D02*
X27447618Y-10363855D01*
X27638094Y-9525760D02*
X27828571Y-10097188D01*
X27828571Y-10097188D02*
X27333332Y-10097188D01*
X28133332Y-33287664D02*
X28171428Y-33325760D01*
X28171428Y-33325760D02*
X28285713Y-33363855D01*
X28285713Y-33363855D02*
X28361904Y-33363855D01*
X28361904Y-33363855D02*
X28476190Y-33325760D01*
X28476190Y-33325760D02*
X28552380Y-33249569D01*
X28552380Y-33249569D02*
X28590475Y-33173379D01*
X28590475Y-33173379D02*
X28628571Y-33020998D01*
X28628571Y-33020998D02*
X28628571Y-32906712D01*
X28628571Y-32906712D02*
X28590475Y-32754331D01*
X28590475Y-32754331D02*
X28552380Y-32678140D01*
X28552380Y-32678140D02*
X28476190Y-32601950D01*
X28476190Y-32601950D02*
X28361904Y-32563855D01*
X28361904Y-32563855D02*
X28285713Y-32563855D01*
X28285713Y-32563855D02*
X28171428Y-32601950D01*
X28171428Y-32601950D02*
X28133332Y-32640045D01*
X27866666Y-32563855D02*
X27333332Y-32563855D01*
X27333332Y-32563855D02*
X27676190Y-33363855D01*
X31609523Y-19563855D02*
X31609523Y-20211474D01*
X31609523Y-20211474D02*
X31571428Y-20287664D01*
X31571428Y-20287664D02*
X31533333Y-20325760D01*
X31533333Y-20325760D02*
X31457142Y-20363855D01*
X31457142Y-20363855D02*
X31304761Y-20363855D01*
X31304761Y-20363855D02*
X31228571Y-20325760D01*
X31228571Y-20325760D02*
X31190476Y-20287664D01*
X31190476Y-20287664D02*
X31152380Y-20211474D01*
X31152380Y-20211474D02*
X31152380Y-19563855D01*
X30847619Y-19563855D02*
X30352381Y-19563855D01*
X30352381Y-19563855D02*
X30619047Y-19868617D01*
X30619047Y-19868617D02*
X30504762Y-19868617D01*
X30504762Y-19868617D02*
X30428571Y-19906712D01*
X30428571Y-19906712D02*
X30390476Y-19944807D01*
X30390476Y-19944807D02*
X30352381Y-20020998D01*
X30352381Y-20020998D02*
X30352381Y-20211474D01*
X30352381Y-20211474D02*
X30390476Y-20287664D01*
X30390476Y-20287664D02*
X30428571Y-20325760D01*
X30428571Y-20325760D02*
X30504762Y-20363855D01*
X30504762Y-20363855D02*
X30733333Y-20363855D01*
X30733333Y-20363855D02*
X30809524Y-20325760D01*
X30809524Y-20325760D02*
X30847619Y-20287664D01*
X31133332Y-23287664D02*
X31171428Y-23325760D01*
X31171428Y-23325760D02*
X31285713Y-23363855D01*
X31285713Y-23363855D02*
X31361904Y-23363855D01*
X31361904Y-23363855D02*
X31476190Y-23325760D01*
X31476190Y-23325760D02*
X31552380Y-23249569D01*
X31552380Y-23249569D02*
X31590475Y-23173379D01*
X31590475Y-23173379D02*
X31628571Y-23020998D01*
X31628571Y-23020998D02*
X31628571Y-22906712D01*
X31628571Y-22906712D02*
X31590475Y-22754331D01*
X31590475Y-22754331D02*
X31552380Y-22678140D01*
X31552380Y-22678140D02*
X31476190Y-22601950D01*
X31476190Y-22601950D02*
X31361904Y-22563855D01*
X31361904Y-22563855D02*
X31285713Y-22563855D01*
X31285713Y-22563855D02*
X31171428Y-22601950D01*
X31171428Y-22601950D02*
X31133332Y-22640045D01*
X30866666Y-22563855D02*
X30371428Y-22563855D01*
X30371428Y-22563855D02*
X30638094Y-22868617D01*
X30638094Y-22868617D02*
X30523809Y-22868617D01*
X30523809Y-22868617D02*
X30447618Y-22906712D01*
X30447618Y-22906712D02*
X30409523Y-22944807D01*
X30409523Y-22944807D02*
X30371428Y-23020998D01*
X30371428Y-23020998D02*
X30371428Y-23211474D01*
X30371428Y-23211474D02*
X30409523Y-23287664D01*
X30409523Y-23287664D02*
X30447618Y-23325760D01*
X30447618Y-23325760D02*
X30523809Y-23363855D01*
X30523809Y-23363855D02*
X30752380Y-23363855D01*
X30752380Y-23363855D02*
X30828571Y-23325760D01*
X30828571Y-23325760D02*
X30866666Y-23287664D01*
X32447618Y-15823855D02*
X32447618Y-15023855D01*
X32447618Y-15023855D02*
X32180952Y-15595283D01*
X32180952Y-15595283D02*
X31914285Y-15023855D01*
X31914285Y-15023855D02*
X31914285Y-15823855D01*
X31571428Y-15100045D02*
X31533332Y-15061950D01*
X31533332Y-15061950D02*
X31457142Y-15023855D01*
X31457142Y-15023855D02*
X31266666Y-15023855D01*
X31266666Y-15023855D02*
X31190475Y-15061950D01*
X31190475Y-15061950D02*
X31152380Y-15100045D01*
X31152380Y-15100045D02*
X31114285Y-15176236D01*
X31114285Y-15176236D02*
X31114285Y-15252426D01*
X31114285Y-15252426D02*
X31152380Y-15366712D01*
X31152380Y-15366712D02*
X31609523Y-15823855D01*
X31609523Y-15823855D02*
X31114285Y-15823855D01*
X32447618Y-18363855D02*
X32447618Y-17563855D01*
X32447618Y-17563855D02*
X32180952Y-18135283D01*
X32180952Y-18135283D02*
X31914285Y-17563855D01*
X31914285Y-17563855D02*
X31914285Y-18363855D01*
X31114285Y-18363855D02*
X31571428Y-18363855D01*
X31342856Y-18363855D02*
X31342856Y-17563855D01*
X31342856Y-17563855D02*
X31419047Y-17678140D01*
X31419047Y-17678140D02*
X31495237Y-17754331D01*
X31495237Y-17754331D02*
X31571428Y-17792426D01*
X5826190Y-536987D02*
X5664285Y-536987D01*
X5664285Y-536987D02*
X5583333Y-577463D01*
X5583333Y-577463D02*
X5502380Y-658415D01*
X5502380Y-658415D02*
X5461904Y-820320D01*
X5461904Y-820320D02*
X5461904Y-1103653D01*
X5461904Y-1103653D02*
X5502380Y-1265558D01*
X5502380Y-1265558D02*
X5583333Y-1346511D01*
X5583333Y-1346511D02*
X5664285Y-1386987D01*
X5664285Y-1386987D02*
X5826190Y-1386987D01*
X5826190Y-1386987D02*
X5907142Y-1346511D01*
X5907142Y-1346511D02*
X5988095Y-1265558D01*
X5988095Y-1265558D02*
X6028571Y-1103653D01*
X6028571Y-1103653D02*
X6028571Y-820320D01*
X6028571Y-820320D02*
X5988095Y-658415D01*
X5988095Y-658415D02*
X5907142Y-577463D01*
X5907142Y-577463D02*
X5826190Y-536987D01*
X5097619Y-1386987D02*
X5097619Y-536987D01*
X5097619Y-536987D02*
X4611904Y-1386987D01*
X4611904Y-1386987D02*
X4611904Y-536987D01*
X15509523Y-536987D02*
X15347618Y-536987D01*
X15347618Y-536987D02*
X15266666Y-577463D01*
X15266666Y-577463D02*
X15185713Y-658415D01*
X15185713Y-658415D02*
X15145237Y-820320D01*
X15145237Y-820320D02*
X15145237Y-1103653D01*
X15145237Y-1103653D02*
X15185713Y-1265558D01*
X15185713Y-1265558D02*
X15266666Y-1346511D01*
X15266666Y-1346511D02*
X15347618Y-1386987D01*
X15347618Y-1386987D02*
X15509523Y-1386987D01*
X15509523Y-1386987D02*
X15590475Y-1346511D01*
X15590475Y-1346511D02*
X15671428Y-1265558D01*
X15671428Y-1265558D02*
X15711904Y-1103653D01*
X15711904Y-1103653D02*
X15711904Y-820320D01*
X15711904Y-820320D02*
X15671428Y-658415D01*
X15671428Y-658415D02*
X15590475Y-577463D01*
X15590475Y-577463D02*
X15509523Y-536987D01*
X14497618Y-941749D02*
X14780952Y-941749D01*
X14780952Y-1386987D02*
X14780952Y-536987D01*
X14780952Y-536987D02*
X14376190Y-536987D01*
X13769047Y-941749D02*
X14052381Y-941749D01*
X14052381Y-1386987D02*
X14052381Y-536987D01*
X14052381Y-536987D02*
X13647619Y-536987D01*
X37228570Y-8341749D02*
X37107142Y-8382225D01*
X37107142Y-8382225D02*
X37066665Y-8422701D01*
X37066665Y-8422701D02*
X37026189Y-8503653D01*
X37026189Y-8503653D02*
X37026189Y-8625082D01*
X37026189Y-8625082D02*
X37066665Y-8706034D01*
X37066665Y-8706034D02*
X37107142Y-8746511D01*
X37107142Y-8746511D02*
X37188094Y-8786987D01*
X37188094Y-8786987D02*
X37511904Y-8786987D01*
X37511904Y-8786987D02*
X37511904Y-7936987D01*
X37511904Y-7936987D02*
X37228570Y-7936987D01*
X37228570Y-7936987D02*
X37147618Y-7977463D01*
X37147618Y-7977463D02*
X37107142Y-8017939D01*
X37107142Y-8017939D02*
X37066665Y-8098891D01*
X37066665Y-8098891D02*
X37066665Y-8179844D01*
X37066665Y-8179844D02*
X37107142Y-8260796D01*
X37107142Y-8260796D02*
X37147618Y-8301272D01*
X37147618Y-8301272D02*
X37228570Y-8341749D01*
X37228570Y-8341749D02*
X37511904Y-8341749D01*
X36702380Y-8544130D02*
X36297618Y-8544130D01*
X36783332Y-8786987D02*
X36499999Y-7936987D01*
X36499999Y-7936987D02*
X36216665Y-8786987D01*
X36054761Y-7936987D02*
X35569047Y-7936987D01*
X35811904Y-8786987D02*
X35811904Y-7936987D01*
X34678571Y-8017939D02*
X34638095Y-7977463D01*
X34638095Y-7977463D02*
X34557142Y-7936987D01*
X34557142Y-7936987D02*
X34354761Y-7936987D01*
X34354761Y-7936987D02*
X34273809Y-7977463D01*
X34273809Y-7977463D02*
X34233333Y-8017939D01*
X34233333Y-8017939D02*
X34192856Y-8098891D01*
X34192856Y-8098891D02*
X34192856Y-8179844D01*
X34192856Y-8179844D02*
X34233333Y-8301272D01*
X34233333Y-8301272D02*
X34719047Y-8786987D01*
X34719047Y-8786987D02*
X34192856Y-8786987D01*
X33909523Y-8786987D02*
X33464285Y-8220320D01*
X33909523Y-8220320D02*
X33464285Y-8786987D01*
X33180952Y-8544130D02*
X32776190Y-8544130D01*
X33261904Y-8786987D02*
X32978571Y-7936987D01*
X32978571Y-7936987D02*
X32695237Y-8786987D01*
X32452381Y-8544130D02*
X32047619Y-8544130D01*
X32533333Y-8786987D02*
X32250000Y-7936987D01*
X32250000Y-7936987D02*
X31966666Y-8786987D01*
X37922619Y-21486987D02*
X37922619Y-20636987D01*
X37922619Y-20636987D02*
X37639285Y-21244130D01*
X37639285Y-21244130D02*
X37355952Y-20636987D01*
X37355952Y-20636987D02*
X37355952Y-21486987D01*
X36789285Y-20636987D02*
X36627380Y-20636987D01*
X36627380Y-20636987D02*
X36546428Y-20677463D01*
X36546428Y-20677463D02*
X36465475Y-20758415D01*
X36465475Y-20758415D02*
X36424999Y-20920320D01*
X36424999Y-20920320D02*
X36424999Y-21203653D01*
X36424999Y-21203653D02*
X36465475Y-21365558D01*
X36465475Y-21365558D02*
X36546428Y-21446511D01*
X36546428Y-21446511D02*
X36627380Y-21486987D01*
X36627380Y-21486987D02*
X36789285Y-21486987D01*
X36789285Y-21486987D02*
X36870237Y-21446511D01*
X36870237Y-21446511D02*
X36951190Y-21365558D01*
X36951190Y-21365558D02*
X36991666Y-21203653D01*
X36991666Y-21203653D02*
X36991666Y-20920320D01*
X36991666Y-20920320D02*
X36951190Y-20758415D01*
X36951190Y-20758415D02*
X36870237Y-20677463D01*
X36870237Y-20677463D02*
X36789285Y-20636987D01*
X36182142Y-20636987D02*
X35696428Y-20636987D01*
X35939285Y-21486987D02*
X35939285Y-20636987D01*
X35251190Y-20636987D02*
X35089285Y-20636987D01*
X35089285Y-20636987D02*
X35008333Y-20677463D01*
X35008333Y-20677463D02*
X34927380Y-20758415D01*
X34927380Y-20758415D02*
X34886904Y-20920320D01*
X34886904Y-20920320D02*
X34886904Y-21203653D01*
X34886904Y-21203653D02*
X34927380Y-21365558D01*
X34927380Y-21365558D02*
X35008333Y-21446511D01*
X35008333Y-21446511D02*
X35089285Y-21486987D01*
X35089285Y-21486987D02*
X35251190Y-21486987D01*
X35251190Y-21486987D02*
X35332142Y-21446511D01*
X35332142Y-21446511D02*
X35413095Y-21365558D01*
X35413095Y-21365558D02*
X35453571Y-21203653D01*
X35453571Y-21203653D02*
X35453571Y-20920320D01*
X35453571Y-20920320D02*
X35413095Y-20758415D01*
X35413095Y-20758415D02*
X35332142Y-20677463D01*
X35332142Y-20677463D02*
X35251190Y-20636987D01*
X34036904Y-21486987D02*
X34320238Y-21082225D01*
X34522619Y-21486987D02*
X34522619Y-20636987D01*
X34522619Y-20636987D02*
X34198809Y-20636987D01*
X34198809Y-20636987D02*
X34117857Y-20677463D01*
X34117857Y-20677463D02*
X34077380Y-20717939D01*
X34077380Y-20717939D02*
X34036904Y-20798891D01*
X34036904Y-20798891D02*
X34036904Y-20920320D01*
X34036904Y-20920320D02*
X34077380Y-21001272D01*
X34077380Y-21001272D02*
X34117857Y-21041749D01*
X34117857Y-21041749D02*
X34198809Y-21082225D01*
X34198809Y-21082225D02*
X34522619Y-21082225D01*
X8603332Y-31008760D02*
X8460475Y-31056379D01*
X8460475Y-31056379D02*
X8222380Y-31056379D01*
X8222380Y-31056379D02*
X8127142Y-31008760D01*
X8127142Y-31008760D02*
X8079523Y-30961140D01*
X8079523Y-30961140D02*
X8031904Y-30865902D01*
X8031904Y-30865902D02*
X8031904Y-30770664D01*
X8031904Y-30770664D02*
X8079523Y-30675426D01*
X8079523Y-30675426D02*
X8127142Y-30627807D01*
X8127142Y-30627807D02*
X8222380Y-30580188D01*
X8222380Y-30580188D02*
X8412856Y-30532569D01*
X8412856Y-30532569D02*
X8508094Y-30484950D01*
X8508094Y-30484950D02*
X8555713Y-30437331D01*
X8555713Y-30437331D02*
X8603332Y-30342093D01*
X8603332Y-30342093D02*
X8603332Y-30246855D01*
X8603332Y-30246855D02*
X8555713Y-30151617D01*
X8555713Y-30151617D02*
X8508094Y-30103998D01*
X8508094Y-30103998D02*
X8412856Y-30056379D01*
X8412856Y-30056379D02*
X8174761Y-30056379D01*
X8174761Y-30056379D02*
X8031904Y-30103998D01*
X7698570Y-30056379D02*
X7460475Y-31056379D01*
X7460475Y-31056379D02*
X7269999Y-30342093D01*
X7269999Y-30342093D02*
X7079523Y-31056379D01*
X7079523Y-31056379D02*
X6841428Y-30056379D01*
X5936666Y-31056379D02*
X6508094Y-31056379D01*
X6222380Y-31056379D02*
X6222380Y-30056379D01*
X6222380Y-30056379D02*
X6317618Y-30199236D01*
X6317618Y-30199236D02*
X6412856Y-30294474D01*
X6412856Y-30294474D02*
X6508094Y-30342093D01*
X14452380Y-11456379D02*
X14452380Y-10456379D01*
X14452380Y-10456379D02*
X14119047Y-11170664D01*
X14119047Y-11170664D02*
X13785714Y-10456379D01*
X13785714Y-10456379D02*
X13785714Y-11456379D01*
X13119047Y-10456379D02*
X12928571Y-10456379D01*
X12928571Y-10456379D02*
X12833333Y-10503998D01*
X12833333Y-10503998D02*
X12738095Y-10599236D01*
X12738095Y-10599236D02*
X12690476Y-10789712D01*
X12690476Y-10789712D02*
X12690476Y-11123045D01*
X12690476Y-11123045D02*
X12738095Y-11313521D01*
X12738095Y-11313521D02*
X12833333Y-11408760D01*
X12833333Y-11408760D02*
X12928571Y-11456379D01*
X12928571Y-11456379D02*
X13119047Y-11456379D01*
X13119047Y-11456379D02*
X13214285Y-11408760D01*
X13214285Y-11408760D02*
X13309523Y-11313521D01*
X13309523Y-11313521D02*
X13357142Y-11123045D01*
X13357142Y-11123045D02*
X13357142Y-10789712D01*
X13357142Y-10789712D02*
X13309523Y-10599236D01*
X13309523Y-10599236D02*
X13214285Y-10503998D01*
X13214285Y-10503998D02*
X13119047Y-10456379D01*
X12261904Y-11456379D02*
X12261904Y-10456379D01*
X12261904Y-10456379D02*
X12023809Y-10456379D01*
X12023809Y-10456379D02*
X11880952Y-10503998D01*
X11880952Y-10503998D02*
X11785714Y-10599236D01*
X11785714Y-10599236D02*
X11738095Y-10694474D01*
X11738095Y-10694474D02*
X11690476Y-10884950D01*
X11690476Y-10884950D02*
X11690476Y-11027807D01*
X11690476Y-11027807D02*
X11738095Y-11218283D01*
X11738095Y-11218283D02*
X11785714Y-11313521D01*
X11785714Y-11313521D02*
X11880952Y-11408760D01*
X11880952Y-11408760D02*
X12023809Y-11456379D01*
X12023809Y-11456379D02*
X12261904Y-11456379D01*
X11261904Y-10932569D02*
X10928571Y-10932569D01*
X10785714Y-11456379D02*
X11261904Y-11456379D01*
X11261904Y-11456379D02*
X11261904Y-10456379D01*
X11261904Y-10456379D02*
X10785714Y-10456379D01*
X9642856Y-10551617D02*
X9595237Y-10503998D01*
X9595237Y-10503998D02*
X9499999Y-10456379D01*
X9499999Y-10456379D02*
X9261904Y-10456379D01*
X9261904Y-10456379D02*
X9166666Y-10503998D01*
X9166666Y-10503998D02*
X9119047Y-10551617D01*
X9119047Y-10551617D02*
X9071428Y-10646855D01*
X9071428Y-10646855D02*
X9071428Y-10742093D01*
X9071428Y-10742093D02*
X9119047Y-10884950D01*
X9119047Y-10884950D02*
X9690475Y-11456379D01*
X9690475Y-11456379D02*
X9071428Y-11456379D01*
X7166666Y-10408760D02*
X8023808Y-11694474D01*
X5547618Y-10503998D02*
X5642856Y-10456379D01*
X5642856Y-10456379D02*
X5785713Y-10456379D01*
X5785713Y-10456379D02*
X5928570Y-10503998D01*
X5928570Y-10503998D02*
X6023808Y-10599236D01*
X6023808Y-10599236D02*
X6071427Y-10694474D01*
X6071427Y-10694474D02*
X6119046Y-10884950D01*
X6119046Y-10884950D02*
X6119046Y-11027807D01*
X6119046Y-11027807D02*
X6071427Y-11218283D01*
X6071427Y-11218283D02*
X6023808Y-11313521D01*
X6023808Y-11313521D02*
X5928570Y-11408760D01*
X5928570Y-11408760D02*
X5785713Y-11456379D01*
X5785713Y-11456379D02*
X5690475Y-11456379D01*
X5690475Y-11456379D02*
X5547618Y-11408760D01*
X5547618Y-11408760D02*
X5499999Y-11361140D01*
X5499999Y-11361140D02*
X5499999Y-11027807D01*
X5499999Y-11027807D02*
X5690475Y-11027807D01*
X18603332Y-31008760D02*
X18460475Y-31056379D01*
X18460475Y-31056379D02*
X18222380Y-31056379D01*
X18222380Y-31056379D02*
X18127142Y-31008760D01*
X18127142Y-31008760D02*
X18079523Y-30961140D01*
X18079523Y-30961140D02*
X18031904Y-30865902D01*
X18031904Y-30865902D02*
X18031904Y-30770664D01*
X18031904Y-30770664D02*
X18079523Y-30675426D01*
X18079523Y-30675426D02*
X18127142Y-30627807D01*
X18127142Y-30627807D02*
X18222380Y-30580188D01*
X18222380Y-30580188D02*
X18412856Y-30532569D01*
X18412856Y-30532569D02*
X18508094Y-30484950D01*
X18508094Y-30484950D02*
X18555713Y-30437331D01*
X18555713Y-30437331D02*
X18603332Y-30342093D01*
X18603332Y-30342093D02*
X18603332Y-30246855D01*
X18603332Y-30246855D02*
X18555713Y-30151617D01*
X18555713Y-30151617D02*
X18508094Y-30103998D01*
X18508094Y-30103998D02*
X18412856Y-30056379D01*
X18412856Y-30056379D02*
X18174761Y-30056379D01*
X18174761Y-30056379D02*
X18031904Y-30103998D01*
X17698570Y-30056379D02*
X17460475Y-31056379D01*
X17460475Y-31056379D02*
X17269999Y-30342093D01*
X17269999Y-30342093D02*
X17079523Y-31056379D01*
X17079523Y-31056379D02*
X16841428Y-30056379D01*
X16508094Y-30151617D02*
X16460475Y-30103998D01*
X16460475Y-30103998D02*
X16365237Y-30056379D01*
X16365237Y-30056379D02*
X16127142Y-30056379D01*
X16127142Y-30056379D02*
X16031904Y-30103998D01*
X16031904Y-30103998D02*
X15984285Y-30151617D01*
X15984285Y-30151617D02*
X15936666Y-30246855D01*
X15936666Y-30246855D02*
X15936666Y-30342093D01*
X15936666Y-30342093D02*
X15984285Y-30484950D01*
X15984285Y-30484950D02*
X16555713Y-31056379D01*
X16555713Y-31056379D02*
X15936666Y-31056379D01*
X36119047Y-36789712D02*
X36119047Y-37456379D01*
X36357142Y-36408760D02*
X36595237Y-37123045D01*
X36595237Y-37123045D02*
X35976190Y-37123045D01*
X35404761Y-36456379D02*
X35309523Y-36456379D01*
X35309523Y-36456379D02*
X35214285Y-36503998D01*
X35214285Y-36503998D02*
X35166666Y-36551617D01*
X35166666Y-36551617D02*
X35119047Y-36646855D01*
X35119047Y-36646855D02*
X35071428Y-36837331D01*
X35071428Y-36837331D02*
X35071428Y-37075426D01*
X35071428Y-37075426D02*
X35119047Y-37265902D01*
X35119047Y-37265902D02*
X35166666Y-37361140D01*
X35166666Y-37361140D02*
X35214285Y-37408760D01*
X35214285Y-37408760D02*
X35309523Y-37456379D01*
X35309523Y-37456379D02*
X35404761Y-37456379D01*
X35404761Y-37456379D02*
X35499999Y-37408760D01*
X35499999Y-37408760D02*
X35547618Y-37361140D01*
X35547618Y-37361140D02*
X35595237Y-37265902D01*
X35595237Y-37265902D02*
X35642856Y-37075426D01*
X35642856Y-37075426D02*
X35642856Y-36837331D01*
X35642856Y-36837331D02*
X35595237Y-36646855D01*
X35595237Y-36646855D02*
X35547618Y-36551617D01*
X35547618Y-36551617D02*
X35499999Y-36503998D01*
X35499999Y-36503998D02*
X35404761Y-36456379D01*
X33976189Y-37456379D02*
X33452380Y-36789712D01*
X33976189Y-36789712D02*
X33452380Y-37456379D01*
X31880951Y-36789712D02*
X31880951Y-37456379D01*
X32119046Y-36408760D02*
X32357141Y-37123045D01*
X32357141Y-37123045D02*
X31738094Y-37123045D01*
X31166665Y-36456379D02*
X31071427Y-36456379D01*
X31071427Y-36456379D02*
X30976189Y-36503998D01*
X30976189Y-36503998D02*
X30928570Y-36551617D01*
X30928570Y-36551617D02*
X30880951Y-36646855D01*
X30880951Y-36646855D02*
X30833332Y-36837331D01*
X30833332Y-36837331D02*
X30833332Y-37075426D01*
X30833332Y-37075426D02*
X30880951Y-37265902D01*
X30880951Y-37265902D02*
X30928570Y-37361140D01*
X30928570Y-37361140D02*
X30976189Y-37408760D01*
X30976189Y-37408760D02*
X31071427Y-37456379D01*
X31071427Y-37456379D02*
X31166665Y-37456379D01*
X31166665Y-37456379D02*
X31261903Y-37408760D01*
X31261903Y-37408760D02*
X31309522Y-37361140D01*
X31309522Y-37361140D02*
X31357141Y-37265902D01*
X31357141Y-37265902D02*
X31404760Y-37075426D01*
X31404760Y-37075426D02*
X31404760Y-36837331D01*
X31404760Y-36837331D02*
X31357141Y-36646855D01*
X31357141Y-36646855D02*
X31309522Y-36551617D01*
X31309522Y-36551617D02*
X31261903Y-36503998D01*
X31261903Y-36503998D02*
X31166665Y-36456379D01*
X29642855Y-37456379D02*
X29642855Y-36789712D01*
X29642855Y-36884950D02*
X29595236Y-36837331D01*
X29595236Y-36837331D02*
X29499998Y-36789712D01*
X29499998Y-36789712D02*
X29357141Y-36789712D01*
X29357141Y-36789712D02*
X29261903Y-36837331D01*
X29261903Y-36837331D02*
X29214284Y-36932569D01*
X29214284Y-36932569D02*
X29214284Y-37456379D01*
X29214284Y-36932569D02*
X29166665Y-36837331D01*
X29166665Y-36837331D02*
X29071427Y-36789712D01*
X29071427Y-36789712D02*
X28928570Y-36789712D01*
X28928570Y-36789712D02*
X28833331Y-36837331D01*
X28833331Y-36837331D02*
X28785712Y-36932569D01*
X28785712Y-36932569D02*
X28785712Y-37456379D01*
X28309522Y-37456379D02*
X28309522Y-36789712D01*
X28309522Y-36884950D02*
X28261903Y-36837331D01*
X28261903Y-36837331D02*
X28166665Y-36789712D01*
X28166665Y-36789712D02*
X28023808Y-36789712D01*
X28023808Y-36789712D02*
X27928570Y-36837331D01*
X27928570Y-36837331D02*
X27880951Y-36932569D01*
X27880951Y-36932569D02*
X27880951Y-37456379D01*
X27880951Y-36932569D02*
X27833332Y-36837331D01*
X27833332Y-36837331D02*
X27738094Y-36789712D01*
X27738094Y-36789712D02*
X27595237Y-36789712D01*
X27595237Y-36789712D02*
X27499998Y-36837331D01*
X27499998Y-36837331D02*
X27452379Y-36932569D01*
X27452379Y-36932569D02*
X27452379Y-37456379D01*
X32980951Y-2835426D02*
X32219047Y-2835426D01*
X32980951Y-5375426D02*
X32219047Y-5375426D01*
X32599999Y-5756379D02*
X32599999Y-4994474D01*
M02*
