M48
; DRILL file KiCad 10.0.6 date 2026-09-09T22:30:14
; FORMAT={-:-/ absolute / metric / decimal}
; #@! TF.CreationDate,2026-09-09T22:30:14+08:00
; #@! TF.GenerationSoftware,Kicad,Pcbnew,10.0.6
; #@! TF.FileFunction,Plated,1,2,PTH
FMAT,2
METRIC
; #@! TA.AperFunction,Plated,PTH,ComponentDrill
T1C0.200
; #@! TA.AperFunction,Plated,PTH,ViaDrill
T2C0.300
; #@! TA.AperFunction,Plated,PTH,ComponentDrill
T3C1.300
; #@! TA.AperFunction,Plated,PTH,ComponentDrill
T4C1.850
%
G90
G05
T1
X31.0Y-19.45
X31.0Y-20.55
T2
X3.0Y-12.0
X5.0Y-25.0
X5.45Y-15.75
X6.1Y-17.45
X6.1Y-21.25
X6.3Y-29.15
X6.3Y-35.15
X6.5Y-18.75
X8.45Y-19.75
X9.55Y-23.4
X11.05Y-25.2
X11.3Y-16.2
X11.5Y-18.05
X11.5Y-22.75
X11.5Y-23.75
X11.9Y-15.35
X13.3Y-27.6
X15.25Y-20.15
X16.0Y-12.0
X16.0Y-14.7
X17.4Y-27.6
X17.5Y-25.0
X18.65Y-17.45
X20.1Y-23.1
X21.35Y-21.25
X23.6Y-20.0
X24.0Y-12.0
X24.0Y-23.1
X24.0Y-26.95
X24.6Y-32.15
X24.75Y-20.05
X24.9Y-23.8
X25.7Y-21.0
X25.95Y-22.05
X26.2Y-33.75
X27.0Y-21.0
X27.0Y-23.1
X27.0Y-26.95
X27.15Y-20.15
X30.0Y-34.0
X30.05Y-21.7
X33.0Y-24.5
X33.15Y-17.85
X33.15Y-21.5
T3
X6.0Y-36.5
X8.54Y-36.5
X16.0Y-36.5
X18.54Y-36.5
X36.6Y-2.76
X36.6Y-5.3
X36.6Y-15.46
X36.6Y-18.0
T4
X5.3Y-5.0
X10.0Y-5.0
X14.7Y-5.0
M30
