%TF.GenerationSoftware,KiCad,Pcbnew,10.0.6*%
%TF.CreationDate,2026-09-09T19:02:31+08:00*%
%TF.ProjectId,mode2-motor,6d6f6465-322d-46d6-9f74-6f722e6b6963,rev?*%
%TF.SameCoordinates,Original*%
%TF.FileFunction,Copper,L2,Bot*%
%TF.FilePolarity,Positive*%
%FSLAX46Y46*%
G04 Gerber Fmt 4.6, Leading zero omitted, Abs format (unit mm)*
G04 Created by KiCad (PCBNEW 10.0.6) date 2026-09-09 19:02:31*
%MOMM*%
%LPD*%
G01*
G04 APERTURE LIST*
%TA.AperFunction,ComponentPad*%
%ADD10R,2.100000X2.100000*%
%TD*%
%TA.AperFunction,ComponentPad*%
%ADD11C,2.100000*%
%TD*%
%TA.AperFunction,HeatsinkPad*%
%ADD12C,0.500000*%
%TD*%
%TA.AperFunction,HeatsinkPad*%
%ADD13R,0.500000X1.600000*%
%TD*%
%TA.AperFunction,ComponentPad*%
%ADD14R,1.800000X1.800000*%
%TD*%
%TA.AperFunction,ComponentPad*%
%ADD15C,1.800000*%
%TD*%
%TA.AperFunction,ViaPad*%
%ADD16C,0.600000*%
%TD*%
%TA.AperFunction,Conductor*%
%ADD17C,0.400000*%
%TD*%
%TA.AperFunction,Conductor*%
%ADD18C,0.800000*%
%TD*%
%TA.AperFunction,Conductor*%
%ADD19C,0.250000*%
%TD*%
%TA.AperFunction,Conductor*%
%ADD20C,0.200000*%
%TD*%
%TA.AperFunction,Conductor*%
%ADD21C,0.300000*%
%TD*%
%TA.AperFunction,Conductor*%
%ADD22C,0.600000*%
%TD*%
G04 APERTURE END LIST*
D10*
%TO.P,P3,1*%
%TO.N,/SW2*%
X9600000Y-20300000D03*
D11*
%TO.P,P3,2*%
%TO.N,/GND*%
X12140000Y-20300000D03*
%TD*%
D10*
%TO.P,P2,1*%
%TO.N,/SW1*%
X2500000Y-20300000D03*
D11*
%TO.P,P2,2*%
%TO.N,/GND*%
X5040000Y-20300000D03*
%TD*%
D10*
%TO.P,P1,1*%
%TO.N,/BATT+*%
X21100000Y-5940000D03*
D11*
%TO.P,P1,2*%
%TO.N,/GND*%
X21100000Y-3400000D03*
%TD*%
D12*
%TO.P,U2,9*%
%TO.N,/GND*%
X14000000Y-13750000D03*
D13*
X14000000Y-13200000D03*
D12*
X14000000Y-12650000D03*
%TD*%
D10*
%TO.P,P4,1*%
%TO.N,/OUT1*%
X21100000Y-14540000D03*
D11*
%TO.P,P4,2*%
%TO.N,/OUT2*%
X21100000Y-12000000D03*
%TD*%
D14*
%TO.P,P5,1*%
%TO.N,/VBAT*%
X15300000Y-20400000D03*
D15*
%TO.P,P5,2*%
%TO.N,/UPDI*%
X17840000Y-20400000D03*
%TO.P,P5,3*%
%TO.N,/GND*%
X20380000Y-20400000D03*
%TD*%
D16*
%TO.N,/VBAT*%
X7500000Y-5600000D03*
X15225000Y-16399999D03*
X15300000Y-8600000D03*
X3225000Y-8700000D03*
%TO.N,/SW2*%
X2000000Y-16700000D03*
%TO.N,/IN1*%
X11800000Y-13200000D03*
X3225000Y-16000000D03*
%TO.N,/UPDI*%
X9000000Y-13635000D03*
X4900000Y-14500000D03*
%TO.N,/ISENSE*%
X12325000Y-16399999D03*
X9400000Y-12365000D03*
%TO.N,/GND*%
X11000000Y-9200000D03*
X18500000Y-17000000D03*
X22700000Y-18000000D03*
X6500000Y-11300000D03*
X9100000Y-11095000D03*
X21000000Y-9000000D03*
X1000000Y-9500000D03*
X11000000Y-16600000D03*
X5500000Y-9400000D03*
%TO.N,/BATT+*%
X800000Y-4800000D03*
X7350000Y-4600000D03*
X9300000Y-7700000D03*
%TO.N,/OUT2*%
X16200000Y-12300000D03*
%TD*%
%TO.N,/VBAT*%
D17*
X15300000Y-16875000D02*
X15300000Y-20400000D01*
D18*
X15300000Y-8600000D02*
X15300000Y-16325000D01*
D17*
X5800000Y-6000000D02*
X5800000Y-8299999D01*
D18*
X15300000Y-16325000D02*
X15225000Y-16399999D01*
D17*
X5800000Y-8299999D02*
X5399999Y-8700000D01*
X6200000Y-5600000D02*
X5800000Y-6000000D01*
X15225000Y-16800000D02*
X15300000Y-16875000D01*
X15225000Y-16399999D02*
X15225000Y-16800000D01*
X5399999Y-8700000D02*
X3225000Y-8700000D01*
X7500000Y-5600000D02*
X6200000Y-5600000D01*
%TO.N,/SW2*%
D19*
X1000000Y-21650000D02*
X1350000Y-22000000D01*
X2000000Y-16700000D02*
X1000000Y-17700000D01*
X1000000Y-17700000D02*
X1000000Y-21650000D01*
X8000000Y-22000000D02*
X9600000Y-20300000D01*
X1350000Y-22000000D02*
X8000000Y-22000000D01*
%TO.N,/IN1*%
X3225000Y-16000000D02*
X10400000Y-16000000D01*
X10400000Y-16000000D02*
X11800000Y-14600000D01*
X11800000Y-14600000D02*
X11800000Y-13200000D01*
%TO.N,/UPDI*%
X5246000Y-13635000D02*
X4900000Y-13981000D01*
X4900000Y-13981000D02*
X4900000Y-14500000D01*
X9000000Y-13635000D02*
X5246000Y-13635000D01*
%TO.N,/ISENSE*%
D20*
X12700000Y-11150000D02*
X12700000Y-14400000D01*
X10500000Y-12015000D02*
X10500000Y-11150000D01*
X12700000Y-14400000D02*
X12325000Y-14775000D01*
X12325000Y-14775000D02*
X12325000Y-16399999D01*
X12350000Y-10800000D02*
X12700000Y-11150000D01*
X9400000Y-12365000D02*
X10150000Y-12365000D01*
X10850000Y-10800000D02*
X12350000Y-10800000D01*
X10150000Y-12365000D02*
X10500000Y-12015000D01*
X10500000Y-11150000D02*
X10850000Y-10800000D01*
%TO.N,/BATT+*%
D21*
X800000Y-4149999D02*
X1150000Y-3800000D01*
D18*
X9540000Y-7700000D02*
X9300000Y-7700000D01*
X10500000Y-2000000D02*
X9700000Y-2800000D01*
X17000000Y-5140000D02*
X17000000Y-2800000D01*
D21*
X800000Y-4800000D02*
X800000Y-4149999D01*
D18*
X9700000Y-7540000D02*
X9540000Y-7700000D01*
X17000000Y-2800000D02*
X16200000Y-2000000D01*
X21100000Y-5940000D02*
X17800000Y-5940000D01*
D21*
X6550000Y-3800000D02*
X7350000Y-4600000D01*
X1150000Y-3800000D02*
X6550000Y-3800000D01*
D18*
X9700000Y-2800000D02*
X9700000Y-7540000D01*
D17*
X9700000Y-4600000D02*
X7350000Y-4600000D01*
D18*
X17800000Y-5940000D02*
X17000000Y-5140000D01*
X16200000Y-2000000D02*
X10500000Y-2000000D01*
%TO.N,/OUT2*%
D22*
X16680000Y-12780000D02*
X17320000Y-12780000D01*
X16200000Y-12300000D02*
X16680000Y-12780000D01*
X17320000Y-12780000D02*
X18100000Y-12000000D01*
X18100000Y-12000000D02*
X21100000Y-12000000D01*
%TD*%
%TA.AperFunction,Conductor*%
%TO.N,/GND*%
G36*
X24609191Y-368907D02*
G01*
X24645155Y-418407D01*
X24650000Y-449000D01*
X24650000Y-23551000D01*
X24631093Y-23609191D01*
X24581593Y-23645155D01*
X24551000Y-23650000D01*
X449000Y-23650000D01*
X390809Y-23631093D01*
X354845Y-23581593D01*
X350000Y-23551000D01*
X350000Y-17657147D01*
X674500Y-17657147D01*
X674500Y-21607147D01*
X674500Y-21692853D01*
X694062Y-21765863D01*
X696683Y-21775643D01*
X739531Y-21849857D01*
X739535Y-21849862D01*
X1086072Y-22196398D01*
X1086077Y-22196404D01*
X1086078Y-22196404D01*
X1089533Y-22199859D01*
X1089535Y-22199862D01*
X1150138Y-22260465D01*
X1187247Y-22281889D01*
X1187249Y-22281891D01*
X1217527Y-22299372D01*
X1224361Y-22303318D01*
X1307147Y-22325501D01*
X1307149Y-22325501D01*
X1398916Y-22325501D01*
X1398932Y-22325500D01*
X7950656Y-22325500D01*
X7960595Y-22326000D01*
X7967020Y-22326647D01*
X7967026Y-22326649D01*
X8003457Y-22325544D01*
X8006455Y-22325500D01*
X8042846Y-22325500D01*
X8042853Y-22325500D01*
X8042859Y-22325498D01*
X8047807Y-22324846D01*
X8052688Y-22324053D01*
X8052692Y-22324053D01*
X8087615Y-22313550D01*
X8090405Y-22312757D01*
X8125638Y-22303318D01*
X8125645Y-22303313D01*
X8130217Y-22301420D01*
X8134755Y-22299376D01*
X8134768Y-22299373D01*
X8165768Y-22280199D01*
X8168290Y-22278691D01*
X8199862Y-22260465D01*
X8199866Y-22260460D01*
X8203785Y-22257454D01*
X8207654Y-22254294D01*
X8207659Y-22254292D01*
X8232652Y-22227735D01*
X8234675Y-22225651D01*
X8260465Y-22199862D01*
X8260467Y-22199857D01*
X8264393Y-22194742D01*
X8270841Y-22187158D01*
X8840734Y-21581648D01*
X8894384Y-21552233D01*
X8912826Y-21550500D01*
X10669747Y-21550500D01*
X10669748Y-21550500D01*
X10728231Y-21538867D01*
X10794552Y-21494552D01*
X10838867Y-21428231D01*
X10850500Y-21369748D01*
X10850500Y-19480253D01*
X14199500Y-19480253D01*
X14199500Y-21319746D01*
X14199501Y-21319758D01*
X14211132Y-21378227D01*
X14211134Y-21378233D01*
X14255445Y-21444548D01*
X14255448Y-21444552D01*
X14321769Y-21488867D01*
X14366231Y-21497711D01*
X14380241Y-21500498D01*
X14380246Y-21500498D01*
X14380252Y-21500500D01*
X14380253Y-21500500D01*
X16219747Y-21500500D01*
X16219748Y-21500500D01*
X16278231Y-21488867D01*
X16344552Y-21444552D01*
X16388867Y-21378231D01*
X16400500Y-21319748D01*
X16400500Y-20313385D01*
X16739500Y-20313385D01*
X16739500Y-20486614D01*
X16766597Y-20657702D01*
X16766598Y-20657706D01*
X16820123Y-20822438D01*
X16820125Y-20822441D01*
X16820126Y-20822444D01*
X16820127Y-20822445D01*
X16898768Y-20976788D01*
X17000586Y-21116928D01*
X17123072Y-21239414D01*
X17263212Y-21341232D01*
X17417555Y-21419873D01*
X17417557Y-21419873D01*
X17417558Y-21419874D01*
X17417561Y-21419876D01*
X17582293Y-21473401D01*
X17582297Y-21473402D01*
X17753386Y-21500500D01*
X17753389Y-21500500D01*
X17926614Y-21500500D01*
X18097702Y-21473402D01*
X18097706Y-21473401D01*
X18262438Y-21419876D01*
X18262440Y-21419874D01*
X18262445Y-21419873D01*
X18416788Y-21341232D01*
X18556928Y-21239414D01*
X18679414Y-21116928D01*
X18781232Y-20976788D01*
X18859873Y-20822445D01*
X18859874Y-20822440D01*
X18859876Y-20822438D01*
X18913401Y-20657706D01*
X18913402Y-20657702D01*
X18940500Y-20486614D01*
X18940500Y-20313385D01*
X18913402Y-20142297D01*
X18913401Y-20142293D01*
X18859876Y-19977561D01*
X18859874Y-19977558D01*
X18859873Y-19977557D01*
X18859873Y-19977555D01*
X18781232Y-19823212D01*
X18679414Y-19683072D01*
X18556928Y-19560586D01*
X18416788Y-19458768D01*
X18416787Y-19458767D01*
X18416785Y-19458766D01*
X18262441Y-19380125D01*
X18262438Y-19380123D01*
X18097706Y-19326598D01*
X18097702Y-19326597D01*
X17926614Y-19299500D01*
X17926611Y-19299500D01*
X17753389Y-19299500D01*
X17753386Y-19299500D01*
X17582297Y-19326597D01*
X17582293Y-19326598D01*
X17417561Y-19380123D01*
X17417558Y-19380125D01*
X17263214Y-19458766D01*
X17123073Y-19560585D01*
X17000585Y-19683073D01*
X16898766Y-19823214D01*
X16820125Y-19977558D01*
X16820123Y-19977561D01*
X16766598Y-20142293D01*
X16766597Y-20142297D01*
X16739500Y-20313385D01*
X16400500Y-20313385D01*
X16400500Y-19480252D01*
X16388867Y-19421769D01*
X16344552Y-19355448D01*
X16301376Y-19326598D01*
X16278233Y-19311134D01*
X16278231Y-19311133D01*
X16278228Y-19311132D01*
X16278227Y-19311132D01*
X16219758Y-19299501D01*
X16219748Y-19299500D01*
X16219747Y-19299500D01*
X15799500Y-19299500D01*
X15741309Y-19280593D01*
X15705345Y-19231093D01*
X15700500Y-19200500D01*
X15700500Y-16815784D01*
X15703464Y-16815784D01*
X15712337Y-16767694D01*
X15729371Y-16744863D01*
X15780520Y-16693716D01*
X15838559Y-16593189D01*
X15843543Y-16584557D01*
X15843547Y-16584549D01*
X15843570Y-16584510D01*
X15859575Y-16556789D01*
X15859575Y-16556786D01*
X15859577Y-16556784D01*
X15880280Y-16479520D01*
X15900500Y-16404062D01*
X15900501Y-16245947D01*
X15900500Y-16245943D01*
X15900500Y-12947322D01*
X15919407Y-12889131D01*
X15968907Y-12853167D01*
X16030093Y-12853167D01*
X16069504Y-12877318D01*
X16279500Y-13087314D01*
X16279499Y-13087314D01*
X16372685Y-13180499D01*
X16372690Y-13180503D01*
X16486810Y-13246390D01*
X16486808Y-13246390D01*
X16486812Y-13246391D01*
X16486814Y-13246392D01*
X16614108Y-13280500D01*
X16614110Y-13280500D01*
X17385890Y-13280500D01*
X17385892Y-13280500D01*
X17513186Y-13246392D01*
X17513188Y-13246390D01*
X17513190Y-13246390D01*
X17627309Y-13180503D01*
X17627309Y-13180502D01*
X17627314Y-13180500D01*
X18278318Y-12529496D01*
X18332835Y-12501719D01*
X18348322Y-12500500D01*
X19890880Y-12500500D01*
X19949071Y-12519407D01*
X19979090Y-12554555D01*
X20005027Y-12605460D01*
X20030476Y-12655405D01*
X20146172Y-12814646D01*
X20285354Y-12953828D01*
X20444595Y-13069524D01*
X20444597Y-13069525D01*
X20508902Y-13102290D01*
X20552167Y-13145555D01*
X20561738Y-13205987D01*
X20533961Y-13260504D01*
X20479444Y-13288281D01*
X20463957Y-13289500D01*
X20030252Y-13289500D01*
X20030251Y-13289500D01*
X20030241Y-13289501D01*
X19971772Y-13301132D01*
X19971766Y-13301134D01*
X19905451Y-13345445D01*
X19905445Y-13345451D01*
X19861134Y-13411766D01*
X19861132Y-13411772D01*
X19849501Y-13470241D01*
X19849500Y-13470253D01*
X19849500Y-15609746D01*
X19849501Y-15609758D01*
X19861132Y-15668227D01*
X19861134Y-15668233D01*
X19877476Y-15692690D01*
X19905448Y-15734552D01*
X19971769Y-15778867D01*
X20016231Y-15787711D01*
X20030241Y-15790498D01*
X20030246Y-15790498D01*
X20030252Y-15790500D01*
X20030253Y-15790500D01*
X22169747Y-15790500D01*
X22169748Y-15790500D01*
X22228231Y-15778867D01*
X22294552Y-15734552D01*
X22338867Y-15668231D01*
X22350500Y-15609748D01*
X22350500Y-13470252D01*
X22349627Y-13465865D01*
X22343542Y-13435272D01*
X22338867Y-13411769D01*
X22294552Y-13345448D01*
X22273952Y-13331683D01*
X22228233Y-13301134D01*
X22228231Y-13301133D01*
X22228228Y-13301132D01*
X22228227Y-13301132D01*
X22169758Y-13289501D01*
X22169748Y-13289500D01*
X21736043Y-13289500D01*
X21677852Y-13270593D01*
X21641888Y-13221093D01*
X21641888Y-13159907D01*
X21677852Y-13110407D01*
X21691098Y-13102290D01*
X21720490Y-13087314D01*
X21755405Y-13069524D01*
X21914646Y-12953828D01*
X22053828Y-12814646D01*
X22169524Y-12655405D01*
X22258884Y-12480025D01*
X22319709Y-12292826D01*
X22326412Y-12250504D01*
X22350500Y-12098420D01*
X22350500Y-11901579D01*
X22319710Y-11707178D01*
X22284722Y-11599496D01*
X22258884Y-11519975D01*
X22169524Y-11344595D01*
X22053828Y-11185354D01*
X21914646Y-11046172D01*
X21755405Y-10930476D01*
X21755404Y-10930475D01*
X21755402Y-10930474D01*
X21580025Y-10841116D01*
X21392821Y-10780289D01*
X21198420Y-10749500D01*
X21198417Y-10749500D01*
X21001583Y-10749500D01*
X21001580Y-10749500D01*
X20807178Y-10780289D01*
X20619974Y-10841116D01*
X20444597Y-10930474D01*
X20285355Y-11046171D01*
X20146171Y-11185355D01*
X20030474Y-11344597D01*
X19979090Y-11445445D01*
X19935825Y-11488710D01*
X19890880Y-11499500D01*
X18165893Y-11499500D01*
X18034108Y-11499500D01*
X17957697Y-11519974D01*
X17906809Y-11533609D01*
X17792690Y-11599496D01*
X17141682Y-12250504D01*
X17087165Y-12278281D01*
X17071678Y-12279500D01*
X16928322Y-12279500D01*
X16870131Y-12260593D01*
X16858319Y-12250504D01*
X16507314Y-11899500D01*
X16507309Y-11899496D01*
X16393189Y-11833609D01*
X16393191Y-11833609D01*
X16343799Y-11820375D01*
X16265892Y-11799500D01*
X16134108Y-11799500D01*
X16092438Y-11810665D01*
X16025122Y-11828702D01*
X15964021Y-11825499D01*
X15916471Y-11786994D01*
X15900500Y-11733075D01*
X15900500Y-8520944D01*
X15896714Y-8506814D01*
X15859577Y-8368216D01*
X15780520Y-8231284D01*
X15668716Y-8119480D01*
X15531784Y-8040423D01*
X15379057Y-7999500D01*
X15220943Y-7999500D01*
X15068216Y-8040423D01*
X14931284Y-8119480D01*
X14819480Y-8231284D01*
X14740423Y-8368216D01*
X14699500Y-8520944D01*
X14699500Y-16082665D01*
X14686236Y-16132166D01*
X14665424Y-16168211D01*
X14665423Y-16168213D01*
X14624500Y-16320934D01*
X14624499Y-16320938D01*
X14624499Y-16400499D01*
X14624499Y-16479052D01*
X14652769Y-16584557D01*
X14665423Y-16631782D01*
X14744476Y-16768709D01*
X14744477Y-16768711D01*
X14804281Y-16828516D01*
X14829904Y-16872896D01*
X14851793Y-16954588D01*
X14886236Y-17014245D01*
X14899500Y-17063744D01*
X14899500Y-19200500D01*
X14880593Y-19258691D01*
X14831093Y-19294655D01*
X14800500Y-19299500D01*
X14380252Y-19299500D01*
X14380251Y-19299500D01*
X14380241Y-19299501D01*
X14321772Y-19311132D01*
X14321766Y-19311134D01*
X14255451Y-19355445D01*
X14255445Y-19355451D01*
X14211134Y-19421766D01*
X14211132Y-19421772D01*
X14199501Y-19480241D01*
X14199500Y-19480253D01*
X10850500Y-19480253D01*
X10850500Y-19230252D01*
X10838867Y-19171769D01*
X10794552Y-19105448D01*
X10794548Y-19105445D01*
X10728233Y-19061134D01*
X10728231Y-19061133D01*
X10728228Y-19061132D01*
X10728227Y-19061132D01*
X10669758Y-19049501D01*
X10669748Y-19049500D01*
X8530252Y-19049500D01*
X8530251Y-19049500D01*
X8530241Y-19049501D01*
X8471772Y-19061132D01*
X8471766Y-19061134D01*
X8405451Y-19105445D01*
X8405445Y-19105451D01*
X8361134Y-19171766D01*
X8361132Y-19171772D01*
X8349501Y-19230241D01*
X8349500Y-19230253D01*
X8349500Y-21114464D01*
X8330593Y-21172655D01*
X8322592Y-21182315D01*
X7888677Y-21643351D01*
X7835027Y-21672767D01*
X7816585Y-21674500D01*
X3751600Y-21674500D01*
X3693409Y-21655593D01*
X3657445Y-21606093D01*
X3657445Y-21544907D01*
X3688447Y-21502236D01*
X3687657Y-21501446D01*
X3692646Y-21496456D01*
X3693409Y-21495407D01*
X3694355Y-21494747D01*
X3694545Y-21494556D01*
X3694552Y-21494552D01*
X3738867Y-21428231D01*
X3750500Y-21369748D01*
X3750500Y-19230252D01*
X3738867Y-19171769D01*
X3694552Y-19105448D01*
X3694548Y-19105445D01*
X3628233Y-19061134D01*
X3628231Y-19061133D01*
X3628228Y-19061132D01*
X3628227Y-19061132D01*
X3569758Y-19049501D01*
X3569748Y-19049500D01*
X1430252Y-19049500D01*
X1425388Y-19049500D01*
X1425388Y-19047187D01*
X1374396Y-19035972D01*
X1333777Y-18990215D01*
X1325500Y-18950587D01*
X1325500Y-17875834D01*
X1344407Y-17817643D01*
X1354496Y-17805830D01*
X1930830Y-17229496D01*
X1985347Y-17201719D01*
X2000834Y-17200500D01*
X2065890Y-17200500D01*
X2065892Y-17200500D01*
X2193186Y-17166392D01*
X2193188Y-17166390D01*
X2193190Y-17166390D01*
X2307309Y-17100503D01*
X2307309Y-17100502D01*
X2307314Y-17100500D01*
X2400500Y-17007314D01*
X2430940Y-16954590D01*
X2466390Y-16893190D01*
X2466390Y-16893188D01*
X2466392Y-16893186D01*
X2500500Y-16765892D01*
X2500500Y-16634108D01*
X2466392Y-16506814D01*
X2466390Y-16506811D01*
X2466390Y-16506809D01*
X2400503Y-16392690D01*
X2400501Y-16392688D01*
X2400500Y-16392686D01*
X2307314Y-16299500D01*
X2307311Y-16299498D01*
X2307309Y-16299496D01*
X2193189Y-16233609D01*
X2193191Y-16233609D01*
X2143799Y-16220375D01*
X2065892Y-16199500D01*
X1934108Y-16199500D01*
X1856200Y-16220375D01*
X1806809Y-16233609D01*
X1692690Y-16299496D01*
X1599496Y-16392690D01*
X1533609Y-16506809D01*
X1533608Y-16506814D01*
X1500124Y-16631782D01*
X1499500Y-16634109D01*
X1499500Y-16699165D01*
X1480593Y-16757356D01*
X1470504Y-16769169D01*
X739531Y-17500142D01*
X696682Y-17574360D01*
X696681Y-17574360D01*
X696682Y-17574361D01*
X696682Y-17574362D01*
X674500Y-17657147D01*
X350000Y-17657147D01*
X350000Y-15934108D01*
X2724500Y-15934108D01*
X2724500Y-16065892D01*
X2736102Y-16109192D01*
X2758609Y-16193190D01*
X2824496Y-16307309D01*
X2824498Y-16307311D01*
X2824500Y-16307314D01*
X2917686Y-16400500D01*
X2917688Y-16400501D01*
X2917690Y-16400503D01*
X3031810Y-16466390D01*
X3031808Y-16466390D01*
X3031812Y-16466391D01*
X3031814Y-16466392D01*
X3159108Y-16500500D01*
X3159110Y-16500500D01*
X3290890Y-16500500D01*
X3290892Y-16500500D01*
X3418186Y-16466392D01*
X3418188Y-16466390D01*
X3418190Y-16466390D01*
X3532309Y-16400503D01*
X3532310Y-16400502D01*
X3532314Y-16400500D01*
X3540128Y-16392686D01*
X3578319Y-16354496D01*
X3632836Y-16326719D01*
X3648322Y-16325500D01*
X10442851Y-16325500D01*
X10442853Y-16325500D01*
X10525639Y-16303318D01*
X10525641Y-16303316D01*
X10525643Y-16303316D01*
X10599857Y-16260468D01*
X10599857Y-16260467D01*
X10599862Y-16260465D01*
X11855498Y-15004828D01*
X11910013Y-14977053D01*
X11970445Y-14986624D01*
X12013710Y-15029889D01*
X12024500Y-15074834D01*
X12024500Y-15951678D01*
X12005593Y-16009869D01*
X11995509Y-16021675D01*
X11951295Y-16065890D01*
X11924497Y-16092688D01*
X11924496Y-16092689D01*
X11858609Y-16206808D01*
X11858608Y-16206813D01*
X11824500Y-16334107D01*
X11824500Y-16465891D01*
X11848855Y-16556785D01*
X11858609Y-16593189D01*
X11924496Y-16707308D01*
X11924498Y-16707310D01*
X11924500Y-16707313D01*
X12017686Y-16800499D01*
X12017688Y-16800500D01*
X12017690Y-16800502D01*
X12131810Y-16866389D01*
X12131808Y-16866389D01*
X12131812Y-16866390D01*
X12131814Y-16866391D01*
X12259108Y-16900499D01*
X12259110Y-16900499D01*
X12390890Y-16900499D01*
X12390892Y-16900499D01*
X12518186Y-16866391D01*
X12518188Y-16866389D01*
X12518190Y-16866389D01*
X12632309Y-16800502D01*
X12632309Y-16800501D01*
X12632314Y-16800499D01*
X12725500Y-16707313D01*
X12733350Y-16693716D01*
X12791390Y-16593189D01*
X12791390Y-16593187D01*
X12791392Y-16593185D01*
X12825500Y-16465891D01*
X12825500Y-16334107D01*
X12791392Y-16206813D01*
X12791390Y-16206810D01*
X12791390Y-16206808D01*
X12725503Y-16092689D01*
X12725501Y-16092687D01*
X12725500Y-16092685D01*
X12654494Y-16021679D01*
X12626719Y-15967165D01*
X12625500Y-15951678D01*
X12625500Y-14940478D01*
X12644407Y-14882287D01*
X12654490Y-14870480D01*
X12940460Y-14584511D01*
X12980021Y-14515989D01*
X13000500Y-14439562D01*
X13000500Y-11110438D01*
X12983280Y-11046172D01*
X12980022Y-11034012D01*
X12940460Y-10965489D01*
X12534511Y-10559540D01*
X12534508Y-10559538D01*
X12465992Y-10519980D01*
X12465988Y-10519978D01*
X12389564Y-10499500D01*
X12389562Y-10499500D01*
X10889562Y-10499500D01*
X10810438Y-10499500D01*
X10763661Y-10512033D01*
X10734007Y-10519979D01*
X10665493Y-10559536D01*
X10665488Y-10559540D01*
X10259539Y-10965489D01*
X10219980Y-11034007D01*
X10219978Y-11034011D01*
X10199500Y-11110435D01*
X10199500Y-11849521D01*
X10180593Y-11907712D01*
X10170504Y-11919525D01*
X10054525Y-12035504D01*
X10000008Y-12063281D01*
X9984521Y-12064500D01*
X9848321Y-12064500D01*
X9790130Y-12045593D01*
X9778323Y-12035509D01*
X9707314Y-11964500D01*
X9707311Y-11964498D01*
X9707309Y-11964496D01*
X9593189Y-11898609D01*
X9593191Y-11898609D01*
X9543799Y-11885375D01*
X9465892Y-11864500D01*
X9334108Y-11864500D01*
X9256200Y-11885375D01*
X9206809Y-11898609D01*
X9092690Y-11964496D01*
X8999496Y-12057690D01*
X8933609Y-12171809D01*
X8914539Y-12242978D01*
X8899500Y-12299108D01*
X8899500Y-12430892D01*
X8912665Y-12480025D01*
X8933609Y-12558190D01*
X8999496Y-12672309D01*
X8999498Y-12672311D01*
X8999500Y-12672314D01*
X9092686Y-12765500D01*
X9092688Y-12765501D01*
X9092690Y-12765503D01*
X9206810Y-12831390D01*
X9206808Y-12831390D01*
X9206812Y-12831391D01*
X9206814Y-12831392D01*
X9334108Y-12865500D01*
X9334110Y-12865500D01*
X9465890Y-12865500D01*
X9465892Y-12865500D01*
X9593186Y-12831392D01*
X9593188Y-12831390D01*
X9593190Y-12831390D01*
X9707309Y-12765503D01*
X9707309Y-12765502D01*
X9707314Y-12765500D01*
X9778319Y-12694494D01*
X9832834Y-12666719D01*
X9848321Y-12665500D01*
X10189563Y-12665500D01*
X10189563Y-12665499D01*
X10265989Y-12645021D01*
X10334511Y-12605460D01*
X10362485Y-12577485D01*
X10390461Y-12549511D01*
X10647150Y-12292821D01*
X10740460Y-12199511D01*
X10780022Y-12130988D01*
X10800500Y-12054562D01*
X10800500Y-11975438D01*
X10800500Y-11315479D01*
X10819407Y-11257288D01*
X10829496Y-11245475D01*
X10945475Y-11129496D01*
X10999992Y-11101719D01*
X11015479Y-11100500D01*
X12184521Y-11100500D01*
X12242712Y-11119407D01*
X12254525Y-11129496D01*
X12370504Y-11245475D01*
X12398281Y-11299992D01*
X12399500Y-11315479D01*
X12399500Y-12867890D01*
X12380593Y-12926081D01*
X12331093Y-12962045D01*
X12269907Y-12962045D01*
X12220407Y-12926081D01*
X12214764Y-12917391D01*
X12200501Y-12892688D01*
X12200500Y-12892686D01*
X12107314Y-12799500D01*
X12107311Y-12799498D01*
X12107309Y-12799496D01*
X11993189Y-12733609D01*
X11993191Y-12733609D01*
X11943799Y-12720375D01*
X11865892Y-12699500D01*
X11734108Y-12699500D01*
X11656200Y-12720375D01*
X11606809Y-12733609D01*
X11492690Y-12799496D01*
X11399496Y-12892690D01*
X11333609Y-13006809D01*
X11333608Y-13006814D01*
X11299500Y-13134108D01*
X11299500Y-13265892D01*
X11320816Y-13345445D01*
X11333609Y-13393190D01*
X11399496Y-13507309D01*
X11399498Y-13507311D01*
X11399500Y-13507314D01*
X11445505Y-13553319D01*
X11473281Y-13607834D01*
X11474500Y-13623321D01*
X11474500Y-14424165D01*
X11455593Y-14482356D01*
X11445504Y-14494169D01*
X10294169Y-15645504D01*
X10239652Y-15673281D01*
X10224165Y-15674500D01*
X3648322Y-15674500D01*
X3590131Y-15655593D01*
X3578319Y-15645504D01*
X3532315Y-15599500D01*
X3532309Y-15599496D01*
X3418189Y-15533609D01*
X3418191Y-15533609D01*
X3368799Y-15520375D01*
X3290892Y-15499500D01*
X3159108Y-15499500D01*
X3081200Y-15520375D01*
X3031809Y-15533609D01*
X2917690Y-15599496D01*
X2824496Y-15692690D01*
X2758609Y-15806809D01*
X2758608Y-15806814D01*
X2724500Y-15934108D01*
X350000Y-15934108D01*
X350000Y-14434108D01*
X4399500Y-14434108D01*
X4399500Y-14565892D01*
X4404489Y-14584511D01*
X4433609Y-14693190D01*
X4499496Y-14807309D01*
X4499498Y-14807311D01*
X4499500Y-14807314D01*
X4592686Y-14900500D01*
X4592688Y-14900501D01*
X4592690Y-14900503D01*
X4706810Y-14966390D01*
X4706808Y-14966390D01*
X4706812Y-14966391D01*
X4706814Y-14966392D01*
X4834108Y-15000500D01*
X4834110Y-15000500D01*
X4965890Y-15000500D01*
X4965892Y-15000500D01*
X5093186Y-14966392D01*
X5093188Y-14966390D01*
X5093190Y-14966390D01*
X5207309Y-14900503D01*
X5207309Y-14900502D01*
X5207314Y-14900500D01*
X5300500Y-14807314D01*
X5366392Y-14693186D01*
X5400500Y-14565892D01*
X5400500Y-14434108D01*
X5366392Y-14306814D01*
X5366390Y-14306811D01*
X5366390Y-14306809D01*
X5300503Y-14192690D01*
X5300497Y-14192683D01*
X5294571Y-14186756D01*
X5266796Y-14132238D01*
X5276370Y-14071807D01*
X5294575Y-14046752D01*
X5351832Y-13989496D01*
X5406349Y-13961719D01*
X5421835Y-13960500D01*
X8576678Y-13960500D01*
X8634869Y-13979407D01*
X8646681Y-13989496D01*
X8692684Y-14035499D01*
X8692690Y-14035503D01*
X8806810Y-14101390D01*
X8806808Y-14101390D01*
X8806812Y-14101391D01*
X8806814Y-14101392D01*
X8934108Y-14135500D01*
X8934110Y-14135500D01*
X9065890Y-14135500D01*
X9065892Y-14135500D01*
X9193186Y-14101392D01*
X9193188Y-14101390D01*
X9193190Y-14101390D01*
X9307309Y-14035503D01*
X9307309Y-14035502D01*
X9307314Y-14035500D01*
X9400500Y-13942314D01*
X9402906Y-13938147D01*
X9466390Y-13828190D01*
X9466390Y-13828188D01*
X9466392Y-13828186D01*
X9500500Y-13700892D01*
X9500500Y-13569108D01*
X9466392Y-13441814D01*
X9466390Y-13441811D01*
X9466390Y-13441809D01*
X9400503Y-13327690D01*
X9400501Y-13327688D01*
X9400500Y-13327686D01*
X9307314Y-13234500D01*
X9307311Y-13234498D01*
X9307309Y-13234496D01*
X9193189Y-13168609D01*
X9193191Y-13168609D01*
X9143799Y-13155375D01*
X9065892Y-13134500D01*
X8934108Y-13134500D01*
X8856200Y-13155375D01*
X8806809Y-13168609D01*
X8692690Y-13234496D01*
X8692684Y-13234500D01*
X8646681Y-13280504D01*
X8592164Y-13308281D01*
X8576678Y-13309500D01*
X5288853Y-13309500D01*
X5203147Y-13309500D01*
X5152478Y-13323076D01*
X5120356Y-13331683D01*
X5046142Y-13374531D01*
X4639531Y-13781142D01*
X4596683Y-13855356D01*
X4574500Y-13938148D01*
X4574500Y-14076678D01*
X4555593Y-14134869D01*
X4545504Y-14146681D01*
X4499500Y-14192684D01*
X4499496Y-14192690D01*
X4433609Y-14306809D01*
X4420572Y-14355466D01*
X4399500Y-14434108D01*
X350000Y-14434108D01*
X350000Y-5289593D01*
X368907Y-5231402D01*
X418407Y-5195438D01*
X479593Y-5195438D01*
X498500Y-5203857D01*
X606810Y-5266390D01*
X606808Y-5266390D01*
X606812Y-5266391D01*
X606814Y-5266392D01*
X734108Y-5300500D01*
X734110Y-5300500D01*
X865890Y-5300500D01*
X865892Y-5300500D01*
X993186Y-5266392D01*
X993188Y-5266390D01*
X993190Y-5266390D01*
X1107309Y-5200503D01*
X1107309Y-5200502D01*
X1107314Y-5200500D01*
X1200500Y-5107314D01*
X1204434Y-5100500D01*
X1266390Y-4993190D01*
X1266390Y-4993188D01*
X1266392Y-4993186D01*
X1300500Y-4865892D01*
X1300500Y-4734108D01*
X1266392Y-4606814D01*
X1266390Y-4606811D01*
X1266390Y-4606809D01*
X1200503Y-4492690D01*
X1200498Y-4492684D01*
X1179495Y-4471680D01*
X1151719Y-4417163D01*
X1150500Y-4401678D01*
X1150500Y-4336188D01*
X1169407Y-4277997D01*
X1179497Y-4266184D01*
X1266186Y-4179496D01*
X1320703Y-4151719D01*
X1336189Y-4150500D01*
X6363810Y-4150500D01*
X6422001Y-4169407D01*
X6433814Y-4179496D01*
X6820504Y-4566186D01*
X6848281Y-4620703D01*
X6849500Y-4636190D01*
X6849500Y-4665892D01*
X6858943Y-4701133D01*
X6883609Y-4793190D01*
X6949496Y-4907309D01*
X6949498Y-4907311D01*
X6949500Y-4907314D01*
X7042686Y-5000500D01*
X7067391Y-5014763D01*
X7108332Y-5060233D01*
X7114728Y-5121083D01*
X7084135Y-5174071D01*
X7028240Y-5198958D01*
X7017891Y-5199500D01*
X6147273Y-5199500D01*
X6045413Y-5226793D01*
X6045412Y-5226793D01*
X6045410Y-5226794D01*
X6045409Y-5226794D01*
X5954089Y-5279518D01*
X5479516Y-5754091D01*
X5426793Y-5845411D01*
X5426792Y-5845411D01*
X5426793Y-5845412D01*
X5399500Y-5947273D01*
X5399500Y-8093098D01*
X5380593Y-8151289D01*
X5370504Y-8163102D01*
X5263102Y-8270504D01*
X5208585Y-8298281D01*
X5193098Y-8299500D01*
X3558840Y-8299500D01*
X3509341Y-8286236D01*
X3418186Y-8233608D01*
X3290892Y-8199500D01*
X3159108Y-8199500D01*
X3081200Y-8220375D01*
X3031809Y-8233609D01*
X2917690Y-8299496D01*
X2824496Y-8392690D01*
X2758609Y-8506809D01*
X2758608Y-8506814D01*
X2724500Y-8634108D01*
X2724500Y-8765892D01*
X2754579Y-8878151D01*
X2758609Y-8893190D01*
X2824496Y-9007309D01*
X2824498Y-9007311D01*
X2824500Y-9007314D01*
X2917686Y-9100500D01*
X2917688Y-9100501D01*
X2917690Y-9100503D01*
X3031810Y-9166390D01*
X3031808Y-9166390D01*
X3031812Y-9166391D01*
X3031814Y-9166392D01*
X3159108Y-9200500D01*
X3159110Y-9200500D01*
X3290890Y-9200500D01*
X3290892Y-9200500D01*
X3418186Y-9166392D01*
X3509341Y-9113763D01*
X3558840Y-9100500D01*
X5452724Y-9100500D01*
X5452726Y-9100500D01*
X5554587Y-9073207D01*
X5554589Y-9073205D01*
X5554591Y-9073205D01*
X5645907Y-9020483D01*
X5645907Y-9020482D01*
X5645912Y-9020480D01*
X6120480Y-8545912D01*
X6120483Y-8545907D01*
X6173205Y-8454591D01*
X6173205Y-8454589D01*
X6173207Y-8454587D01*
X6200500Y-8352726D01*
X6200500Y-8247272D01*
X6200500Y-6206901D01*
X6219407Y-6148710D01*
X6229496Y-6136897D01*
X6336897Y-6029496D01*
X6391414Y-6001719D01*
X6406901Y-6000500D01*
X7166160Y-6000500D01*
X7215658Y-6013763D01*
X7306814Y-6066392D01*
X7434108Y-6100500D01*
X7434110Y-6100500D01*
X7565890Y-6100500D01*
X7565892Y-6100500D01*
X7693186Y-6066392D01*
X7693188Y-6066390D01*
X7693190Y-6066390D01*
X7807309Y-6000503D01*
X7807309Y-6000502D01*
X7807314Y-6000500D01*
X7900500Y-5907314D01*
X7966392Y-5793186D01*
X8000500Y-5665892D01*
X8000500Y-5534108D01*
X7966392Y-5406814D01*
X7966390Y-5406811D01*
X7966390Y-5406809D01*
X7900503Y-5292690D01*
X7900501Y-5292688D01*
X7900500Y-5292686D01*
X7807314Y-5199500D01*
X7782608Y-5185236D01*
X7741668Y-5139767D01*
X7735272Y-5078917D01*
X7765865Y-5025929D01*
X7821760Y-5001042D01*
X7832109Y-5000500D01*
X9000500Y-5000500D01*
X9058691Y-5019407D01*
X9094655Y-5068907D01*
X9099500Y-5099500D01*
X9099500Y-7065203D01*
X9080593Y-7123394D01*
X9050000Y-7150939D01*
X8931286Y-7219478D01*
X8931284Y-7219480D01*
X8819480Y-7331284D01*
X8740423Y-7468216D01*
X8699500Y-7620943D01*
X8699500Y-7779057D01*
X8740423Y-7931784D01*
X8819480Y-8068716D01*
X8931284Y-8180520D01*
X9068216Y-8259577D01*
X9220943Y-8300500D01*
X9454864Y-8300500D01*
X9454880Y-8300501D01*
X9460943Y-8300501D01*
X9619055Y-8300501D01*
X9619057Y-8300501D01*
X9771785Y-8259577D01*
X9771787Y-8259575D01*
X9771789Y-8259575D01*
X9816762Y-8233609D01*
X9828568Y-8226793D01*
X9908716Y-8180520D01*
X10020520Y-8068716D01*
X10020521Y-8068713D01*
X10068713Y-8020521D01*
X10068716Y-8020520D01*
X10180520Y-7908716D01*
X10217381Y-7844869D01*
X10255347Y-7779112D01*
X10255360Y-7779087D01*
X10255378Y-7779057D01*
X10259577Y-7771785D01*
X10300500Y-7619057D01*
X10300500Y-7460943D01*
X10300500Y-3089743D01*
X10319407Y-3031552D01*
X10329496Y-3019739D01*
X10719739Y-2629496D01*
X10774256Y-2601719D01*
X10789743Y-2600500D01*
X15910257Y-2600500D01*
X15968448Y-2619407D01*
X15980261Y-2629496D01*
X16370504Y-3019739D01*
X16398281Y-3074256D01*
X16399500Y-3089743D01*
X16399500Y-5054863D01*
X16399499Y-5054881D01*
X16399499Y-5060943D01*
X16399499Y-5219057D01*
X16440423Y-5371785D01*
X16440424Y-5371786D01*
X16460647Y-5406814D01*
X16460646Y-5406814D01*
X16519478Y-5508713D01*
X16519480Y-5508716D01*
X16631284Y-5620520D01*
X16631286Y-5620521D01*
X17319478Y-6308713D01*
X17319480Y-6308716D01*
X17431284Y-6420520D01*
X17431286Y-6420521D01*
X17431289Y-6420524D01*
X17431288Y-6420524D01*
X17518091Y-6470637D01*
X17518093Y-6470639D01*
X17518094Y-6470639D01*
X17547032Y-6487346D01*
X17568215Y-6499577D01*
X17720943Y-6540501D01*
X17720944Y-6540501D01*
X17885120Y-6540501D01*
X17885136Y-6540500D01*
X19750500Y-6540500D01*
X19808691Y-6559407D01*
X19844655Y-6608907D01*
X19849500Y-6639500D01*
X19849500Y-7009746D01*
X19849501Y-7009758D01*
X19861132Y-7068227D01*
X19861134Y-7068233D01*
X19905445Y-7134548D01*
X19905448Y-7134552D01*
X19971769Y-7178867D01*
X20016231Y-7187711D01*
X20030241Y-7190498D01*
X20030246Y-7190498D01*
X20030252Y-7190500D01*
X20030253Y-7190500D01*
X22169747Y-7190500D01*
X22169748Y-7190500D01*
X22228231Y-7178867D01*
X22294552Y-7134552D01*
X22338867Y-7068231D01*
X22350500Y-7009748D01*
X22350500Y-4870252D01*
X22338867Y-4811769D01*
X22294552Y-4745448D01*
X22294548Y-4745445D01*
X22228233Y-4701134D01*
X22228231Y-4701133D01*
X22228228Y-4701132D01*
X22228227Y-4701132D01*
X22169758Y-4689501D01*
X22169748Y-4689500D01*
X20030252Y-4689500D01*
X20030251Y-4689500D01*
X20030241Y-4689501D01*
X19971772Y-4701132D01*
X19971766Y-4701134D01*
X19905451Y-4745445D01*
X19905445Y-4745451D01*
X19861134Y-4811766D01*
X19861132Y-4811772D01*
X19849501Y-4870241D01*
X19849500Y-4870253D01*
X19849500Y-5240500D01*
X19830593Y-5298691D01*
X19781093Y-5334655D01*
X19750500Y-5339500D01*
X18089743Y-5339500D01*
X18031552Y-5320593D01*
X18019739Y-5310504D01*
X17629496Y-4920261D01*
X17601719Y-4865744D01*
X17600500Y-4850257D01*
X17600500Y-2887044D01*
X17600501Y-2887031D01*
X17600501Y-2720943D01*
X17559577Y-2568215D01*
X17559576Y-2568214D01*
X17559573Y-2568209D01*
X17547346Y-2547032D01*
X17530639Y-2518094D01*
X17530639Y-2518093D01*
X17530637Y-2518091D01*
X17480524Y-2431289D01*
X17480521Y-2431286D01*
X17480520Y-2431284D01*
X17368716Y-2319480D01*
X17368713Y-2319478D01*
X16680521Y-1631286D01*
X16680520Y-1631284D01*
X16568716Y-1519480D01*
X16568713Y-1519478D01*
X16479878Y-1468189D01*
X16479875Y-1468188D01*
X16431788Y-1440424D01*
X16431785Y-1440423D01*
X16279057Y-1399499D01*
X16120943Y-1399499D01*
X16114880Y-1399499D01*
X16114864Y-1399500D01*
X10585136Y-1399500D01*
X10585120Y-1399499D01*
X10579057Y-1399499D01*
X10420943Y-1399499D01*
X10268215Y-1440423D01*
X10268213Y-1440423D01*
X10268213Y-1440424D01*
X10220123Y-1468189D01*
X10220122Y-1468188D01*
X10131284Y-1519479D01*
X10019479Y-1631283D01*
X10019480Y-1631284D01*
X10019478Y-1631286D01*
X9331286Y-2319478D01*
X9331284Y-2319480D01*
X9331283Y-2319479D01*
X9219479Y-2431284D01*
X9169359Y-2518095D01*
X9140425Y-2568209D01*
X9140423Y-2568213D01*
X9140423Y-2568215D01*
X9099499Y-2720943D01*
X9099499Y-2720945D01*
X9099499Y-2887031D01*
X9099500Y-2887044D01*
X9099500Y-4100500D01*
X9080593Y-4158691D01*
X9031093Y-4194655D01*
X9000500Y-4199500D01*
X7683840Y-4199500D01*
X7634341Y-4186236D01*
X7543186Y-4133608D01*
X7415892Y-4099500D01*
X7415890Y-4099500D01*
X7386190Y-4099500D01*
X7327999Y-4080593D01*
X7316186Y-4070504D01*
X7110992Y-3865310D01*
X6765212Y-3519530D01*
X6685288Y-3473386D01*
X6596144Y-3449500D01*
X1103856Y-3449500D01*
X1049297Y-3464118D01*
X1014707Y-3473387D01*
X985458Y-3490274D01*
X985459Y-3490275D01*
X934787Y-3519530D01*
X519003Y-3935314D01*
X464487Y-3963091D01*
X404055Y-3953520D01*
X360790Y-3910255D01*
X350000Y-3865310D01*
X350000Y-1731004D01*
X2899500Y-1731004D01*
X2899500Y-1868995D01*
X2926420Y-2004327D01*
X2926420Y-2004329D01*
X2979222Y-2131806D01*
X2979228Y-2131817D01*
X3055885Y-2246541D01*
X3153458Y-2344114D01*
X3268182Y-2420771D01*
X3268193Y-2420777D01*
X3293560Y-2431284D01*
X3395672Y-2473580D01*
X3531007Y-2500500D01*
X3531008Y-2500500D01*
X3668992Y-2500500D01*
X3668993Y-2500500D01*
X3804328Y-2473580D01*
X3931811Y-2420775D01*
X4046542Y-2344114D01*
X4144114Y-2246542D01*
X4220775Y-2131811D01*
X4273580Y-2004328D01*
X4300500Y-1868993D01*
X4300500Y-1731007D01*
X4300499Y-1731004D01*
X5899500Y-1731004D01*
X5899500Y-1868995D01*
X5926420Y-2004327D01*
X5926420Y-2004329D01*
X5979222Y-2131806D01*
X5979228Y-2131817D01*
X6055885Y-2246541D01*
X6153458Y-2344114D01*
X6268182Y-2420771D01*
X6268193Y-2420777D01*
X6293560Y-2431284D01*
X6395672Y-2473580D01*
X6531007Y-2500500D01*
X6531008Y-2500500D01*
X6668992Y-2500500D01*
X6668993Y-2500500D01*
X6804328Y-2473580D01*
X6931811Y-2420775D01*
X7046542Y-2344114D01*
X7144114Y-2246542D01*
X7220775Y-2131811D01*
X7273580Y-2004328D01*
X7300500Y-1868993D01*
X7300500Y-1731007D01*
X7273580Y-1595672D01*
X7220775Y-1468189D01*
X7220774Y-1468188D01*
X7220771Y-1468182D01*
X7144114Y-1353458D01*
X7046541Y-1255885D01*
X6931817Y-1179228D01*
X6931806Y-1179222D01*
X6804328Y-1126420D01*
X6668995Y-1099500D01*
X6668993Y-1099500D01*
X6531007Y-1099500D01*
X6531004Y-1099500D01*
X6395672Y-1126420D01*
X6395670Y-1126420D01*
X6268193Y-1179222D01*
X6268182Y-1179228D01*
X6153458Y-1255885D01*
X6055885Y-1353458D01*
X5979228Y-1468182D01*
X5979225Y-1468189D01*
X5926420Y-1595670D01*
X5926420Y-1595672D01*
X5899500Y-1731004D01*
X4300499Y-1731004D01*
X4273580Y-1595672D01*
X4220775Y-1468189D01*
X4220774Y-1468188D01*
X4220771Y-1468182D01*
X4144114Y-1353458D01*
X4046541Y-1255885D01*
X3931817Y-1179228D01*
X3931806Y-1179222D01*
X3804328Y-1126420D01*
X3668995Y-1099500D01*
X3668993Y-1099500D01*
X3531007Y-1099500D01*
X3531004Y-1099500D01*
X3395672Y-1126420D01*
X3395670Y-1126420D01*
X3268193Y-1179222D01*
X3268182Y-1179228D01*
X3153458Y-1255885D01*
X3055885Y-1353458D01*
X2979228Y-1468182D01*
X2979225Y-1468189D01*
X2926420Y-1595670D01*
X2926420Y-1595672D01*
X2899500Y-1731004D01*
X350000Y-1731004D01*
X350000Y-449000D01*
X368907Y-390809D01*
X418407Y-354845D01*
X449000Y-350000D01*
X24551000Y-350000D01*
X24609191Y-368907D01*
G37*
%TD.AperFunction*%
%TD*%
M02*
